<?xml version="1.0" encoding="utf-8"?>
<!-- Generator: Adobe Illustrator 22.0.1, SVG Export Plug-In . SVG Version: 6.00 Build 0)  -->
<svg version="1.1" id="Layer_1" xmlns="http://www.w3.org/2000/svg" xmlns:xlink="http://www.w3.org/1999/xlink" x="0px" y="0px"
	 viewBox="0 0 66 79.7" style="enable-background:new 0 0 66 79.7;" xml:space="preserve">
<style type="text/css">
	.st0{fill:#556080;}
	.st1{fill:#4FBA6F;}
	.st2{fill:#FFFFFF;}
</style>
<title>shield</title>
<desc>Created with Sketch.</desc>
<g id="Page-1">
	<g id="Landing-page--v3" transform="translate(-783.000000, -512.000000)">
		<g id="shield" transform="translate(783.000000, 512.000000)">
			<path id="Shape" class="st0" d="M32.1,15.2c-2.5,2.1-10.5,7.7-25.2,8c-0.8,0-1.4,0.6-1.4,1.4v19.7c0,11.1,5.4,21.8,15.2,28.6
				c3.4,2.4,7.4,4.4,11.9,5.7c0.2,0.1,0.5,0.1,0.8,0c4.6-1.3,8.5-3.3,11.9-5.7c9.7-6.8,15.2-17.5,15.2-28.6V24.6
				c0-0.8-0.6-1.4-1.4-1.4c-14.7-0.3-22.7-5.9-25.2-8C33.4,14.7,32.6,14.7,32.1,15.2z"/>
			<path id="Shape_1_" class="st1" d="M33.7,74.2c-0.3,0.1-0.6,0.1-0.8,0c-3-1-5.9-2.5-8.7-4.3C14.9,64,9.4,54.3,9.4,44V27.9
				c0-0.7,0.5-1.2,1.2-1.3c11.2-0.8,17.3-3.4,22-6c0.4-0.2,0.8-0.2,1.2,0c4.7,2.7,10.9,6,21.4,6.4c0.7,0,1.2,0.6,1.2,1.3v15.9
				c0,10.2-5,19.9-14.2,25.8C39.6,71.8,36.2,73.3,33.7,74.2z"/>
		</g>
	</g>
	<path id="Check_1_" class="st2" d="M28.4,51.6l-5.8-3.9c-0.8-0.5-1.8-0.4-2.5,0.2L20,48c-0.9,0.9-0.8,2.3,0.2,3l7.4,5.5
		c1.2,0.9,2.9,0.8,4-0.3l16.6-16.4c0.8-0.8,0.8-2.1,0-2.8l0,0c-0.8-0.8-2-0.8-2.8,0L30.9,51.3C30.2,52,29.2,52.1,28.4,51.6z"/>
</g>
</svg>
