<?xml version="1.0" encoding="utf-8"?>
<!-- Generator: Adobe Illustrator 22.0.1, SVG Export Plug-In . SVG Version: 6.00 Build 0)  -->
<svg version="1.1" id="Layer_1" xmlns="http://www.w3.org/2000/svg" xmlns:xlink="http://www.w3.org/1999/xlink" x="0px" y="0px"
	 viewBox="0 0 678.6 558.7" style="enable-background:new 0 0 678.6 558.7;" xml:space="preserve">
<style type="text/css">
	.st0{fill:#6DA8D6;}
	.st1{fill:#F5C159;}
	.st2{fill:#2974A8;}
	.st3{fill:#F58038;}
	.st4{fill:#C1E8E6;}
	.st5{fill:#4FBA6F;}
	.st6{fill:#FFFFFF;}
</style>
<rect x="11.2" y="312.9" class="st0" width="483.3" height="234.5"/>
<path d="M337.2,366.8c-0.7,0-1.5-0.1-2.2-0.2s-1.4-0.4-2.1-0.6c-0.7-0.3-1.3-0.6-1.9-1s-1.2-0.9-1.7-1.4s-1-1.1-1.4-1.7
	s-0.8-1.3-1-1.9c-0.3-0.7-0.5-1.4-0.6-2.1s-0.2-1.5-0.2-2.2s0.1-1.5,0.2-2.2s0.4-1.4,0.6-2.1c0.3-0.7,0.6-1.3,1-1.9s0.9-1.2,1.4-1.7
	s1.1-1,1.7-1.4s1.3-0.8,1.9-1c0.7-0.3,1.4-0.5,2.1-0.6c1.5-0.3,2.9-0.3,4.4,0c0.7,0.1,1.4,0.4,2.1,0.6c0.7,0.3,1.3,0.6,1.9,1
	s1.2,0.9,1.7,1.4s1,1.1,1.4,1.7s0.8,1.3,1,1.9c0.3,0.7,0.5,1.4,0.7,2.1c0.1,0.7,0.2,1.5,0.2,2.2s-0.1,1.5-0.2,2.2s-0.4,1.4-0.7,2.1
	c-0.3,0.7-0.6,1.3-1,1.9s-0.9,1.2-1.4,1.7s-1.1,1-1.7,1.4s-1.3,0.8-1.9,1c-0.7,0.3-1.4,0.5-2.1,0.6
	C338.6,366.8,337.9,366.8,337.2,366.8z"/>
<path d="M168.6,366.8c-0.7,0-1.5-0.1-2.2-0.2s-1.4-0.4-2.1-0.6c-0.7-0.3-1.3-0.6-1.9-1c-0.6-0.4-1.2-0.9-1.7-1.4
	c-2.1-2.1-3.3-5-3.3-7.9c0-0.7,0.1-1.5,0.2-2.2c0.1-0.7,0.4-1.4,0.6-2.1c0.3-0.7,0.6-1.3,1-1.9s0.9-1.2,1.4-1.7s1.1-1,1.7-1.4
	c0.6-0.4,1.3-0.8,1.9-1c0.7-0.3,1.4-0.5,2.1-0.6c1.4-0.3,2.9-0.3,4.4,0c0.7,0.1,1.4,0.4,2.1,0.6c0.7,0.3,1.3,0.6,1.9,1
	c0.6,0.4,1.2,0.9,1.7,1.4s1,1.1,1.4,1.7s0.8,1.3,1,1.9c0.3,0.7,0.5,1.4,0.6,2.1s0.2,1.5,0.2,2.2c0,3-1.2,5.9-3.3,7.9
	c-0.5,0.5-1.1,1-1.7,1.4c-0.6,0.4-1.3,0.8-1.9,1c-0.7,0.3-1.4,0.5-2.1,0.6C170.1,366.8,169.3,366.8,168.6,366.8z"/>
<rect x="252.5" y="57.9" class="st1" width="79.4" height="53.4"/>
<path class="st2" d="M382.5,259c-9-63.5-63.6-112.4-129.6-112.4l0,0c-66,0-120.6,48.9-129.6,112.4H382.5z"/>
<rect x="216.2" y="440.7" class="st3" width="73.3" height="106.7"/>
<rect x="62.2" y="352.8" class="st1" width="63.5" height="48.3"/>
<path d="M125.7,412.4H62.2c-6.2,0-11.2-5-11.2-11.2v-48.3c0-6.2,5-11.2,11.2-11.2h63.5c6.2,0,11.2,5,11.2,11.2v48.3
	C137,407.4,131.9,412.4,125.7,412.4z M73.5,389.9h41V364h-41V389.9z"/>
<rect x="62.2" y="453.1" class="st1" width="63.5" height="48.3"/>
<path d="M125.7,512.6H62.2c-6.2,0-11.2-5-11.2-11.2v-48.3c0-6.2,5-11.2,11.2-11.2h63.5c6.2,0,11.2,5,11.2,11.2v48.3
	C137,507.6,131.9,512.6,125.7,512.6z M73.5,490.2h41v-25.9h-41V490.2z"/>
<rect x="221.1" y="352.8" class="st1" width="63.5" height="48.3"/>
<path d="M284.6,412.4h-63.5c-6.2,0-11.2-5-11.2-11.2v-48.3c0-6.2,5-11.2,11.2-11.2h63.5c6.2,0,11.2,5,11.2,11.2v48.3
	C295.9,407.4,290.8,412.4,284.6,412.4z M232.4,389.9h41V364h-41V389.9z"/>
<rect x="380" y="352.8" class="st1" width="63.5" height="48.3"/>
<path d="M443.5,412.4H380c-6.2,0-11.2-5-11.2-11.2v-48.3c0-6.2,5-11.2,11.2-11.2h63.5c6.2,0,11.2,5,11.2,11.2v48.3
	C454.8,407.4,449.7,412.4,443.5,412.4z M391.3,389.9h41V364h-41V389.9z"/>
<rect x="380" y="453.1" class="st1" width="63.5" height="48.3"/>
<path d="M443.5,512.6H380c-6.2,0-11.2-5-11.2-11.2v-48.3c0-6.2,5-11.2,11.2-11.2h63.5c6.2,0,11.2,5,11.2,11.2v48.3
	C454.8,507.6,449.7,512.6,443.5,512.6z M391.3,490.2h41v-25.9h-41V490.2z"/>
<rect x="47.2" y="259" class="st4" width="411.4" height="53.9"/>
<path d="M494.5,301.7h-24.7V259c0-6.2-5-11.2-11.2-11.2H392c-6.4-29.8-22.3-57-45.4-77.2c-23.2-20.3-52.2-32.4-82.7-34.7v-13.2H332
	c6.2,0,11.2-5,11.2-11.2V57.9c0-6.2-5-11.2-11.2-11.2h-79.4c-6.2,0-11.2,5-11.2,11.2v27.7v25.7v24.5c-30.3,2.5-59,14.6-82,34.7
	c-23.2,20.3-39.1,47.4-45.4,77.2H47.2c-6.2,0-11.2,5-11.2,11.2v42.7H11.2c-6.2,0-11.2,5-11.2,11.2v234.5c0,6.2,5,11.2,11.2,11.2h205
	h73.3h205c6.2,0,11.2-5,11.2-11.2V312.9C505.8,306.7,500.7,301.7,494.5,301.7z M263.8,69.1h56.9V100h-56.9V85.6V69.1z M252.9,157.8
	c54.8,0,102.6,37.8,116,89.9h-232C150.3,195.7,198,157.8,252.9,157.8z M58.4,270.2h64.8h259.3h64.8v31.5H58.4V270.2z M227.5,536.2
	v-84.3h50.8v84.3H227.5z M483.3,536.2H348.4V392.7c0-6.2-5-11.2-11.2-11.2s-11.2,5-11.2,11.2v143.5h-25.2v-95.5
	c0-6.2-5-11.2-11.2-11.2h-73.3c-6.2,0-11.2,5-11.2,11.2v95.5h-25.2V392.7c0-6.2-5-11.2-11.2-11.2s-11.2,5-11.2,11.2v143.5h-135v-212
	h24.7h411.4h24.7L483.3,536.2L483.3,536.2z"/>
<g id="Group-18">
	<ellipse id="Picture-_-Round" class="st5" cx="555.2" cy="115.2" rx="123.4" ry="115.2"/>
	<path id="Check" class="st6" d="M533.3,139.3l-26-17.1c-3.5-2.3-8.1-1.8-11.1,1.1l-0.2,0.2c-3.9,3.8-3.4,10.2,0.9,13.4l32.9,24.3
		c5.4,4,12.9,3.5,17.7-1.3l73.9-72.7c3.5-3.5,3.5-9.1,0-12.6l0,0c-3.4-3.4-9-3.4-12.4,0l-64.7,63.6
		C541.4,141.1,536.8,141.6,533.3,139.3z"/>
</g>
</svg>
