<svg width="268" height="95" viewBox="0 0 268 95" fill="none" xmlns="http://www.w3.org/2000/svg">
<path d="M97.5 57.9998L101.6 53.8998C103.3 55.5998 105.1 56.5999 107.2 56.5999C109 56.5999 110.2 55.6998 110.2 54.1998V54.0999C110.2 52.5999 108.8 51.6998 106.4 51.6998H103.7L102.8 48.2999L108.2 43.3998H99.2V38.0999H116.2V42.7999L110.6 47.5999C114 48.2999 116.7 50.1998 116.7 54.1998V54.2999C116.7 59.0999 112.9 62.0999 107.6 62.0999C102.9 62.0999 99.7 60.4998 97.5 57.9998Z" fill="#7CBF6F"/>
<path d="M107.4 62.4999C103.2 62.4999 99.7001 61.0999 97.1001 58.1999L96.8 57.8999L101.4 53.2999L101.7 53.5999C103.4 55.2999 105.1 56.1999 107 56.1999C108.6 56.1999 109.6 55.3999 109.6 54.1999C109.6 52.2999 107.2 52.0999 106.2 52.0999H103.2L102.1 48.1999L106.9 43.8999H98.5V37.8999H116.2V43.0999L111 47.4999C114.7 48.4999 116.6 50.8999 116.6 54.2999C116.9 59.0999 113 62.4999 107.4 62.4999ZM98 57.9999C100.4 60.4999 103.5 61.7999 107.4 61.7999C112.6 61.7999 116.1 58.7999 116.1 54.3999C116.1 50.9999 114.2 48.9999 110.3 48.0999L109.5 47.8999L115.6 42.6999V38.5999H99.4V43.0999H109L103 48.4999L103.8 51.3999H106.3C108.9 51.3999 110.5 52.3999 110.5 54.1999C110.5 55.9999 109.2 56.9999 107.1 56.9999C105.1 56.9999 103.3 56.1999 101.5 54.4999L98 57.9999Z" fill="#7CBF6F"/>
<path d="M121.5 38.2H130.6C139 38.2 143.8 43 143.8 49.8V49.8999C143.8 56.6999 138.9 61.7 130.4 61.7H121.5V38.2V38.2ZM130.6 55.8999C134.5 55.8999 137.1 53.8 137.1 50V49.8999C137.1 46.0999 134.5 44 130.6 44H128V55.8999H130.6Z" fill="#7CBF6F"/>
<path d="M130.4 61.9999H121.1V37.7999H130.5C138.8 37.7999 144.1 42.4999 144.1 49.7999C144.1 57.0999 138.6 61.9999 130.4 61.9999ZM121.9 61.2999H130.4C138.3 61.2999 143.4 56.7999 143.4 49.8999C143.4 42.9999 138.4 38.5999 130.5 38.5999H121.8V61.2999H121.9ZM130.6 56.2999H127.6V43.5999H130.6C134.8 43.5999 137.5 45.9999 137.5 49.8999C137.5 53.8999 134.8 56.2999 130.6 56.2999ZM128.4 55.4999H130.7C134.5 55.4999 136.8 53.3999 136.8 49.9999C136.8 46.4999 134.5 44.3999 130.7 44.3999H128.4V55.4999Z" fill="#7CBF6F"/>
<path d="M148 50C148 43.1 153.3 37.7 160.4 37.7C165.2 37.7 168.3 39.7 170.4 42.6L165.5 46.3999C164.2 44.6999 162.6 43.7 160.4 43.7C157.1 43.7 154.8 46.4999 154.8 49.8999V50C154.8 53.5 157.1 56.3 160.4 56.3C162.8 56.3 164.3 55.2 165.7 53.5L170.6 57C168.4 60.1 165.4 62.3 160.2 62.3C153.4 62.1 148 57 148 50Z" fill="#4965AC"/>
<path d="M160.1 62.4999C153.1 62.4999 147.6 56.9999 147.6 49.9999V49.8999C147.6 42.6999 153.1 37.2999 160.4 37.2999C164.9 37.2999 168.2 38.9999 170.7 42.3999L170.9 42.6999L165.4 46.9999L165.2 46.6999C163.8 44.8999 162.3 44.0999 160.4 44.0999C157.4 44.0999 155.2 46.5999 155.2 49.8999C155.2 53.3999 157.4 55.7999 160.4 55.7999C162.7 55.7999 164.1 54.6999 165.4 53.0999L165.6 52.7999L171.1 56.6999L170.9 56.9999C168.1 60.7999 164.8 62.4999 160.1 62.4999ZM160.4 38.0999C153.6 38.0999 148.4 43.1999 148.4 49.8999V49.9999C148.4 56.6999 153.4 61.6999 160.1 61.6999C164.4 61.6999 167.4 60.1999 169.9 56.8999L165.6 53.8999C164.2 55.4999 162.7 56.5999 160.2 56.5999C156.8 56.5999 154.2 53.6999 154.2 49.8999C154.2 46.0999 156.8 43.1999 160.2 43.1999C162.2 43.1999 163.9 43.9999 165.4 45.7999L169.7 42.4999C167.5 39.5999 164.4 38.0999 160.4 38.0999Z" fill="#4965AC"/>
<path d="M175 38.2H193.9V43.7H181.5V47.3H192.8V52.3999H181.5V56.1H194V61.6H175V38.2Z" fill="#4965AC"/>
<path d="M194.4 61.9999H174.6V37.7999H194.3V44.0999H181.9V46.8999H193.2V52.7999H181.9V55.6999H194.5V61.9999H194.4ZM175.4 61.2999H193.7V56.4999H181V51.9999H192.3V47.6999H181V43.3999H193.4V38.5999H175.3V61.2999H175.4Z" fill="#4965AC"/>
<path d="M199.1 38.2H210.2C213.8 38.2 216.3 39.1 217.8 40.7C219.2 42 219.9 43.9 219.9 46.2V46.3C219.9 49.9 218 52.3 215.1 53.5L220.7 61.7H213.2L208.5 54.6H205.6V61.7H199.1V38.2ZM209.9 49.3999C212.1 49.3999 213.4 48.3 213.4 46.6V46.5C213.4 44.7 212.1 43.7 209.9 43.7H205.6V49.3H209.9V49.3999Z" fill="#4965AC"/>
<path d="M221.4 61.9999H212.9L208.2 54.8999H206V61.9999H198.7V37.7999H210.2C213.7 37.7999 216.4 38.6999 218.1 40.4999C219.6 41.8999 220.3 43.7999 220.3 46.1999C220.3 49.5999 218.7 52.1999 215.7 53.5999L221.4 61.9999ZM213.4 61.2999H220L214.5 53.2999L214.9 53.0999C217 52.1999 219.5 50.2999 219.5 46.2999C219.5 43.9999 218.9 42.2999 217.5 40.9999C215.9 39.3999 213.4 38.5999 210.1 38.5999H199.4V61.2999H205.1V54.1999H208.5L213.4 61.2999ZM209.9 49.7999H205.2V43.3999H209.8C212.3 43.3999 213.7 44.5999 213.7 46.5999C213.7 48.5999 212.2 49.7999 209.9 49.7999ZM206 49.0999H209.9C211.9 49.0999 213 48.1999 213 46.6999C213 44.6999 211.3 44.1999 209.9 44.1999H206V49.0999Z" fill="#4965AC"/>
<path d="M230.6 43.8999H223.6V38.2H244.2V43.8999H237.2V61.7H230.7V43.8999H230.6Z" fill="#4965AC"/>
<path d="M237.5 62H230.2V44.2H223.2V37.7H244.6V44.2H237.6V62H237.5ZM231 61.3H236.7V43.5H243.7V38.6H224V43.5H231V61.3Z" fill="#4965AC"/>
<path d="M246.4 58.1999L250 53.8999C252.3 55.6999 254.9 56.6999 257.6 56.6999C259.3 56.6999 260.3 56.0999 260.3 55.0999V54.9999C260.3 53.9999 259.5 53.4999 256.3 52.7999C251.3 51.6999 247.4 50.2999 247.4 45.3999V45.2999C247.4 40.8999 250.9 37.7999 256.5 37.7999C260.5 37.7999 263.6 38.8999 266.2 40.8999L262.9 45.4999C260.8 43.9999 258.4 43.1999 256.3 43.1999C254.7 43.1999 254 43.8999 254 44.6999V44.7999C254 45.8999 254.8 46.2999 258.1 47.0999C263.5 48.2999 266.9 49.9999 266.9 54.3999V54.4999C266.9 59.2999 263.1 62.0999 257.4 62.0999C253.3 62.0999 249.3 60.6999 246.4 58.1999Z" fill="#4965AC"/>
<path d="M257.4 62.3999C253 62.3999 249 60.9999 246.1 58.3999L245.8 58.1L249.9 53.2L250.2 53.3999C252.5 55.1999 255 56.1 257.6 56.1C258.5 56.1 259.9 55.8999 259.9 54.8999C259.9 54.2999 259.6 53.8 256.2 53C251.4 51.9 247 50.5 247 45.2C247 40.4 250.8 37.2 256.5 37.2C260.5 37.2 263.7 38.1999 266.4 40.3999L266.7 40.6L263 45.8L262.7 45.6C260.6 44.2 258.4 43.3999 256.4 43.3999C255.2 43.3999 254.4 43.8 254.4 44.5C254.4 45.3 254.9 45.7 258.2 46.5C262.9 47.5 267.3 49.2 267.3 54.2C267.3 59.3 263.4 62.3999 257.4 62.3999ZM247 58.1C249.7 60.4 253.4 61.6 257.5 61.6C263.1 61.6 266.6 58.8 266.6 54.3C266.6 50 263.2 48.4 258.2 47.3C255 46.6 253.8 46.1 253.8 44.6C253.8 43.7 254.5 42.6 256.5 42.6C258.6 42.6 260.9 43.4 263 44.8L265.8 40.8C263.3 38.9 260.3 38 256.7 38C251.5 38 248 40.9 248 45.1C248 49.4 251 50.9 256.5 52.2C259.4 52.9 260.8 53.4 260.8 54.8C260.8 55.5 260.5 56.8999 257.7 56.8999C255 56.8999 252.5 56 250.1 54.2L247 58.1Z" fill="#4965AC"/>
<path d="M41.1 57.1L32.9 52.3V42.7L41.1 38L49.4 42.7L58.8 37.3L41.1 27.1L23.5 37.3V57.7L41.1 67.9L58.8 57.7L49.4 52.3L41.1 57.1Z" fill="url(#paint0_linear)"/>
<path d="M41.1 0L0 23.8L9.4 29.2L41.1 10.9L72.9 29.2V65.8L41.1 84.2L9.4 65.8V38.9L0 33.5V71.3L41.1 95L82.3 71.3V23.8L41.1 0Z" fill="url(#paint1_linear)"/>
<path d="M41.0999 27.1L58.7999 37.3L49.3999 42.7L41.0999 38L32.8999 42.7L28.7999 40.4L23.3999 37.3L41.0999 27.1Z" fill="url(#paint2_linear)"/>
<path d="M41.1 10.9L72.9 29.2L82.3 23.8L41.1 0L0 23.8L9.4 29.2L41.1 10.9Z" fill="url(#paint3_linear)"/>
<defs>
<linearGradient id="paint0_linear" x1="28.5562" y1="18.4117" x2="46.1509" y2="59.1209" gradientUnits="userSpaceOnUse">
<stop stop-color="#7CBF6F"/>
<stop offset="1" stop-color="#4965AC"/>
</linearGradient>
<linearGradient id="paint1_linear" x1="28.556" y1="18.4118" x2="46.1506" y2="59.121" gradientUnits="userSpaceOnUse">
<stop stop-color="#7CBF6F"/>
<stop offset="1" stop-color="#4965AC"/>
</linearGradient>
<linearGradient id="paint2_linear" x1="18.9262" y1="34.1384" x2="91.0298" y2="37.2433" gradientUnits="userSpaceOnUse">
<stop stop-color="#7CBF6F"/>
<stop offset="1" stop-color="#4965AC"/>
</linearGradient>
<linearGradient id="paint3_linear" x1="19.778" y1="14.3602" x2="91.8816" y2="17.4651" gradientUnits="userSpaceOnUse">
<stop stop-color="#7CBF6F"/>
<stop offset="1" stop-color="#4965AC"/>
</linearGradient>
</defs>
</svg>