<?xml version="1.0" encoding="UTF-8"?>
<svg width="113px" height="24px" viewBox="0 0 113 24" version="1.1" xmlns="http://www.w3.org/2000/svg" xmlns:xlink="http://www.w3.org/1999/xlink">
    <!-- Generator: Sketch 64 (93537) - https://sketch.com -->
    <title>Group 3</title>
    <desc>Created with Sketch.</desc>
    <g id="Screens:-Holder-App" stroke="none" stroke-width="1" fill="none" fill-rule="evenodd">
        <g id="01.01_Onboarding_02" transform="translate(-131.000000, -33.000000)">
            <g id="Group-3" transform="translate(131.000000, 33.000000)">
                <path d="M0,18.1575021 C0,18.0330754 0.0257248183,17.8922595 0.0799867648,17.7299441 L6.98965613,1.27274689 C7.11268375,0.970087543 7.24927382,0.763332414 7.40365106,0.643573466 C7.55381754,0.528025852 7.77039426,0.471893752 8.05667901,0.471893752 L10.0012729,0.471893752 C10.2875571,0.471893752 10.4999371,0.528025852 10.6426084,0.643573466 C10.7838805,0.763332414 10.9181293,0.969616429 11.0444413,1.27274689 L17.9522402,17.7299441 C18.0041611,17.8922595 18.0308281,18.0330754 18.0308281,18.1575021 C18.0308281,18.4601469 17.8699123,18.6093855 17.5504074,18.6093855 L14.3245557,18.6093855 C14.0728893,18.6093855 13.891859,18.5700991 13.7767821,18.4910398 C13.6621771,18.4086973 13.5583214,18.2632284 13.4703824,18.0499207 L12.2438429,14.9017264 L5.76173138,14.9017264 L4.5613872,18.0499207 C4.47250669,18.2632284 4.37099203,18.4091827 4.25591573,18.4910398 C4.13944014,18.5700991 3.95512655,18.6093855 3.70814274,18.6093855 L0.478550135,18.6093855 C0.160930015,18.6089282 0,18.4606323 0,18.1575021 L0,18.1575021 Z M11.2279183,11.8346227 L9.01575273,6.07477552 L6.77599227,11.8346227 L11.2279183,11.8346227 L11.2279183,11.8346227 Z" id="Shape" fill="#123866"></path>
                <path d="M53.772854,18.1574824 C53.772854,18.4601279 53.6142795,18.6093662 53.2952467,18.6093662 L49.9613275,18.6093662 C49.7484913,18.6093662 49.5810229,18.5883236 49.4659467,18.5457528 C49.3508706,18.498986 49.2404767,18.4138455 49.1333511,18.2889334 L43.2369015,10.5568958 L43.159256,10.4479146 L43.159256,17.4642539 C43.159256,17.8553223 43.0699043,18.1439495 42.8912153,18.331075 C42.7171946,18.5177161 42.4028436,18.6098798 41.9603256,18.6098798 L39.9572591,18.6098798 C39.531572,18.6098798 39.2247015,18.5182015 39.038061,18.331075 C38.8500072,18.1444349 38.7583286,17.8553223 38.7583286,17.4642539 L38.7583286,1.6479265 C38.7583286,1.25451661 38.8495503,0.960279978 39.038061,0.76801476 C39.2242447,0.570139177 39.531572,0.471908035 39.9572591,0.471908035 L41.9603256,0.471908035 C42.402387,0.471908035 42.7172089,0.565927845 42.8912153,0.752582717 C43.0703755,0.937824297 43.159256,1.23814233 43.159256,1.6479265 L43.159256,8.52577662 L43.2369015,8.41959401 L48.9462255,0.819007594 C49.0547498,0.678206276 49.1646864,0.583715378 49.281633,0.539275099 C49.3957677,0.493435802 49.5768122,0.470980114 49.8251944,0.470980114 L53.1071787,0.470980114 C53.429495,0.470980114 53.5890119,0.621146277 53.5890119,0.924262362 C53.5890119,1.06553478 53.5338221,1.20960525 53.429495,1.35042081 L47.105959,9.48661778 L53.6142795,17.7285549 C53.7209191,17.8543806 53.772854,17.9979947 53.772854,18.1574824 L53.772854,18.1574824 Z" id="Shape" fill="#123866"></path>
                <path d="M56.4552885,23.7581405 C56.3065356,23.6000231 56.2293611,23.3600485 56.2293611,23.0410146 L56.2293611,7.0876152 C56.9043739,6.60860787 57.8053428,6.2063181 58.9359793,5.88634219 C60.0656736,5.56636628 61.1991368,5.4087338 62.3377108,5.4087338 C67.4945838,5.4087338 70.0716352,7.68499682 70.0716352,12.2365524 C70.0716352,14.3331697 69.5070316,15.9882104 68.3791925,17.1969641 C67.2508979,18.4066596 65.6964438,19.0119789 63.7233111,19.0119789 C61.9279404,19.0119789 60.5484498,18.4945982 59.590892,17.4645476 L59.590892,23.0410434 C59.590892,23.3778361 59.5141743,23.6201511 59.363537,23.7721882 C59.2105584,23.9251672 58.9514257,24 58.5748608,24 L57.2145281,24 C56.859434,24 56.6040415,23.9204554 56.4552885,23.7581405 L56.4552885,23.7581405 Z M65.7518596,15.4358026 C66.3758797,14.6709671 66.6836926,13.5693384 66.6836926,12.1299468 C66.6836926,10.5815741 66.3197477,9.48320051 65.5904873,8.83439778 C64.8625971,8.18510972 63.7427245,7.86139358 62.2312977,7.86139358 C61.1095406,7.86139358 60.2296428,8.03027529 59.5906333,8.36895237 L59.5906333,13.6231297 C59.5906333,14.5287523 59.9077826,15.2505611 60.5481911,15.7815035 C61.1895132,16.3166429 61.9810157,16.5846837 62.9222135,16.5846837 C64.1875843,16.5851402 65.1278399,16.2001531 65.7518596,15.4358026 L65.7518596,15.4358026 Z" id="Shape" fill="#83C0F2"></path>
                <path d="M73.0308535,17.4271139 C72.0012607,16.3666281 71.4848227,14.8762726 71.4848227,12.9560183 C71.4848227,11.4614365 71.8146201,10.1413327 72.4704463,8.99619189 C73.1286135,7.84685428 74.0693544,6.96273087 75.2869866,6.33916773 C76.5037057,5.71934478 77.9229682,5.40827698 79.5424329,5.40827698 C81.7971671,5.40827698 83.7113399,5.94107514 85.2747018,7.00575785 L85.2747018,17.8916171 C85.2747018,18.1573165 85.2185698,18.3439577 85.1016233,18.4510828 C84.9851337,18.5577506 84.7886709,18.6092006 84.5033284,18.6092006 L83.0354136,18.6092006 C82.8408076,18.6092006 82.6920544,18.5694283 82.5961503,18.4903694 C82.4955636,18.4085125 82.4310092,18.2798594 82.3959477,18.103983 L82.1830971,17.0617415 C81.631112,17.7381532 80.9486192,18.2326068 80.1416705,18.5455588 C79.3328659,18.8538292 78.3491265,19.0110041 77.1917947,19.0110041 C75.4502438,19.0114906 74.0651286,18.4824318 73.0308535,17.4271139 L73.0308535,17.4271139 Z M80.9647462,15.7564041 C81.6870112,15.2044197 82.0457883,14.4770148 82.0457883,13.568566 L82.0457883,8.36863835 C81.6743628,8.17169065 81.2982555,8.03510067 80.9137534,7.95418593 C80.5320497,7.87232901 80.0642636,7.8348981 79.5117941,7.8348981 C78.1079786,7.8348981 76.9782567,8.2788156 76.1264255,9.16762134 C75.2736522,10.056427 74.8460949,11.2867079 74.8460949,12.8500408 C74.8460949,14.1289733 75.1464271,15.0734256 75.7414384,15.6778023 C76.3359928,16.2817217 77.2491238,16.5843669 78.4751782,16.5843669 C79.4154331,16.5848519 80.2476206,16.3074754 80.9647462,15.7564041 L80.9647462,15.7564041 Z" id="Shape" fill="#83C0F2"></path>
                <path d="M91.7036034,19.0115109 C91.7036034,19.0115109 91.1988711,18.9001891 90.1846959,18.6775163 C89.1696069,18.4557866 88.299502,18.1222485 87.5711836,17.677846 C87.3396315,17.5538755 87.2231417,17.4200835 87.2231417,17.2764986 C87.2231417,17.1689171 87.257746,17.0716135 87.3293244,16.9845894 L88.0787138,15.678048 C88.1647964,15.5175891 88.2545906,15.4357324 88.3434712,15.4357324 C88.4332941,15.4357324 88.5483563,15.4824994 88.6910278,15.5704665 C89.2252536,15.8918407 89.8829358,16.1570837 90.6646168,16.370848 C91.4472115,16.5841558 92.1685632,16.6912808 92.8262457,16.6912808 C93.8394784,16.6912808 94.5626576,16.5892948 94.9986385,16.3834676 C95.4336762,16.1785825 95.6526087,15.8118399 95.6526087,15.2757584 C95.6526087,14.974027 95.5688674,14.7298555 95.3981301,14.5422732 C95.2301904,14.357974 94.9757111,14.1918897 94.6389189,14.050618 C94.3002419,13.9065473 93.7407764,13.7142818 92.9586386,13.4607453 L92.0777983,13.1702632 C91.0645652,12.8329857 90.2548468,12.5036736 89.6509269,12.1846403 C89.0456081,11.8628088 88.5801626,11.4576927 88.2494514,10.9698061 C87.9201392,10.4795787 87.7554545,9.8611548 87.7554545,9.11690524 C87.7554545,7.90675375 88.2662681,6.98565673 89.2883807,6.35181547 C90.3128347,5.72405558 91.6418181,5.40827698 93.2776725,5.40827698 C95.269049,5.40827698 96.9872166,5.83443535 98.4261231,6.68766566 C98.6586175,6.81303493 98.7722808,6.94634148 98.7722808,7.087157 C98.7722808,7.17603752 98.7259704,7.29158508 98.6403732,7.43285759 L97.9181076,8.58079557 C97.8123813,8.74031225 97.7249001,8.82077013 97.6538071,8.82077013 C97.5822282,8.82077013 97.4741896,8.77820006 97.3314896,8.68886254 C96.8711839,8.40397669 96.3126609,8.17570809 95.6642865,8.00962461 C95.0168827,7.83982941 94.3638259,7.75280454 93.7056579,7.75280454 C92.8177944,7.75280454 92.163367,7.84682432 91.7456311,8.03489247 C91.3269528,8.22107628 91.1178707,8.58128085 91.1178707,9.11687686 C91.1178707,9.57763963 91.3634702,9.94158449 91.851357,10.2100817 C92.3401859,10.4753243 93.1882776,10.7952715 94.3970597,11.1690382 L95.278842,11.4366216 C96.6676974,11.8814815 97.6407016,12.4058852 98.2001671,13.0093195 C98.7596325,13.6164933 99.039836,14.3705651 99.039836,15.2762157 C99.039836,16.3787851 98.5556895,17.2764702 97.5850265,17.9692703 C96.6162482,18.6639263 95.1880771,19.0115109 93.3047674,19.0115109 C92.2368871,19.0115109 91.7036034,19.0115109 91.7036034,19.0115109 L91.7036034,19.0115109 Z" id="Shape" fill="#83C0F2"></path>
                <path d="M104.934501,19.0115109 C104.934501,19.0115109 104.426486,18.9001891 103.411853,18.6775163 C102.40002,18.4557866 101.527602,18.1222485 100.802082,17.677846 C100.567732,17.5538755 100.451242,17.4200835 100.451242,17.2764986 C100.451242,17.1689171 100.48773,17.0716135 100.55791,16.9845894 L101.307785,15.678048 C101.395723,15.5175891 101.486945,15.4357324 101.572542,15.4357324 C101.661423,15.4357324 101.775571,15.4824994 101.921498,15.5704665 C102.45244,15.8918407 103.110151,16.1570837 103.894144,16.370848 C104.677224,16.5841558 105.398091,16.6912808 106.055773,16.6912808 C107.070405,16.6912808 107.793128,16.5892948 108.228166,16.3834676 C108.664146,16.1785825 108.881194,15.8118399 108.881194,15.2757584 C108.881194,14.974027 108.794654,14.7298555 108.629998,14.5422732 C108.457376,14.357974 108.205724,14.1918897 107.868903,14.050618 C107.530682,13.9065473 106.971218,13.7142818 106.187224,13.4607453 L105.303585,13.1702632 C104.290838,12.8329857 103.484374,12.5036736 102.877656,12.1846403 C102.276078,11.8628088 101.810176,11.4576927 101.480835,10.9698061 C101.151523,10.4795787 100.985439,9.8611548 100.985439,9.11690524 C100.985439,7.90675375 101.496253,6.98565673 102.518365,6.35181547 C103.540021,5.72405558 104.87086,5.40827698 106.507171,5.40827698 C108.499004,5.40827698 110.215316,5.83443535 111.653766,6.68766566 C111.886717,6.81303493 112.004606,6.94634148 112.004606,7.087157 C112.004606,7.17603752 111.956411,7.29158508 111.86753,7.43285759 L111.148548,8.58079557 C111.042366,8.74031225 110.952543,8.82077013 110.881906,8.82077013 C110.812669,8.82077013 110.703689,8.77820006 110.560075,8.68886254 C110.099312,8.40397669 109.542645,8.17570809 108.893357,8.00962461 C108.245468,7.83982941 107.593839,7.75280454 106.934728,7.75280454 C106.044524,7.75280454 105.391981,7.84682432 104.975159,8.03489247 C104.55648,8.22107628 104.346913,8.58128085 104.346913,9.11687686 C104.346913,9.57763963 104.591085,9.94158449 105.078058,10.2100817 C105.569713,10.4753243 106.417805,10.7952715 107.627015,11.1690382 L108.508312,11.4366216 C109.893884,11.8814815 110.867831,12.4058852 111.426839,13.0093195 C111.989588,13.6164933 112.267451,14.3705651 112.267451,15.2762157 C112.267451,16.3787851 111.78516,17.2764702 110.814982,17.9692703 C109.846204,18.6639263 108.417118,19.0115109 106.535665,19.0115109 C105.467785,19.0115109 104.934501,19.0115109 104.934501,19.0115109 L104.934501,19.0115109 Z" id="Shape" fill="#83C0F2"></path>
                <path d="M34.1826845,2.55422323 C32.5903438,0.901538881 30.2921119,0.0730909973 27.2875188,0.0730909973 C24.2656223,0.0730909973 21.9561556,0.901538881 20.3666128,2.55422323 C18.7742717,4.20877781 17.9781013,6.53837376 17.9781013,9.54389615 C17.9781013,12.5475621 18.7742717,14.8766717 20.3666128,16.5302848 C21.9556844,18.1843822 24.2656079,19.0128296 27.2875188,19.0128296 C30.2921119,19.0128296 32.5903438,18.1843822 34.1826845,16.5302848 C35.7717569,14.8771289 36.5711965,12.5475621 36.5711965,9.54389615 C36.5711965,6.53788834 35.7717569,4.20877781 34.1826845,2.55422323 L34.1826845,2.55422323 Z" id="Shape" fill="#123866"></path>
                <g id="Group" transform="translate(19.604833, 0.000000)">
                    <g transform="translate(0.639546, 0.638633)" fill="#FFFFFF" id="Shape">
                        <path d="M11.4294408,11.9159177 C12.115688,11.7311328 12.5226593,11.0215156 12.3378749,10.333855 C12.155431,9.64245411 11.4467422,9.23596819 10.760495,9.41841097 L10.776399,9.41138811 C11.5187778,9.21164188 11.9608394,8.44355203 11.7601511,7.70070129 C11.5599347,6.95550929 10.7951143,6.51299121 10.0517925,6.71462139 C10.7950997,6.51299121 11.2399737,5.74724217 11.037886,5.00110796 C10.840011,4.2531183 10.0906227,3.87655355 9.34824289,4.07724153 L4.18809103,5.45581815 C3.38583938,5.69390839 3.259999,4.70877023 3.34935084,4.25032019 C3.43823119,3.7951536 3.75866367,3.1075215 3.48172925,2.07698683 C3.22538059,1.11990061 2.77723784,0.261973491 2.01381612,0.0425844297 C1.28594093,-0.162300507 0.737225764,0.412139623 0.728346304,0.911261123 C0.721322619,1.5273293 1.18631081,2.02225377 1.16151391,2.9166552 C1.12970762,4.11233149 0.155305359,6.02884474 0.0430412404,7.26800465 C0.0145041121,7.53136295 0,7.80362944 0,8.07540966 C0,12.1329941 3.28806504,15.4220024 7.34611878,15.4220024 C7.99867551,15.4220024 8.62971859,15.3368621 9.22942662,15.1796869 L15.4327324,13.4563516 L15.3766008,13.4563516 C16.0581653,13.2729666 16.4674779,12.569431 16.2817652,11.8855392 C16.0997933,11.1988199 15.4098053,10.8498654 14.7282408,11.0346495 L11.2932929,11.953377"></path>
                    </g>
                    <g transform="translate(0.397432, 0.399260)" fill="#123866" id="Shape">
                        <path d="M7.58889128,15.9009661 C3.40641069,15.9009661 0,12.4978098 0,8.31488506 C0,8.0417051 0.0177732466,7.75961705 0.0477093914,7.47989889 C0.103370345,6.86895595 0.361132394,6.10086586 0.60858739,5.35521711 C0.873358835,4.56325788 1.14887978,3.74089177 1.16525408,3.15100522 C1.17554681,2.70286216 1.05344676,2.3651276 0.934630141,2.03767139 C0.827976377,1.74436278 0.727404072,1.46978392 0.73067316,1.14888024 C0.739566927,0.604847413 1.24663984,0 1.95674177,0 C2.08024077,0 2.19811515,0.0168453322 2.32114316,0.0519207445 C3.07053188,0.268511763 3.62205941,1.00713676 3.95371244,2.25613247 C4.19368699,3.14305366 4.01452678,3.81198458 3.8961814,4.2535892 C3.86951425,4.35743083 3.84613065,4.4514507 3.82835739,4.53707617 C3.77596558,4.79949228 3.81619448,5.20041144 3.97244221,5.38516764 C4.06506292,5.49743164 4.18622073,5.51521894 4.3597706,5.4660822 L9.52880178,4.08376562 C9.67849668,4.04307969 9.83146062,4.02340774 9.98723773,4.02340774 C10.7132418,4.02340774 11.3274399,4.48651161 11.5122245,5.1783696 C11.6235607,5.59890337 11.5678861,6.04050799 11.3484967,6.42035582 C11.2834709,6.53496129 11.2053539,6.63928818 11.1178726,6.73236597 C11.653026,6.88908472 12.0833812,7.31664195 12.2330761,7.87610669 C12.3902518,8.45709911 12.2120193,9.05305305 11.8162829,9.45114548 C12.2952898,9.61345987 12.6760796,10.0031304 12.8117276,10.5088044 C12.9165108,10.9050117 12.8594366,11.3040462 12.677936,11.6370988 L14.9064725,11.0430006 C15.7152762,10.8259533 16.5474641,11.2829754 16.7551619,12.0609156 C16.8604159,12.455725 16.8084962,12.866437 16.6040674,13.2186753 C16.3996396,13.5699725 16.0717262,13.8207111 15.682057,13.9268937 L9.53768114,15.6492863 C8.90431076,15.8158259 8.25034141,15.9009661 7.58889128,15.9009661 L7.58889128,15.9009661 Z M1.95735159,0.479202851 C1.50125731,0.479202851 1.21637145,0.871670578 1.21170325,1.15515758 C1.20983317,1.38718062 1.28934877,1.61312224 1.38478187,1.87226913 C1.51202114,2.22357998 1.65937488,2.62399937 1.64581298,3.16289294 C1.62616962,3.82575669 1.34128382,4.68087157 1.06295048,5.50649276 C0.822975962,6.22547462 0.575992081,6.96878216 0.523585982,7.52918919 C0.495519958,7.79443186 0.481486945,8.05964604 0.481486945,8.31506669 C0.481486945,12.2346616 3.6694505,15.4230837 7.58902944,15.4230837 C8.20790986,15.4230837 8.82165067,15.3426255 9.41105145,15.1877917 L15.5535571,13.4649421 C15.8262797,13.3910227 16.0508078,13.2207705 16.1888114,12.978455 C16.3300837,12.7351963 16.3674992,12.4559354 16.2940654,12.1850963 C16.151394,11.6522987 15.5970687,11.3519668 15.034792,11.5054012 L11.7345644,12.3866985 C11.6031141,12.423644 11.4740038,12.3455274 11.4407988,12.2183017 C11.4047814,12.0887359 11.481499,11.9572846 11.6091951,11.9240507 L11.6091951,11.9240507 L11.6101369,11.9240507 C12.1691451,11.7762403 12.4989281,11.1943058 12.3501757,10.632956 C12.2037633,10.0856537 11.6148198,9.74041061 11.0665755,9.88916342 C10.9398071,9.9219118 10.8163083,9.85547265 10.7770213,9.7371274 C10.7339802,9.61829582 10.7933957,9.48873011 10.9084726,9.43728007 C10.9192364,9.4344823 10.9295288,9.4311982 10.9402785,9.42791499 L10.9393367,9.42557416 C10.9491577,9.42323245 10.9594511,9.41994924 10.9702149,9.41809386 C11.5937777,9.21272302 11.9305835,8.59806864 11.7724664,7.99883092 C11.6087379,7.39959408 10.9631911,7.0164916 10.3578874,7.18440212 C10.2297199,7.21620856 10.0977982,7.14137522 10.0631799,7.01412183 C10.0575693,6.99353585 10.054757,6.97295031 10.054757,6.95330716 C10.054757,6.84758125 10.1258641,6.75076348 10.2329894,6.72221219 C10.529096,6.64129742 10.7803051,6.44854682 10.9337261,6.18099138 C11.0899737,5.91155161 11.1292606,5.60045531 11.0474039,5.30389208 C10.8916268,4.70979429 10.2750878,4.37485775 9.65106874,4.54793625 L4.49278711,5.92557028 C4.14663022,6.02755603 3.8135637,5.94661276 3.60258321,5.69027822 C3.3139572,5.33898174 3.29524164,4.75330664 3.3579263,4.44455161 C3.37522836,4.34958967 3.40517891,4.24386376 3.43557182,4.12925822 C3.55251825,3.68906697 3.6975308,3.14223592 3.49357387,2.37879978 C3.29429955,1.64016041 2.90931245,0.718620719 2.18891777,0.510923472 C2.11359914,0.490894655 2.03454035,0.479202851 1.95735159,0.479202851 L1.95735159,0.479202851 Z"></path>
                    </g>
                    <g fill="#123866" id="Shape">
                        <path d="M2.35445704,0.636348496 C2.44989004,0.636348496 2.54952016,0.650852611 2.65337584,0.681716685 C3.41726841,0.90110572 3.86446891,1.75903277 4.12175978,2.71611874 C4.39728057,3.74618224 4.07731953,4.43428557 3.98891006,4.88945213 C3.90892326,5.30110646 4.00060182,6.13143836 4.5965695,6.13143836 C4.66626344,6.13143836 4.74298115,6.11927528 4.82765029,6.09494959 L9.98732923,4.71637319 C10.1192506,4.67894251 10.2521003,4.66209697 10.38495,4.66209697 C10.9804469,4.66209697 11.5151146,5.02604184 11.6783853,5.64023974 C11.8800013,6.38634535 11.4351415,7.1521227 10.6922918,7.35375285 C10.8167189,7.31914837 10.9360067,7.30370215 11.0566929,7.30370215 C11.6685642,7.30370215 12.2317688,7.71581296 12.400636,8.33937577 C12.6008526,9.08316865 12.1583196,9.85125873 11.4168831,10.0510046 L11.4005087,10.0580278 C11.5123158,10.0290201 11.6245803,10.0154582 11.7345034,10.0154582 C12.3033329,10.0154582 12.8249097,10.3939069 12.9778736,10.9730153 C13.1631152,11.6606468 12.7556724,12.3702921 12.0694392,12.5550768 L15.3677964,11.6737803 C15.4894256,11.6424309 15.6115112,11.6270137 15.7298569,11.6270137 C16.2794996,11.6270137 16.7716111,11.9624073 16.9217772,12.5246983 C17.1070179,13.2085906 16.6986486,13.9116972 16.0161416,14.0955109 L9.86989726,15.8188459 C9.26926207,15.9760212 8.6377476,16.0611614 7.98659042,16.0611614 C3.92855235,16.0611614 0.639546227,12.7721531 0.639546227,8.71457029 C0.639546227,8.4418469 0.654050334,8.17100825 0.682587452,7.90716478 C0.794394703,6.66800476 1.76878234,4.75149161 1.80060291,3.55581577 C1.82726987,2.66141431 1.36135396,2.16648986 1.36790654,1.54995073 C1.3749159,1.12377813 1.78095947,0.636348496 2.35445704,0.636348496 M2.3543773,0 L2.3543773,0 C1.39963267,0 0.742850465,0.795242392 0.73068759,1.53947773 C0.726947357,1.93475768 0.847634129,2.27249221 0.957100201,2.5714111 C1.06656627,2.87920966 1.17369121,3.16596562 1.16339838,3.53926116 C1.14842315,4.07160221 0.882252703,4.86308989 0.626375013,5.62886729 C0.370497323,6.39464469 0.105725855,7.18471907 0.0449113608,7.84756879 C0.0154463106,8.12731553 0,8.42059543 0,8.71438998 C0,13.1176729 3.58277311,16.7009039 7.98557123,16.7009039 C8.68069774,16.7009039 9.36881573,16.6110813 10.0321358,16.4342623 L16.1863344,14.7123264 C17.2056339,14.4368053 17.8132928,13.3824022 17.5391712,12.3574924 C17.317912,11.5379243 16.5909643,10.9863964 15.7297685,10.9863964 C15.5538775,10.9863964 15.3742466,11.0102653 15.2016389,11.05609 L13.6556085,11.4682019 C13.6738533,11.2516106 13.6556085,11.028938 13.5961939,10.8058086 C13.4726942,10.3478442 13.1892219,9.96519861 12.8187385,9.71071942 C13.0853805,9.24059159 13.1574154,8.694689 13.0170854,8.17122738 C12.8781541,7.65713096 12.5497701,7.23377044 12.1208134,6.9676141 C12.3701392,6.50779367 12.4304824,5.97776555 12.2934211,5.46929344 C12.0632687,4.60624151 11.2946928,4.02056641 10.3848602,4.02056641 C10.1954075,4.02056641 10.004555,4.04957461 9.81837095,4.09728411 L4.66195885,5.47537515 C4.65681972,5.47865815 4.65306519,5.47957197 4.65073829,5.48051416 C4.61237974,5.37901395 4.5866547,5.17178784 4.61706189,5.00853082 C4.63062405,4.93369775 4.65355051,4.8490142 4.68067432,4.75499431 C4.80884202,4.27316097 5.00250624,3.54155941 4.73961878,2.55312416 C4.3658525,1.15865894 3.72264644,0.323187683 2.83011534,0.066367751 C2.66919938,0.0224556834 2.5124952,0 2.3543773,0 L2.3543773,0 L2.3543773,0 Z"></path>
                    </g>
                </g>
            </g>
        </g>
    </g>
</svg>