<svg id="Layer_1" data-name="Layer 1" xmlns="http://www.w3.org/2000/svg" width="39.63" height="37.68" viewBox="0 0 39.63 37.68">
  <title>warning</title>
  <g id="Page-1">
    <g id="Drop-box-warning">
      <g id="warning">
        <path id="Triangle" d="M22.65,1.91,39.47,33.59a3,3,0,0,1-1.25,4.06,3,3,0,0,1-1.4.35H3.18a3,3,0,0,1-3-3,3,3,0,0,1,.35-1.41L17.35,1.91a3,3,0,0,1,5.3,0Z" transform="translate(-0.18 -0.32)" fill="#ffbf00"/>
        <path d="M20.17,26.45h-.34c-.43,0-.78-.22-.79-.51l-.52-12c0-.29.34-.54.79-.54h1.38c.45,0,.8.25.79.54l-.52,12C21,26.23,20.6,26.45,20.17,26.45Z" transform="translate(-0.18 -0.32)" fill="#fff"/>
        <ellipse cx="19.82" cy="30.56" rx="1.48" ry="1.46" fill="#fff"/>
      </g>
    </g>
  </g>
</svg>
