<svg xmlns="http://www.w3.org/2000/svg" xmlns:xlink="http://www.w3.org/1999/xlink" width="186.88" height="42.57" viewBox="0 0 186.88 42.57">
  <defs>
    <clipPath id="clip-path">
      <path d="M6,13.34a11,11,0,0,1,9.83,2.93,10.88,10.88,0,0,1,7.66-3.14,11,11,0,0,1,2.16.21V31.93a11,11,0,0,0-2.16-.22,10.88,10.88,0,0,0-7.66,3.14A10.89,10.89,0,0,0,6,31.93Z" fill="#003d79"/>
    </clipPath>
  </defs>
  <title>Asset 1</title>
  <g id="Layer_2" data-name="Layer 2">
    <g id="Layer_1-2" data-name="Layer 1">
      <g>
        <path d="M0,0H31.89V24.1C31.42,33.73,22,42,15.76,42.57,9.36,41.42.11,33.7,0,23.56,0,23.56,0,0,0,0Z" fill="#ffcf01" fill-rule="evenodd"/>
        <path d="M30,23.88c-.24,8-8.42,15.47-14.32,16.79C10.91,39.31,1.91,32.56,1.87,23.39V11.63H30Z" fill="#bf311a" fill-rule="evenodd"/>
        <g>
          <path d="M6,13.34a11,11,0,0,1,9.83,2.93,10.88,10.88,0,0,1,7.66-3.14,11,11,0,0,1,2.16.21V31.93a11,11,0,0,0-2.16-.22,10.88,10.88,0,0,0-7.66,3.14A10.89,10.89,0,0,0,6,31.93Z" fill="#003d79"/>
          <g clip-path="url(#clip-path)">
            <rect x="15.85" y="12.37" width="11.2" height="23.15" fill="#007fb2"/>
          </g>
        </g>
        <path d="M8.18,30.4a7.91,7.91,0,0,0-1,.07v-16a6.08,6.08,0,0,1,1-.07,10.88,10.88,0,0,1,7.45,2.93,1.75,1.75,0,0,0,.24.23c.06-.07.18-.17.24-.25a10.73,10.73,0,0,1,7.42-2.9,7.77,7.77,0,0,1,1,.06v16a7.77,7.77,0,0,0-1-.07,10.88,10.88,0,0,0-7.66,3.14A10.92,10.92,0,0,0,8.18,30.4Z" fill="#fff"/>
        <path d="M12,24.76a3.83,3.83,0,1,0,3.82-3.83A3.82,3.82,0,0,0,12,24.76Z" fill="#ffcf01" fill-rule="evenodd"/>
        <path d="M11.36,24.76a4.48,4.48,0,1,0,4.48-4.48A4.47,4.47,0,0,0,11.36,24.76ZM9.91,22.3l.83-1.45.78.45a5,5,0,0,1,.86-.86l-.45-.78,1.45-.83.44.77A5.85,5.85,0,0,1,15,19.29v-.9h1.67v.9a5.59,5.59,0,0,1,1.17.31l.45-.77,1.45.83-.45.78a5.51,5.51,0,0,1,.87.87l.77-.45.84,1.44-.78.45a5.94,5.94,0,0,1,.31,1.17h.9v1.67h-.9A5.85,5.85,0,0,1,21,26.77l.78.44-.84,1.45-.78-.45a5,5,0,0,1-.86.86l.45.78-1.45.84-.45-.78a5.12,5.12,0,0,1-1.18.31v.9H15v-.9a5.59,5.59,0,0,1-1.17-.31l-.45.78-1.45-.84.45-.78a5.38,5.38,0,0,1-.86-.86l-.78.45-.83-1.44.78-.45a5.14,5.14,0,0,1-.32-1.18h-.9V23.92h.9a5.85,5.85,0,0,1,.31-1.18Z" fill="#ffcf01"/>
        <path d="M15.29,28c-.63,0-.73-1.2-.84-2.59l-.06-.71c-.11-1.82-.38-2.29-.47-2.32s-.45,1-.5,2.31v.16H10.77a.17.17,0,0,1-.17-.16.17.17,0,0,1,.17-.17h2.32c.05-.86.21-2.47.83-2.47.18,0,.64,0,.8,2.62q0,.34.06.72c.08.9.19,2.27.51,2.28s.44-1.42.52-2.35c.12-1.39.23-2.6.84-2.6h0c.39,0,.56.63.69,1.58,0,.21.06.41.08.6.08.7.19,1.55.42,1.56.06,0,.24-.23.41-1.79l0-.15H20.9a.16.16,0,0,1,.16.17.16.16,0,0,1-.16.16H18.58c-.14,1.23-.31,1.94-.73,1.94S17.23,26,17.1,25c0-.2-.05-.4-.08-.6-.17-1.22-.35-1.29-.37-1.3h0c-.31,0-.43,1.44-.51,2.3C16,26.78,15.91,28,15.29,28Z" fill="#003d79"/>
        <g>
          <path d="M7.13,8.83c-.4.28-.44.36-.54.53a.19.19,0,0,0,.16.3,2.46,2.46,0,0,0,.82-.35,1.18,1.18,0,0,0,.56-.65c0-.09-.08-.16-.22-.15A1.4,1.4,0,0,0,7.13,8.83Zm.61-1a.32.32,0,0,0,.13.26c.12.11.3,0,.42,0A4.83,4.83,0,0,1,9,8a.52.52,0,0,1,.4.17,1.06,1.06,0,0,1,.25.53,1,1,0,0,1-.15.73.8.8,0,0,1-.27.31.82.82,0,0,1-.33.14.31.31,0,0,1-.22,0,1,1,0,0,0,.48-.3A1.13,1.13,0,0,0,9.45,9a.76.76,0,0,0-.21-.55.33.33,0,0,0-.31-.08c-.08,0-.17.1-.19.17a.74.74,0,0,1-.15.32c-.11.09-.46.45-.62.59a2.37,2.37,0,0,1-.75.41,1,1,0,0,1-.82,0c-.09-.06-.11-.23-.1-.36A.62.62,0,0,1,6.51,9a4.19,4.19,0,0,1,.66-.48.34.34,0,0,0,.17-.29A.32.32,0,0,0,7,7.81c-.16,0-.21.07-.33.05s-.13-.13-.11-.24.15-.18.24-.2a1.55,1.55,0,0,0,.37-.06,1,1,0,0,0,.3-.16s.07-.19.11-.32a.6.6,0,0,1,.17-.22s.15-.11.2-.07a.28.28,0,0,0,.22.11.48.48,0,0,0,.31-.12,4.53,4.53,0,0,1,.74-.42.6.6,0,0,1,.59.13.85.85,0,0,1,.28.5.45.45,0,0,1-.14.43c-.13.07-.3.28-.47.28s-.28-.06-.25-.12.15-.11.23-.21.33-.31.35-.39a.24.24,0,0,0-.05-.23c-.07-.07-.07-.11-.32-.14s-.65.34-.8.53a2.77,2.77,0,0,1-.73.51A.32.32,0,0,0,7.74,7.82Z" fill="#003d79" fill-rule="evenodd"/>
          <path d="M12.75,6.61a1,1,0,0,1,.33.63,2.16,2.16,0,0,1-.16.81,2.2,2.2,0,0,1-.31.36.44.44,0,0,0-.06.1v.43s.06,0,.1,0,.19-.24.22-.29a.92.92,0,0,1,.22-.29L13.54,8a.22.22,0,0,1,0,.15,2.79,2.79,0,0,0-.19.28.7.7,0,0,1-.12.25,1.58,1.58,0,0,0-.28.32c-.1.16-.09.26-.14.3a.38.38,0,0,1-.24.08.5.5,0,0,1-.23-.12.05.05,0,0,1,0-.08l0-.67a.37.37,0,0,1-.06-.15c0-.1,0-.06-.06-.11s-.08-.26,0-.3a1.08,1.08,0,0,0,.15-.13s.13-.06.16,0a.3.3,0,0,0,.17.08c.07,0,.16,0,.16-.09s0-.32,0-.36a.52.52,0,0,0-.06-.26c-.06-.1-.22-.27-.33-.25S12,7,12,7s-.05.06-.08.08a.28.28,0,0,1-.28,0s0-.22,0-.29.11-.15.19-.15l.64,0A.83.83,0,0,1,12.75,6.61Z" fill="#003d79" fill-rule="evenodd"/>
          <path d="M14.71,8.61a.17.17,0,0,0-.12,0c-.06,0-.08.09-.13.2s0,.13.07.12.08,0,.14-.12A.27.27,0,0,0,14.71,8.61Zm-.34-2.09a2.5,2.5,0,0,1,.69-.44,1.73,1.73,0,0,1,.7-.08.47.47,0,0,1,.4.29.94.94,0,0,1,0,.62,1.16,1.16,0,0,1-.48.48,1.86,1.86,0,0,1-.36.1.39.39,0,0,1-.11.09.27.27,0,0,0-.12.07s0,0,0,0,0,.67,0,.67a.36.36,0,0,1,.12.1.58.58,0,0,1,.09.23c0,.08,0,.52,0,.52a.33.33,0,0,0,.08.12.66.66,0,0,0,.12.09,1.75,1.75,0,0,1,.25,0,.65.65,0,0,0,.2,0c.08,0,.19,0,.24,0a.14.14,0,0,1,0,.14.33.33,0,0,1-.23.14c-.09,0-.24.06-.31.06a.33.33,0,0,1-.15,0s-.16,0-.22-.06a1.51,1.51,0,0,1-.21-.23,1.24,1.24,0,0,1-.05-.4S15,9,14.91,9a.5.5,0,0,0-.2.11c-.06,0-.24.1-.33,0a.45.45,0,0,1-.06-.41,1,1,0,0,1,.26-.4,1,1,0,0,1,.3-.21v-.5a.46.46,0,0,1-.17-.17c-.07-.11-.16-.29,0-.36s.18-.11.27,0,.16.14.19.14a.53.53,0,0,0,.29-.06,1.25,1.25,0,0,0,.34-.24.55.55,0,0,0,.12-.41c0-.19-.09-.22-.21-.25a1.4,1.4,0,0,0-.5,0,2.43,2.43,0,0,0-.39.12c-.15.06-.25.16-.3.17S14.38,6.52,14.37,6.52Z" fill="#003d79" fill-rule="evenodd"/>
          <path d="M17.8,6.91H19a.9.9,0,0,1,.24,0,.35.35,0,0,1,.25.18.31.31,0,0,1-.06.28c-.06.06-.47.3-.47.3s-.41.32-.47.38,0,.12-.07.17l-.11.09-.13.24s-.05.1,0,.13a.19.19,0,0,0,.17,0,2.25,2.25,0,0,1,.49-.13,3.93,3.93,0,0,1,.66,0s.12.05.08.15-.09.19-.16.22-.14,0-.2-.05a.52.52,0,0,0-.25,0s-.12,0-.27.05a2.87,2.87,0,0,0-.44.2.94.94,0,0,1-.42.11c-.17,0-.24-.08-.25-.27a.5.5,0,0,1,.18-.41c.1-.09.38-.31.41-.35s0-.13.07-.2l.22-.2.29-.29s.07-.14,0-.17-.17,0-.17,0a.5.5,0,0,1-.23,0,.33.33,0,0,1-.12-.06,2.51,2.51,0,0,1-.35,0,.29.29,0,0,1-.19-.19C17.65,7,17.7,6.92,17.8,6.91Z" fill="#003d79" fill-rule="evenodd"/>
          <path d="M22.06,9.19c-.2.1-.19,0-.29.15s0,.15,0,.21.26,0,.37,0,.13-.08.27-.15.28-.2.3-.33S22.67,9,22.52,9A1.48,1.48,0,0,0,22.06,9.19Zm-.43-2.53a.86.86,0,0,1,.07-.14.73.73,0,0,1,.14-.18.25.25,0,0,1,.26,0,.67.67,0,0,1,.21.2c.06.06.11.11.18.11a.88.88,0,0,0,.24,0A2.09,2.09,0,0,0,23,6.39a1.24,1.24,0,0,1,.38-.17.52.52,0,0,1,.24,0c.07,0,.19.11.26.18a.53.53,0,0,1,.05.39.64.64,0,0,1-.31.49,2.66,2.66,0,0,0-.5.38c-.1.16.05.33.13.45s.06.26.12.31a4.48,4.48,0,0,0,.64.08.84.84,0,0,1,.21.21c0,.05-.12.08-.12.08h-.45c-.13,0-.31,0-.35.11a2,2,0,0,1-.33.52,2.15,2.15,0,0,1-.56.34,4.18,4.18,0,0,1-.72.12c-.08,0-.18-.08-.26-.08a.31.31,0,0,1-.23-.11c-.06-.07.05-.11.1-.16A3.84,3.84,0,0,1,22,8.92a2.38,2.38,0,0,1,.69-.26.74.74,0,0,0,.27-.16.27.27,0,0,0,0-.27,1.37,1.37,0,0,1-.19-.44c0-.07.09-.2.15-.24s.21-.09.25-.13,0-.12.07-.17a.77.77,0,0,0,.35-.42.34.34,0,0,0-.09-.3c-.08-.07-.11-.07-.17,0s-.66.4-.75.45a.55.55,0,0,1-.28,0c-.06,0-.12-.11-.17-.19s-.13-.07-.21-.1-.06,0-.11,0-.16,0-.16,0l-.11.08c-.06,0-.06.06-.09.17a.26.26,0,0,1-.13.22c-.09.08-.17.13-.26.09a.64.64,0,0,1-.2-.33A.61.61,0,0,1,21,6.55c.08-.12.16-.14.25-.11s.13.2.13.2Z" fill="#003d79" fill-rule="evenodd"/>
          <path d="M26,6.64a1.28,1.28,0,0,0,.33,0c.08,0,.18-.13.26-.15a.17.17,0,0,1,.17.06.39.39,0,0,1,.09.2.06.06,0,0,0,.11,0c.05,0,0-.15.06-.21a.73.73,0,0,0,.06-.38c0-.1-.07-.09-.17-.1a.58.58,0,0,0-.33.09,2,2,0,0,1-.22.13c-.05,0-.13,0-.16.06a.49.49,0,0,1-.13.15S26,6.64,26,6.64Z" fill="#003d79" fill-rule="evenodd"/>
          <path d="M26.76,7.14a1.77,1.77,0,0,0,0,.35A.7.7,0,0,0,27,7.7a.49.49,0,0,0,.22.09c.06,0,.15.12.2.17a.14.14,0,0,1,0,.18c0,.06-.12,0-.17.12s-.06.12-.18.14-.56,0-.56,0a.44.44,0,0,0-.1.09c0,.05-.05.05-.06.09v.66s.06,0,.09.1.09.13.06.24,0,.19-.09.21-.16-.06-.24-.16a.29.29,0,0,1-.09-.17V8.29s-.09,0-.09-.13,0-.55,0-.55.05-.13.15-.12.14,0,.15.1a1.24,1.24,0,0,1,0,.26s0,.15.05.21a.42.42,0,0,0,.21.11.28.28,0,0,0,.26-.05.16.16,0,0,0,.06-.21c0-.09,0-.14-.1-.18s-.2-.08-.22-.15a.35.35,0,0,1,0-.26A.78.78,0,0,1,26.76,7.14Z" fill="#003d79" fill-rule="evenodd"/>
          <path d="M28.79,6.67a.54.54,0,0,1,.39.09,1.48,1.48,0,0,1,.12.41s.1.14.22.13.14-.06.15-.13,0-.57,0-.57a.76.76,0,0,1-.09-.16.25.25,0,0,0-.15-.18,2.07,2.07,0,0,0-.48,0,.26.26,0,0,1-.25-.1s-.13-.11-.29,0-.21.17-.23.21-.05.23-.13.28a1.49,1.49,0,0,1-.25.07,1.07,1.07,0,0,0-.35.26c-.05.06-.19.16-.18.22s.09.11.16.09,0-.13.27-.13.22.12.25.18,0,.43,0,.48a.4.4,0,0,0,.17.14c.06,0,.13,0,.17.06s.15.17.13.23-.11.13-.16.2a4.51,4.51,0,0,1-.5.56,2.18,2.18,0,0,1-.65.4,1.76,1.76,0,0,0,.74-.15,2.61,2.61,0,0,0,.38-.27.2.2,0,0,1,.15,0c.08,0,.1.07.14.16a1.21,1.21,0,0,0,.25.37c.08.05.13.16.2.18a1.68,1.68,0,0,0,.36,0,.64.64,0,0,0,.41-.12c.12-.1.23-.21.23-.28A1,1,0,0,0,30,9.15a4.09,4.09,0,0,1,0-.47s0,0-.06,0,0,.38-.07.43-.05.2-.14.25a1,1,0,0,1-.56,0,.51.51,0,0,1-.32-.35,2.44,2.44,0,0,1-.09-.66c0-.08.19-.22.21-.33S29,8,29,7.87s-.05-.27-.17-.26a.88.88,0,0,0-.28.07c-.06,0-.24.09-.3,0s-.1-.08-.1-.14a4.56,4.56,0,0,1,0-.52c0-.06,0-.18.16-.24A1.49,1.49,0,0,1,28.79,6.67Z" fill="#003d79" fill-rule="evenodd"/>
          <path d="M4.26,7.49A1.75,1.75,0,0,1,4.35,8c0,.06-.18.08-.23,0s0-.13,0-.19S4,7.62,3.93,7.49s0-.17.12-.16A.34.34,0,0,1,4.26,7.49ZM2.44,6.57a.61.61,0,0,1-.14,0,.26.26,0,0,1-.19-.15c0-.09,0-.33,0-.3a.45.45,0,0,1,.18.27C2.32,6.5,2.44,6.57,2.44,6.57ZM3.85,9.72s0,0,0,.06a.29.29,0,0,0,.06.15C3.92,10,4,10,4,10A1.26,1.26,0,0,0,4,9.82C4,9.77,3.85,9.72,3.85,9.72Zm-1.62-.5s-.13.09-.1.14.14,0,.17,0S2.28,9.21,2.23,9.22Zm.5-.76a.54.54,0,0,0-.2.16c0,.05,0,.09,0,.14s.07.09.14.09.09,0,.13,0A.67.67,0,0,0,3,8.74a.21.21,0,0,0,.11-.18A.15.15,0,0,0,3,8.37C2.89,8.35,2.82,8.43,2.73,8.46Zm1-1.93s0,0,0,0,.11,0,.1.14-.13.16-.19.2a1.13,1.13,0,0,0-.24.17c-.05,0,0,.22,0,.27s0,.13-.07.2a.31.31,0,0,0-.18.22A.14.14,0,0,0,3.25,8s.4,0,.46,0,.13,0,.12.1-.13.06-.2.07a.46.46,0,0,0-.24.09,1.6,1.6,0,0,0,0,.49c0,.08.08.11.15.11s.19-.1.23-.14a.07.07,0,0,1,.12.05s-.05.15-.07.23a.57.57,0,0,1-.08.19s0,.09,0,.18A.43.43,0,0,0,4,9.55a1.18,1.18,0,0,1,.31.49.42.42,0,0,1-.09.34c0,.06-.26,0-.29,0A2.86,2.86,0,0,1,3.66,10a.37.37,0,0,0-.26-.18c-.12,0-.29.07-.37.05l-.12,0c-.14,0-.06-.07,0-.09a1.61,1.61,0,0,0,.36-.27.66.66,0,0,0,.12-.36A.76.76,0,0,0,3.33,9s0-.05-.24-.06-.28,0-.31,0-.12.17-.2.19-.05.1-.08.16a.4.4,0,0,0,0,.3.25.25,0,0,1,0,.21s-.27,0-.27,0l-.38-.4a.28.28,0,0,1,0-.25c0-.07.23-.05.33-.07a.29.29,0,0,0,.16-.24c0-.07,0-.17-.07-.19a1.25,1.25,0,0,0-.24,0c-.1,0-.07-.09-.05-.12a2,2,0,0,1,.33-.31c.11-.07.35-.19.39-.21a.18.18,0,0,0,0-.11.45.45,0,0,0-.19-.15c-.08,0-.1-.09,0-.12a3.47,3.47,0,0,0,.3-.27c.05-.06,0-.09-.07-.15s-.38,0-.49,0A.23.23,0,0,1,2,7.14c-.07-.07.07-.08.15-.1s.12-.08.24-.1.24,0,.37-.06a1.73,1.73,0,0,0,.25-.06,1,1,0,0,1,.17-.13,1.76,1.76,0,0,0,.26-.19s0-.06,0-.12.14-.19.14-.29-.1-.15-.13-.18,0-.17,0-.18a1.29,1.29,0,0,1,.28,0c.06,0,.1.06.14.2s-.06.27-.12.37A.73.73,0,0,0,3.71,6.53Z" fill="#003d79"/>
        </g>
        <g>
          <g>
            <path d="M8.35,4l-.1.33H8l.13-.45L8.54,2.6l.08-.3h.26l.47,1.55a1.69,1.69,0,0,0,.08.24.4.4,0,0,0,.13.18v0H9.21L9.11,4,9,3.56H8.46Zm.17-.66h.41l-.2-.69Z" fill="#003d79" fill-rule="evenodd"/>
            <path d="M10,4.3H9.74V2.7c0-.17,0-.28-.12-.37v0H10l.09.14.78,1.34V2.3h.24V4.4a.64.64,0,0,1-.4-.36L10,2.79V4.3Z" fill="#003d79" fill-rule="evenodd"/>
            <path d="M11.76,4.3h-.24V2.7c0-.17,0-.28-.11-.37v0h.38l.08.14.79,1.34V2.3h.24V4.4A.62.62,0,0,1,12.5,4l-.74-1.25V4.3Z" fill="#003d79" fill-rule="evenodd"/>
          </g>
          <g>
            <path d="M4.83,2.32a1.75,1.75,0,0,0-.4,0,1,1,0,0,0-1.06,1,1,1,0,0,0,1,1A2.42,2.42,0,0,0,5,4.24v-1H4.63c.12.06.12.2.12.34v.43a1.07,1.07,0,0,1-.35.06.79.79,0,0,1-.74-.85.72.72,0,0,1,.71-.79.59.59,0,0,1,.45.18h0Z" fill="#003d79" fill-rule="evenodd"/>
            <path d="M5.82,4.06H6A.33.33,0,0,0,6.16,4h0L6.1,4.3H5.3v-2h.75v.24h-.5V3.1h.37v.24H5.55v.71Z" fill="#003d79" fill-rule="evenodd"/>
            <path d="M2.07,4.3H1.83V2.7c0-.17,0-.28-.11-.37v0h.38l.09.14L3,3.79V2.3H3.2V4.4A.64.64,0,0,1,2.8,4L2.07,2.79V4.3Z" fill="#003d79" fill-rule="evenodd"/>
            <path d="M6.9,4.06h.15A.36.36,0,0,0,7.24,4h0l-.1.33H6.38v-2h.74v.24H6.63V3.1H7v.24H6.63v.71Z" fill="#003d79" fill-rule="evenodd"/>
          </g>
          <g>
            <path d="M15,2.28a.54.54,0,0,1,.27.09.61.61,0,0,1,.3.53.56.56,0,0,1-.41.55,1.06,1.06,0,0,1-.47,0v.82h-.27V2.67c0-.17,0-.29-.12-.37v0H15Zm.28.6a.34.34,0,0,0-.39-.37l-.2,0v.72h.15A.38.38,0,0,0,15.24,2.88Z" fill="#003d79"/>
            <rect x="28.04" y="2.29" width="0.25" height="1.99" fill="#003d79"/>
            <path d="M19.38,4.32h-.27V3.46l-.4-.79-.09-.18a.43.43,0,0,0-.11-.12l-.06,0h.35l.48.86.46-.86H20l-.61,1.13Z" fill="#003d79" fill-rule="evenodd"/>
            <path d="M20.55,4.32V2.56h-.2a.38.38,0,0,0-.28.12h0l.08-.36h1.2v.24H20.8V4.32Z" fill="#003d79" fill-rule="evenodd"/>
            <path d="M24.12,3.92,24,4.25a.92.92,0,0,1-.4.08.94.94,0,0,1-1-1,.93.93,0,0,1,.93-1,1.84,1.84,0,0,1,.47.07V2.7a.84.84,0,0,0-.48-.16.66.66,0,0,0-.63.73.75.75,0,0,0,.68.83A1.16,1.16,0,0,0,24.12,3.92Z" fill="#003d79" fill-rule="evenodd"/>
            <path d="M24.71,3.34v.94h-.27V2.74a1.76,1.76,0,0,0,0-.23c0-.07,0-.14-.1-.16v0h.38V3.1h.85V2.31h.26v2h-.26V3.34Z" fill="#003d79" fill-rule="evenodd"/>
            <path d="M30.13,3.89,30,4.21a.77.77,0,0,1-.39.09.94.94,0,0,1-1-1,.92.92,0,0,1,.92-1,1.92,1.92,0,0,1,.48.07v.32a.84.84,0,0,0-.48-.16.66.66,0,0,0-.63.73.75.75,0,0,0,.68.83A1.12,1.12,0,0,0,30.13,3.89Z" fill="#003d79" fill-rule="evenodd"/>
            <path d="M18.37,4.07h.06c.09,0,.23,0,.28-.08h0l-.09.31h-.9v-2H18V4.08h.34Z" fill="#003d79"/>
            <path d="M16.64,2.22a1,1,0,0,0-1,1,1,1,0,0,0,.93,1,1,1,0,0,0,.93-1A1,1,0,0,0,16.64,2.22Zm0,.21c.4,0,.63.42.63.85s-.24.77-.63.77S16,3.62,16,3.21,16.23,2.43,16.63,2.43Z" fill="#003d79" fill-rule="evenodd"/>
            <path d="M22.12,4.08h.15A.3.3,0,0,0,22.45,4h0l-.09.33h-.8v-2h.75v.24h-.49v.55h.37v.24h-.37v.72Z" fill="#003d79" fill-rule="evenodd"/>
            <path d="M26.26,4.28V2.69c0-.17,0-.29-.11-.37v0h.38l.08.14.79,1.34V2.29h.24V4.38a.61.61,0,0,1-.4-.35L26.5,2.77V4.28Z" fill="#003d79" fill-rule="evenodd"/>
          </g>
        </g>
        <g>
          <path d="M39.28,34.25h.55c1.46,0,2.7-.63,2.7-2.25,0-1.41-.74-2.22-3.1-2.22h-1.1v7.69h1Zm0-3.61h.26c1,0,2.09.14,2.09,1.34s-1.06,1.41-2,1.41h-.31Z" fill="#003d79" fill-rule="evenodd"/>
          <path d="M55.47,29.62a4,4,0,0,0-4,4,4,4,0,0,0,8.06,0A4,4,0,0,0,55.47,29.62Zm0,7.12a3.09,3.09,0,0,1-3.07-3.12,3.07,3.07,0,1,1,6.14,0A3.09,3.09,0,0,1,55.47,36.74Z" fill="#003d79" fill-rule="evenodd"/>
          <polygon points="70 29.78 69.04 29.78 69.04 37.47 72.34 37.47 72.34 36.59 70 36.59 70 29.78" fill="#003d79" fill-rule="evenodd"/>
          <polygon points="82.89 34.13 82.89 37.47 83.84 37.47 83.84 34.13 86.35 29.78 85.25 29.78 83.36 33.06 81.48 29.78 80.38 29.78 82.89 34.13" fill="#003d79" fill-rule="evenodd"/>
          <polygon points="97.7 30.66 99.52 30.66 99.52 29.78 94.91 29.78 94.91 30.66 96.74 30.66 96.74 37.47 97.7 37.47 97.7 30.66" fill="#003d79" fill-rule="evenodd"/>
          <polygon points="108.89 37.47 113.02 37.47 113.02 36.59 109.84 36.59 109.84 33.69 112.93 33.69 112.93 32.81 109.84 32.81 109.84 30.66 113.02 30.66 113.02 29.78 108.89 29.78 108.89 37.47" fill="#003d79" fill-rule="evenodd"/>
          <path d="M128.41,30.14a3.67,3.67,0,0,0-1.94-.52,4,4,0,0,0-4.09,4.05,4,4,0,0,0,4,4,4.1,4.1,0,0,0,2-.54V36a3.12,3.12,0,1,1,0-4.71Z" fill="#003d79" fill-rule="evenodd"/>
          <polygon points="139.04 32.88 139.04 29.78 138.08 29.78 138.08 37.47 139.04 37.47 139.04 33.78 142.7 33.78 142.7 37.47 143.66 37.47 143.66 29.78 142.7 29.78 142.7 32.88 139.04 32.88" fill="#003d79" fill-rule="evenodd"/>
          <polygon points="153.57 37.47 154.53 37.47 154.53 31.74 160.3 37.79 160.3 29.78 159.34 29.78 159.34 35.46 153.57 29.41 153.57 37.47" fill="#003d79" fill-rule="evenodd"/>
          <rect x="170.25" y="29.78" width="0.96" height="7.69" fill="#003d79"/>
          <path d="M186.86,30.14a3.72,3.72,0,0,0-1.94-.52,4,4,0,0,0-4.09,4.05,4,4,0,0,0,4,4,4.17,4.17,0,0,0,2-.54V36a3.11,3.11,0,0,1-2.06.8,3.14,3.14,0,0,1,0-6.27,3.14,3.14,0,0,1,2,.76Z" fill="#003d79" fill-rule="evenodd"/>
          <rect x="38.33" y="26.07" width="148.55" height="0.67" fill="#003d79"/>
          <path d="M78.48,2.34a23.6,23.6,0,0,0-5-.54c-7.62,0-13,4.22-13,11,0,6.33,4.76,10.74,12.82,10.74a40.15,40.15,0,0,0,7.38-.92s0-1,0-1.44V13.93c0-.47,0-1.45,0-1.45H76.05v.1c1.42.56,1.45,2.11,1.45,3.56v4.53a16,16,0,0,1-4.38.6,8.86,8.86,0,0,1-9-8.91c0-5.08,3.75-8.29,8.67-8.29,1.92,0,4.31.44,5.6,1.89h.1Z" fill="#003d79" fill-rule="evenodd"/>
          <path d="M86.88,12.92l5.23,0V10.66H86.88V4.58l7,0V2.3H83.67V23h11l1.2-3.14h-.1c-1.1.94-4.32.87-4.86.87h-4Z" fill="#003d79" fill-rule="evenodd"/>
          <path d="M41.41,6.75l10.81,13.7A8.29,8.29,0,0,0,57.57,24V2.31h-3v16L43,3.76,41.89,2.31H36.75V2.4c1.64,1,1.64,2.21,1.64,4V23h3Z" fill="#003d79" fill-rule="evenodd"/>
          <path d="M102,12.92l5.23,0V10.66H102V4.58l7,0V2.3H98.79V23h11L111,19.9h-.1c-1.1.94-4.32.87-4.86.87h-4Z" fill="#003d79" fill-rule="evenodd"/>
          <path d="M133.66,15.25l3,7.79h4.73v-.1c-1.79-.91-2.36-2.68-3.09-4.47L131.74,2.31h-3.39L120.2,23h2.59l2.93-7.79Zm-.91-2.33h-6.21L129.66,5Z" fill="#003d79" fill-rule="evenodd"/>
          <path d="M147,6.75l10.8,13.7A8.32,8.32,0,0,0,163.11,24V2.31h-3v16L148.57,3.76l-1.14-1.45H142.3V2.4c1.64,1,1.64,2.21,1.64,4V23h3Z" fill="#003d79" fill-rule="evenodd"/>
          <path d="M170.72,6.75l10.81,13.7A8.29,8.29,0,0,0,186.88,24V2.31h-3v16L172.33,3.76,171.2,2.31h-5.13V2.4c1.64,1,1.64,2.21,1.64,4V23h3Z" fill="#003d79" fill-rule="evenodd"/>
        </g>
      </g>
    </g>
  </g>
</svg>
