<svg id="Layer_1" data-name="Layer 1" xmlns="http://www.w3.org/2000/svg" width="342.37" height="160" viewBox="0 0 342.37 160"><defs><style>.cls-1{fill:#683019;}.cls-2{fill:#003d7c;}.cls-3{fill:#fff;}.cls-4{fill:#ef7c00;}.cls-5{fill:#ec671c;}</style></defs><title>National University of Singapore logo</title><path class="cls-1" d="M87.82,63.58h0Z"/><path class="cls-2" d="M122.87,78.91V7.68H6.82V79c0,.06,0,.24,0,.55,0,3.36.73,21.17,15.05,43.73,15.64,24.69,41.46,32.32,42.54,32.63l.4.11.38-.11c1.1-.31,27-7.94,42.65-32.63S122.89,79.71,122.87,78.91Z"/><path class="cls-3" d="M105.31,121.12c-14.06,22.18-37.4,30.27-40.64,31.3-3.23-1-26.49-9.12-40.54-31.3h0C10,98.92,9.52,81.12,9.52,78.69V53.19H119.91V78.35s0,.12,0,.3C119.92,81.14,119.4,98.93,105.31,121.12Z"/><path class="cls-4" d="M61.17,15.88A65.73,65.73,0,0,0,50.61,15a29.81,29.81,0,0,0-10.28,2,29.68,29.68,0,0,0-10.27-2,65.93,65.93,0,0,0-10.57.87l-.63.11V46l.93-.2A50.42,50.42,0,0,1,29.5,45a35.45,35.45,0,0,1,10.57,1.84l.26.1.27-.1A35.32,35.32,0,0,1,51.17,45a50.25,50.25,0,0,1,9.7.85l.94.2V16Z"/><path class="cls-3" d="M39.59,18.43a28.22,28.22,0,0,0-9.5-1.84,65.2,65.2,0,0,0-9.65.75V40.05a54.7,54.7,0,0,1,9.09-.71,36.42,36.42,0,0,1,10.06,1.59Z"/><path class="cls-3" d="M50.65,16.59a28.25,28.25,0,0,0-9.58,1.87V41a35.93,35.93,0,0,1,10.14-1.62,54.92,54.92,0,0,1,9.09.71V17.34A65.2,65.2,0,0,0,50.65,16.59Z"/><path class="cls-2" d="M24.72,20.38a.9.9,0,0,0-.7,1.14,1.08,1.08,0,0,0,1.32.61,35.31,35.31,0,0,1,5.37-.52,15.05,15.05,0,0,1,4.76,1,1.1,1.1,0,0,0,1.35-.53.88.88,0,0,0-.61-1.18,17.33,17.33,0,0,0-5.5-1.14A36.58,36.58,0,0,0,24.72,20.38Z"/><path class="cls-2" d="M24.72,24.89A.9.9,0,0,0,24,26a1.09,1.09,0,0,0,1.32.6,35.31,35.31,0,0,1,5.37-.52,15.36,15.36,0,0,1,4.76,1,1.1,1.1,0,0,0,1.35-.53.88.88,0,0,0-.61-1.18,17.33,17.33,0,0,0-5.5-1.14A36.58,36.58,0,0,0,24.72,24.89Z"/><path class="cls-2" d="M24.72,29.4a.91.91,0,0,0-.7,1.15,1.09,1.09,0,0,0,1.32.6,35.31,35.31,0,0,1,5.37-.52,15.36,15.36,0,0,1,4.76,1,1.1,1.1,0,0,0,1.35-.53.88.88,0,0,0-.61-1.18,17.33,17.33,0,0,0-5.5-1.14A36.58,36.58,0,0,0,24.72,29.4Z"/><path class="cls-2" d="M24.72,33.91a.91.91,0,0,0-.7,1.15,1.09,1.09,0,0,0,1.32.6,35.31,35.31,0,0,1,5.37-.52,14.93,14.93,0,0,1,4.76,1,1.1,1.1,0,0,0,1.35-.54.88.88,0,0,0-.61-1.18,17.63,17.63,0,0,0-5.5-1.14A36.58,36.58,0,0,0,24.72,33.91Z"/><path class="cls-2" d="M56.11,20.38a.9.9,0,0,1,.69,1.14,1.08,1.08,0,0,1-1.32.61,35.31,35.31,0,0,0-5.37-.52,15.05,15.05,0,0,0-4.76,1A1.1,1.1,0,0,1,44,22.1a.88.88,0,0,1,.61-1.18,17.33,17.33,0,0,1,5.5-1.14A36.77,36.77,0,0,1,56.11,20.38Z"/><path class="cls-2" d="M56.11,24.89A.9.9,0,0,1,56.8,26a1.09,1.09,0,0,1-1.32.6,35.31,35.31,0,0,0-5.37-.52,15.36,15.36,0,0,0-4.76,1A1.1,1.1,0,0,1,44,26.61a.88.88,0,0,1,.61-1.18,17.33,17.33,0,0,1,5.5-1.14A36.77,36.77,0,0,1,56.11,24.89Z"/><path class="cls-2" d="M56.11,29.4a.91.91,0,0,1,.69,1.15,1.09,1.09,0,0,1-1.32.6,35.31,35.31,0,0,0-5.37-.52,15.36,15.36,0,0,0-4.76,1A1.1,1.1,0,0,1,44,31.12a.88.88,0,0,1,.61-1.18,17.33,17.33,0,0,1,5.5-1.14A36.77,36.77,0,0,1,56.11,29.4Z"/><path class="cls-2" d="M56.11,33.91a.91.91,0,0,1,.69,1.15,1.09,1.09,0,0,1-1.32.6,35.31,35.31,0,0,0-5.37-.52,14.93,14.93,0,0,0-4.76,1A1.1,1.1,0,0,1,44,35.63a.88.88,0,0,1,.61-1.18,17.63,17.63,0,0,1,5.5-1.14A36.77,36.77,0,0,1,56.11,33.91Z"/><path class="cls-2" d="M114.93,73.69a5.43,5.43,0,0,0-3-3.73c-3.85-2-8.87-.61-13.28.89a36.25,36.25,0,0,1-8.1,2.05c-2.84.44-12.37,1.67-15.38-.82a3,3,0,0,1-.91-1.64A4.31,4.31,0,0,1,75,67.77c.76-.83,2.53-1.24,5.42-1.24l7.37.12c.47.59,1.65,1.55,4.64,2.19a22.69,22.69,0,0,0,10-.64,4.47,4.47,0,0,1-1.59-.71,1.47,1.47,0,0,1-.58-1.19,6.15,6.15,0,0,0,2.58.46c1.91-.06,2.79-1,4.56-1.41a9.85,9.85,0,0,1,3.76-.08A8.3,8.3,0,0,0,107.58,63a12.31,12.31,0,0,0-4,.11,5.29,5.29,0,0,0,1.22-.84,2.4,2.4,0,0,0,.64-1.3,11.72,11.72,0,0,1-4.29.71c-2.16-.11-2-.89-6.19-1a10.8,10.8,0,0,0-6.89,2.72c-3.39-.22-6.07-.34-7.63-.34-4.32,0-6.81.71-8.34,2.36a6.73,6.73,0,0,0-1.64,5.33,5.87,5.87,0,0,0,2.22,4.17c4,3.34,14.84,2.32,18.66,1.64a46.88,46.88,0,0,0,8-1.91l.15,0c1.91-.64,7.76-2.59,10.2-1.29a2.23,2.23,0,0,1,1,1.51,3.61,3.61,0,0,1,.14.92,2,2,0,0,1-.47,1.32c-2.23,2.72-10.62,3.19-14.26,3.38a29.25,29.25,0,0,0-6.07-.66c-2.17,0-4,.13-5.9.27a60.62,60.62,0,0,1-13.13-.15,43.57,43.57,0,0,1-7.37-1.41,4.13,4.13,0,0,0-1.19-2.29c1.44.46,3.32-1.12,3.85-1.91,0-.08-2.57-.76-2.72-2.42,0,0,1.81.16,2.57-2.33-1.82-1-1.25-1.34-2.12-2.57a3.68,3.68,0,0,0-3.24-1.58,2.51,2.51,0,0,0,1.21-.3c.78-.39,1.33-1.48,2.11-1.43-1.58-2.47-5.81-2.79-7.56-2.27.45-.56,1.14-1.19,1.15-1.95-2.34.64-4.63-.57-7-.13a4.14,4.14,0,0,0-3.68,3H47a4.15,4.15,0,0,0-3.68-3c-2.36-.44-4.65.77-7,.13,0,.76.7,1.39,1.15,1.95-1.75-.52-6-.2-7.56,2.27.78-.05,1.32,1,2.11,1.43a2,2,0,0,0,1.21.3A3.71,3.71,0,0,0,30,67c-.87,1.23-.3,1.59-2.11,2.57.76,2.49,2.57,2.28,2.57,2.33-.15,1.66-2.71,2.34-2.72,2.42.53.79,2.4,2.37,3.85,1.91a3.74,3.74,0,0,0-1.11,3.67,25.73,25.73,0,0,1-4.62-4.21,41.69,41.69,0,0,1-1.43-4.28l-.39-1.28-.19-.68c-.58-2.12-1.13-3.89-2.1-4.13a4.83,4.83,0,0,0-1.42-.12A2.85,2.85,0,0,0,19,63.94a2.5,2.5,0,0,0-1.65-.09,4.21,4.21,0,0,1,1.2,1.31,2.25,2.25,0,0,1,.16.48,4.63,4.63,0,0,0-.54.37l-.08.06-.44.37-.23,0a2.57,2.57,0,0,0-1.65.18,5.44,5.44,0,0,1,1.1.74,3.62,3.62,0,0,0-.74,2.17,2.65,2.65,0,0,0,0,.27,2.51,2.51,0,0,0-1.52.48,4.33,4.33,0,0,1,1.6.81.8.8,0,0,1,.15.17l-.08.1A2.08,2.08,0,0,0,16,72.47a3.87,3.87,0,0,0,1.29,2.69L19.43,77a18.89,18.89,0,0,0,2.22,4c.18.22,1.39,2.31,2.68,4.52l.52.9c.28,1.36.59,3.05.73,4.37a29.17,29.17,0,0,1,0,5,3.2,3.2,0,0,0,2.25-1.08,10.27,10.27,0,0,1,.49,3.54,28.66,28.66,0,0,1-.43,3.34,16.23,16.23,0,0,0,2.64-1.8A9.87,9.87,0,0,0,32,97.85c1.24.8,4.81-.47,6.59-1.19A16.31,16.31,0,0,0,40.11,99c.26-1.07,1.4-1.6,1.93-2.46h.49a7.92,7.92,0,0,0,.83,4.45,26.13,26.13,0,0,0,3,4.09c-.42,2-1.22,5.59-2,8.54a27.76,27.76,0,0,1-2.16,5.85c-1.27.06-3.6.14-4.34.11a4.94,4.94,0,0,0-3.89,1.1l-.16.18a2.89,2.89,0,0,0-1.71.71,2.6,2.6,0,0,0-.78,1.47,4.33,4.33,0,0,1,1.7-.56h.15v.15a2.59,2.59,0,0,0,.27.79,1.42,1.42,0,0,0-.31.29,2.55,2.55,0,0,0-.67,1.52,4.3,4.3,0,0,1,1.63-.67c.23.37.48.74.75,1.1l-.09.12a2.49,2.49,0,0,0-.55,1.56,4.63,4.63,0,0,1,1.39-.74,7.44,7.44,0,0,0,.68.69c1.06.93,3.71.33,7.06-.57l2.08-.51a4.12,4.12,0,0,0,3-2,8.13,8.13,0,0,0,.53-1.36l.19-.59a16,16,0,0,1,1.75-3.61L53,115.26c1.08-.9,2.39-2,3.34-2.59,1.45-1,4.33-2.45,4.33-2.45a3.24,3.24,0,0,0-1.92-1.42,10.75,10.75,0,0,1,2.71-2,17.23,17.23,0,0,1,3.21-.94,5.75,5.75,0,0,0-1.68-2,5.77,5.77,0,0,0,1.3-.7A6.59,6.59,0,0,1,70.21,102,2.35,2.35,0,0,0,69,99.63a16.08,16.08,0,0,1,2.51-.84c.56.95,1.19,2,1.47,2.41A49.33,49.33,0,0,0,77.7,107a.3.3,0,0,1,0,.21,15,15,0,0,1-1.22,3.42l-.39.88-2,4.67c-.89.06-3.49.2-4.4.15a4.92,4.92,0,0,0-3.8,1.07,3.56,3.56,0,0,0-.26.31,3.05,3.05,0,0,0-1.8.83A2.58,2.58,0,0,0,63.2,120a4.41,4.41,0,0,1,1.66-.66h.32a3.29,3.29,0,0,0,.3.8,1.53,1.53,0,0,0-.42.42,2.57,2.57,0,0,0-.56,1.56,4.36,4.36,0,0,1,1.6-.79h.08c.17.27.36.54.56.81a1.3,1.3,0,0,0-.19.22A2.58,2.58,0,0,0,66,124a4.36,4.36,0,0,1,1.55-.78c.23.25.44.48.64.66,1,.89,3.2.36,6.17-.49l2.11-.56a4,4,0,0,0,3-1.91l.55-1.19a15.66,15.66,0,0,1,.79-1.66c.34-.54.71-1.19,1.07-1.89.5-.43,1-.81,1.29-1.07a39,39,0,0,1,3.34-2A2,2,0,0,0,85,111.88a8.92,8.92,0,0,1,2.11-1.75,9.48,9.48,0,0,1,2.45-.76,10.12,10.12,0,0,0-2-1.33,5.3,5.3,0,0,0-1.22-.32,4.21,4.21,0,0,0-.78-1.76c-.84-1.3.39-4.1,1.28-5.69a34.38,34.38,0,0,0,2.57,3.15l5.23,5.72A58.21,58.21,0,0,1,93,114.79a43.14,43.14,0,0,1-2.16,4.79c-1,0-3.36.17-4.21.14a4.81,4.81,0,0,0-3.8,1.07,2.55,2.55,0,0,0-.34.41,2.68,2.68,0,0,0-1.53.81,2.49,2.49,0,0,0-.66,1.52,2.81,2.81,0,0,1,1.64-.68H82a3.42,3.42,0,0,0,.32.79,1.53,1.53,0,0,0-.42.42,2.58,2.58,0,0,0-.56,1.57,4.17,4.17,0,0,1,1.6-.8H83c.22.34.47.69.71,1,0,0,0,0,0,0a2.55,2.55,0,0,0-.56,1.56,4.84,4.84,0,0,1,1.29-.71c.19.2.37.39.54.54,1,.9,3.21.36,6.18-.5l2.09-.54a4,4,0,0,0,3-1.91c.29-.48,1.59-3.51,1.95-4.39.64-1.57,1.37-3.2,2.07-4.69.35-.29.68-.56.94-.75,1.17-.81,3.68-2.24,3.68-2.24a2.06,2.06,0,0,0-1.46-1.15,13.76,13.76,0,0,1,2-1.59,9.72,9.72,0,0,1,2.59-.92,13.15,13.15,0,0,0-2-1.28,7.91,7.91,0,0,0-1.72-.44,1.62,1.62,0,0,0-1-1.22,6,6,0,0,1-2.13-1.75c-1.29-1.51-1.48-4.4-1.48-7.28,0-.64,0-1.27,0-1.89V91.94a26.51,26.51,0,0,0-1-7c4.24-.38,12-1.24,15.2-5.13a6.28,6.28,0,0,0,1.44-4A8,8,0,0,0,114.93,73.69Z"/><path class="cls-4" d="M55.41,70.5c.66-.46,2.25-1.78,1.4-3.38s-3-1-3.58-.74c-.08-.09-4.65-2.08-4.71-2s-1.79,2.11-1.79,2.11S44.91,64.31,45,64.34s-4.63,2-4.72,2c-.61-.26-2.67-.94-3.57.74s.73,2.92,1.4,3.38l0,0-1.47,2.61c0-.05,4.31,5.19,4.31,5.19s0,3.36,0,3.38,1.7,1.14,1.83,1.17a14.16,14.16,0,0,0,.66,2.65,6.9,6.9,0,0,0,3.31.73h.13a6.94,6.94,0,0,0,3.31-.73,15,15,0,0,0,.66-2.65c.13,0,1.82-1.17,1.82-1.17V78.34s4.29-5.24,4.31-5.19l-1.47-2.61Zm-14.81.26,3.83,0h.15l-.14,2.23ZM49.53,73l.62,5.34-2.94,1.59c0,.15,0,1.78,0,1.9a5.61,5.61,0,0,0,1.16.7,3.22,3.22,0,0,0,1.9.16l.24-.06-.21.71H50.2a4.79,4.79,0,0,1-2,0A3.6,3.6,0,0,1,47,82.68h-.46a3.87,3.87,0,0,1-1.28.61,4.74,4.74,0,0,1-2,0h-.09l-.2-.71.24.06a3.22,3.22,0,0,0,1.9-.16,5.92,5.92,0,0,0,1.16-.7c0-.12,0-1.79,0-1.92l-2.93-2.08h5.24v-7l4.14,0h.53Z"/><path class="cls-4" d="M84.5,109.06c.57-.52.85-.8.85-1.18a3,3,0,0,0-.63-1.35,3.08,3.08,0,0,1-.44-1.71c0-2.08,1.39-4.6,1.93-5.51l-.65-.86-.35-.23a9.94,9.94,0,0,1-1.84-1.77c-.07-.11-.16-.24-.24-.38a21.23,21.23,0,0,0-6.75.75,2.09,2.09,0,0,1,1.11,2,13.57,13.57,0,0,0-4.84-.23c.5.84,1,1.69,1.24,2a47.91,47.91,0,0,0,4.56,5.63,1.28,1.28,0,0,1,.34,1,11.89,11.89,0,0,1-1.3,3.86l-.38.87-2.24,5.27-.32,0c-.15,0-3.69.23-4.85.17a4.31,4.31,0,0,0-2.82.61,1.56,1.56,0,0,1,0,.86,1.13,1.13,0,0,1-.56.7.76.76,0,0,0,.09.18,7.23,7.23,0,0,1,1.35-.3,1.49,1.49,0,0,1-.29,2,2.43,2.43,0,0,1,.14.2,6.66,6.66,0,0,1,1.65-.4,1.88,1.88,0,0,1,.26,1.27,1.09,1.09,0,0,1-.41.69c.94.3,3.39-.4,4.92-.84l2.2-.58a3,3,0,0,0,2.27-1.42l.49-1.06a14,14,0,0,1,.87-1.81,46.57,46.57,0,0,0,2.19-4.15A20.38,20.38,0,0,1,84.5,109.06Z"/><path class="cls-5" d="M42.3,95.46v.06h0A.14.14,0,0,1,42.3,95.46Z"/><path class="cls-4" d="M37.74,89.37a4.67,4.67,0,0,1-3.54,1.71,5.93,5.93,0,0,0-.56-4c-.52-1.13-1.93-3.32-2.35-4.57-.12-.35-.23-.68-.34-1A31.49,31.49,0,0,1,25,76.31a26,26,0,0,1-1.59-4.61L23,70.42l-.21-.71c-.56-2.09-1-3.23-1.33-3.38a4.6,4.6,0,0,0-.6-.09h0s-.1.64-1.18.59a1.37,1.37,0,0,1-.62-.18,2.4,2.4,0,0,0-.26.18l-.08.07L18.6,67a6.74,6.74,0,0,1,1.08,1.31,1.34,1.34,0,0,1-2.11.48,1.64,1.64,0,0,0-.08-.5,2.53,2.53,0,0,0-.23,1.7,6.62,6.62,0,0,1,1.55,1.21s0,.61-.88,1a1,1,0,0,1-.86,0,2.58,2.58,0,0,0,.9,2.13l2.32,1.92.05.12a18.82,18.82,0,0,0,2.11,3.78c.19.22.88,1.4,2.79,4.7,2.55,4.37,6.39,11,7.38,12.09.38.35,3-.26,5.59-1.29C37.29,93.13,38.09,91.57,37.74,89.37Z"/><path class="cls-4" d="M113.91,74a4.34,4.34,0,0,0-2.49-3.08c-3.47-1.85-8.24-.48-12.44,1a36.59,36.59,0,0,1-8.28,2.1c-3.79.58-13,1.65-16.21-1a3.92,3.92,0,0,1-1.29-2.37,5.26,5.26,0,0,1,1-3.47c1-1.1,2.91-1.58,6.2-1.58l7.67.12.58-.52-.56-.6c-3.42-.23-6.11-.35-7.66-.35-4,0-6.26.61-7.56,2a5.73,5.73,0,0,0-1.37,4.52,4.9,4.9,0,0,0,1.84,3.45c3.43,2.83,13.47,2.17,17.8,1.41a46.29,46.29,0,0,0,7.9-1.87l.14-.05c2.24-.75,8.19-2.74,11-1.22a3.22,3.22,0,0,1,1.57,2.16,3.33,3.33,0,0,1-.53,3.19c-2.54,3.1-10.7,3.54-15.09,3.78H96.1l-.08,0a28.89,28.89,0,0,0-5.9-.64c-2.12,0-3.91.12-5.81.26A61.81,61.81,0,0,1,71,81a46.84,46.84,0,0,1-7.28-1.38,19.58,19.58,0,0,1-.86,3C62.42,83.78,61,86,60.49,87.1a6,6,0,0,0-.57,4,4.67,4.67,0,0,1-3.53-1.71c-.48,3,1.22,4.83-2.36,9.66-.36-1.46-2.37-1.92-2.2-3.58-.63,1.73.39,2.73-1,5.58a22.55,22.55,0,0,1-3.46,4.55c-.45,2-1.22,5.51-2,8.36a25.59,25.59,0,0,1-2.42,6.35l-.14.24h-.28c-1.15.07-3.87.16-4.73.13a4.71,4.71,0,0,0-2.75.52,1.51,1.51,0,0,1-.09,1,1.4,1.4,0,0,1-.67.6l.1.21a6.72,6.72,0,0,1,1.55-.23,1.78,1.78,0,0,1,0,1.43,1.09,1.09,0,0,1-.46.56c.08.1.15.21.23.32a6.44,6.44,0,0,1,1.78-.46,1.81,1.81,0,0,1,.13,1.48.84.84,0,0,1-.39.55c1.08.33,4.12-.47,5.82-.93l2.16-.53a3.06,3.06,0,0,0,2.34-1.47,9.24,9.24,0,0,0,.43-1.14l.2-.61a17.27,17.27,0,0,1,1.84-3.81c2.21-3.54,8.74-14.21,9-15.06a.86.86,0,0,0,0-.17,12.77,12.77,0,0,0-.5-2.6l-.14-.51,22.36-6.53-1.3-2.25.77-.69a25.44,25.44,0,0,1,2.58,2.12,18.73,18.73,0,0,1,2.34,3.28l.41.65a25.55,25.55,0,0,0,1.81,2.5l0,0,0,0a25.44,25.44,0,0,0,2.93,3.71l5.59,6.12-.06.27A58.64,58.64,0,0,1,94,115.15a46.17,46.17,0,0,1-2.36,5.18l-.14.26-.3,0c-1.07.06-3.67.2-4.63.16a4.52,4.52,0,0,0-2.7.52,1.52,1.52,0,0,1,0,1,1.73,1.73,0,0,1-.6.68l.08.15a7.41,7.41,0,0,1,1.36-.3,2,2,0,0,1,.23,1.25,1,1,0,0,1-.5.78l.21.28a6.37,6.37,0,0,1,1.89-.51,1.75,1.75,0,0,1,.23,1.24,1.15,1.15,0,0,1-.48.72,16.29,16.29,0,0,0,4.66-.9l2.2-.58a2.91,2.91,0,0,0,2.26-1.41c.22-.36,1.42-3.13,1.88-4.24a91.66,91.66,0,0,1,4.55-9.56l.7-1.11a3.17,3.17,0,0,0,.74-1.52c0-.5-.07-.51-.52-.74a7,7,0,0,1-2.46-2c-1.83-2.15-1.77-6.25-1.72-9.87V92a25,25,0,0,0-1.14-7.34L97.18,84l.67-.06c3.91-.35,12.05-1.07,15.11-4.81A5.48,5.48,0,0,0,113.91,74Z"/><path class="cls-5" d="M92.82,32a7.94,7.94,0,0,1,1.13,2,8.34,8.34,0,0,1-1.13.09,8.47,8.47,0,0,1-1.13-.08A8.34,8.34,0,0,1,92.82,32Z"/><path class="cls-4" d="M105.43,25.93c0-.14,0-.27,0-.41a12.63,12.63,0,0,0-25.26,0l0,.41A12.62,12.62,0,1,0,92.83,47.77a12.61,12.61,0,0,0,19.35-10.68A12.7,12.7,0,0,0,105.43,25.93ZM91.84,38.08l1,.07c.33,0,.66,0,1,0a7.58,7.58,0,0,1-1,2.88A8,8,0,0,1,91.84,38.08Zm6.87-1.4a12.66,12.66,0,0,0,5.52-5.78,7.76,7.76,0,0,1-7.72,13.34,12.47,12.47,0,0,0,2.22-7.15ZM86.1,24.46c-.33,0-.66,0-1,.05a7.76,7.76,0,0,1,15.4,0l-1-.07a12.58,12.58,0,0,0-6.71,1.94A12.63,12.63,0,0,0,86.1,24.46Zm13.45,4.86h0a8.11,8.11,0,0,1-2.07,2.37,12.13,12.13,0,0,0-1-1.76A7.82,7.82,0,0,1,99.55,29.32ZM81.41,30.91a12.59,12.59,0,0,0,5.52,5.77c0,.14,0,.27,0,.41a12.6,12.6,0,0,0,2.23,7.15,7.9,7.9,0,0,1-3,.62,7.76,7.76,0,0,1-4.69-13.95Zm6.72.79a7.87,7.87,0,0,1-2.08-2.37h0a7.76,7.76,0,0,1,3,.62A11.92,11.92,0,0,0,88.13,31.7Z"/><path class="cls-3" d="M95.22,38a11.9,11.9,0,0,0,2.06-.6,11.06,11.06,0,0,1-2,6.25,7.9,7.9,0,0,1-1.54-1.35A9.07,9.07,0,0,0,95.22,38Z"/><path class="cls-3" d="M92.82,14.43a11.22,11.22,0,1,1,0,22.43l-1-.07a7.86,7.86,0,0,1,.37-2l.66,0a9.19,9.19,0,1,0-9.14-10,11.9,11.9,0,0,0-2.06.6A11.21,11.21,0,0,1,92.82,14.43Z"/><path class="cls-3" d="M99.54,26l1,.08a7.87,7.87,0,0,1-.38,2l-.65,0a9.28,9.28,0,0,0-3.91.89,12.91,12.91,0,0,0-1.54-1.51A11.24,11.24,0,0,1,99.54,26Z"/><path class="cls-3" d="M86.1,48.44A11.22,11.22,0,1,1,96.31,32.58a7.64,7.64,0,0,1-1.93.68A9.18,9.18,0,1,0,86.1,46.4,9.23,9.23,0,0,0,90,45.5,12.93,12.93,0,0,0,91.57,47,11.19,11.19,0,0,1,86.1,48.44Z"/><path class="cls-3" d="M84.54,29.55a9.2,9.2,0,0,0,3,3.57,12.35,12.35,0,0,0-.5,2.1,11.16,11.16,0,0,1-4.45-5A7.82,7.82,0,0,1,84.54,29.55Z"/><path class="cls-3" d="M99.54,48A11.23,11.23,0,0,1,88.33,36.78,11,11,0,0,1,90.4,30.3a8.18,8.18,0,0,1,1.53,1.35,9.2,9.2,0,1,0,12.84-2.39,13.28,13.28,0,0,0,.52-2.11A11.22,11.22,0,0,1,99.54,48Z"/><path class="cls-2" d="M139.28,92.9h3l6.81,12.43h.05V92.9h2.21v15.44h-2.83l-7-12.69h0v12.69h-2.21Z"/><path class="cls-2" d="M161.78,104a2.85,2.85,0,0,1-3.14,3,2,2,0,0,1-2.11-1.84c0-2,2.79-2.17,3.92-2.17.44,0,.88,0,1.33,0Zm-6.07-4.34A5.37,5.37,0,0,1,159,98.48c2.08,0,2.79,1,2.79,2.94-.82,0-1.4,0-2.22,0-2.14,0-5.24.88-5.24,3.71,0,2.46,1.71,3.52,4.14,3.52a4.2,4.2,0,0,0,3.5-1.73h0v1.46H164a16.52,16.52,0,0,1-.09-2.21v-4.67c0-3.07-1.31-4.67-4.54-4.67a7.1,7.1,0,0,0-3.72,1.07Z"/><path class="cls-2" d="M173.37,98.74h-3v6.17a1.8,1.8,0,0,0,1.75,2,2.55,2.55,0,0,0,1.42-.4v1.77a6.69,6.69,0,0,1-1.77.31c-2.15,0-3.47-1-3.47-3.28V98.74h-2.55V97.06h2.55V94.44l2.07-.66v3.28h3Z"/><path class="cls-2" d="M176.25,108.34h2.08V97.06h-2.08Zm2.21-16.15h-2.35v2.35h2.35Z"/><path class="cls-2" d="M183.59,102.7c0-2.14,1.31-4.22,3.54-4.22s3.52,2.08,3.52,4.22-1.08,4.23-3.52,4.23S183.59,104.72,183.59,102.7Zm-2.21,0a5.75,5.75,0,1,0,11.49,0,5.75,5.75,0,1,0-11.49,0Z"/><path class="cls-2" d="M195.66,97.06h2v1.79h0a4.07,4.07,0,0,1,3.7-2.06c2.92,0,4.22,1.82,4.22,4.85v6.7h-2.08V102.5c0-2.63-.57-3.91-2.39-4-2.36,0-3.43,1.9-3.43,4.64v5.22h-2.07Z"/><path class="cls-2" d="M215.88,104a2.85,2.85,0,0,1-3.14,3,2,2,0,0,1-2.11-1.84c0-2,2.79-2.17,3.92-2.17.44,0,.88,0,1.33,0Zm-6.07-4.34a5.36,5.36,0,0,1,3.27-1.14c2.09,0,2.8,1,2.8,2.94-.82,0-1.4,0-2.22,0-2.14,0-5.24.88-5.24,3.71,0,2.46,1.7,3.52,4.14,3.52a4.2,4.2,0,0,0,3.5-1.73h0v1.46h2a15.77,15.77,0,0,1-.1-2.21v-4.67c0-3.07-1.3-4.67-4.53-4.67a7.15,7.15,0,0,0-3.72,1.07Z"/><path class="cls-2" d="M221.74,91.75h2.08v16.59h-2.08Z"/><path class="cls-2" d="M245.37,102c0,4.34-2.19,6.66-6,6.66s-6-2.32-6-6.66v-9h2.22v8.76c0,3,.92,5,3.78,5s3.78-2,3.78-5V92.9h2.21Z"/><path class="cls-2" d="M249.14,97.06h2v1.79h0a4.09,4.09,0,0,1,3.7-2.06c2.92,0,4.23,1.82,4.23,4.85v6.7H257V102.5c0-2.63-.58-3.91-2.39-4-2.37,0-3.44,1.9-3.44,4.64v5.22h-2.07Z"/><path class="cls-2" d="M262.92,97.06H265v11.28h-2.08Zm2.21-2.52h-2.34V92.19h2.34Z"/><path class="cls-2" d="M273.81,108.34h-2.48l-4.05-11.28h2.28l3.05,9.21h.05l3.12-9.21h2.08Z"/><path class="cls-2" d="M281.33,101.62c.16-1.46,1-3.14,3-3.14a2.85,2.85,0,0,1,2.81,3.14Zm7.19,4.18a6.67,6.67,0,0,1-3.47,1.13,3.7,3.7,0,0,1-3.72-3.76h8.05c0-3.63-1.21-6.38-5-6.38-3.19,0-5.29,2.37-5.29,5.71,0,3.67,1.83,6.11,5.84,6.11a8.72,8.72,0,0,0,3.56-.73Z"/><path class="cls-2" d="M292.17,97.06h1.95v1.75h.05a3.41,3.41,0,0,1,2.94-2,5.79,5.79,0,0,1,1.37.16v1.86a3,3,0,0,0-1.15-.2c-1.86,0-3.08,1.77-3.08,4.6v5.13h-2.08Z"/><path class="cls-2" d="M299.94,106.13a5.57,5.57,0,0,0,2.58.8c1,0,2.13-.4,2.13-1.62,0-2.06-4.89-1.88-4.89-5,0-2.35,1.75-3.48,4-3.48a8.77,8.77,0,0,1,2.59.44l-.17,1.82a6.08,6.08,0,0,0-2.19-.57c-1.07,0-2,.44-2,1.37,0,2.3,4.89,1.63,4.89,5.24,0,2.41-1.92,3.52-3.94,3.52a6.44,6.44,0,0,1-3.09-.62Z"/><path class="cls-2" d="M309.65,97.06h2.08v11.28h-2.08Zm2.21-2.52h-2.34V92.19h2.34Z"/><path class="cls-2" d="M321.53,98.74h-3v6.17a1.79,1.79,0,0,0,1.74,2,2.55,2.55,0,0,0,1.42-.4v1.77a6.62,6.62,0,0,1-1.77.31c-2.14,0-3.47-1-3.47-3.28V98.74h-2.55V97.06h2.55V94.44l2.08-.66v3.28h3Z"/><path class="cls-2" d="M323.3,111.4a3.18,3.18,0,0,0,1,.17c1.85,0,2.47-2.56,2.47-2.78a5.78,5.78,0,0,0-.4-1.2l-3.82-10.53h2.28l3,9.34h0l3.1-9.34h2.11l-4.16,11.53c-.78,2.16-1.6,4.66-4.34,4.66a6.58,6.58,0,0,1-1.42-.15Z"/><path class="cls-2" d="M140.56,128.85c0-2.14,1.3-4.22,3.54-4.22s3.52,2.08,3.52,4.22-1.09,4.23-3.52,4.23S140.56,130.86,140.56,128.85Zm-2.21,0a5.74,5.74,0,1,0,11.48,0,5.74,5.74,0,1,0-11.48,0Z"/><path class="cls-2" d="M154,124.89h-2.65v-1.68H154v-1c0-2.74.72-4.54,3.79-4.54a8.06,8.06,0,0,1,1.39.14l-.08,1.68a3.32,3.32,0,0,0-1-.13c-1.79,0-2,1.15-2,2.67v1.22h3v1.68h-3v9.6H154Z"/><path class="cls-2" d="M174,121.37a6.81,6.81,0,0,0-2.89-.64c-1.24,0-2.7.44-2.7,2.06,0,3,6.63,2.28,6.63,7.37,0,3.29-2.54,4.6-5.64,4.6a10.34,10.34,0,0,1-3.16-.64l.22-2.06a9.36,9.36,0,0,0,3.21.75c1.26,0,3-.71,3-2.52,0-3.45-6.64-2.5-6.64-7.3,0-2.75,2.17-4.21,5-4.21a10.41,10.41,0,0,1,3.29.55Z"/><path class="cls-2" d="M178.09,123.21h2.08v11.28h-2.08Zm2.21-2.53H178v-2.34h2.34Z"/><path class="cls-2" d="M184,123.21h2V125h0a4.07,4.07,0,0,1,3.7-2.06c2.92,0,4.23,1.82,4.23,4.85v6.7h-2.09v-5.84c0-2.63-.57-3.91-2.39-4-2.36,0-3.43,1.9-3.43,4.64v5.22H184Z"/><path class="cls-2" d="M202.1,132.81c-1.95,0-3.14-1.86-3.14-4,0-1.93,1-4.2,3.14-4.2s3.29,2,3.29,4.35C205.39,131.09,204,132.81,202.1,132.81Zm5.38-9.6h-1.93v1.68h0c-.63-1.22-1.73-2-3.72-2-3.41,0-5,3.1-5,6s1.59,5.55,4.82,5.55a4.69,4.69,0,0,0,3.79-1.75h0v1.11c0,2.39-1.3,3.87-3.49,3.87a8.56,8.56,0,0,1-4.07-1l-.23,1.92a11.42,11.42,0,0,0,4.05.77c4,0,5.83-2,5.83-5.4Z"/><path class="cls-2" d="M217.72,130.11a2.86,2.86,0,0,1-3.14,3,2,2,0,0,1-2.11-1.84c0-2,2.79-2.17,3.92-2.17.44,0,.89.05,1.33.05Zm-6.06-4.34a5.34,5.34,0,0,1,3.27-1.14c2.08,0,2.79,1,2.79,2.94-.82,0-1.4,0-2.21,0-2.15,0-5.25.89-5.25,3.72,0,2.46,1.7,3.52,4.14,3.52a4.2,4.2,0,0,0,3.5-1.73h0v1.46h1.94a19.54,19.54,0,0,1-.08-2.21v-4.67c0-3.07-1.31-4.67-4.54-4.67a7.22,7.22,0,0,0-3.72,1.07Z"/><path class="cls-2" d="M231.83,128.8c0,1.78-.88,4.28-3.12,4.28s-3.31-2.33-3.31-4.21c0-2.1,1.08-4.24,3.34-4.24S231.88,126.77,231.83,128.8Zm-8.51,10.34h2.08v-6.2h0a4,4,0,0,0,3.76,1.82c3.41,0,4.85-3,4.85-6.11s-1.59-5.71-4.87-5.71a4.52,4.52,0,0,0-3.83,1.86h0v-1.59h-2Z"/><path class="cls-2" d="M238.29,128.85c0-2.14,1.31-4.22,3.54-4.22s3.52,2.08,3.52,4.22-1.08,4.23-3.52,4.23S238.29,130.86,238.29,128.85Zm-2.21,0a5.74,5.74,0,1,0,11.48,0,5.74,5.74,0,1,0-11.48,0Z"/><path class="cls-2" d="M250.36,123.21h1.94V125h0a3.44,3.44,0,0,1,2.95-2,5.79,5.79,0,0,1,1.37.16V125a3,3,0,0,0-1.15-.2c-1.86,0-3.08,1.77-3.08,4.6v5.13h-2.07Z"/><path class="cls-2" d="M260.42,127.77c.16-1.46,1-3.14,3-3.14a2.84,2.84,0,0,1,2.81,3.14Zm7.19,4.18a6.67,6.67,0,0,1-3.47,1.13,3.7,3.7,0,0,1-3.72-3.76h8.05c0-3.63-1.21-6.38-5-6.38-3.19,0-5.29,2.37-5.29,5.71,0,3.67,1.84,6.11,5.84,6.11a8.55,8.55,0,0,0,3.56-.73Z"/><path class="cls-2" d="M282.3,62.11c4.24,3.91,12.58,7.47,22.78,7.63,8.94.15,16.15-2.54,16.6-9.95.94-16-40.19-9.62-38.6-36.7.79-13.56,14.25-18,28.76-17.8,7.85.14,15.69,2,20,4.18l0,9.62a36.49,36.49,0,0,0-18.62-6c-9.21-.17-16.52,1.53-16.63,8.26-.25,14,41.25,10.67,39.66,37.53-.89,15.12-15.58,19.76-31,19.48-8.85-.12-17.51-1.92-23-4.71Z"/><path class="cls-2" d="M243.38,78.44c-19.11,0-30.11-8.59-30.11-26.24V7.38H227.6V52.2c0,11,5.27,17.63,15.78,17.63s15.78-6.66,15.78-17.63V7.38h14.32V52.2C273.49,69.85,262.48,78.44,243.38,78.44Z"/><path class="cls-2" d="M190,7.38V57.86L157.16,11a8.6,8.6,0,0,0-7-3.57H139.31V76.22h9.55V25.7l32.78,46.78a8.67,8.67,0,0,0,7.1,3.74h10.8V7.38Z"/></svg>