<svg xmlns="http://www.w3.org/2000/svg" width="631.5" height="130.59" viewBox="0 0 631.5 130.59">
  <title>Asset 1</title>
  <g id="Layer_2" data-name="Layer 2">
    <g id="Layer_1-2" data-name="Layer 1">
      <g>
        <g>
          <g>
            <path d="M262.18,89a7.32,7.32,0,0,1,0,.74,1.7,1.7,0,0,1-.11.49.58.58,0,0,1-.17.28.36.36,0,0,1-.24.09H257v15.6a.44.44,0,0,1-.09.27.62.62,0,0,1-.3.19,3.06,3.06,0,0,1-.58.12,8.13,8.13,0,0,1-1.8,0,2.78,2.78,0,0,1-.57-.12.71.71,0,0,1-.31-.19.44.44,0,0,1-.09-.27V90.57H248.7a.36.36,0,0,1-.24-.09.79.79,0,0,1-.17-.28,1.74,1.74,0,0,1-.1-.49,5.22,5.22,0,0,1,0-.74,5.53,5.53,0,0,1,0-.76,1.82,1.82,0,0,1,.1-.5.66.66,0,0,1,.17-.27.35.35,0,0,1,.24-.08h12.92a.35.35,0,0,1,.24.08.5.5,0,0,1,.17.27,1.78,1.78,0,0,1,.11.5C262.16,88.42,262.18,88.67,262.18,89Z" fill="#231f20"/>
            <path d="M279.87,106.17a.44.44,0,0,1-.09.27.61.61,0,0,1-.31.19,2.82,2.82,0,0,1-.56.12,7.33,7.33,0,0,1-.9,0,7.51,7.51,0,0,1-.91,0,2.78,2.78,0,0,1-.57-.12.64.64,0,0,1-.29-.19.39.39,0,0,1-.1-.27V98.35h-6.85v7.82a.44.44,0,0,1-.09.27.54.54,0,0,1-.3.19,2.82,2.82,0,0,1-.56.12,8.22,8.22,0,0,1-1.81,0,2.78,2.78,0,0,1-.57-.12.66.66,0,0,1-.31-.19.44.44,0,0,1-.09-.27V87.89a.44.44,0,0,1,.09-.27.66.66,0,0,1,.31-.19,2.78,2.78,0,0,1,.57-.12,10.26,10.26,0,0,1,1.81,0,2.82,2.82,0,0,1,.56.12.54.54,0,0,1,.3.19.44.44,0,0,1,.09.27V95h6.85V87.89a.39.39,0,0,1,.1-.27.64.64,0,0,1,.29-.19,2.78,2.78,0,0,1,.57-.12,7.78,7.78,0,0,1,.91,0,7.6,7.6,0,0,1,.9,0,2.82,2.82,0,0,1,.56.12.61.61,0,0,1,.31.19.44.44,0,0,1,.09.27Z" fill="#231f20"/>
            <path d="M293.63,105.17a4.84,4.84,0,0,1,0,.72,2.1,2.1,0,0,1-.1.47.6.6,0,0,1-.18.26.35.35,0,0,1-.23.09h-9.21a1.11,1.11,0,0,1-.79-.3,1.23,1.23,0,0,1-.32-.94V88.6a1.24,1.24,0,0,1,.32-.95,1.1,1.1,0,0,1,.79-.29H293a.39.39,0,0,1,.23.07.69.69,0,0,1,.17.26,2.51,2.51,0,0,1,.1.48,5.13,5.13,0,0,1,0,.74,4.78,4.78,0,0,1,0,.71,2.1,2.1,0,0,1-.1.47.69.69,0,0,1-.17.26.35.35,0,0,1-.23.09h-6.55v4.72H292a.41.41,0,0,1,.24.08.56.56,0,0,1,.17.26,1.55,1.55,0,0,1,.11.46,6.85,6.85,0,0,1,0,.71,6.73,6.73,0,0,1,0,.72,1.63,1.63,0,0,1-.11.46.5.5,0,0,1-.17.24.41.41,0,0,1-.24.08h-5.54v5.46h6.61a.34.34,0,0,1,.23.08.6.6,0,0,1,.18.26,2.24,2.24,0,0,1,.1.47A5.07,5.07,0,0,1,293.63,105.17Z" fill="#231f20"/>
            <path d="M307.33,106.17a.44.44,0,0,1-.09.27.61.61,0,0,1-.31.19,2.82,2.82,0,0,1-.56.12,8.22,8.22,0,0,1-1.81,0,2.78,2.78,0,0,1-.57-.12.66.66,0,0,1-.31-.19.44.44,0,0,1-.09-.27V87.89a.44.44,0,0,1,.09-.27.66.66,0,0,1,.31-.19,3.06,3.06,0,0,1,.58-.12,7.31,7.31,0,0,1,.89,0,7.67,7.67,0,0,1,.91,0,2.82,2.82,0,0,1,.56.12.61.61,0,0,1,.31.19.44.44,0,0,1,.09.27Z" fill="#e52429"/>
            <path d="M325.34,105.33a1.66,1.66,0,0,1-.11.61,1.34,1.34,0,0,1-.31.45,1.13,1.13,0,0,1-.45.26,1.64,1.64,0,0,1-.53.09h-1.59a3.1,3.1,0,0,1-.86-.11,1.58,1.58,0,0,1-.66-.38,3,3,0,0,1-.59-.75c-.19-.31-.4-.72-.64-1.22l-4.56-9c-.26-.54-.53-1.12-.81-1.75s-.52-1.22-.73-1.81h0c0,.71.06,1.43.08,2.14s0,1.45,0,2.21v10.12a.43.43,0,0,1-.08.27.53.53,0,0,1-.27.2,1.79,1.79,0,0,1-.51.13,6.3,6.3,0,0,1-.84,0,6.09,6.09,0,0,1-.82,0,1.7,1.7,0,0,1-.51-.13.55.55,0,0,1-.26-.2.6.6,0,0,1-.07-.27V88.76a1.33,1.33,0,0,1,.39-1.05,1.35,1.35,0,0,1,1-.35h2a3.79,3.79,0,0,1,.9.09,1.84,1.84,0,0,1,.66.32,2.41,2.41,0,0,1,.55.62,9.56,9.56,0,0,1,.52,1l3.57,7.08.62,1.26c.2.42.4.83.59,1.24l.55,1.22c.18.4.35.8.52,1.2h0c0-.7-.05-1.43-.07-2.19s0-1.48,0-2.16V87.94a.44.44,0,0,1,.09-.27.64.64,0,0,1,.28-.21,2,2,0,0,1,.53-.13c.21,0,.49,0,.83,0s.59,0,.81,0a1.62,1.62,0,0,1,.5.13.6.6,0,0,1,.25.21.5.5,0,0,1,.07.27Z" fill="#e52429"/>
            <path d="M343.35,105.33a1.66,1.66,0,0,1-.11.61,1.34,1.34,0,0,1-.31.45,1.13,1.13,0,0,1-.45.26,1.69,1.69,0,0,1-.53.09h-1.59a3.1,3.1,0,0,1-.86-.11,1.58,1.58,0,0,1-.66-.38,3,3,0,0,1-.59-.75c-.19-.31-.4-.72-.64-1.22l-4.56-9c-.27-.54-.53-1.12-.81-1.75s-.52-1.22-.74-1.81h0c0,.71.06,1.43.08,2.14s0,1.45,0,2.21v10.12a.5.5,0,0,1-.08.27.53.53,0,0,1-.27.2,1.79,1.79,0,0,1-.51.13,6.3,6.3,0,0,1-.84,0,6.09,6.09,0,0,1-.82,0,1.7,1.7,0,0,1-.51-.13.55.55,0,0,1-.26-.2.6.6,0,0,1-.07-.27V88.76a1.33,1.33,0,0,1,.39-1.05,1.35,1.35,0,0,1,1-.35h2a3.85,3.85,0,0,1,.9.09,1.84,1.84,0,0,1,.66.32,2.41,2.41,0,0,1,.55.62,9.56,9.56,0,0,1,.52,1l3.57,7.08c.21.43.41.85.62,1.26s.4.83.59,1.24.37.82.55,1.22.35.8.52,1.2h0c0-.7-.05-1.43-.07-2.19s0-1.48,0-2.16V87.94a.44.44,0,0,1,.09-.27.64.64,0,0,1,.28-.21,2,2,0,0,1,.52-.13q.33,0,.84,0t.81,0a1.71,1.71,0,0,1,.5.13.6.6,0,0,1,.25.21.5.5,0,0,1,.07.27Z" fill="#e52429"/>
            <path d="M363.31,96.81a15.3,15.3,0,0,1-.56,4.3,8.87,8.87,0,0,1-1.69,3.23,7.39,7.39,0,0,1-2.77,2,9.83,9.83,0,0,1-3.82.69,10.81,10.81,0,0,1-3.73-.59,6.42,6.42,0,0,1-2.66-1.8,7.82,7.82,0,0,1-1.59-3.08,16.1,16.1,0,0,1-.53-4.43,14.87,14.87,0,0,1,.56-4.22,8.82,8.82,0,0,1,1.69-3.2,7.5,7.5,0,0,1,2.77-2,9.88,9.88,0,0,1,3.83-.7,10.89,10.89,0,0,1,3.68.58,6.42,6.42,0,0,1,2.66,1.8,8.12,8.12,0,0,1,1.62,3.06A15.6,15.6,0,0,1,363.31,96.81ZM359.4,97a15.75,15.75,0,0,0-.22-2.78,6.3,6.3,0,0,0-.78-2.14A3.67,3.67,0,0,0,357,90.73a4.68,4.68,0,0,0-2.27-.49,4.17,4.17,0,0,0-3.78,2,6.13,6.13,0,0,0-.8,2.13,14.15,14.15,0,0,0-.23,2.58,16.5,16.5,0,0,0,.22,2.85,6.55,6.55,0,0,0,.77,2.16,3.62,3.62,0,0,0,1.44,1.36,4.89,4.89,0,0,0,2.29.48,4.46,4.46,0,0,0,2.29-.54,4.28,4.28,0,0,0,1.49-1.47,6.46,6.46,0,0,0,.8-2.16A14.6,14.6,0,0,0,359.4,97Z" fill="#e52429"/>
            <path d="M374.7,106a1.2,1.2,0,0,1-.19.41.75.75,0,0,1-.37.24,2.82,2.82,0,0,1-.69.1c-.29,0-.68,0-1.15,0h-1l-.69,0a2.34,2.34,0,0,1-.46-.09,1.13,1.13,0,0,1-.29-.15.76.76,0,0,1-.19-.21,3,3,0,0,1-.12-.33l-5.45-17.15a4.88,4.88,0,0,1-.21-.85.54.54,0,0,1,.14-.47,1.06,1.06,0,0,1,.61-.2c.28,0,.68,0,1.19,0s.77,0,1,0a2.18,2.18,0,0,1,.56.1.5.5,0,0,1,.28.22,3,3,0,0,1,.15.38l4.46,14.92h0l4.38-14.85a2.16,2.16,0,0,1,.14-.41.64.64,0,0,1,.29-.24,2,2,0,0,1,.59-.12q.39,0,1.05,0a8.91,8.91,0,0,1,1,0,.71.71,0,0,1,.5.22.57.57,0,0,1,.08.48,5.63,5.63,0,0,1-.21.84Z" fill="#e52429"/>
            <path d="M394.7,105.24a6,6,0,0,1,.21.85.53.53,0,0,1-.11.47.91.91,0,0,1-.55.2c-.27,0-.63,0-1.09,0s-.86,0-1.13,0a2.21,2.21,0,0,1-.62-.09.49.49,0,0,1-.29-.18,1.06,1.06,0,0,1-.15-.32l-1.23-3.89h-6.88l-1.17,3.79a1,1,0,0,1-.14.35.69.69,0,0,1-.3.22,1.88,1.88,0,0,1-.58.12q-.37,0-1,0a8.82,8.82,0,0,1-1,0,.76.76,0,0,1-.51-.22.6.6,0,0,1-.1-.48,4.79,4.79,0,0,1,.22-.84L383.92,88a1.31,1.31,0,0,1,.2-.41.71.71,0,0,1,.36-.24,2.67,2.67,0,0,1,.69-.1c.29,0,.68,0,1.16,0s1,0,1.33,0a3.35,3.35,0,0,1,.77.1.75.75,0,0,1,.4.25,1.35,1.35,0,0,1,.2.45Zm-8.42-14.19h0l-2.59,8.22h5.2Z" fill="#e52429"/>
            <path d="M406.68,89a7.32,7.32,0,0,1,0,.74,1.7,1.7,0,0,1-.11.49.58.58,0,0,1-.17.28.36.36,0,0,1-.24.09h-4.59v15.6a.44.44,0,0,1-.09.27.62.62,0,0,1-.3.19,2.9,2.9,0,0,1-.58.12,8.12,8.12,0,0,1-1.8,0,2.78,2.78,0,0,1-.57-.12.62.62,0,0,1-.3-.19.39.39,0,0,1-.1-.27V90.57H393.2a.36.36,0,0,1-.24-.09.79.79,0,0,1-.17-.28,2.19,2.19,0,0,1-.1-.49,5.22,5.22,0,0,1,0-.74,5.53,5.53,0,0,1,0-.76,2.3,2.3,0,0,1,.1-.5.66.66,0,0,1,.17-.27.35.35,0,0,1,.24-.08h12.92a.35.35,0,0,1,.24.08.5.5,0,0,1,.17.27,1.78,1.78,0,0,1,.11.5C406.66,88.42,406.68,88.67,406.68,89Z" fill="#e52429"/>
            <path d="M413.8,106.17a.44.44,0,0,1-.09.27.62.62,0,0,1-.3.19,2.94,2.94,0,0,1-.57.12,8.22,8.22,0,0,1-1.81,0,2.78,2.78,0,0,1-.57-.12.71.71,0,0,1-.31-.19.44.44,0,0,1-.09-.27V87.89a.44.44,0,0,1,.09-.27.7.7,0,0,1,.32-.19,2.78,2.78,0,0,1,.57-.12,7.41,7.41,0,0,1,.89,0,7.67,7.67,0,0,1,.91,0,2.94,2.94,0,0,1,.57.12.62.62,0,0,1,.3.19.44.44,0,0,1,.09.27Z" fill="#e52429"/>
            <path d="M427.56,106a1.43,1.43,0,0,1-.18.41.79.79,0,0,1-.37.24,2.84,2.84,0,0,1-.7.1q-.44,0-1.14,0h-1l-.68,0a2.2,2.2,0,0,1-.46-.09,1.05,1.05,0,0,1-.3-.15.6.6,0,0,1-.18-.21,1.27,1.27,0,0,1-.12-.33L417,88.82a4.69,4.69,0,0,1-.2-.85.49.49,0,0,1,.14-.47,1.06,1.06,0,0,1,.6-.2c.28,0,.68,0,1.19,0s.77,0,1,0a2.36,2.36,0,0,1,.57.1.51.51,0,0,1,.27.22,3,3,0,0,1,.15.38l4.46,14.92h0l4.38-14.85a1.31,1.31,0,0,1,.14-.41.55.55,0,0,1,.29-.24,1.83,1.83,0,0,1,.59-.12c.25,0,.6,0,1,0a9,9,0,0,1,1,0,.68.68,0,0,1,.49.22.6.6,0,0,1,.09.48,7.66,7.66,0,0,1-.22.84Z" fill="#e52429"/>
            <path d="M446.52,105.17a6.73,6.73,0,0,1,0,.72,2.1,2.1,0,0,1-.1.47.6.6,0,0,1-.18.26.36.36,0,0,1-.24.09h-9.2a1.09,1.09,0,0,1-.79-.3,1.23,1.23,0,0,1-.32-.94V88.6a1.24,1.24,0,0,1,.32-.95,1.09,1.09,0,0,1,.79-.29h9.15a.34.34,0,0,1,.22.07.51.51,0,0,1,.17.26,1.89,1.89,0,0,1,.11.48,7.15,7.15,0,0,1,0,.74,6.68,6.68,0,0,1,0,.71,1.63,1.63,0,0,1-.11.47.51.51,0,0,1-.17.26.31.31,0,0,1-.22.09h-6.55v4.72h5.54a.43.43,0,0,1,.24.08.56.56,0,0,1,.17.26,1.55,1.55,0,0,1,.11.46c0,.2,0,.43,0,.71a7.1,7.1,0,0,1,0,.72,1.63,1.63,0,0,1-.11.46.5.5,0,0,1-.17.24.43.43,0,0,1-.24.08h-5.54v5.46H446a.35.35,0,0,1,.24.08.6.6,0,0,1,.18.26,2.24,2.24,0,0,1,.1.47A7.1,7.1,0,0,1,446.52,105.17Z" fill="#e52429"/>
            <path d="M470.43,93a7.91,7.91,0,0,1-.52,2.94,5.54,5.54,0,0,1-1.5,2.14A6.49,6.49,0,0,1,466,99.43a10.94,10.94,0,0,1-3.37.46H461v6.27a.45.45,0,0,1-.1.27.74.74,0,0,1-.33.2,3.11,3.11,0,0,1-.61.12,8.24,8.24,0,0,1-1,0,8.44,8.44,0,0,1-1,0,3.24,3.24,0,0,1-.62-.12.65.65,0,0,1-.32-.2.44.44,0,0,1-.09-.27V88.48a1.46,1.46,0,0,1,.37-1.07,1.4,1.4,0,0,1,1-.35H463c.46,0,.9,0,1.32,0a11.91,11.91,0,0,1,1.51.23,6.54,6.54,0,0,1,1.79.64,5.38,5.38,0,0,1,1.54,1.19,5,5,0,0,1,1,1.69A6.36,6.36,0,0,1,470.43,93Zm-4.18.29a3.57,3.57,0,0,0-.36-1.7,2.72,2.72,0,0,0-.9-1,3.08,3.08,0,0,0-1.12-.4,9.42,9.42,0,0,0-1.2-.08H461v6.67h1.79a4.36,4.36,0,0,0,1.6-.26,2.89,2.89,0,0,0,1.06-.72,3.16,3.16,0,0,0,.62-1.11A4.53,4.53,0,0,0,466.25,93.31Z" fill="#231f20"/>
            <path d="M491.88,96.65a14.44,14.44,0,0,1-.61,4.38,8.8,8.8,0,0,1-1.8,3.27,7.72,7.72,0,0,1-3,2,11,11,0,0,1-4.1.71,12.11,12.11,0,0,1-4-.6,6.91,6.91,0,0,1-2.84-1.83,7.88,7.88,0,0,1-1.71-3.13,15.78,15.78,0,0,1-.57-4.5,13.94,13.94,0,0,1,.61-4.29,8.67,8.67,0,0,1,1.8-3.24,8,8,0,0,1,3-2,10.86,10.86,0,0,1,4.11-.71,11.87,11.87,0,0,1,3.94.59,6.93,6.93,0,0,1,2.86,1.82,8,8,0,0,1,1.73,3.11A14.9,14.9,0,0,1,491.88,96.65Zm-4.19.22a15.13,15.13,0,0,0-.24-2.82,6.14,6.14,0,0,0-.83-2.17,4,4,0,0,0-1.56-1.4,5.34,5.34,0,0,0-2.43-.49,5,5,0,0,0-2.46.55A4.43,4.43,0,0,0,478.58,92a6.09,6.09,0,0,0-.86,2.17,12.88,12.88,0,0,0-.25,2.62,15.85,15.85,0,0,0,.24,2.89,6.25,6.25,0,0,0,.82,2.19,3.78,3.78,0,0,0,1.55,1.39,5.51,5.51,0,0,0,2.45.48,5,5,0,0,0,2.46-.55,4.43,4.43,0,0,0,1.59-1.48,6.25,6.25,0,0,0,.86-2.2A13.28,13.28,0,0,0,487.69,96.87Z" fill="#231f20"/>
            <path d="M506.09,105a5.44,5.44,0,0,1,0,.76,2.14,2.14,0,0,1-.11.52.68.68,0,0,1-.19.3.42.42,0,0,1-.27.09h-9a1.13,1.13,0,0,1-1.19-1.26V87.6a.45.45,0,0,1,.1-.27.74.74,0,0,1,.33-.2,3.24,3.24,0,0,1,.62-.12,8.18,8.18,0,0,1,1-.05,8.37,8.37,0,0,1,1,.05,3.27,3.27,0,0,1,.61.12.74.74,0,0,1,.33.2.44.44,0,0,1,.09.27v15.81h6.18a.48.48,0,0,1,.27.08.6.6,0,0,1,.19.28,1.78,1.78,0,0,1,.11.5A5.59,5.59,0,0,1,506.09,105Z" fill="#231f20"/>
            <path d="M513.71,99.25v6.91a.39.39,0,0,1-.1.27.69.69,0,0,1-.33.2,3.11,3.11,0,0,1-.61.12,9.43,9.43,0,0,1-1.94,0,3.27,3.27,0,0,1-.61-.12.64.64,0,0,1-.33-.2.44.44,0,0,1-.09-.27V99.25l-5.38-10.71a5.11,5.11,0,0,1-.37-.87.46.46,0,0,1,.09-.47,1.13,1.13,0,0,1,.65-.2c.31,0,.75,0,1.3,0s.84,0,1.12,0a2.49,2.49,0,0,1,.66.11.79.79,0,0,1,.36.22,2.13,2.13,0,0,1,.22.35l2.19,4.83q.31.69.63,1.47l.63,1.63h0c.19-.55.39-1.08.59-1.6s.4-1,.59-1.47l2.16-4.8a1.18,1.18,0,0,1,.19-.39.81.81,0,0,1,.34-.23,2.19,2.19,0,0,1,.62-.12c.26,0,.61,0,1,0s1,0,1.34,0a1.17,1.17,0,0,1,.66.2.46.46,0,0,1,.08.48,4.76,4.76,0,0,1-.37.86Z" fill="#231f20"/>
            <path d="M536.92,88.7q0,.43,0,.75a2.29,2.29,0,0,1-.12.5.6.6,0,0,1-.19.28.38.38,0,0,1-.25.09h-4.92v15.84a.39.39,0,0,1-.1.27.65.65,0,0,1-.32.2,3.4,3.4,0,0,1-.62.12,9.34,9.34,0,0,1-1.93,0,3.11,3.11,0,0,1-.61-.12.69.69,0,0,1-.33-.2.39.39,0,0,1-.1-.27V90.32h-4.92a.39.39,0,0,1-.26-.09A.68.68,0,0,1,522,90a1.87,1.87,0,0,1-.11-.5,5.47,5.47,0,0,1,0-.75,5.75,5.75,0,0,1,0-.78,2,2,0,0,1,.11-.51.71.71,0,0,1,.18-.27.38.38,0,0,1,.26-.08h13.85a.38.38,0,0,1,.25.08.62.62,0,0,1,.19.27,2.4,2.4,0,0,1,.12.51Q536.92,88.23,536.92,88.7Z" fill="#231f20"/>
            <path d="M551.57,105.14c0,.3,0,.54,0,.74a2.08,2.08,0,0,1-.12.48.54.54,0,0,1-.19.26.38.38,0,0,1-.25.09h-9.87a1.24,1.24,0,0,1-.84-.3,1.21,1.21,0,0,1-.34-1V88.32a1.1,1.1,0,0,1,1.18-1.26h9.81a.4.4,0,0,1,.24.07.67.67,0,0,1,.19.27,2.29,2.29,0,0,1,.11.48,7.42,7.42,0,0,1,0,.76,7.06,7.06,0,0,1,0,.72,2.45,2.45,0,0,1-.11.48.7.7,0,0,1-.19.26.35.35,0,0,1-.24.08h-7V95h5.94a.38.38,0,0,1,.25.09.55.55,0,0,1,.19.25,2.08,2.08,0,0,1,.12.48,7.1,7.1,0,0,1,0,.72c0,.29,0,.53,0,.73a2,2,0,0,1-.12.46.5.5,0,0,1-.19.25.44.44,0,0,1-.25.08H543.9v5.54H551a.44.44,0,0,1,.25.08.62.62,0,0,1,.19.27,2.08,2.08,0,0,1,.12.48C551.56,104.6,551.57,104.85,551.57,105.14Z" fill="#231f20"/>
            <path d="M568.9,103.73c0,.25,0,.47,0,.65a4.3,4.3,0,0,1-.07.45,1.27,1.27,0,0,1-.12.33,1.74,1.74,0,0,1-.24.31,3.57,3.57,0,0,1-.65.45,8.25,8.25,0,0,1-1.17.52,9.74,9.74,0,0,1-1.58.42,10.47,10.47,0,0,1-1.92.17,10,10,0,0,1-3.64-.63,7.07,7.07,0,0,1-2.77-1.86,8.15,8.15,0,0,1-1.74-3.09,15.32,15.32,0,0,1,.06-8.76,9.39,9.39,0,0,1,1.86-3.27,7.87,7.87,0,0,1,2.88-2,9.63,9.63,0,0,1,3.7-.68,9,9,0,0,1,1.58.13,8.93,8.93,0,0,1,1.4.36,7.35,7.35,0,0,1,1.16.51,3.73,3.73,0,0,1,.73.49,2.11,2.11,0,0,1,.28.34,1.43,1.43,0,0,1,.12.35c0,.15,0,.31.07.5s0,.44,0,.72,0,.56,0,.77a2,2,0,0,1-.11.52.72.72,0,0,1-.18.29.36.36,0,0,1-.24.09,1,1,0,0,1-.58-.27c-.23-.17-.53-.37-.9-.59a7.43,7.43,0,0,0-1.32-.59,5.52,5.52,0,0,0-1.83-.27,4.44,4.44,0,0,0-2.09.48A4.56,4.56,0,0,0,560,91.94a6.35,6.35,0,0,0-1,2.15,10.74,10.74,0,0,0-.34,2.84,11.11,11.11,0,0,0,.36,3,5.78,5.78,0,0,0,1,2.08,4.12,4.12,0,0,0,1.59,1.23,5.38,5.38,0,0,0,2.1.4,5.93,5.93,0,0,0,1.84-.25,7.29,7.29,0,0,0,1.33-.56c.37-.2.67-.38.91-.54a1.18,1.18,0,0,1,.55-.25.37.37,0,0,1,.25.07.45.45,0,0,1,.15.24,2.37,2.37,0,0,1,.09.51C568.89,103.07,568.9,103.37,568.9,103.73Z" fill="#231f20"/>
            <path d="M587.17,106.16a.45.45,0,0,1-.1.27.74.74,0,0,1-.33.2,3.11,3.11,0,0,1-.61.12,8.12,8.12,0,0,1-1,0,8.56,8.56,0,0,1-1,0,3.11,3.11,0,0,1-.61-.12.71.71,0,0,1-.32-.2.45.45,0,0,1-.1-.27V98.22h-7.35v7.94a.44.44,0,0,1-.09.27.61.61,0,0,1-.32.2,3.15,3.15,0,0,1-.6.12,8.56,8.56,0,0,1-1,0,8.44,8.44,0,0,1-1,0,3.4,3.4,0,0,1-.62-.12.65.65,0,0,1-.32-.2.39.39,0,0,1-.1-.27V87.6a.39.39,0,0,1,.1-.27.65.65,0,0,1,.32-.2,3.4,3.4,0,0,1,.62-.12,8.44,8.44,0,0,1,1-.05,8.56,8.56,0,0,1,1,.05,3.15,3.15,0,0,1,.6.12.61.61,0,0,1,.32.2.44.44,0,0,1,.09.27v7.22h7.35V87.6a.45.45,0,0,1,.1-.27.71.71,0,0,1,.32-.2,3.11,3.11,0,0,1,.61-.12,8.56,8.56,0,0,1,1-.05,8.12,8.12,0,0,1,1,.05,3.11,3.11,0,0,1,.61.12.74.74,0,0,1,.33.2.45.45,0,0,1,.1.27Z" fill="#231f20"/>
            <path d="M606.47,105.31a1.38,1.38,0,0,1-.13.62,1.4,1.4,0,0,1-.32.46,1.22,1.22,0,0,1-.49.26,1.88,1.88,0,0,1-.57.09h-1.7a3.57,3.57,0,0,1-.92-.11,1.85,1.85,0,0,1-.71-.39,3.1,3.1,0,0,1-.63-.76c-.2-.32-.43-.73-.68-1.23l-4.89-9.19q-.43-.82-.87-1.77c-.29-.63-.56-1.25-.79-1.85h0c0,.73.07,1.46.09,2.18s0,1.47,0,2.24v10.28a.51.51,0,0,1-.08.28.6.6,0,0,1-.29.2,2.12,2.12,0,0,1-.55.13,7.33,7.33,0,0,1-.9,0,6.86,6.86,0,0,1-.88,0,2,2,0,0,1-.55-.13.53.53,0,0,1-.27-.2.51.51,0,0,1-.08-.28V88.48a1.34,1.34,0,0,1,.42-1.07,1.57,1.57,0,0,1,1-.35h2.14a4.45,4.45,0,0,1,1,.09,2.06,2.06,0,0,1,.7.33,2.4,2.4,0,0,1,.59.63,8,8,0,0,1,.56,1l3.83,7.18.66,1.28q.33.63.63,1.26l.59,1.24c.19.41.38.81.56,1.22h0c0-.71-.06-1.45-.07-2.22s0-1.51,0-2.2V87.65a.44.44,0,0,1,.09-.27.65.65,0,0,1,.3-.22,2.21,2.21,0,0,1,.56-.13q.36,0,.9,0t.87,0a1.77,1.77,0,0,1,.53.13.56.56,0,0,1,.27.22.5.5,0,0,1,.08.27Z" fill="#231f20"/>
            <path d="M613.57,106.16a.39.39,0,0,1-.1.27.65.65,0,0,1-.32.2,3.45,3.45,0,0,1-.61.12,8.37,8.37,0,0,1-1,0,8.5,8.5,0,0,1-1,0,3.11,3.11,0,0,1-.61-.12.74.74,0,0,1-.33-.2.39.39,0,0,1-.1-.27V87.6a.39.39,0,0,1,.1-.27.74.74,0,0,1,.33-.2,3.59,3.59,0,0,1,.62-.12,8.18,8.18,0,0,1,1-.05,8.37,8.37,0,0,1,1,.05,3.45,3.45,0,0,1,.61.12.65.65,0,0,1,.32.2.39.39,0,0,1,.1.27Z" fill="#231f20"/>
            <path d="M631.5,103.73a6.33,6.33,0,0,1,0,.65,4.3,4.3,0,0,1-.07.45,1.27,1.27,0,0,1-.12.33,1.74,1.74,0,0,1-.24.31,3.24,3.24,0,0,1-.65.45,8.25,8.25,0,0,1-1.17.52,9.47,9.47,0,0,1-1.58.42,10.47,10.47,0,0,1-1.92.17,10,10,0,0,1-3.64-.63,7.07,7.07,0,0,1-2.77-1.86,8.15,8.15,0,0,1-1.74-3.09,15.32,15.32,0,0,1,.06-8.76,9.25,9.25,0,0,1,1.87-3.27,7.91,7.91,0,0,1,2.87-2,9.63,9.63,0,0,1,3.7-.68,9.07,9.07,0,0,1,3,.49,7.78,7.78,0,0,1,1.16.51,3.91,3.91,0,0,1,.72.49,1.68,1.68,0,0,1,.28.34,1.43,1.43,0,0,1,.12.35c0,.15,0,.31.07.5s0,.44,0,.72,0,.56,0,.77a2,2,0,0,1-.1.52.86.86,0,0,1-.19.29.36.36,0,0,1-.24.09,1.08,1.08,0,0,1-.58-.27c-.23-.17-.53-.37-.9-.59a7.43,7.43,0,0,0-1.32-.59,5.52,5.52,0,0,0-1.83-.27,4.44,4.44,0,0,0-2.09.48,4.53,4.53,0,0,0-1.56,1.37,6.36,6.36,0,0,0-1,2.15,10.74,10.74,0,0,0-.34,2.84,11.11,11.11,0,0,0,.36,3,5.78,5.78,0,0,0,1,2.08,4.12,4.12,0,0,0,1.59,1.23,5.44,5.44,0,0,0,2.11.4,5.87,5.87,0,0,0,1.83-.25,7.29,7.29,0,0,0,1.33-.56c.37-.2.67-.38.91-.54A1.21,1.21,0,0,1,631,102a.36.36,0,0,1,.24.07.45.45,0,0,1,.15.24,2.37,2.37,0,0,1,.09.51C631.49,103.07,631.5,103.37,631.5,103.73Z" fill="#231f20"/>
          </g>
          <polygon points="291.3 130.59 303.5 117.92 443.83 117.92 291.3 130.59" fill="#e52429"/>
        </g>
        <g>
          <path d="M298.42,65.53a6,6,0,0,1-.38,2.19,4.77,4.77,0,0,1-1,1.61,3.89,3.89,0,0,1-1.53.94,5.78,5.78,0,0,1-1.79.29h-5.33a9.83,9.83,0,0,1-2.88-.37,5.58,5.58,0,0,1-2.24-1.37,11.29,11.29,0,0,1-2-2.68c-.64-1.12-1.35-2.58-2.15-4.36L263.78,29.39c-.89-1.93-1.79-4-2.71-6.24s-1.75-4.39-2.48-6.5h-.1q.19,3.86.29,7.68c.06,2.55.1,5.19.1,7.9V68.47a1.79,1.79,0,0,1-.27,1,2,2,0,0,1-.9.72,6.22,6.22,0,0,1-1.74.45,19.63,19.63,0,0,1-2.81.16,19.31,19.31,0,0,1-2.77-.16,5.8,5.8,0,0,1-1.71-.45,1.92,1.92,0,0,1-.86-.72,2,2,0,0,1-.24-1V6.21a5,5,0,0,1,1.31-3.77,4.48,4.48,0,0,1,3.22-1.26h6.72a11.17,11.17,0,0,1,3.05.35,5.92,5.92,0,0,1,2.21,1.15,8.43,8.43,0,0,1,1.84,2.22,28.5,28.5,0,0,1,1.76,3.51l12,25.32,2.07,4.52q1,2.22,2,4.44l1.86,4.37c.6,1.43,1.19,2.85,1.76,4.28h.05c-.1-2.5-.17-5.1-.22-7.82s-.07-5.3-.07-7.76V3.27a1.65,1.65,0,0,1,.29-1,2.36,2.36,0,0,1,.95-.75,5.82,5.82,0,0,1,1.76-.45A23.67,23.67,0,0,1,292.94,1a22.74,22.74,0,0,1,2.72.14,5,5,0,0,1,1.69.45,2.05,2.05,0,0,1,.83.75,2,2,0,0,1,.24,1Z" fill="#231f20"/>
          <path d="M359.43,65.21a20,20,0,0,1,.72,3.05,2,2,0,0,1-.38,1.68,2.88,2.88,0,0,1-1.86.7c-.89.09-2.11.13-3.67.13s-2.88,0-3.79-.08a8.32,8.32,0,0,1-2.07-.32,1.82,1.82,0,0,1-1-.67,3.92,3.92,0,0,1-.48-1.12l-4.14-13.92H319.6L315.7,68.2a4.94,4.94,0,0,1-.5,1.26,2.12,2.12,0,0,1-1,.81,7.25,7.25,0,0,1-2,.4c-.84.07-1.94.1-3.31.1a27.73,27.73,0,0,1-3.43-.16,2.46,2.46,0,0,1-1.72-.77,2.35,2.35,0,0,1-.33-1.74,18.88,18.88,0,0,1,.72-3l19-61.46a5.64,5.64,0,0,1,.66-1.47,2.37,2.37,0,0,1,1.22-.86,8.67,8.67,0,0,1,2.31-.37c1-.06,2.29-.08,3.91-.08,1.87,0,3.36,0,4.48.08a10.82,10.82,0,0,1,2.59.37,2.49,2.49,0,0,1,1.34.88,5.55,5.55,0,0,1,.69,1.61ZM331.13,14.4h0l-8.72,29.45h17.48Z" fill="#231f20"/>
          <path d="M416,65.53a6,6,0,0,1-.38,2.19,4.79,4.79,0,0,1-1,1.61,3.79,3.79,0,0,1-1.52.94,5.78,5.78,0,0,1-1.79.29h-5.33a9.85,9.85,0,0,1-2.89-.37,5.64,5.64,0,0,1-2.24-1.37,11.56,11.56,0,0,1-2-2.68c-.64-1.12-1.35-2.58-2.15-4.36L381.33,29.39c-.89-1.93-1.79-4-2.72-6.24s-1.74-4.39-2.47-6.5H376c.13,2.57.22,5.13.29,7.68s.09,5.19.09,7.9V68.47a1.79,1.79,0,0,1-.26,1,2,2,0,0,1-.9.72,6.22,6.22,0,0,1-1.74.45,19.63,19.63,0,0,1-2.81.16,19.21,19.21,0,0,1-2.77-.16,5.8,5.8,0,0,1-1.71-.45,1.86,1.86,0,0,1-.86-.72,2,2,0,0,1-.24-1V6.21a5,5,0,0,1,1.31-3.77,4.47,4.47,0,0,1,3.22-1.26h6.72a11,11,0,0,1,3,.35,5.89,5.89,0,0,1,2.22,1.15,8.41,8.41,0,0,1,1.83,2.22,28.41,28.41,0,0,1,1.77,3.51l12,25.32q1,2.3,2.08,4.52t2,4.44c.64,1.49,1.26,2.94,1.86,4.37s1.19,2.85,1.77,4.28h0c-.09-2.5-.16-5.1-.21-7.82s-.07-5.3-.07-7.76V3.27a1.72,1.72,0,0,1,.28-1,2.4,2.4,0,0,1,1-.75,5.82,5.82,0,0,1,1.76-.45A23.67,23.67,0,0,1,410.49,1a22.86,22.86,0,0,1,2.72.14,5,5,0,0,1,1.69.45,2.12,2.12,0,0,1,.83.75,2,2,0,0,1,.24,1Z" fill="#231f20"/>
          <path d="M451.4,44.17V68.53a1.66,1.66,0,0,1-.31,1,2.23,2.23,0,0,1-1,.7,9.14,9.14,0,0,1-1.93.42,28.86,28.86,0,0,1-6.07,0,9.59,9.59,0,0,1-1.93-.42,2.08,2.08,0,0,1-1-.7,1.71,1.71,0,0,1-.28-1V44.17L422,6.42a19.26,19.26,0,0,1-1.17-3.07,1.7,1.7,0,0,1,.29-1.66,3.23,3.23,0,0,1,2-.7c1-.09,2.35-.13,4.09-.13,1.46,0,2.63,0,3.5.1a7.84,7.84,0,0,1,2.08.41,2.4,2.4,0,0,1,1.12.77,6.82,6.82,0,0,1,.69,1.23l6.86,17q1,2.46,2,5.19t2,5.73h.1q.9-2.89,1.86-5.62t1.86-5.2L456,3.59a4.5,4.5,0,0,1,.6-1.37,2.56,2.56,0,0,1,1.07-.83A6.59,6.59,0,0,1,459.59,1c.83-.07,1.92-.1,3.29-.1,1.81,0,3.22,0,4.22.13a3.27,3.27,0,0,1,2,.7,1.69,1.69,0,0,1,.26,1.68,19.52,19.52,0,0,1-1.15,3.05Z" fill="#231f20"/>
          <path d="M516.94,65.21a20,20,0,0,1,.72,3.05,2,2,0,0,1-.38,1.68,2.88,2.88,0,0,1-1.86.7c-.89.09-2.11.13-3.67.13s-2.88,0-3.79-.08a8.32,8.32,0,0,1-2.07-.32,1.82,1.82,0,0,1-1-.67,3.92,3.92,0,0,1-.48-1.12l-4.14-13.92H477.11l-3.9,13.54a4.94,4.94,0,0,1-.5,1.26,2.12,2.12,0,0,1-1,.81,7.25,7.25,0,0,1-2,.4c-.84.07-1.94.1-3.31.1a27.73,27.73,0,0,1-3.43-.16,2.46,2.46,0,0,1-1.72-.77A2.35,2.35,0,0,1,461,68.1a18.88,18.88,0,0,1,.72-3l19-61.46a5.64,5.64,0,0,1,.66-1.47,2.37,2.37,0,0,1,1.22-.86,8.67,8.67,0,0,1,2.31-.37c1-.06,2.29-.08,3.91-.08,1.87,0,3.36,0,4.48.08a10.82,10.82,0,0,1,2.59.37,2.49,2.49,0,0,1,1.34.88,5.55,5.55,0,0,1,.69,1.61ZM488.64,14.4h0l-8.72,29.45h17.48Z" fill="#231f20"/>
          <path d="M573.48,65.53a6,6,0,0,1-.38,2.19,4.79,4.79,0,0,1-1,1.61,3.79,3.79,0,0,1-1.52.94,5.78,5.78,0,0,1-1.79.29h-5.33a9.85,9.85,0,0,1-2.89-.37,5.64,5.64,0,0,1-2.24-1.37,11.56,11.56,0,0,1-2-2.68c-.64-1.12-1.35-2.58-2.15-4.36L538.84,29.39c-.89-1.93-1.79-4-2.72-6.24s-1.74-4.39-2.47-6.5h-.1c.13,2.57.22,5.13.29,7.68s.09,5.19.09,7.9V68.47a1.79,1.79,0,0,1-.26,1,2,2,0,0,1-.9.72,6.22,6.22,0,0,1-1.74.45,19.63,19.63,0,0,1-2.81.16,19.21,19.21,0,0,1-2.77-.16,5.8,5.8,0,0,1-1.71-.45,1.86,1.86,0,0,1-.86-.72,2,2,0,0,1-.24-1V6.21A5,5,0,0,1,524,2.44a4.47,4.47,0,0,1,3.22-1.26h6.72a11,11,0,0,1,3,.35,5.89,5.89,0,0,1,2.22,1.15A8.41,8.41,0,0,1,541,4.9a28.41,28.41,0,0,1,1.77,3.51l12,25.32q1.05,2.3,2.08,4.52t2,4.44c.64,1.49,1.26,2.94,1.86,4.37s1.19,2.85,1.77,4.28h0c-.09-2.5-.16-5.1-.21-7.82s-.07-5.3-.07-7.76V3.27a1.72,1.72,0,0,1,.28-1,2.4,2.4,0,0,1,1-.75,5.82,5.82,0,0,1,1.76-.45A23.67,23.67,0,0,1,568,1a22.86,22.86,0,0,1,2.72.14,5,5,0,0,1,1.69.45,2.12,2.12,0,0,1,.83.75,2,2,0,0,1,.24,1Z" fill="#231f20"/>
          <path d="M631.49,11.94a25.81,25.81,0,0,1-.12,2.68,9.79,9.79,0,0,1-.33,1.79,2.09,2.09,0,0,1-.52.94,1.15,1.15,0,0,1-.74.26,4.35,4.35,0,0,1-2-1,29.26,29.26,0,0,0-3.67-2.09,37.78,37.78,0,0,0-5.46-2.09,25.41,25.41,0,0,0-7.36-1,18.5,18.5,0,0,0-8.1,1.74A17.69,17.69,0,0,0,597,18.18a22.55,22.55,0,0,0-4,7.65,33.37,33.37,0,0,0-1.38,9.88,35.16,35.16,0,0,0,1.41,10.46A21.66,21.66,0,0,0,597,53.75a16.24,16.24,0,0,0,6.07,4.6,19.29,19.29,0,0,0,7.84,1.56,16.25,16.25,0,0,0,4.15-.54,14.27,14.27,0,0,0,3.81-1.61V41.7H607.19c-.57,0-1-.4-1.33-1.2a12.24,12.24,0,0,1-.48-4.1,22.06,22.06,0,0,1,.12-2.51,7,7,0,0,1,.36-1.64,2.33,2.33,0,0,1,.57-.9,1.11,1.11,0,0,1,.76-.3H628a3,3,0,0,1,1.36.3,2.91,2.91,0,0,1,1,.88,4.18,4.18,0,0,1,.69,1.42,6.8,6.8,0,0,1,.24,1.9V63.12a7.34,7.34,0,0,1-.5,2.81,3.71,3.71,0,0,1-2.05,1.9A38.4,38.4,0,0,1,625,69.27q-2.29.75-4.75,1.29a45.56,45.56,0,0,1-5,.8,46.81,46.81,0,0,1-5,.27A34.69,34.69,0,0,1,597,69.25a26.52,26.52,0,0,1-9.89-6.91,30.63,30.63,0,0,1-6.19-11,47,47,0,0,1-2.14-14.75,47.77,47.77,0,0,1,2.28-15.28,33.34,33.34,0,0,1,6.48-11.51,27.77,27.77,0,0,1,10.13-7.25A33.47,33.47,0,0,1,610.91,0a39.72,39.72,0,0,1,7.29.62,38.63,38.63,0,0,1,5.74,1.49A21,21,0,0,1,628,4a10.2,10.2,0,0,1,2.27,1.76,4.68,4.68,0,0,1,.93,2.12A21.32,21.32,0,0,1,631.49,11.94Z" fill="#231f20"/>
        </g>
        <g>
          <polygon points="165.35 5.33 153.89 4.62 122.83 43.27 89.69 0.71 54.37 0.71 54.37 5.48 63.8 5.48 103.89 57.08 103.89 89.3 35.21 0.71 0.07 0.71 0.07 5.48 9.38 5.48 9.51 5.48 9.51 102.1 0 102.1 0 106.84 28.32 106.84 28.32 102.1 18.93 102.1 18.93 17.64 87.98 106.83 127.47 106.84 127.47 52.51 165.35 5.33" fill="#0a4f9e"/>
          <path d="M224.48,31.55C224.48,7.4,197.94,1,179.12.71H140.65V5.48H177A28,28,0,0,1,196.55,17a24.66,24.66,0,0,1,4.31,14.61c-.15,16.94-14.94,26.18-27.14,25.61h-22.6v.93h0v48.71h33v-4.73h-9.44V62C197.51,61,224.44,55.7,224.48,31.55Z" fill="#e52429"/>
        </g>
      </g>
    </g>
  </g>
</svg>
