<?xml version="1.0" encoding="UTF-8"?>
<svg width="214px" height="41px" viewBox="0 0 214 41" version="1.1" xmlns="http://www.w3.org/2000/svg" xmlns:xlink="http://www.w3.org/1999/xlink">
    <!-- Generator: Sketch 51.2 (57519) - http://www.bohemiancoding.com/sketch -->
    <title>opencertslogo</title>
    <desc>Created with Sketch.</desc>
    <defs>
        <linearGradient x1="37.9112872%" y1="3.11984984%" x2="59.9744344%" y2="88.6902582%" id="linearGradient-1">
            <stop stop-color="#FF9933" offset="0%"></stop>
            <stop stop-color="#FF6633" offset="100%"></stop>
        </linearGradient>
        <linearGradient x1="118.053351%" y1="69.7834395%" x2="-17.2751011%" y2="28.9499545%" id="linearGradient-2">
            <stop stop-color="#0099CC" offset="0%"></stop>
            <stop stop-color="#006699" offset="100%"></stop>
        </linearGradient>
        <linearGradient x1="19.3131667%" y1="85.3290764%" x2="74.0844659%" y2="23.7843323%" id="linearGradient-3">
            <stop stop-color="#0099CC" offset="0%"></stop>
            <stop stop-color="#006699" offset="100%"></stop>
        </linearGradient>
    </defs>
    <g id="Symbols" stroke="none" stroke-width="1" fill="none" fill-rule="evenodd">
        <g id="Header" transform="translate(-33.000000, -14.000000)" fill-rule="nonzero">
            <g id="opencertslogo">
                <g transform="translate(33.000000, 14.000000)">
                    <g id="Group">
                        <g transform="translate(66.000000, 8.000000)" id="Shape">
                            <path d="M10.8525,0.25 C17.3125,0.25 21.705,5.1025 21.705,11.5625 C21.705,18.0225 17.3125,22.8725 10.8525,22.8725 C4.3925,22.8725 0,18 0,11.55 C0,5.1 4.36,0.25 10.8525,0.25 Z M10.8525,2.675 C5.935,2.675 2.82,6.4475 2.82,11.5625 C2.82,16.6775 5.935,20.4475 10.8525,20.4475 C15.77,20.4475 18.885,16.6425 18.885,11.5625 C18.885,6.4825 15.75,2.6625 10.8525,2.6625 L10.8525,2.675 Z" fill="#FF9933"></path>
                            <path d="M23.7875,28.5 L23.7875,6.63 L26.25,6.63 L26.25,9 C27.4880259,7.28106463 29.4741584,6.2587222 31.5925,6.25 C35.7575,6.25 38.6425,9.3975 38.6425,14.545 C38.6425,19.6925 35.7575,22.8725 31.5925,22.8725 C29.4594595,22.8749738 27.4617112,21.8279555 26.25,20.0725 L26.25,28.5 L23.7875,28.5 Z M30.9675,8.435 C29.0325,8.435 27.1,9.5825 26.2475,10.9575 L26.2475,18.1075 C27.1,19.4825 29.0325,20.665 30.9675,20.665 C34.1475,20.665 36.05,18.04 36.05,14.5325 C36.05,11.025 34.1475,8.435 30.9675,8.435 Z" fill="#FF9933"></path>
                            <path d="M48.1675,6.25 C52.955,6.25 55.775,9.9875 55.775,14.75 L55.775,15.3725 L42.955,15.3725 C43.1525,18.355 45.25,20.8475 48.66,20.8475 C50.4887336,20.8530044 52.2451867,20.1338834 53.545,18.8475 L54.725,20.455 C53.1525,22.0275 51.02,22.88 48.43,22.88 C43.7425,22.88 40.365,19.5025 40.365,14.5525 C40.365,9.9425 43.645,6.25 48.1675,6.25 Z M42.955,13.55 L53.35,13.55 C53.3175,11.1875 51.7425,8.27 48.135,8.27 C44.75,8.27 43.0875,11.1225 42.955,13.55 Z" fill="#FF9933"></path>
                            <path d="M68.1325,12.1075 C68.1325,9.32 66.7225,8.435 64.5925,8.435 C62.6575,8.435 60.82,9.615 59.9025,10.8925 L59.9025,22.4675 L57.445,22.4675 L57.445,6.63 L59.9025,6.63 L59.9025,8.925 C61.0175,7.615 63.1825,6.2375 65.5425,6.2375 C68.855,6.2375 70.5925,7.91 70.5925,11.3525 L70.5925,22.4675 L68.1325,22.4675 L68.1325,12.1075 Z" fill="#FF9933"></path>
                            <path d="M72.275,11.55 C72.275,4.8275 77.355,0.2375 83.75,0.2375 C88.7325,0.2375 91.52,2.86 93.06,5.5825 L89.06,7.55 C88.0187068,5.58504736 85.9737953,4.35944837 83.75,4.3675 C79.9475,4.3675 77.06,7.4175 77.06,11.55 C77.06,15.6825 79.9475,18.73 83.75,18.73 C85.9768256,18.7516282 88.0278837,17.5233109 89.06,15.55 L93.06,17.4825 C91.5,20.205 88.7325,22.86 83.75,22.86 C77.355,22.86 72.275,18.27 72.275,11.55 Z" fill="#0099CC"></path>
                            <path d="M101.7025,6.25 C106.4225,6.25 109.635,9.79 109.635,14.9725 L109.635,15.89 L97.865,15.89 C98.1275,17.89 99.735,19.5625 102.4225,19.5625 C103.8975,19.5625 105.635,18.9725 106.6525,17.9875 L108.5,20.665 C106.895,22.14 104.435,22.86 101.975,22.86 C97.1575,22.86 93.5175,19.61 93.5175,14.5325 C93.5,9.9425 96.8825,6.25 101.7025,6.25 Z M97.8,13.0575 L105.6025,13.0575 C105.505,11.5575 104.455,9.5575 101.7025,9.5575 C99.11,9.55 98,11.4825 97.8,13.0575 Z" fill="#0099CC"></path>
                            <path d="M111.235,6.63 L115.4,6.63 L115.4,8.795 C116.515,7.385 118.4825,6.27 120.45,6.27 L120.45,10.335 C120.071879,10.2630632 119.687337,10.2303897 119.3025,10.2375 C117.925,10.2375 116.0875,10.9875 115.4,12.0075 L115.4,22.4675 L111.235,22.4675 L111.235,6.63 Z" fill="#0099CC"></path>
                            <path d="M124.86,18.5325 L124.86,10.2825 L122.235,10.2825 L122.235,6.63 L124.86,6.63 L124.86,2.3025 L129.055,2.3025 L129.055,6.63 L132.27,6.63 L132.27,10.27 L129.055,10.27 L129.055,17.4175 C129.055,18.4025 129.58,19.1675 130.4975,19.1675 C131.016424,19.1838751 131.525368,19.0224596 131.94,18.71 L132.825,21.8575 C132.2025,22.415 131.0875,22.8725 129.35,22.8725 C126.4325,22.86 124.86,21.3525 124.86,18.5325 Z" fill="#0099CC"></path>
                            <path d="M135.5,17.4825 C136.6475,18.565 139,19.6475 140.975,19.6475 C142.78,19.6475 143.6325,19.025 143.6325,18.04 C143.6325,16.925 142.255,16.54 140.4525,16.1725 C137.73,15.6475 134.2225,14.9925 134.2225,11.22 C134.2225,8.565 136.55,6.2375 140.7225,6.2375 C143.030278,6.19917404 145.279562,6.96454951 147.085,8.4025 L145.43,11.25 C144.48,10.2325 142.68,9.4125 140.7425,9.4125 C139.2425,9.4125 138.2425,9.97 138.2425,10.8875 C138.2425,11.8725 139.4925,12.2325 141.2575,12.5925 C143.98,13.1175 147.62,13.8425 147.62,17.7725 C147.62,20.6925 145.16,22.855 140.7675,22.855 C138.0175,22.855 135.3575,21.9375 133.685,20.3975 L135.5,17.4825 Z" fill="#0099CC"></path>
                        </g>
                        <g id="Shape">
                            <g fill="url(#linearGradient-1)">
                                <path d="M0.0402030457,9.68179348 L0.0402030457,22.7698551 C0.0402030457,23.7681159 0.772791878,25.0345109 1.63790186,25.5336413 L12.9989848,32.0780435 C13.4159052,32.3179529 13.9951269,32.4494203 14.6004061,32.4494203 C14.3435533,31.988913 14.3770558,31.3538587 14.3770558,31.310779 L14.3770558,27.617808 C13.7717766,27.5888406 13.201489,27.4358333 12.7667005,27.1847826 L6.00216582,23.2868116 C4.99336717,22.7052355 4.16920474,21.2865761 4.16920474,20.1241667 L4.16920474,12.3297101 C4.16920474,11.166558 4.98815567,9.74789855 5.99918782,9.16706522 L12.770423,5.26612319 C13.7799662,4.6845471 15.4215905,4.6845471 16.4311337,5.26612319 L23.1993909,9.16483696 C23.6371574,9.41663043 24.0578003,9.83331522 24.3905922,10.3532428 L24.4263283,10.409692 L24.5045008,10.5463587 L24.5558714,10.6392029 L24.5789509,10.6830254 L24.6198985,10.7625 C24.632555,10.7870109 24.6437225,10.810779 24.6556345,10.8367754 L24.6913706,10.9110507 C24.7084941,10.9496739 24.7256176,10.9853261 24.7419966,11.0269203 L24.7583756,11.0662862 C24.7754992,11.1093659 24.7926227,11.1524457 24.8090017,11.1962681 L24.8090017,11.2066667 C24.8343147,11.2742572 24.8559052,11.3403623 24.8774958,11.4101812 L24.8841963,11.4302355 C24.9013198,11.4874275 24.9154653,11.5409058 24.9296108,11.5951268 C24.9348223,11.6151812 24.9392893,11.6352355 24.9437563,11.6545471 L24.9437563,11.6619746 C24.9586464,11.7258514 24.9727919,11.7949275 24.9839594,11.8647464 L24.9839594,11.8803442 C24.9958714,11.9546196 25.0048054,12.0288949 25.0107614,12.0972283 L25.0107614,12.1068841 C25.0107614,12.140308 25.0152284,12.1700181 25.0167174,12.1989855 L25.0167174,12.2205254 C25.0167174,12.257663 25.0167174,12.2948007 25.0167174,12.3304529 L25.0167174,20.1293659 C25.0167174,21.2917754 24.1977665,22.7104348 23.1867343,23.2920109 L19.4225381,25.4601087 L19.4225381,28.6702899 C19.4339182,29.1393506 19.5544762,29.5993453 19.774687,30.0139312 L27.5614213,25.5336413 C28.4287648,25.0345109 29.1613536,23.7688587 29.1613536,22.7698551 L29.1613536,9.68179348 C29.1613536,9.6446558 29.1613536,9.60751812 29.1576311,9.56963768 L29.1576311,9.55849638 C29.1576311,9.5436413 29.1576311,9.52878623 29.1576311,9.5117029 C29.1576311,9.49461957 29.1576311,9.48422101 29.1531641,9.4701087 L29.1531641,9.45005435 C29.1494416,9.41291667 29.1449746,9.37577899 29.1397631,9.33938406 C29.1345516,9.30298913 29.1315736,9.2859058 29.1263621,9.25842391 C29.1211506,9.23094203 29.1151946,9.19900362 29.1084941,9.16855072 L29.1084941,9.15666667 C29.1017936,9.12621377 29.0958376,9.09873188 29.0891371,9.07199275 C29.0891371,9.06382246 29.0854146,9.05639493 29.083181,9.04822464 L29.0764805,9.02371377 C29.0586125,8.9576087 29.038511,8.88927536 29.0154315,8.81945652 L29.0079865,8.79717391 C28.998308,8.76894928 28.9886294,8.74146739 28.9782064,8.71398551 C28.9677834,8.68650362 28.9551269,8.65233696 28.9424704,8.6211413 L28.9216244,8.5684058 L28.9007783,8.52086957 L28.8769543,8.4673913 L28.8575973,8.42356884 C28.5530964,7.7692029 28.0714044,7.20619565 27.5696108,6.91726449 L16.2003384,0.371376812 C15.7886294,0.133695652 15.2056853,0 14.6011506,0 C13.9966159,0 13.4099492,0.135923913 13.0012183,0.371376812 L1.63790186,6.91726449 C0.772791878,7.41713768 0.0402030457,8.68278986 0.0402030457,9.68179348 Z"></path>
                            </g>
                            <path d="M30.1448393,8.61594203 L30.0971912,8.60628623 C29.9328086,8.57693226 29.7666793,8.55832379 29.5998646,8.55057971 L29.5045685,8.54166667 L29.4219289,8.54166667 C29.6393232,9.12918478 29.6221997,9.27402174 29.6221997,9.67882246 L29.6221997,13.3755072 L29.6557022,13.3755072 C29.6772927,13.3755072 29.6988832,13.3755072 29.7204738,13.3807065 L29.7718443,13.3807065 C29.8142809,13.3844203 29.8567174,13.3873913 29.8984095,13.3918478 L29.9639255,13.4007609 L30.0175296,13.4081884 C30.0577327,13.4133877 30.0979357,13.4193297 30.1373942,13.4260145 L30.2043993,13.4386413 L30.2669374,13.4512681 C30.3019289,13.4579529 30.337665,13.4646377 30.3726565,13.472808 L30.4471066,13.4913768 L30.5103892,13.5084601 L30.6034518,13.5337138 L30.6860914,13.5611957 L30.7493739,13.5827355 C30.7739425,13.5909058 30.7992555,13.5990761 30.823824,13.6087319 L30.9295431,13.6525543 L30.9801692,13.6740942 L31.0352623,13.6978623 C31.1045008,13.7305435 31.1722504,13.7661957 31.235533,13.8018478 L38.0037902,17.7005616 C39.0118443,18.290308 39.8307953,19.7089674 39.8307953,20.8713768 L39.8307953,26.5720109 L43.962775,28.9488225 L43.962775,18.2256884 C43.962775,17.2266848 43.2301861,15.9610326 42.3628426,15.4619022 L31.0017597,8.9175 C30.9474112,8.8870471 30.8871066,8.85585145 30.8171235,8.82391304 L30.786599,8.81054348 L30.7560745,8.79791667 C30.7032149,8.7748913 30.6578003,8.75706522 30.6146193,8.74146739 L30.5401692,8.71769928 C30.4910321,8.70061594 30.4411506,8.68576087 30.391269,8.67164855 L30.3845685,8.67164855 L30.3220305,8.65456522 C30.2676819,8.63896739 30.2088663,8.62559783 30.1448393,8.61594203 Z" fill="url(#linearGradient-2)"></path>
                            <path d="M27.8033841,40.6219384 C28.6707276,41.1218116 30.1351607,41.1218116 31.0047377,40.6219384 L40.3154653,35.2592572 L36.1834856,32.8824457 L31.2332995,35.7264493 C30.2237563,36.3080254 28.582132,36.3080254 27.5725888,35.7264493 L20.8043316,31.8277355 C20.7403046,31.7905978 20.675533,31.7497464 20.6115059,31.7059239 L20.5809814,31.6828986 L20.5690694,31.6732428 C20.5243993,31.6413043 20.4760068,31.6056522 20.4261252,31.5655435 L20.4000677,31.5432609 L20.3903892,31.5343478 C20.3486971,31.4986957 20.2973266,31.4556159 20.247445,31.4088225 L20.2288325,31.3902536 L20.223621,31.3850543 C20.1677834,31.3308333 20.1201354,31.2832971 20.0747208,31.2365036 L20.0642978,31.2238768 C20.0099492,31.1651993 19.9600677,31.10875 19.9153976,31.0523007 L19.9101861,31.0456159 C19.8030516,30.9158468 19.7036151,30.7799385 19.6123858,30.638587 L19.5766497,30.5821377 L19.4954992,30.4402717 C19.1582403,29.8497826 18.9743486,29.2191848 18.9743486,28.6628623 L18.9743486,20.8713768 C18.9743486,19.7089674 19.7932995,18.290308 20.8043316,17.7087319 L24.5685279,15.5406341 L24.5685279,12.3297101 C24.5685279,12.2858877 24.5417259,11.4242935 24.216379,10.9860688 L16.4423012,15.4619022 C15.5749577,15.9610326 14.8423689,17.2266848 14.8423689,18.2256884 L14.8423689,31.31375 C14.8423689,31.3627717 14.8423689,31.4155072 14.8490694,31.4749275 C14.8490694,31.4860688 14.8490694,31.4979529 14.8490694,31.5090942 L14.8490694,31.527663 C14.8490694,31.5655435 14.8565144,31.6019384 14.8624704,31.6413043 C14.8624704,31.663587 14.8691709,31.6858696 14.8728934,31.7081522 C14.8788494,31.7415761 14.8848054,31.7757428 14.8915059,31.8091667 C14.8982064,31.8425906 14.9026734,31.8619022 14.9093739,31.8878986 C14.9160745,31.9138949 14.9235195,31.9450906 14.9309645,31.9733152 L14.9309645,31.9844565 C14.9384095,32.0126812 14.9458545,32.0409058 14.954044,32.0691304 L14.9652115,32.1040399 L14.9726565,32.1255797 C15.0210893,32.2777035 15.0792805,32.4265616 15.1468697,32.5712319 L15.1751607,32.6313949 C15.2056853,32.694529 15.2347208,32.7502355 15.2622673,32.8014855 L15.2622673,32.8081703 C15.3233164,32.9180978 15.3888325,33.0257971 15.4595601,33.1290399 L15.4900846,33.1736051 C15.5228426,33.2196558 15.5556007,33.2649638 15.5898477,33.309529 L15.6434518,33.3778623 C15.6613198,33.4008877 15.6799323,33.4231703 15.6985448,33.4454529 C15.7313029,33.4840761 15.7648054,33.5197283 15.798308,33.5590942 L15.844467,33.6066304 C15.8782177,33.6422826 15.9124647,33.6764493 15.9472081,33.7091304 L15.9792217,33.7395833 C16.0157022,33.77375 16.0536717,33.8071739 16.0968528,33.8428261 L16.1296108,33.8695652 C16.1720474,33.9037319 16.2167174,33.9371558 16.260643,33.9683514 L16.2881895,33.9869203 C16.3432826,34.0248007 16.3879526,34.0530254 16.4303892,34.0775362 L27.8033841,40.6219384 Z" fill="url(#linearGradient-3)"></path>
                        </g>
                    </g>
                </g>
            </g>
        </g>
    </g>
</svg>