<svg xmlns="http://www.w3.org/2000/svg" viewBox="0 0 233.45 56.53"><defs><style>.cls-1{fill:#102b72;}.cls-2{fill:#987c4d;}</style></defs><title>Asset 1</title><g id="Layer_2" data-name="Layer 2"><g id="Artwork"><g id="Horizontal_Version" data-name="Horizontal Version"><path class="cls-1" d="M172.78,36.49h2.89l3.44,12.12h-2.3L176.14,46h-3.83l-.72,2.61H169.3Zm0,7.6h2.81l-1.35-5.27h0Z"/><path class="cls-1" d="M185,42.73c-.34-.74-.71-1.33-1.71-1.33-1.16,0-1.71.91-1.71,2.85s.55,2.85,1.78,2.85a2.13,2.13,0,0,0,1.84-1.39l1.58.89a3.57,3.57,0,0,1-3.49,2.18c-2.37,0-3.79-1.76-3.79-4.53s1.42-4.52,3.79-4.52a3.45,3.45,0,0,1,3.44,2.33Z"/><path class="cls-1" d="M192.82,48.61l-.13-.75a4.55,4.55,0,0,1-2.72.92,2.23,2.23,0,0,1-2.36-2.31c0-2,1.61-3,5-3.42v-.74c0-.67-.54-1-1.28-1a2.24,2.24,0,0,0-1.91,1.07l-1.34-1a3.89,3.89,0,0,1,3.25-1.59c2.35.05,3.36.9,3.36,3.52v4.11a3.94,3.94,0,0,0,.16,1.25Zm-.21-4.17c-1.4.27-2.92.55-2.92,1.78a.94.94,0,0,0,1,1,3.68,3.68,0,0,0,1.92-.92Z"/><path class="cls-1" d="M203.67,48.61H201.9l-.1-.94a3.16,3.16,0,0,1-2.36,1.11c-2.31,0-3.49-2-3.49-4.76,0-2.15,1.24-4.29,3.49-4.29a3,3,0,0,1,2.11,1h0V36.51h2.08Zm-2.08-6.47A2.41,2.41,0,0,0,200,41.4c-1.24,0-1.95,1-1.95,2.85s.71,2.85,1.95,2.85a2.21,2.21,0,0,0,1.61-.77Z"/><path class="cls-1" d="M207,44.59c0,1.81.84,2.51,1.81,2.51a2.31,2.31,0,0,0,2-1l1.51.94a4,4,0,0,1-3.66,1.78c-2.26,0-3.69-1.76-3.69-4.53s1.43-4.52,3.79-4.52,3.56,1.91,3.56,4v.86Zm3.36-1.41c0-1.21-.68-1.91-1.68-1.91s-1.65.7-1.68,1.91Z"/><path class="cls-1" d="M213.72,48.61V39.89h1.89v.94a3.44,3.44,0,0,1,2.62-1.1A2.29,2.29,0,0,1,220.38,41a3.9,3.9,0,0,1,3-1.27c.9,0,2.15.53,2.15,2.61v6.27h-2.08V42.53c0-.71-.29-1.09-1-1.13a3.2,3.2,0,0,0-1.75.94v6.27h-2.08V42.53c0-.71-.28-1.09-1-1.13a3.17,3.17,0,0,0-1.74.94v6.27Z"/><path class="cls-1" d="M226.33,50a3.74,3.74,0,0,0,.87.07,1.32,1.32,0,0,0,1.37-.69,2.19,2.19,0,0,0,.34-1,4.32,4.32,0,0,0-.27-1l-2.33-7.45h2.1l1.44,5.37h0l1.49-5.37h2.08l-2.75,8.74c-.92,2.5-1.66,3.17-3.37,3.17a5.65,5.65,0,0,1-1-.07Z"/><path class="cls-1" d="M176.1,21.84a2.21,2.21,0,0,0-2.16-1.57c-1,0-1.73.4-1.73,1.34,0,2.08,6.24,1.64,6.24,5.56,0,2.49-1.56,3.73-4.24,3.73A4.81,4.81,0,0,1,169.68,28l1.91-.84a2.79,2.79,0,0,0,2.64,1.9c1.15,0,2-.44,2-1.61,0-2.38-6.24-1.91-6.24-5.64,0-2.16,1.81-3.38,3.91-3.38a4.41,4.41,0,0,1,4.28,2.73Z"/><path class="cls-1" d="M180.18,30.73V18.62h3.25l2.33,8.45h0l2.34-8.45h3.29V30.73h-2V21.21h0l-2.71,9.52h-1.76l-2.69-9.52h0v9.52Z"/><path class="cls-1" d="M200.69,18.62H203V26.2c0,3.54-2.18,4.7-4.64,4.7s-4.65-1.16-4.65-4.7V18.62H196V26.3c0,2,.77,2.65,2.33,2.65s2.33-.69,2.33-2.65Z"/><rect id="Separator" class="cls-1" x="156.68" y="10.7" width="0.43" height="45.81"/><g id="SMU_Logo" data-name="SMU Logo"><path class="cls-1" d="M43.37,31.23c-.4-.19-.43-.3-.43-1.05,0-1.38.11-2.48.14-2.93s.09-.44.24-.44.2.09.2.31a4.52,4.52,0,0,0,.09,1C44,30.18,46,31,47.9,31c2.79,0,4.15-1.91,4.15-3.68s-.84-3-3.34-5l-1.3-1c-3.08-2.4-3.77-4.11-3.77-6,0-3,2.32-5,6-5a11.66,11.66,0,0,1,2.7.27,5,5,0,0,0,1,.14c.23,0,.29,0,.29.19s-.12,1.05-.12,2.93c0,.44-.06.64-.2.64s-.21-.14-.24-.36a4.62,4.62,0,0,0-.37-1.39c-.18-.3-1-1.46-3.63-1.46-2,0-3.57,1.19-3.57,3.21,0,1.57.81,2.51,3.54,4.64l.81.61c3.43,2.57,4.24,4.28,4.24,6.49a5.63,5.63,0,0,1-2.47,4.59A7.88,7.88,0,0,1,47.26,32,9.25,9.25,0,0,1,43.37,31.23Z"/><path class="cls-1" d="M81.52,28.32c.11,1,.31,2.54,1.56,2.93A6.61,6.61,0,0,0,85,31.5c.14,0,.23,0,.23.14s-.26.25-.61.25c-.64,0-3.77-.08-4.85-.17-.66,0-.81-.13-.81-.28s.06-.16.21-.19.17-.5.11-1L77.86,16h-.09L70.66,30.37c-.61,1.22-.69,1.46-1,1.46s-.34-.27-.89-1.27c-.76-1.35-3.25-6.14-3.4-6.41-.26-.5-3.51-7.13-3.83-7.88h-.12L60.31,29.1c0,.44,0,.94,0,1.41a.89.89,0,0,0,.75.85,5.68,5.68,0,0,0,1.1.14c.12,0,.24.06.24.14s-.18.25-.53.25c-1.07,0-2.46-.08-2.7-.08s-1.65.08-2.43.08c-.29,0-.5-.06-.5-.25s.15-.14.3-.14a4,4,0,0,0,.86-.08c1-.17,1.05-1.24,1.17-2.3l2.09-18c0-.31.14-.5.31-.5s.3.11.44.41l8.88,17.39,8.53-17.36c.11-.25.23-.44.43-.44s.29.22.35.75Z"/><path class="cls-1" d="M86.67,18.72c0-4.32,0-5.09-.06-6s-.29-1.38-1.24-1.57a5.37,5.37,0,0,0-1-.08c-.12,0-.24-.06-.24-.17s.15-.22.47-.22c1.3,0,3.08.08,3.34.08s2-.08,2.87-.08c.32,0,.46.06.46.22s-.11.17-.23.17a4.06,4.06,0,0,0-.73.08c-.78.11-1,.61-1.07,1.57s-.06,1.66-.06,6v3.86c0,4,.93,5.7,2.18,6.83a5.85,5.85,0,0,0,4.38,1.52,6.2,6.2,0,0,0,4.55-2C101.64,27.36,102,25,102,22.17V18.72c0-4.32,0-5.09-.06-6s-.29-1.38-1.25-1.57a5.19,5.19,0,0,0-1-.08c-.12,0-.23-.06-.23-.17s.14-.22.46-.22c1.31,0,2.9.08,3.07.08s1.57-.08,2.44-.08c.32,0,.47.06.47.22s-.12.17-.23.17a2.75,2.75,0,0,0-.73.08c-.78.14-1,.61-1.08,1.57s-.05,1.66-.05,6v3c0,3-.35,6.3-2.67,8.26a8.78,8.78,0,0,1-6,2.05,9.22,9.22,0,0,1-6-2c-1.42-1.3-2.52-3.23-2.52-7.27Z"/><polygon class="cls-1" points="27.23 31.91 21.42 26.6 21.42 26.59 21.42 26.59 21.42 26.59 21.42 26.6 15.61 31.91 21.41 30.04 21.42 30.04 27.23 31.91"/><polygon class="cls-1" points="21.42 26.58 23.34 21.33 27.61 20.81 21.42 26.58"/><polygon class="cls-1" points="31.93 22.53 27.61 20.81 27.49 13.74 31.93 22.53"/><polygon class="cls-1" points="28.55 10.56 32.86 10.56 27.49 13.75 28.55 10.56"/><polygon class="cls-2" points="21.42 26.58 19.5 21.33 15.23 20.81 21.42 26.58"/><polygon class="cls-2" points="10.91 22.53 15.23 20.81 15.35 13.74 10.91 22.53"/><polygon class="cls-2" points="14.29 10.56 9.98 10.56 15.35 13.75 14.29 10.56"/><path class="cls-2" d="M36.22,0c-3.85,3.63-6.5,2-7.86,1.74a7,7,0,0,0-2.59-.46c-2.36,0-4.26,1-4.26,2.24a1.59,1.59,0,0,0,.68,1.21,4.29,4.29,0,0,1,1.94-.93h0A9.6,9.6,0,0,1,28,4l.48.13h0c.21.06.39.11.55.14l.2,0a8.44,8.44,0,0,0,7-1.22Z"/><path class="cls-1" d="M21,38.12a11.06,11.06,0,0,1-3.62-.59c-2.15-1-2.56-4.23-2.83-6.87,0-.29-2-.92-3-1.8C10,27.44,10.27,23,10.27,22.73s-2.51-1.51-2.51-4.25c0-1.16,0-7.64,0-7.64-1.63-2-2.68-2.05-4-1.64-1.62.52-2.09,1.71-3.78,2,0,.38,0,19.68,0,19.68,0,5.94,1.09,10.05,7.18,14.62,5.65,4.24,10,4.14,13.85,11.08C21.09,56.64,21.05,38.12,21,38.12Z"/><path class="cls-1" d="M43.06,43c-.11-.05-.13-.08-.13-.23,0-.36,0-.76,0-.86s0-.17.08-.17.07.06.07.11a1.55,1.55,0,0,0,.05.34.93.93,0,0,0,1,.66.81.81,0,0,0,.9-.75c0-.32-.1-.63-.66-1l-.3-.24c-.74-.57-1-1-1-1.56,0-.73.62-1.25,1.55-1.25a3.52,3.52,0,0,1,.89.11c.06,0,.1,0,.1.08s0,.28,0,.79c0,.15,0,.2-.07.2s-.07,0-.07-.12a.76.76,0,0,0-.17-.43.85.85,0,0,0-.73-.33.7.7,0,0,0-.8.68c0,.31.15.54.71,1l.19.14c.8.61,1.1,1.06,1.1,1.68a1.32,1.32,0,0,1-.64,1.15,1.93,1.93,0,0,1-1.06.27A2.45,2.45,0,0,1,43.06,43Z"/><path class="cls-1" d="M47.36,40c0-1,0-1.18,0-1.39s-.08-.34-.23-.37a.93.93,0,0,0-.24,0c-.07,0-.11,0-.11-.07s.06,0,.16,0l.88,0,.81,0c.09,0,.14,0,.14,0s0,.07-.1.07l-.2,0c-.19,0-.24.15-.25.38s0,.39,0,1.39v1.16c0,.64,0,1.17,0,1.45s.07.3.27.32l.34,0c.07,0,.11,0,.11.05s-.06.07-.13.07l-1.05,0-.84,0c-.09,0-.13,0-.13-.07s0-.05.1-.05a1.56,1.56,0,0,0,.25,0c.13,0,.17-.14.19-.33s0-.8,0-1.44Z"/><path class="cls-1" d="M50.8,42.2c0,.51.1.69.24.73a1,1,0,0,0,.34,0c.08,0,.12,0,.12.05s-.06.07-.16.07c-.43,0-.7,0-.83,0l-.72,0c-.09,0-.15,0-.15-.07s0-.05.11-.05a1,1,0,0,0,.3,0c.18,0,.2-.24.21-.81l.06-3.9c0-.14,0-.23.08-.23s.14.09.25.2,1.1,1.16,2.08,2.12c.46.45,1.36,1.4,1.47,1.5h0l-.07-3c0-.4-.07-.52-.23-.59a1.08,1.08,0,0,0-.35,0c-.08,0-.11,0-.11-.06s.08-.06.18-.06l.81,0,.65,0c.09,0,.16,0,.16.06s0,.06-.12.06a.82.82,0,0,0-.21,0c-.18,0-.23.19-.24.56L54.63,43c0,.15,0,.21-.08.21s-.16-.08-.23-.15c-.42-.4-1.28-1.26-2-1.94s-1.47-1.53-1.59-1.66h0Z"/><path class="cls-1" d="M60.84,42.66c0,.17,0,.19-.09.23a3.73,3.73,0,0,1-1.61.3c-1.64,0-3.1-.77-3.1-2.59a2.45,2.45,0,0,1,1.17-2.15A3.3,3.3,0,0,1,59,38a7.72,7.72,0,0,1,1.19.11c.14,0,.37.06.53.07s.09,0,.09.08a8.21,8.21,0,0,0,0,1.08c0,.1,0,.14-.07.14s-.06,0-.07-.09a1,1,0,0,0-.22-.55,2.2,2.2,0,0,0-1.5-.51,2,2,0,0,0-1.33.41A2,2,0,0,0,57,40.37a2.3,2.3,0,0,0,2.33,2.48,1.57,1.57,0,0,0,.57-.07.23.23,0,0,0,.13-.24v-.62c0-.33,0-.58,0-.78s-.07-.33-.29-.38l-.26,0c-.06,0-.1,0-.1-.05s0-.07.14-.07l1,0,.79,0c.08,0,.13,0,.13.07s0,.05-.09.05l-.18,0c-.18,0-.25.15-.25.38s0,.46,0,.79Z"/><path class="cls-1" d="M63,41.38s0,0-.06,0l-.36.94a1.19,1.19,0,0,0-.1.4c0,.12.06.21.27.21h.1c.08,0,.1,0,.1.05s0,.07-.12.07l-.71,0-.79,0c-.08,0-.12,0-.12-.07s0-.05.08-.05l.2,0c.31,0,.44-.26.57-.59l1.68-4.14c.09-.19.13-.26.19-.26s.1.06.17.21c.16.36,1.23,3,1.66,4,.26.59.45.69.59.72l.28,0c.06,0,.09,0,.09.05s-.06.07-.31.07-.73,0-1.26,0c-.12,0-.21,0-.21,0s0-.05.1-.06a.1.1,0,0,0,.06-.15l-.54-1.4a.05.05,0,0,0-.06,0Zm1.37-.33s0,0,0,0l-.6-1.63s0-.06,0-.06,0,0,0,.06L63.12,41s0,0,0,0Z"/><path class="cls-1" d="M67.47,40c0-1,0-1.18,0-1.39s-.07-.33-.29-.38l-.26,0c-.08,0-.12,0-.12-.06s0-.06.15-.06l1,0,1,0a1.64,1.64,0,0,1,1.24.38,1.12,1.12,0,0,1,.34.78,1.57,1.57,0,0,1-1.65,1.6h-.14s-.08,0-.08-.06,0-.07.19-.07a1,1,0,0,0,.89-1.09,1.28,1.28,0,0,0-.39-1,1,1,0,0,0-.67-.25,1,1,0,0,0-.26,0s-.06.06-.06.13v2.63a13.35,13.35,0,0,0,0,1.42c0,.18.06.33.26.35l.34,0C69,43,69,43,69,43s-.06.07-.13.07l-1,0-.84,0c-.09,0-.14,0-.14-.07s0-.05.11-.05a1.29,1.29,0,0,0,.24,0c.14,0,.17-.17.19-.36a13,13,0,0,0,0-1.41Z"/><path class="cls-1" d="M71.16,40.6A2.56,2.56,0,0,1,73.93,38a2.42,2.42,0,0,1,2.71,2.47,2.63,2.63,0,0,1-2.78,2.7A2.53,2.53,0,0,1,71.16,40.6Zm4.54.13c0-1.48-.87-2.39-2-2.39-.77,0-1.64.42-1.64,2.06a2.18,2.18,0,0,0,2,2.46C74.61,42.86,75.7,42.63,75.7,40.73Z"/><path class="cls-1" d="M78.07,40c0-1,0-1.18,0-1.39s-.07-.33-.29-.38l-.26,0c-.08,0-.11,0-.11-.06s0-.06.14-.06l.92,0,.94,0a2.13,2.13,0,0,1,1.24.29,1.12,1.12,0,0,1,.45.9,1.83,1.83,0,0,1-.88,1.48c.6.73,1.06,1.32,1.45,1.73a1.38,1.38,0,0,0,.75.45l.19,0c.06,0,.08,0,.08.05s0,.07-.13.07h-.63A1.41,1.41,0,0,1,81.2,43a3.19,3.19,0,0,1-.92-1c-.27-.36-.57-.81-.66-.91s-.07,0-.12,0l-.58,0s-.06,0-.06,0v.1c0,.61,0,1.13,0,1.41s.07.34.27.36l.33,0c.05,0,.08,0,.08.05s0,.07-.14.07l-1,0-.82,0c-.09,0-.13,0-.13-.07s0-.05.1-.05a1.29,1.29,0,0,0,.24,0c.14,0,.17-.17.2-.36s0-.8,0-1.41Zm.79.53c0,.07,0,.09.06.11a1.66,1.66,0,0,0,.51.07.72.72,0,0,0,.48-.11,1.17,1.17,0,0,0,.39-1,1.06,1.06,0,0,0-1-1.21,1.48,1.48,0,0,0-.36,0,.08.08,0,0,0-.06.09Z"/><path class="cls-1" d="M83.16,40c0-1,0-1.18,0-1.39s-.07-.33-.29-.38l-.26,0c-.07,0-.11,0-.11-.06s.05-.06.15-.06h2.64l.28,0,.11,0s0,0,0,.06a4.31,4.31,0,0,0,0,.43c0,.06,0,.35,0,.43s0,.08-.06.08-.06,0-.06-.1a.79.79,0,0,0,0-.23c0-.12-.12-.2-.45-.24l-1,0s0,0,0,.07V40.2s0,.07,0,.07h1.07a.55.55,0,0,0,.32-.1c0-.06.07-.09.11-.09s0,0,0,0a3.86,3.86,0,0,0-.06.48c0,.14,0,.4,0,.45s0,.12-.06.12a.05.05,0,0,1-.06-.06,1.1,1.1,0,0,0,0-.24c0-.13-.13-.23-.38-.25s-.79,0-1,0,0,0,0,.06v.52c0,.23,0,.83,0,1,0,.45.12.55.8.55a1.68,1.68,0,0,0,.63-.08c.18-.08.26-.22.3-.49,0-.07,0-.1.08-.1s.05.06.05.12a4.29,4.29,0,0,1-.09.73c0,.18-.1.18-.36.18l-1.16,0c-.28,0-.49,0-.69,0h-.38l-.47,0c-.08,0-.13,0-.13-.07s0-.05.11-.05a1.29,1.29,0,0,0,.24,0c.13,0,.16-.17.19-.36s0-.8,0-1.41Z"/><path class="cls-1" d="M89.73,38.14c0-.11.06-.17.11-.17s.09,0,.18.2l1.83,3.72,1.82-3.76c0-.11.09-.16.15-.16s.1.06.12.2l.61,4.08c.06.41.13.6.33.66a1.36,1.36,0,0,0,.41.07c.06,0,.11,0,.11,0s-.08.08-.17.08-1.09,0-1.36,0-.2,0-.2-.07,0-.06.08-.08.06-.1,0-.28l-.4-2.9h0l-1.46,3c-.15.31-.19.37-.25.37s-.13-.13-.23-.33-.69-1.31-.77-1.5-.47-1-.7-1.46h0l-.35,2.62c0,.12,0,.21,0,.31a.21.21,0,0,0,.2.21A1.3,1.3,0,0,0,90,43s.1,0,.1,0-.06.08-.16.08l-.71,0-.66,0c-.07,0-.12,0-.12-.08s0,0,.11,0l.2,0c.18,0,.24-.3.27-.52Z"/><path class="cls-1" d="M96.84,41.38s0,0-.07,0l-.36.94a1.19,1.19,0,0,0-.1.4c0,.12.06.21.27.21h.1c.08,0,.1,0,.1.05s0,.07-.11.07l-.71,0-.79,0c-.09,0-.13,0-.13-.07s0-.05.08-.05l.21,0c.31,0,.43-.26.57-.59l1.68-4.14c.08-.19.12-.26.19-.26s.1.06.16.21c.16.36,1.24,3,1.66,4,.26.59.45.69.6.72l.28,0s.08,0,.08.05-.06.07-.3.07-.73,0-1.27,0c-.12,0-.2,0-.2,0s0-.05.09-.06a.1.1,0,0,0,.06-.15l-.53-1.4a.08.08,0,0,0-.07,0Zm1.36-.33s0,0,0,0l-.61-1.63s0-.06,0-.06,0,0,0,.06L96.94,41s0,0,0,0Z"/><path class="cls-1" d="M101.67,42.2c0,.51.1.69.23.73a1.06,1.06,0,0,0,.35,0c.07,0,.11,0,.11.05s-.06.07-.15.07c-.44,0-.71,0-.83,0l-.73,0c-.08,0-.14,0-.14-.07s0-.05.1-.05a1.15,1.15,0,0,0,.31,0c.17,0,.2-.24.2-.81l.06-3.9c0-.14,0-.23.09-.23s.14.09.25.2,1.1,1.16,2.08,2.12c.45.45,1.36,1.4,1.47,1.5h0l-.06-3c0-.4-.07-.52-.23-.59a1.11,1.11,0,0,0-.36,0c-.08,0-.1,0-.1-.06s.07-.06.17-.06l.81,0c.08,0,.33,0,.66,0,.09,0,.15,0,.15.06s0,.06-.12.06a.71.71,0,0,0-.2,0c-.18,0-.24.19-.25.56L105.5,43c0,.15,0,.21-.09.21s-.15-.08-.23-.15c-.42-.4-1.28-1.26-2-1.94s-1.48-1.53-1.6-1.66h0Z"/><path class="cls-1" d="M107.94,41.38s0,0-.06,0l-.36.94a1.19,1.19,0,0,0-.1.4c0,.12.06.21.26.21h.11c.08,0,.1,0,.1.05s0,.07-.12.07l-.71,0-.79,0c-.09,0-.13,0-.13-.07s0-.05.08-.05l.21,0c.31,0,.44-.26.57-.59l1.68-4.14c.08-.19.12-.26.19-.26s.1.06.17.21c.16.36,1.23,3,1.66,4,.25.59.45.69.59.72l.28,0c.06,0,.09,0,.09.05s-.06.07-.31.07-.73,0-1.27,0c-.12,0-.2,0-.2,0s0-.05.1-.06a.11.11,0,0,0,.06-.15l-.54-1.4s0,0-.07,0Zm1.37-.33s0,0,0,0l-.6-1.63s0-.06,0-.06,0,0,0,.06L108.05,41s0,0,0,0Z"/><path class="cls-1" d="M116.46,42.66c0,.17,0,.19-.08.23a3.8,3.8,0,0,1-1.62.3c-1.64,0-3.1-.77-3.1-2.59a2.45,2.45,0,0,1,1.17-2.15,3.32,3.32,0,0,1,1.81-.43,7.56,7.56,0,0,1,1.18.11l.53.07c.08,0,.09,0,.09.08a10.24,10.24,0,0,0,0,1.08c0,.1,0,.14-.08.14s-.06,0-.06-.09a1,1,0,0,0-.23-.55,2.18,2.18,0,0,0-1.5-.51,2,2,0,0,0-1.32.41,1.92,1.92,0,0,0-.62,1.61,2.3,2.3,0,0,0,2.33,2.48,1.54,1.54,0,0,0,.57-.07.23.23,0,0,0,.13-.24v-.62c0-.33,0-.58,0-.78s-.06-.33-.29-.38l-.26,0c-.06,0-.1,0-.1-.05s.05-.07.14-.07l1,0,.79,0c.09,0,.13,0,.13.07s0,.05-.08.05l-.19,0c-.18,0-.24.15-.25.38s0,.46,0,.79Z"/><path class="cls-1" d="M118.37,40c0-1,0-1.18,0-1.39s-.06-.33-.29-.38l-.26,0c-.07,0-.11,0-.11-.06s0-.06.15-.06h2.64l.29,0,.1,0s0,0,0,.06a4.31,4.31,0,0,0,0,.43c0,.06,0,.35,0,.43s0,.08-.07.08-.06,0-.06-.1a.79.79,0,0,0,0-.23c0-.12-.11-.2-.45-.24l-.95,0s-.05,0-.05.07V40.2s0,.07.05.07h1.07a.55.55,0,0,0,.32-.1c0-.06.07-.09.11-.09s0,0,0,0,0,.15,0,.48c0,.14,0,.4,0,.45s0,.12-.06.12,0,0,0-.06,0-.15,0-.24-.13-.23-.38-.25-.79,0-1,0,0,0,0,.06v.52c0,.23,0,.83,0,1,0,.45.12.55.8.55a1.76,1.76,0,0,0,.64-.08c.17-.08.25-.22.3-.49,0-.07,0-.1.07-.1s0,.06,0,.12a4.29,4.29,0,0,1-.09.73c0,.18-.1.18-.36.18l-1.15,0c-.29,0-.5,0-.7,0h-.39l-.46,0c-.08,0-.13,0-.13-.07s0-.05.11-.05a1.29,1.29,0,0,0,.24,0c.13,0,.17-.17.19-.36a13,13,0,0,0,0-1.41Z"/><path class="cls-1" d="M122.88,38.14c0-.11.06-.17.12-.17s.09,0,.18.2L125,41.89l1.82-3.76c0-.11.09-.16.15-.16s.1.06.12.2l.61,4.08c.06.41.13.6.33.66a1.36,1.36,0,0,0,.41.07c.06,0,.11,0,.11,0s-.08.08-.17.08-1.1,0-1.37,0-.19,0-.19-.07,0-.06.07-.08.06-.1,0-.28l-.41-2.9h0l-1.46,3c-.16.31-.19.37-.25.37s-.13-.13-.24-.33-.69-1.31-.77-1.5-.46-1-.69-1.46h0l-.35,2.62c0,.12,0,.21,0,.31a.21.21,0,0,0,.2.21,1.23,1.23,0,0,0,.28,0c.06,0,.11,0,.11,0s-.07.08-.17.08l-.7,0-.66,0c-.07,0-.12,0-.12-.08s0,0,.1,0l.21,0c.18,0,.24-.3.27-.52Z"/><path class="cls-1" d="M129.66,40c0-1,0-1.18,0-1.39s-.06-.33-.28-.38l-.27,0c-.07,0-.11,0-.11-.06s.05-.06.15-.06h2.64l.29,0,.1,0s.05,0,.05.06a2.81,2.81,0,0,0-.06.43c0,.06,0,.35,0,.43s0,.08-.07.08S132,39,132,39a.79.79,0,0,0,0-.23c0-.12-.11-.2-.45-.24l-.95,0s-.05,0-.05.07V40.2s0,.07.05.07h1.07a.55.55,0,0,0,.32-.1c.05-.06.08-.09.11-.09s0,0,0,0,0,.15-.06.48c0,.14,0,.4,0,.45s0,.12-.06.12-.06,0-.06-.06,0-.15,0-.24-.13-.23-.38-.25-.79,0-1,0,0,0,0,.06v1.55c0,.45.12.55.81.55a1.73,1.73,0,0,0,.63-.08c.17-.08.25-.22.3-.49,0-.07,0-.1.07-.1s.06.06.06.12a5.6,5.6,0,0,1-.09.73c-.05.18-.11.18-.36.18l-1.16,0c-.29,0-.5,0-.7,0h-.38l-.46,0c-.09,0-.14,0-.14-.07s0-.05.11-.05a1.29,1.29,0,0,0,.24,0c.13,0,.17-.17.2-.36s0-.8,0-1.41Z"/><path class="cls-1" d="M134.3,42.2c0,.51.1.69.24.73a1,1,0,0,0,.34,0c.08,0,.12,0,.12.05s-.06.07-.16.07c-.43,0-.7,0-.83,0l-.72,0c-.09,0-.15,0-.15-.07s0-.05.11-.05a1,1,0,0,0,.3,0c.18,0,.2-.24.21-.81l.06-3.9c0-.14,0-.23.09-.23s.13.09.25.2,1.09,1.16,2.07,2.12c.46.45,1.36,1.4,1.48,1.5h0l-.07-3c0-.4-.07-.52-.23-.59a1.08,1.08,0,0,0-.35,0c-.08,0-.11,0-.11-.06s.08-.06.18-.06l.81,0,.65,0c.09,0,.16,0,.16.06s0,.06-.12.06a.71.71,0,0,0-.2,0c-.19,0-.24.19-.25.56L138.14,43c0,.15,0,.21-.09.21s-.16-.08-.23-.15c-.42-.4-1.28-1.26-2-1.94s-1.47-1.53-1.59-1.66h0Z"/><path class="cls-1" d="M141.2,38.48l-1,0c-.39,0-.55,0-.65.19a.64.64,0,0,0-.11.23s0,.08-.08.08-.06,0-.06-.11.13-.7.14-.75,0-.13.08-.13.12.07.29.08.45,0,.67,0h2.66a4,4,0,0,0,.46,0l.18,0s.05,0,.05.13,0,.6,0,.77,0,.11-.06.11-.07,0-.07-.14v-.07c0-.17-.19-.35-.79-.37l-.84,0v2.7c0,.61,0,1.13,0,1.42s.06.33.26.35l.34,0c.07,0,.11,0,.11.05s-.05.07-.13.07l-1.05,0-.84,0c-.09,0-.14,0-.14-.07s0-.05.11-.05a1.29,1.29,0,0,0,.24,0c.13,0,.17-.17.19-.36a13,13,0,0,0,0-1.41Z"/><path class="cls-1" d="M43.14,47.89c0-1,0-1.19,0-1.4s-.07-.33-.29-.37a1,1,0,0,0-.26,0c-.07,0-.12,0-.12-.06s0-.06.15-.06l1,0,.83,0c.09,0,.14,0,.14.06s0,.06-.11.06a.65.65,0,0,0-.19,0c-.18,0-.23.14-.25.37s0,.4,0,1.4v.92c0,1,.19,1.36.52,1.63a1.28,1.28,0,0,0,.84.27,1.33,1.33,0,0,0,.92-.36,2.24,2.24,0,0,0,.39-1.64v-.82c0-1,0-1.19,0-1.4s-.07-.33-.29-.37a.9.9,0,0,0-.24,0c-.07,0-.11,0-.11-.06s0-.06.14-.06l.77,0,.76,0c.1,0,.14,0,.14.06s0,.06-.12.06a.65.65,0,0,0-.19,0c-.18,0-.24.14-.25.37s0,.4,0,1.4v.71a2.47,2.47,0,0,1-.64,2,2.05,2.05,0,0,1-1.4.48,1.88,1.88,0,0,1-2.08-2.21Z"/><path class="cls-1" d="M49.55,50.07c0,.51.1.68.23.73a1.08,1.08,0,0,0,.35,0q.12,0,.12.06c0,.05-.07.06-.16.06-.44,0-.7,0-.83,0l-.72,0c-.09,0-.15,0-.15-.06s0-.06.11-.06a1.09,1.09,0,0,0,.3,0c.17-.05.2-.24.21-.82l.06-3.9c0-.13,0-.22.08-.22s.14.08.25.2,1.1,1.16,2.08,2.12c.45.45,1.36,1.4,1.47,1.5h0l-.07-3c0-.4-.07-.53-.23-.59a1.08,1.08,0,0,0-.35,0c-.08,0-.11,0-.11-.06s.07-.06.17-.06l.81,0,.66,0C54,46,54,46,54,46s0,.06-.12.06a.75.75,0,0,0-.2,0c-.18.05-.24.19-.24.56l-.08,4.16c0,.14,0,.2-.09.2s-.15-.07-.22-.14c-.43-.4-1.28-1.26-2-1.94s-1.48-1.54-1.6-1.66h0Z"/><path class="cls-1" d="M55.55,47.89c0-1,0-1.19,0-1.4s-.08-.33-.23-.37a.93.93,0,0,0-.24,0c-.07,0-.11,0-.11-.07S55,46,55.12,46L56,46l.81,0c.09,0,.14,0,.14.05s0,.07-.1.07a.78.78,0,0,0-.21,0c-.18,0-.23.14-.24.37s0,.4,0,1.4v1.16c0,.64,0,1.16,0,1.44s.07.3.27.33l.34,0c.07,0,.11,0,.11.06S57.07,51,57,51l-1,0-.84,0c-.09,0-.13,0-.13-.06s0-.06.1-.06l.25,0c.13,0,.17-.14.19-.33s0-.8,0-1.44Z"/><path class="cls-1" d="M58,46.63c-.16-.37-.27-.44-.51-.51a1.38,1.38,0,0,0-.26,0c-.06,0-.08,0-.08-.06s.07-.06.17-.06l1,0,.83,0c.08,0,.15,0,.15.06s0,.06-.1.06a.47.47,0,0,0-.26,0,.16.16,0,0,0-.07.14,1.78,1.78,0,0,0,.16.51l1.15,3h0c.29-.72,1.16-2.84,1.32-3.28a.93.93,0,0,0,.06-.24.13.13,0,0,0-.09-.13.8.8,0,0,0-.27,0c-.06,0-.11,0-.11-.05s.06-.07.18-.07L62,46l.63,0c.09,0,.14,0,.14.06s0,.06-.11.06a.62.62,0,0,0-.33.08c-.08.06-.18.17-.36.59-.27.62-.45,1-.81,1.79s-.74,1.68-.89,2-.21.49-.31.49-.13-.1-.25-.41Z"/><path class="cls-1" d="M63.5,47.89c0-1,0-1.19,0-1.4s-.07-.33-.29-.37a1,1,0,0,0-.26,0q-.12,0-.12-.06s0-.06.15-.06h2.64a1.32,1.32,0,0,0,.29,0l.11,0s0,0,0,.06a2.79,2.79,0,0,0-.06.42c0,.07,0,.36,0,.44s0,.07-.07.07-.06,0-.06-.09a.57.57,0,0,0,0-.24c0-.12-.11-.2-.45-.23-.11,0-.81,0-1,0s0,0,0,.06v1.67s0,.07,0,.07h1.07c.16,0,.27,0,.33-.1s.07-.08.1-.08,0,0,0,.05,0,.14,0,.48c0,.13,0,.4,0,.44s0,.13-.06.13a.05.05,0,0,1-.06-.06c0-.07,0-.15,0-.24s-.13-.23-.37-.26l-1,0s0,0,0,.07v1.54c0,.46.13.56.81.56a1.73,1.73,0,0,0,.63-.08c.17-.08.25-.22.3-.49,0-.07,0-.1.07-.1s.06,0,.06.12a5.6,5.6,0,0,1-.09.73c-.05.17-.11.17-.36.17L64.6,51l-.7,0h-.84c-.09,0-.13,0-.13-.06s0-.06.1-.06l.24,0c.14,0,.17-.17.2-.37s0-.79,0-1.4Z"/><path class="cls-1" d="M67.77,47.89c0-1,0-1.19,0-1.4s-.07-.33-.29-.37a1,1,0,0,0-.26,0q-.12,0-.12-.06s0-.06.15-.06l.92,0,.94,0a2.22,2.22,0,0,1,1.24.28,1.17,1.17,0,0,1,.45.91,1.85,1.85,0,0,1-.88,1.47c.59.74,1.06,1.33,1.45,1.74a1.33,1.33,0,0,0,.75.44.72.72,0,0,0,.19,0s.08,0,.08.06,0,.06-.13.06h-.64a1.39,1.39,0,0,1-.71-.12,3.19,3.19,0,0,1-.92-1c-.27-.36-.58-.81-.66-.91a.16.16,0,0,0-.12-.05h-.59s0,0,0,.05V49c0,.62,0,1.14,0,1.41s.07.34.26.37l.33,0c.06,0,.08,0,.08.06s0,.06-.13.06l-1,0-.81,0c-.09,0-.14,0-.14-.06s0-.06.11-.06l.24,0c.13,0,.17-.17.2-.37s0-.79,0-1.4Zm.79.52c0,.07,0,.1.06.12a1.66,1.66,0,0,0,.51.07.68.68,0,0,0,.48-.12,1.13,1.13,0,0,0,.39-1,1.06,1.06,0,0,0-1-1.21,1.1,1.1,0,0,0-.36,0c-.05,0-.06,0-.06.09Z"/><path class="cls-1" d="M72.39,50.88c-.1,0-.12-.08-.12-.22,0-.36,0-.76,0-.86s0-.18.08-.18.07.06.07.12a1.1,1.1,0,0,0,.06.33.92.92,0,0,0,1,.67.8.8,0,0,0,.89-.75c0-.33-.1-.64-.65-1.06l-.31-.24c-.74-.56-1-1-1-1.56,0-.72.62-1.24,1.55-1.24a3.22,3.22,0,0,1,.89.11c.06,0,.09,0,.09.08s0,.28,0,.79c0,.14,0,.2-.07.2s-.07,0-.07-.12a.79.79,0,0,0-.17-.44.87.87,0,0,0-.73-.32c-.5,0-.8.28-.8.68s.15.53.71,1L74,48c.8.61,1.1,1,1.1,1.68a1.35,1.35,0,0,1-.63,1.15,2,2,0,0,1-1.07.27A2.29,2.29,0,0,1,72.39,50.88Z"/><path class="cls-1" d="M76.7,47.89c0-1,0-1.19,0-1.4s-.08-.33-.22-.37a1.06,1.06,0,0,0-.25,0c-.06,0-.1,0-.1-.07s0-.05.16-.05l.87,0L78,46c.08,0,.14,0,.14.05s0,.07-.11.07a.71.71,0,0,0-.2,0c-.18,0-.23.14-.25.37s0,.4,0,1.4v1.16c0,.64,0,1.16,0,1.44s.06.3.26.33l.34,0c.08,0,.11,0,.11.06s0,.06-.13.06l-1,0-.85,0c-.08,0-.13,0-.13-.06s0-.06.11-.06l.24,0c.13,0,.17-.14.19-.33a13.37,13.37,0,0,0,0-1.44Z"/><path class="cls-1" d="M80.65,46.35l-1,0c-.39,0-.55.05-.65.2a.58.58,0,0,0-.11.23c0,.05,0,.08-.08.08s-.06,0-.06-.11.13-.71.14-.76,0-.12.09-.12a2.36,2.36,0,0,0,.28.08c.2,0,.45,0,.67,0h2.66a4,4,0,0,0,.46,0l.18,0s0,0,0,.14,0,.6,0,.77,0,.1-.06.1-.06,0-.07-.13v-.07c0-.17-.19-.36-.79-.37l-.84,0v2.7c0,.61,0,1.13,0,1.41s.06.33.26.36l.34,0c.08,0,.11,0,.11.06s0,.06-.13.06l-1,0-.84,0c-.09,0-.14,0-.14-.06s0-.06.11-.06l.24,0c.14,0,.18-.17.2-.37s0-.79,0-1.4Z"/><path class="cls-1" d="M85.33,49.25a1.36,1.36,0,0,0-.15-.69c-.05-.1-1-1.55-1.18-1.89a1.84,1.84,0,0,0-.46-.49.8.8,0,0,0-.28-.08c-.06,0-.1,0-.1-.06s0-.06.12-.06l.85,0,.71,0c.07,0,.1,0,.1.06s0,0-.14.07a.13.13,0,0,0-.1.12.75.75,0,0,0,.08.22c.1.2,1,1.79,1.14,2,.07-.15.92-1.6,1-1.81a.9.9,0,0,0,.09-.34.17.17,0,0,0-.14-.17c-.06,0-.12,0-.12-.06s0-.06.11-.06l.64,0,.71,0c.08,0,.12,0,.12.05s0,.07-.12.07a.64.64,0,0,0-.3.08.93.93,0,0,0-.36.32,20,20,0,0,0-1.28,2.1,1.52,1.52,0,0,0-.1.65v.55c0,.1,0,.38,0,.65s.07.34.27.37l.34,0c.07,0,.11,0,.11.06s-.06.06-.15.06l-1,0-.84,0c-.09,0-.15,0-.15-.06s0-.06.11-.06l.24,0c.13,0,.19-.17.2-.37s0-.55,0-.65Z"/></g></g></g></g></svg>