<svg xmlns="http://www.w3.org/2000/svg" width="252.95" height="70.87" viewBox="0 0 252.95 70.87">
  <title>Asset 1</title>
  <g id="Layer_2" data-name="Layer 2">
    <g id="Layer_1-2" data-name="Layer 1">
      <g>
        <path d="M39.88,27.51A18.83,18.83,0,1,1,21.05,8.69,18.83,18.83,0,0,1,39.88,27.51Z" fill="#fff"/>
        <g>
          <g>
            <path d="M15.72,20.88a44.28,44.28,0,0,1,.08,4.87v0A21.08,21.08,0,0,1,14.32,33a31.23,31.23,0,0,1,6.82,2.24A30.27,30.27,0,0,1,27.92,33a21.26,21.26,0,0,1-1.48-7.26v0a44.24,44.24,0,0,1,.08-4.84v0l3.71-3H27.6L24.84,20.1V31.65l-.09,0A20.32,20.32,0,0,0,21.18,33l-.05,0,0,0a23,23,0,0,0-3.58-1.32l-.09,0V20.08L14.64,17.8H12l3.71,3Z" fill="#ea0029"/>
            <path d="M29.09,21l-.73.73,0,.64c0,.2,0,.53,0,.71h.85l.95-1Z" fill="#ea0029"/>
            <path d="M13.16,21l-1,1.08,1,1h.83v-.65c0-.29,0-.6,0-.71Z" fill="#ea0029"/>
            <path d="M28.37,24.65c0,.23,0,.69,0,1s.07.92.09,1.14h1.08l1-1-1.14-1.18Z" fill="#ea0029"/>
            <path d="M28.75,28.61c0,.21.12.64.3,1.28a6.61,6.61,0,0,0,.32.92h1.2l.82-.82L30.05,28.6Z" fill="#ea0029"/>
            <path d="M21.1,6A21.13,21.13,0,1,0,42.25,27.1,21.12,21.12,0,0,0,21.1,6Zm4.64,5.24-4.62,4.63-4.61-4.63Zm7.49,28.38h-2a29.15,29.15,0,0,0-10,2.81l-.06,0-.06,0h0s-5.51-2.66-10-2.82H9L5.65,34.36l.86-2.07h.12c1.82,0,3,.07,3.54.12l-1.94-2H7.1l.68-2.07,1.69,0,1.16-1.19L9.54,26.09H8.3L8.7,24h1.8l.6-.62-1-1.1H9L9.34,20h1.85l.41-.43L9.45,17.52v0a9.12,9.12,0,0,1,.07-1.16c0-.47.06-.93.06-1v-.11l.11,0h7V17h2.7V30h3.46V17h2.7v-1.8h7.11l.16,2.34-2.16,2.08.42.43h1.84l.34,2.29H32.13l-1,1.09.61.63h1.79l.4,2.09H32.69l-1.08,1.08,1.18,1.21h1.66l.7,2.08H34l-1.93,2c.35,0,.92-.07,1.58-.1s2,0,2,0h.08l.87,2.05Z" fill="#ea0029"/>
            <path d="M13.74,26.8c0-.24.08-.78.1-1.05s0-.43.05-1.1H12.77l-1.14,1.17,1,1Z" fill="#ea0029"/>
            <path d="M21.19,37.57l-.05,0-.06,0A26.7,26.7,0,0,0,9.26,34.71l-.61,0,1.67,2.6a30.1,30.1,0,0,1,10.82,3,29.46,29.46,0,0,1,10.61-3l.19,0,1.66-2.59h-.66A26.6,26.6,0,0,0,21.19,37.57Z" fill="#ea0029"/>
            <path d="M12.89,30.8l0-.06c.06-.17.17-.48.27-.83a11.18,11.18,0,0,0,.31-1.3H12.19L10.86,30l.82.83Z" fill="#ea0029"/>
          </g>
          <g>
            <path d="M67.12,7.42H60l0,35.2a2.47,2.47,0,0,1-4.94,0l0-35.2H47.88A2.39,2.39,0,0,1,45.4,5,2.39,2.39,0,0,1,47.87,2.5l19.25,0A2.37,2.37,0,0,1,69.59,5,2.39,2.39,0,0,1,67.12,7.42Z" fill="#ea0029"/>
            <path d="M89.62,31.29H75.44v3.32A5.51,5.51,0,0,0,81,40.13h.65a5.45,5.45,0,0,0,5.08-3.31,2.27,2.27,0,0,1,2.14-1.57,2.55,2.55,0,0,1,2.54,2.54,2.07,2.07,0,0,1-.27,1.1A10.08,10.08,0,0,1,81.63,45H81A10.38,10.38,0,0,1,70.5,34.63V23.44A10.47,10.47,0,0,1,81,13h.65A10.35,10.35,0,0,1,92.08,23.48v5.33A2.51,2.51,0,0,1,89.62,31.29Zm-2.48-7.81a5.56,5.56,0,0,0-5.46-5.59H81a5.56,5.56,0,0,0-5.59,5.54v3.25H87.15Z" fill="#ea0029"/>
            <path d="M135.24,45a2.33,2.33,0,0,1-2.47-2.41l0-19.24c0-3.64-2.22-5.46-5.54-5.46h-.58a5.53,5.53,0,0,0-5.6,5.6l0,19a2.47,2.47,0,1,1-4.93,0l0-19a5.42,5.42,0,0,0-5.6-5.58h-.59c-2.92,0-5.59,1.95-5.59,5l0,19.69a2.47,2.47,0,0,1-4.94,0l0-27.17a2.44,2.44,0,0,1,2.53-2.48,2.41,2.41,0,0,1,2.41,2,8,8,0,0,1,5.59-2h.58a10.55,10.55,0,0,1,8.08,3.69,10.5,10.5,0,0,1,8.05-3.71h.59c5.53,0,10.47,3.24,10.48,10.4V42.55A2.32,2.32,0,0,1,135.24,45Z" fill="#ea0029"/>
            <path d="M167,44.93c-.21,0-.39,0-.45-.06a6,6,0,0,1-4.43-2.47,10.69,10.69,0,0,1-7,2.54h-.57C149.3,45,144,41.77,144,35.65v-.78c0-10.27,14.82-8.54,16.44-10.68a2.06,2.06,0,0,0,.2-1.11c0-3.9-2.41-5.26-5.27-5.26h-.46c-2.67,0-4,1.11-5.26,3.26a2.35,2.35,0,0,1-2.21,1.3A2.4,2.4,0,0,1,145,20.1a2.26,2.26,0,0,1,.26-1.16,10.15,10.15,0,0,1,9.68-6.06h.47a10,10,0,0,1,10.21,10l0,15.08a1.93,1.93,0,0,0,1.69,2.15,2.29,2.29,0,0,1,2.09,2.33A2.34,2.34,0,0,1,167,44.93Zm-6.32-15.54C155.86,30.57,149,30.57,149,35v.52c0,2.79,2.22,4.54,5.54,4.54h.58a5.54,5.54,0,0,0,5.59-5.53Z" fill="#ea0029"/>
            <path d="M184.82,44.91h-.4c-4.22,0-9-2.4-11.13-6.43a3,3,0,0,1-.33-1.23,2.44,2.44,0,0,1,2.54-2.41,2.57,2.57,0,0,1,2.22,1.1c1.62,2.15,4.43,4.09,6.82,4.09h.33c4,0,6.18-2.21,6.24-4.36.19-8.65-16.9-2.2-16.92-14.49,0-6.24,6.57-8.32,10.66-8.33h.26a13.9,13.9,0,0,1,8.52,2.78,2.37,2.37,0,0,1-1.44,4.23,3,3,0,0,1-1.42-.39,10.49,10.49,0,0,0-5.72-1.74h-.26c-3.65,0-5.6,1.63-5.66,3.51-.25,7,16.91,1.35,16.93,14.3v.25C196.06,41.85,190.27,44.91,184.82,44.91Z" fill="#ea0029"/>
            <path d="M220.63,31.15l-14.18,0v3.31A5.54,5.54,0,0,0,212,40h.64a5.42,5.42,0,0,0,5.07-3.31,2.29,2.29,0,0,1,2.15-1.57,2.54,2.54,0,0,1,2.54,2.53,2.36,2.36,0,0,1-.25,1.12,10.1,10.1,0,0,1-9.51,6.11H212A10.37,10.37,0,0,1,201.5,34.49V23.31A10.45,10.45,0,0,1,212,12.83h.64a10.34,10.34,0,0,1,10.49,10.51v5.34A2.5,2.5,0,0,1,220.63,31.15Zm-2.48-7.8a5.58,5.58,0,0,0-5.47-5.59H212a5.53,5.53,0,0,0-5.59,5.54v3.24h11.71Z" fill="#ea0029"/>
            <path d="M250.42,44.84a2.14,2.14,0,0,1-2.07-1.23l-8.14-14.23-4.36,4.68v8.39a2.48,2.48,0,0,1-5,0l0-40a2.47,2.47,0,1,1,4.94,0l0,24.31,12.33-13.15a2.31,2.31,0,0,1,1.77-.84,2.53,2.53,0,0,1,2.53,2.53,2.38,2.38,0,0,1-.7,1.69l-8.06,8.59,8.93,15.6a2.28,2.28,0,0,1,.31,1.23A2.42,2.42,0,0,1,250.42,44.84Z" fill="#ea0029"/>
            <g>
              <path d="M117.26,54.8a1.06,1.06,0,0,0-1,1l0,14a1,1,0,0,0,2.06,0V63.68h2.6a4.48,4.48,0,0,0,4.46-4.47,4.43,4.43,0,0,0-4.47-4.41Zm3.63,2.05a2.38,2.38,0,1,1,0,4.76h-2.6c0-.32,0-4.44,0-4.77Z" fill="#54565a"/>
              <path d="M133.77,54.64a4.47,4.47,0,0,0-4.46,4.45v7.32a4.4,4.4,0,0,0,4.47,4.44H134a4.45,4.45,0,0,0,4.44-4.45l0-7.32A4.45,4.45,0,0,0,134,54.64Zm-2.38,11.77V59.09a2.41,2.41,0,0,1,2.39-2.38H134a2.36,2.36,0,0,1,2.38,2.4V66.4A2.37,2.37,0,0,1,134,68.81h-.23A2.4,2.4,0,0,1,131.39,66.41Z" fill="#54565a"/>
              <path d="M143.85,55.66v14a1.07,1.07,0,0,0,1,1h6.17a1,1,0,0,0,0-2.07h-5.13c0-.34,0-13,0-13a1,1,0,0,0-2.07,0Z" fill="#54565a"/>
              <path d="M162.12,54.62a1,1,0,0,0-.93.65s-2.37,5.7-2.65,6.39l-2.68-6.39a1,1,0,0,0-.9-.65,1.13,1.13,0,0,0-.93.47,1.06,1.06,0,0,0-.07,1l3.55,8.5v5.24a1,1,0,0,0,2.07,0v-5.3l3.53-8.45a1,1,0,0,0-1-1.44Z" fill="#54565a"/>
              <path d="M167.14,54.75a1,1,0,1,0,0,2.06h2.3c0,.33,0,13,0,13a1,1,0,0,0,1,1,1,1,0,0,0,1-1s0-12.66,0-13h2.31a1,1,0,0,0,1-1,1,1,0,0,0-1-1Z" fill="#54565a"/>
              <path d="M179.94,54.74a1.06,1.06,0,0,0-1,1l0,13.89a1.05,1.05,0,0,0,1,1H187a1,1,0,1,0,0-2.06h-6V63.49h4.14a1,1,0,1,0,0-2.07H181c0-.32,0-4.31,0-4.63h6a1,1,0,0,0,1-1,1,1,0,0,0-1-1Z" fill="#54565a"/>
              <path d="M196.56,54.58A4.47,4.47,0,0,0,192.1,59v7.32a4.4,4.4,0,0,0,4.47,4.43h.23A4.44,4.44,0,0,0,201.22,67v-.18a1,1,0,0,0-1-1,1,1,0,0,0-1,.87,2.46,2.46,0,0,1-2.38,2.06h-.22a2.39,2.39,0,0,1-2.39-2.39V59a2.41,2.41,0,0,1,2.38-2.38h.23a2.47,2.47,0,0,1,2.39,2.05,1,1,0,0,0,1,.88,1,1,0,0,0,1-1v-.14a4.44,4.44,0,0,0-4.43-3.85Z" fill="#54565a"/>
              <path d="M212.91,55.6v5.78l-5,0c0-.34,0-5.8,0-5.8a1,1,0,1,0-2.06,0V69.77a1,1,0,0,0,1,1,1,1,0,0,0,1-1s0-6,0-6.31h5c0,.33,0,6.31,0,6.31a1,1,0,0,0,1,1,1,1,0,0,0,1-1V55.59a1,1,0,0,0-2.06,0Z" fill="#54565a"/>
              <path d="M227.78,55.59s0,8.77,0,10.2c-.59-1.33-4.58-10.41-4.58-10.41a1.23,1.23,0,0,0-1.31-.82,1.09,1.09,0,0,0-1.2,1l0,14.14a1,1,0,0,0,2.07,0s0-8.79,0-10.22l4.59,10.38a1.29,1.29,0,0,0,1.34.84,1,1,0,0,0,1.14-1.16v-14a1,1,0,0,0-1-1A1,1,0,0,0,227.78,55.59Z" fill="#54565a"/>
              <path d="M235.83,55.58l0,14.16a1,1,0,0,0,1,1,1,1,0,0,0,1-1V55.57a1,1,0,0,0-2.07,0Z" fill="#54565a"/>
              <path d="M248,54.53A4.45,4.45,0,0,0,243.54,59V66.3A4.42,4.42,0,0,0,248,70.74h.22A4.48,4.48,0,0,0,252.66,67v-.19a1,1,0,0,0-1-1,1,1,0,0,0-1,.88,2.47,2.47,0,0,1-2.38,2.07H248a2.42,2.42,0,0,1-2.4-2.41V59a2.43,2.43,0,0,1,2.4-2.39h.23a2.47,2.47,0,0,1,2.38,2.06,1,1,0,0,0,1,.88,1,1,0,0,0,1-1v-.14a4.44,4.44,0,0,0-4.42-3.85Z" fill="#54565a"/>
            </g>
          </g>
        </g>
      </g>
    </g>
  </g>
</svg>
