<svg xmlns:dc="http://purl.org/dc/elements/1.1/" xmlns:cc="http://creativecommons.org/ns#" xmlns:rdf="http://www.w3.org/1999/02/22-rdf-syntax-ns#" xmlns:svg="http://www.w3.org/2000/svg" xmlns="http://www.w3.org/2000/svg" height="732" width="2171" xml:space="preserve" version="1.1"><rect id="backgroundrect" width="100%" height="100%" x="0" y="0" fill="none" stroke="none"/><metadata id="metadata8"><rdf:RDF><cc:Work rdf:about=""><dc:format>image/svg+xml</dc:format><dc:type rdf:resource="http://purl.org/dc/dcmitype/StillImage"/></cc:Work></rdf:RDF></metadata><defs id="defs6"/><g class="currentLayer" style=""><title>Layer 1</title><g id="g10" class=""><g id="g12" stroke-width="0"><path id="path14" style="fill:#3a8cc5;fill-opacity:1;fill-rule:nonzero;stroke:none" d="m975.8174452565706,416.10915785393536 l-2.042263358240086,28.49352749480494 c7.5092033225543355,-20.40082035561058 18.402183450951057,-31.20109427014861 32.6544005050511,-32.414455010358004 V488.441817890508 c-9.480573693726008,0 -16.43899303982574,1.6250853958759564 -20.88071134499677,4.891616107720581 c-4.438991651822244,3.269257365193409 -7.15746504056105,7.814588497618274 -8.185413353053056,13.641446703972164 c-1.0252216591432208,5.813224939609965 -1.5460124487611866,19.2392660290281 -1.5460124487611866,40.23995012137142 v85.54602216478567 h-51.73552063984966 v-216.65169513442262 h51.73552063984966 " stroke-width="0"/><path id="path16" style="fill:#3a8cc5;fill-opacity:1;fill-rule:nonzero;stroke:none" d="m1103.2830360055796,529.7478894712544 c-8.291752833655677,7.719155630410794 -13.093389380866348,14.200410640473123 -14.413089601678365,19.427405110094277 c-1.3197002208120183,5.226994469621156 -1.985003637915598,12.733471138826706 -1.985003637915598,22.53306327436058 c0,11.211998570204585 0.5725972032448843,18.437629944485266 1.7314248764785782,21.706887309678674 c1.1479210598385532,3.266530711844624 3.4274032594229484,4.905249374464506 6.854806518845897,4.905249374464506 c3.2392641783567724,0 5.346967216967702,-1.278800420580241 6.3312890758791465,-3.839127915089508 c0.9870485122602286,-2.5603274945092673 1.4805727683903431,-9.281527999264691 1.4805727683903431,-20.160874860917485 zm-16.398093239593962,-29.720521501758263 h-48.53442960837588 v-14.533062349024911 c0,-16.76073813498239 1.5051126485294093,-29.679621701526486 4.545331132424865,-38.773010619725 c3.0265852171515295,-9.079755651454589 9.10702218494244,-17.107023110278107 18.241310903372735,-24.079075723121765 c9.145195331825432,-6.961145999448519 21.01431735908724,-10.453988939242311 35.612819388483004,-10.453988939242311 c17.494207885805597,0 30.693936747274567,3.9454673956921296 39.574646704267835,11.839128840425174 c8.877983303644488,7.893661444733043 14.211317253868263,17.586914099664295 16.000001850671328,29.066124698049823 c1.7995912101982068,11.481937251734317 2.691206855250955,35.1356550524456 2.691206855250955,70.93388686864598 v108.73348224285468 h-50.3312941652253 v-19.304705709398945 c-3.1601912312420026,7.746422163898645 -7.228358027629464,13.543287183415899 -12.229040269301452,17.42604155208597 c-4.997955588323201,3.8663944485773594 -10.944786542023639,5.799591672866039 -17.86503274124038,5.799591672866039 c-9.052489117966738,0 -17.3469686049712,-3.2392641783567724 -24.90525168780367,-9.706885921675177 c-7.561009736181254,-6.48125501006233 -11.334697970899917,-20.6543991170476 -11.334697970899917,-42.533065587699745 v-17.799593060869537 c0,-16.215407465225358 2.001363558008309,-27.269260141200405 6.012270634071282,-33.14792476118121 c4.013633729411758,-5.865031353236883 13.960465145780029,-12.733471138826706 29.84049424910481,-20.558966249840118 c16.98705036293156,-8.49352518146578 26.080439281130076,-14.21404390721705 27.280166754595545,-17.147922910509884 c1.1997274734654715,-2.9475122700367598 1.7995912101982068,-8.93251637062019 1.7995912101982068,-17.960465608447862 c0,-11.318338050807206 -0.6653034171035798,-18.691208705922282 -1.987730291264383,-22.118611965345234 c-1.3333334875559446,-3.4274032594229484 -3.520109473281644,-5.147921522506385 -6.598501104060092,-5.147921522506385 c-3.5064762065377177,0 -5.679618925519492,1.4396729681585656 -6.533061423689248,4.319018904475696 c-0.8534424981697556,2.895705856409842 -1.278800420580241,10.37491599212754 -1.278800420580241,22.453990327245805 v22.693935821938904 " stroke-width="0"/><path id="path18" style="fill:#3a8cc5;fill-opacity:1;fill-rule:nonzero;stroke:none" d="m1261.4698300353507,470.6422248296385 c0,-7.9481945117087465 -0.5316974030131068,-13.281528461932524 -1.60054551573689,-16.000001850671328 c-1.0661214593749984,-2.7212000420875917 -3.184731111381069,-4.0818000631313875 -6.334015729227931,-4.0818000631313875 c-3.0783916307784476,0 -5.145194869157601,1.2269940069533227 -6.211316328532599,3.6809820208599686 c-1.0661214593749984,2.4403547471627203 -1.60054551573689,7.907294711476969 -1.60054551573689,16.40081989294275 v106.11862168136972 c0,8.815270276622428 0.50715752287404,14.612135296139684 1.532379182017261,17.38786840520298 c1.0279483124920061,2.7730064557145098 2.9884120702685375,4.171779623641298 5.89502454007352,4.171779623641298 c3.318337125471542,0 5.5460129114290195,-1.5596457155051127 6.653034171035794,-4.6543972663762725 c1.1070212596067757,-3.1056581642662997 1.665985196107734,-10.69120778058662 1.665985196107734,-22.786642035797595 zm51.7464272532448,-102.20042081916543 v264.3190489778848 h-51.7464272532448 v-15.705523289002533 c-4.946149174696283,6.546694690433174 -10.159510377573513,11.45194406489768 -15.626450341887763,14.718474776742303 c-5.46693996431425,3.266530711844624 -11.187458690065519,4.907976027813291 -17.158829523905023,4.907976027813291 c-8.027267458823516,0 -14.988413458272035,-2.69393350859974 -20.88071134499677,-8.079073872450435 c-5.8786646199808095,-5.38786701719948 -9.668712774792183,-11.61554326582479 -11.331971317551133,-18.69393535927107 c-1.6687118494565194,-7.081118746795065 -2.494887814138423,-18.6148624121563 -2.494887814138423,-34.61486426282763 V473.9087555414835 c0,-16.65439865437977 0.826175964681904,-28.468987614665874 2.494887814138423,-35.42740696076561 c1.6632585427589486,-6.961145999448519 5.491479844453316,-13.093389380866348 11.465577331641605,-18.374916917463207 c5.974097487188289,-5.278800883248073 13.107022647610274,-7.9182013248721095 21.385142214522027,-7.9182013248721095 c6.40218206294756,0 12.280846682928368,1.4805727683903431 17.614180633152145,4.425358385078318 c5.333333950223777,2.9475122700367598 10.17314364431744,7.361964041719937 14.533062349024911,13.254261928444672 v-61.42604664143213 h51.7464272532448 " stroke-width="0"/><path id="path20" style="fill:#3a8cc5;fill-opacity:1;fill-rule:nonzero;stroke:none" d="m1419.790230079212,493.0144155564208 v-15.839129303093006 c0,-11.214725223553371 -0.46625772264226273,-18.453989864577977 -1.398773167926788,-21.720520576422597 c-0.9488753653772363,-3.266530711844624 -2.86843932292199,-4.894342761069366 -5.7750517927269716,-4.894342761069366 c-3.5855491536524884,0 -5.799591672866039,1.3878665545316473 -6.653034171035794,4.160873010246157 c-0.8534424981697556,2.7730064557145098 -1.278800420580241,10.265849858176134 -1.278800420580241,22.453990327245805 v15.839129303093006 zm51.86640000059135,35.26653441318729 h-66.97205955286114 v46.85481114552422 c0,9.785958868789946 0.5453306697570323,16.106341331273953 1.665985196107734,18.93115420061538 c1.1070212596067757,2.8411727894341388 3.2392641783567724,4.253579224104852 6.399455409598774,4.253579224104852 c3.920927515553063,0 6.546694690433174,-1.878664157312977 7.880028177989117,-5.6387191252877145 c1.3197002208120183,-3.760054967974738 1.9740970245204572,-11.012952875743268 1.9740970245204572,-21.802320176886152 v-28.558967175175784 h49.05249374464506 v16.000001850671328 c0,13.387867942535145 -0.6543968037084389,23.667351067455204 -1.985003637915598,30.854809294852892 c-1.3224268741608036,7.184731574048902 -4.4144517716831775,14.852080790832776 -9.281527999264691,23.012954263746767 c-4.8670762275815145,8.17178008630913 -11.04021940923112,14.293116854331819 -18.505796278204894,18.37219026411442 c-7.468303522322558,4.079073409782603 -16.83981108209716,6.1213367680226884 -28.106342719277446,6.1213367680226884 c-10.9338799286285,0 -20.58895943667676,-2.0149968247522345 -28.948878604052062,-6.039537167559133 c-8.373552434119233,-4.027266996155684 -14.879347324320628,-9.548740027445637 -19.531017937348114,-16.572599053916214 c-4.6543972663762725,-7.015679066424221 -7.882754831337903,-14.748467963578939 -9.668712774792183,-23.18746007806902 c-1.7995912101982068,-8.428085501094936 -2.691206855250955,-20.708932184023304 -2.691206855250955,-36.81527351529726 v-63.184738051398554 c0,-18.933880853964162 2.012270171403449,-33.867761245260496 6.025903900815208,-44.815274440632926 c4.013633729411758,-10.931153275279716 10.584868299983999,-19.31833897614287 19.71915701841429,-25.13156391575284 c9.134288718430293,-5.826858206353891 19.640084071299523,-8.747103942902799 31.506479445212545,-8.747103942902799 c14.505795815537061,0 26.481257323401493,3.520109473281644 35.920931216895724,10.53306188635708 c9.439673893494229,7.0265856798193616 16.054534917647032,16.332653559223118 19.852763032504765,27.918203638211274 c3.8009547682065157,11.588276732336938 5.693252192263418,27.893663758072204 5.693252192263418,48.89434785041552 v28.747106256241963 " stroke-width="0"/><path id="path22" style="fill:#f57a29;fill-opacity:1;fill-rule:nonzero;stroke:none" d="m1729.2844717397697,416.10915785393536 l-2.042263358240086,28.49352749480494 c7.5092033225543355,-20.40082035561058 18.402183450951057,-31.20109427014861 32.6544005050511,-32.414455010358004 V488.441817890508 c-9.480573693726008,0 -16.43899303982574,1.6250853958759564 -20.88071134499677,4.891616107720581 c-4.438991651822244,3.269257365193409 -7.171098307304976,7.814588497618274 -8.185413353053056,13.641446703972164 c-1.0252216591432208,5.813224939609965 -1.5460124487611866,19.2392660290281 -1.5460124487611866,40.23995012137142 v85.54602216478567 h-51.73552063984966 v-216.65169513442262 h51.73552063984966 " stroke-width="0"/><path id="path24" style="fill:#f57a29;fill-opacity:1;fill-rule:nonzero;stroke:none" d="m1912.572836498457,416.10915785393536 v216.65169513442262 h-52.624409631553625 l0.8997956050991037,-18.001365408679636 c-3.5991824203964136,7.307430974744234 -8.016360845428375,12.788004205802409 -13.251535275095886,16.441719693174527 c-5.262440963155362,3.653715487372117 -11.28834486397057,5.480573231058176 -18.132244769421327,5.480573231058176 c-7.768235390688925,0 -14.219497213914618,-1.7477847965712887 -19.340152202933155,-5.226994469621156 c-5.120654989018535,-3.4792096730498665 -8.894343223737197,-8.106340405938287 -11.334697970899917,-13.881392198665258 c-2.426721480418794,-5.758691872634262 -3.9454673956921296,-11.773689160054328 -4.545331132424865,-18.03953855556263 c-0.5998637367327355,-6.252216128764376 -0.8943422984015332,-18.691208705922282 -0.8943422984015332,-37.306071118078584 v-146.11862630804802 h51.73824729319845 V563.5338511160517 c0,16.880710882328938 0.40899800231777433,26.89298197906805 1.2269940069533227,30.03953994356613 c0.790729471147697,3.1601912312420026 2.9993186836636783,4.7471034802349665 6.571234570572241,4.7471034802349665 c3.8718477552749295,0 6.1349700347666145,-1.6387186626198824 6.871166438938608,-4.905249374464506 c0.7361964041719937,-3.269257365193409 1.0906613395140647,-13.761419451318712 1.0906613395140647,-31.506479445212545 v-145.7996078662402 h51.72461402645452 " stroke-width="0"/><path id="path26" style="fill:#f57a29;fill-opacity:1;fill-rule:nonzero;stroke:none" d="m2059.5121854644894,485.33343307289306 h-45.86230932656642 v-11.746422626566476 c0,-10.012271096739115 -0.43626453580562596,-16.359920092710972 -1.3360601409047295,-19.02658706782286 c-0.8997956050991037,-2.6666669751118883 -3.1356513511029362,-4.000000462667832 -6.73483377149935,-4.000000462667832 c-2.8902525497122715,0 -5.071575228740401,1.2269940069533227 -6.516701503596536,3.6809820208599686 c-1.4451262748561358,2.4403547471627203 -2.1813226790281295,6.118610114673904 -2.1813226790281295,11.012952875743268 c0,6.639400904291869 0.35446493534207124,11.506477131873384 1.0906613395140647,14.614861949488468 c0.7361964041719937,3.1056581642662997 2.8902525497122715,6.505794890201396 6.516701503596536,10.197683524456505 c3.6264489538842652,3.7082485543478203 11.097479129555609,9.093388918198515 22.358557460038327,16.160874398249653 c15.023859951806243,9.374234213123387 24.894345074408527,18.18677783639703 29.584188834319008,26.45399078991364 c4.689843759910478,8.278119566911752 7.034765639865718,20.3053874884031 7.034765639865718,36.07907711112526 c0,17.64144716664 -1.772324676710355,30.947515508711586 -5.371507097106769,39.92093167956355 c-3.5719158869085623,8.984322784247109 -9.570553254235918,15.893662370068709 -17.995912101982068,20.733472064162374 c-8.3980923142583,4.839809694093662 -18.5412427717391,7.266531174512456 -30.402184838954554,7.266531174512456 c-13.169735674632332,0 -24.4035474716272,-2.6148605614849703 -33.7559684579603,-7.841855031106126 c-9.352420986333104,-5.22426781627237 -15.787322889466086,-12.29175329632351 -19.277439175911095,-21.2242696669437 c-3.4901162864450073,-8.921609757225049 -5.23517442966751,-22.415817180362815 -5.23517442966751,-40.47989561606452 v-10.453988939242311 h45.83504279307857 v13.720519651086935 c0,11.637356492615071 0.5725972032448843,19.211999495540248 1.7177916097346522,22.691209168590117 c1.1724609399776196,3.4792096730498665 3.4628497529571556,5.226994469621156 6.871166438938608,5.226994469621156 c3.653715487372117,0 6.216769635230169,-1.1724609399776196 7.661895910086305,-3.520109473281644 c1.4723928083439874,-2.3312886132113135 2.208589212515981,-7.266531174512456 2.208589212515981,-14.773007843718007 c0,-10.334016191895763 -0.9543286720748068,-16.812544548609306 -2.8357194827365686,-19.424678456745493 c-1.963190411125317,-2.6148605614849703 -11.997274734654713,-10.334016191895763 -30.10225297058819,-23.18746007806902 c-15.187459152733352,-10.88207351500158 -24.458080538602903,-20.76073859765022 -27.7845976241208,-29.62781528789957 c-3.326517085517897,-8.867076690249347 -4.989775628276846,-19.400138576606427 -4.989775628276846,-31.599185659071242 c0,-17.295162191344282 1.7995912101982068,-30.06680647705398 5.371507097106769,-38.28221301694367 c3.5991824203964136,-8.212679886540908 9.679619388187325,-14.55760222916398 18.241310903372735,-19.023860414474072 c8.588958048673259,-4.452624918566169 18.5412427717391,-6.6939339712675725 29.911387236173226,-6.6939339712675725 c11.261078330482718,0 20.85889811820649,1.8268577436860585 28.766192829683458,5.47784657770939 c7.880028177989117,3.642808873976976 13.960465145780029,8.468985301326713 18.18677783639703,14.443082788515001 c4.19904615712915,5.9850041005834305 6.789366838475052,11.544650278756377 7.6891624435741575,16.651672001030985 c0.8725290716112518,5.120654989018535 1.3360601409047295,13.120655914354199 1.3360601409047295,24.000002776006994 v12.572598591248381 " stroke-width="0"/><path id="path28" style="fill:#f57a29;fill-opacity:1;fill-rule:nonzero;stroke:none" d="m2154.5633212031403,387.214812316859 v34.11861335334873 h13.960465145780029 v34.29311916767098 h-13.960465145780029 v115.90730720350844 c0,14.26857697419275 0.5725972032448843,22.214044832552712 1.7177916097346522,23.841856881777456 c1.1724609399776196,1.6387186626198824 5.971370833839504,2.4512613605578606 14.423996215073506,2.4512613605578606 v34.933882704635494 h-20.886164651694337 c-11.7791424667519,0 -20.1772347810102,-0.6271302702205874 -25.22154347626275,-1.878664157312977 c-5.04430869525255,-1.2406272736972486 -9.488753653772363,-4.133606476758305 -13.33333487555944,-8.654397729044103 c-3.8445812217870783,-4.507157985541873 -6.216769635230169,-9.679619388187325 -7.171098307304976,-15.506477594541215 c-0.9270621385869549,-5.813224939609965 -1.3905932078804324,-19.50647805720905 -1.3905932078804324,-41.0524928193094 v-110.04227585027155 h-11.152012196531311 v-34.29311916767098 h11.152012196531311 v-34.11861335334873 h51.86094669389377 " stroke-width="0"/><path id="path30" style="fill:#3a8cc5;fill-opacity:1;fill-rule:nonzero;stroke:none" d="m579.0566631681443,0.30815543094195164 v-0.3081118284127233 H94.09137189986643 l-94.09135375987836,144.0818162565055 v0.9188821785405996 H484.84261000757056 l94.21405316057368,-144.6925866066334 " stroke-width="0"/><path id="path32" style="fill:#3a8cc5;fill-opacity:1;fill-rule:nonzero;stroke:none" d="m362.0286898715892,334.3613638040074 v-158.988430114314 h-145.0034250883949 V557.082589292826 l145.0034250883949,-222.7212254888184 " stroke-width="0"/><path id="path34" style="fill:#f57a29;fill-opacity:1;fill-rule:nonzero;stroke:none" d="m599.2557111759447,509.2270963682977 v-158.98570346096523 H454.2441061275033 V731.9483218571158 l145.01160504844128,-222.7212254888184 " stroke-width="0"/><path id="path36" style="fill:#f57a29;fill-opacity:1;fill-rule:nonzero;stroke:none" d="M816.9353546228592,174.8685028201685 H473.65787797085363 l-94.09953371992472,144.07908960315672 v0.9352420986333106 h343.4438025062814 l93.93320786564882,-145.01433170179007 " stroke-width="0"/><path id="path38" style="fill:#3a8cc5;fill-opacity:1;fill-rule:nonzero;stroke:none" d="m727.3893319954059,420.30820401106484 v1.8513976238251248 h65.96047116046185 V632.7608529883582 H847.2693731280942 v-210.60125135346834 h62.80027992921985 v-54.46490064198361 h-148.30540229377374 l-34.374918768134535,52.61350301815848 " stroke-width="0"/><path id="path40" style="fill:#f57a29;fill-opacity:1;fill-rule:nonzero;stroke:none" d="m1660.1365428145782,367.69470099290606 h-148.31903556051768 l-34.374918768134535,52.61350301815848 v1.8513976238251248 h69.37424115314087 v210.60125135346834 h53.919569972226576 v-210.60125135346834 h59.40014320328475 v-54.46490064198361 " stroke-width="0"/></g></g></g></svg>