<?xml version="1.0" encoding="utf-8"?>
<!-- Generator: Adobe Illustrator 22.0.1, SVG Export Plug-In . SVG Version: 6.00 Build 0)  -->
<svg version="1.1" id="Layer_1" xmlns="http://www.w3.org/2000/svg" xmlns:xlink="http://www.w3.org/1999/xlink" x="0px" y="0px"
	 viewBox="0 0 214 41" style="enable-background:new 0 0 214 41;" xml:space="preserve">
<style type="text/css">
	.st0{fill:#FF9933;}
	.st1{fill:#0099CC;}
	.st2{fill:url(#SVGID_1_);}
	.st3{fill:url(#SVGID_2_);}
	.st4{fill:url(#SVGID_3_);}
</style>
<title>opencertslogo</title>
<desc>Created with Sketch.</desc>
<g id="Symbols">
	<g id="Header" transform="translate(-33.000000, -14.000000)">
		<g id="opencertslogo">
			<g transform="translate(33.000000, 14.000000)">
				<g id="Group">
					<g id="Shape" transform="translate(66.000000, 8.000000)">
						<path class="st0" d="M-7.8-3.6c7.3,0,12.3,5.5,12.3,12.9s-5,12.8-12.3,12.8s-12.3-5.5-12.3-12.9S-15.1-3.6-7.8-3.6z M-7.8-0.8
							c-5.6,0-9.1,4.3-9.1,10.1s3.5,10.1,9.1,10.1S1.4,15,1.4,9.3S-2.2-0.9-7.8-0.8L-7.8-0.8z"/>
						<path class="st0" d="M6.9,28.5V3.7h2.8v2.7c1.4-2,3.7-3.1,6.1-3.1c4.7,0,8,3.6,8,9.4s-3.3,9.5-8,9.5c-2.4,0-4.7-1.2-6.1-3.2
							v9.6H6.9z M15.1,5.7c-2.2,0-4.4,1.3-5.4,2.9v8.1c1,1.6,3.2,2.9,5.4,2.9c3.6,0,5.8-3,5.8-7S18.7,5.7,15.1,5.7z"/>
						<path class="st0" d="M34.6,3.2c5.4,0,8.6,4.2,8.6,9.7v0.7H28.7c0.2,3.4,2.6,6.2,6.5,6.2c2.1,0,4.1-0.8,5.5-2.3l1.3,1.8
							c-1.8,1.8-4.2,2.8-7.2,2.8c-5.3,0-9.2-3.8-9.2-9.5C25.8,7.4,29.5,3.2,34.6,3.2z M28.7,11.5h11.8c0-2.7-1.8-6-5.9-6
							C30.8,5.5,28.9,8.8,28.7,11.5z"/>
						<path class="st0" d="M57.3,9.9c0-3.2-1.6-4.2-4-4.2C51.1,5.7,49,7,48,8.5v13.1h-2.8v-18H48v2.6c1.3-1.5,3.7-3.1,6.4-3.1
							c3.8,0,5.7,1.9,5.7,5.8v12.6h-2.8V9.9z"/>
						<path class="st1" d="M62,9.2c0-7.6,5.8-12.9,13-12.9c5.7,0,8.8,3,10.6,6.1l-4.5,2.2c-1.2-2.2-3.5-3.6-6-3.6
							c-4.3,0-7.6,3.5-7.6,8.2s3.3,8.2,7.6,8.2c2.5,0,4.9-1.4,6-3.6l4.5,2.2c-1.8,3.1-4.9,6.1-10.6,6.1C67.8,22.1,62,16.9,62,9.2z"
							/>
						<path class="st1" d="M95.5,3.2c5.4,0,9,4,9,9.9v1H91.1c0.3,2.3,2.1,4.2,5.2,4.2c1.7,0,3.6-0.7,4.8-1.8l2.1,3
							c-1.8,1.7-4.6,2.5-7.4,2.5c-5.5,0-9.6-3.7-9.6-9.5C86.1,7.4,90,3.2,95.5,3.2z M91,11h8.9c-0.1-1.7-1.3-4-4.4-4
							C92.5,7,91.3,9.2,91,11z"/>
						<path class="st1" d="M106.3,3.7h4.7v2.5c1.3-1.6,3.5-2.9,5.7-2.9v4.6c-0.4-0.1-0.9-0.1-1.3-0.1c-1.6,0-3.7,0.9-4.4,2v11.9
							h-4.7V3.7z"/>
						<path class="st1" d="M121.8,17.2V7.8h-3V3.7h3v-4.9h4.8v4.9h3.7v4.1h-3.7v8.1c0,1.1,0.6,2,1.6,2c0.6,0,1.2-0.2,1.6-0.5l1,3.6
							c-0.7,0.6-2,1.2-3.9,1.2C123.6,22.1,121.8,20.4,121.8,17.2z"/>
						<path class="st1" d="M133.9,16c1.3,1.2,4,2.5,6.2,2.5c2.1,0,3-0.7,3-1.8c0-1.3-1.6-1.7-3.6-2.1c-3.1-0.6-7.1-1.3-7.1-5.6
							c0-3,2.6-5.7,7.4-5.7c2.6,0,5.2,0.8,7.2,2.5l-1.9,3.2c-1.1-1.2-3.1-2.1-5.3-2.1c-1.7,0-2.8,0.6-2.8,1.7c0,1.1,1.4,1.5,3.4,1.9
							c3.1,0.6,7.2,1.4,7.2,5.9c0,3.3-2.8,5.8-7.8,5.8c-3.1,0-6.1-1-8-2.8L133.9,16z"/>
					</g>
					<g id="Shape_1_">
						<g>
							
								<linearGradient id="SVGID_1_" gradientUnits="userSpaceOnUse" x1="-181.2531" y1="307.3595" x2="-181.0829" y2="306.6995" gradientTransform="matrix(29.1212 0 0 -32.4494 5286.8164 9979.0166)">
								<stop  offset="0" style="stop-color:#FF9933"/>
								<stop  offset="1" style="stop-color:#FF6633"/>
							</linearGradient>
							<path class="st2" d="M0,12.1v10.1c0,0.8,0.6,1.7,1.2,2.1l8.8,5c0.3,0.2,0.8,0.3,1.2,0.3c-0.2-0.4-0.2-0.8-0.2-0.9v-2.8
								c-0.5,0-0.9-0.1-1.2-0.3l-5.2-3c-0.8-0.4-1.4-1.5-1.4-2.4v-6c0-0.9,0.6-2,1.4-2.4l5.2-3c0.8-0.4,2-0.4,2.8,0l5.2,3
								c0.3,0.2,0.7,0.5,0.9,0.9l0,0l0.1,0.1l0,0.1l0,0l0,0.1c0,0,0,0,0,0.1l0,0.1c0,0,0,0.1,0,0.1l0,0c0,0,0,0.1,0,0.1v0
								c0,0.1,0,0.1,0.1,0.2l0,0c0,0,0,0.1,0,0.1c0,0,0,0,0,0v0c0,0,0,0.1,0,0.2v0c0,0.1,0,0.1,0,0.2v0c0,0,0,0,0,0.1v0
								c0,0,0,0.1,0,0.1v6c0,0.9-0.6,2-1.4,2.4l-2.9,1.7v2.5c0,0.4,0.1,0.7,0.3,1l6-3.5c0.7-0.4,1.2-1.4,1.2-2.1V12.1
								c0,0,0-0.1,0-0.1v0c0,0,0,0,0,0c0,0,0,0,0,0v0c0,0,0-0.1,0-0.1c0,0,0,0,0-0.1c0,0,0,0,0-0.1v0c0,0,0,0,0-0.1c0,0,0,0,0,0l0,0
								c0-0.1,0-0.1,0-0.2l0,0c0,0,0,0,0-0.1s0,0,0-0.1l0,0l0,0l0,0l0,0c-0.2-0.5-0.6-0.9-1-1.2l-8.8-5c-0.3-0.2-0.8-0.3-1.2-0.3
								S10.3,4.7,10,4.9l-8.8,5C0.6,10.3,0,11.3,0,12.1z"/>
						</g>
						
							<linearGradient id="SVGID_2_" gradientUnits="userSpaceOnUse" x1="-174.6254" y1="301.8565" x2="-175.6691" y2="302.1714" gradientTransform="matrix(14.5408 0 0 -20.4072 2575.1013 6182.2021)">
							<stop  offset="0" style="stop-color:#0099CC"/>
							<stop  offset="1" style="stop-color:#006699"/>
						</linearGradient>
						<path class="st3" d="M23.2,11.2L23.2,11.2c-0.2,0-0.3,0-0.4-0.1l-0.1,0h-0.1c0.2,0.5,0.2,0.6,0.2,0.9v2.9h0c0,0,0,0,0,0h0
							c0,0,0.1,0,0.1,0l0.1,0l0,0c0,0,0.1,0,0.1,0l0.1,0l0,0c0,0,0.1,0,0.1,0l0.1,0l0,0l0.1,0l0.1,0l0,0c0,0,0,0,0.1,0l0.1,0l0,0
							l0,0c0.1,0,0.1,0.1,0.2,0.1l5.2,3c0.8,0.5,1.4,1.5,1.4,2.4v4.4l3.2,1.8v-8.3c0-0.8-0.6-1.7-1.2-2.1l-8.8-5c0,0-0.1,0-0.1-0.1
							l0,0l0,0c0,0-0.1,0-0.1,0l-0.1,0c0,0-0.1,0-0.1,0h0l0,0C23.3,11.3,23.3,11.3,23.2,11.2z"/>
						
							<linearGradient id="SVGID_3_" gradientUnits="userSpaceOnUse" x1="-180.6052" y1="306.1089" x2="-180.1828" y2="306.5836" gradientTransform="matrix(25.4731 0 0 -30.0108 4615.7842 9219.3906)">
							<stop  offset="0" style="stop-color:#0099CC"/>
							<stop  offset="1" style="stop-color:#006699"/>
						</linearGradient>
						<path class="st4" d="M21.4,35.9c0.7,0.4,1.8,0.4,2.5,0l7.2-4.1L27.9,30l-3.8,2.2c-0.8,0.4-2,0.4-2.8,0l-5.2-3
							c0,0-0.1-0.1-0.1-0.1l0,0l0,0c0,0-0.1-0.1-0.1-0.1l0,0l0,0c0,0-0.1-0.1-0.1-0.1l0,0l0,0c0,0-0.1-0.1-0.1-0.1l0,0
							c0,0-0.1-0.1-0.1-0.1l0,0c-0.1-0.1-0.2-0.2-0.2-0.3l0,0L15,28.1c-0.3-0.5-0.4-0.9-0.4-1.4v-6c0-0.9,0.6-2,1.4-2.4l2.9-1.7
							v-2.5c0,0,0-0.7-0.3-1l-6,3.5c-0.7,0.4-1.2,1.4-1.2,2.1v10.1c0,0,0,0.1,0,0.1c0,0,0,0,0,0v0c0,0,0,0.1,0,0.1c0,0,0,0,0,0.1
							c0,0,0,0.1,0,0.1s0,0,0,0.1c0,0,0,0,0,0.1v0c0,0,0,0,0,0.1l0,0l0,0c0,0.1,0.1,0.2,0.1,0.3l0,0c0,0,0,0.1,0.1,0.1v0
							c0,0.1,0.1,0.2,0.2,0.2l0,0c0,0,0.1,0.1,0.1,0.1l0,0.1c0,0,0,0,0,0.1c0,0,0.1,0.1,0.1,0.1l0,0c0,0,0.1,0.1,0.1,0.1l0,0
							c0,0,0.1,0.1,0.1,0.1l0,0c0,0,0.1,0.1,0.1,0.1l0,0c0,0,0.1,0.1,0.1,0.1L21.4,35.9z"/>
					</g>
				</g>
			</g>
		</g>
	</g>
</g>
</svg>
