<svg xmlns="http://www.w3.org/2000/svg" width="360.53" height="116.6" viewBox="0 0 360.53 116.6">
  <title>RP_logo</title>
  <g id="Layer_2" data-name="Layer 2">
    <g id="Layer_3" data-name="Layer 3">
      <g>
        <path d="M118.66,70a9.72,9.72,0,0,1,4.33.86,8,8,0,0,1,2.83,2.27,9,9,0,0,1,1.55,3.21,14.67,14.67,0,0,1,.46,3.68,11.9,11.9,0,0,1-.77,4.49,8.1,8.1,0,0,1-2.15,3.14,9,9,0,0,1-3.35,1.82,14.52,14.52,0,0,1-4.35.61H113.6v13.34h-6.74V70ZM116.6,85.08a4.44,4.44,0,0,0,3.25-1.22,5.1,5.1,0,0,0,1.24-3.79A6,6,0,0,0,120,76.23a4.41,4.41,0,0,0-3.61-1.31H113.6V85.08Z" fill="#1c1c1b"/>
        <path d="M130.78,79.67a15.33,15.33,0,0,1,1.54-5.5,8.66,8.66,0,0,1,3.44-3.58,14.79,14.79,0,0,1,12.08,0,8.6,8.6,0,0,1,3.44,3.58,15.33,15.33,0,0,1,1.55,5.5,70.38,70.38,0,0,1,0,14,15.28,15.28,0,0,1-1.55,5.48,8.15,8.15,0,0,1-3.44,3.51,15.56,15.56,0,0,1-12.08,0,8.21,8.21,0,0,1-3.44-3.51,15.28,15.28,0,0,1-1.54-5.48,70.38,70.38,0,0,1,0-14Zm6.55,12.74a16,16,0,0,0,.66,3.84,4.26,4.26,0,0,0,1.4,2.15,4.61,4.61,0,0,0,4.82,0,4.27,4.27,0,0,0,1.41-2.15,16,16,0,0,0,.66-3.84c.1-1.58.16-3.49.16-5.74s-.06-4.15-.16-5.71a16.14,16.14,0,0,0-.66-3.84,4.28,4.28,0,0,0-1.41-2.18,4.61,4.61,0,0,0-4.82,0,4.27,4.27,0,0,0-1.4,2.18,16.14,16.14,0,0,0-.66,3.84c-.11,1.56-.16,3.46-.16,5.71S137.22,90.83,137.33,92.41Z" fill="#1c1c1b"/>
        <path d="M158.28,70H165v27.9H177v5.52H158.28Z" fill="#1c1c1b"/>
        <path d="M185.13,82.88h.1L189.91,70h7.31l-8.67,20.27v13.15h-6.74V90.23L173.15,70h7.58Z" fill="#1c1c1b"/>
        <path d="M220.11,75.48H212.8v27.9h-6.74V75.48h-7.31V70h21.36Z" fill="#1c1c1b"/>
        <path d="M241.8,75.48H229.86v7.86h11.23v5.53H229.86v9h12.41v5.52H223.12V70H241.8Z" fill="#1c1c1b"/>
        <path d="M259.69,75.92a3.25,3.25,0,0,0-3.16-1.66,3.15,3.15,0,0,0-2.08.68,4.47,4.47,0,0,0-1.29,2.2,19.27,19.27,0,0,0-.66,4c-.12,1.64-.19,3.65-.19,6a58.7,58.7,0,0,0,.26,6.13,13.93,13.93,0,0,0,.8,3.63,3.31,3.31,0,0,0,1.36,1.73,3.87,3.87,0,0,0,1.9.45,4.38,4.38,0,0,0,1.66-.31,2.87,2.87,0,0,0,1.33-1.21,8.09,8.09,0,0,0,.89-2.58,23.38,23.38,0,0,0,.33-4.38h6.74a30.26,30.26,0,0,1-.42,5.15,11.63,11.63,0,0,1-1.57,4.26,7.77,7.77,0,0,1-3.23,2.86,12.19,12.19,0,0,1-5.41,1,12.62,12.62,0,0,1-6-1.22,8.21,8.21,0,0,1-3.44-3.51,15.48,15.48,0,0,1-1.54-5.48,68.43,68.43,0,0,1,0-14,15.53,15.53,0,0,1,1.54-5.5,8.66,8.66,0,0,1,3.44-3.58,12.12,12.12,0,0,1,6-1.29,11.65,11.65,0,0,1,5.69,1.17,7.9,7.9,0,0,1,3.11,3A10.22,10.22,0,0,1,267,77.33a32.32,32.32,0,0,1,.26,3.91h-6.74A12.11,12.11,0,0,0,259.69,75.92Z" fill="#1c1c1b"/>
        <path d="M278.72,70V82.74h7.86V70h6.74v33.42h-6.74V88.54h-7.86v14.84H272V70Z" fill="#1c1c1b"/>
        <path d="M315,92.85h.1V70h6.18v33.42h-7.68L305.35,80h-.1v23.4h-6.17V70h7.77Z" fill="#1c1c1b"/>
        <path d="M327,70h6.74v33.42H327Z" fill="#1c1c1b"/>
        <path d="M352.65,75.92a3.26,3.26,0,0,0-3.17-1.66,3.17,3.17,0,0,0-2.08.68,4.54,4.54,0,0,0-1.29,2.2,18.69,18.69,0,0,0-.65,4q-.19,2.46-.19,6a58.7,58.7,0,0,0,.26,6.13,13.59,13.59,0,0,0,.79,3.63,3.31,3.31,0,0,0,1.36,1.73,3.9,3.9,0,0,0,1.9.45,4.34,4.34,0,0,0,1.66-.31,2.84,2.84,0,0,0,1.34-1.21,8.35,8.35,0,0,0,.89-2.58,24.4,24.4,0,0,0,.32-4.38h6.74a30.26,30.26,0,0,1-.42,5.15,11.62,11.62,0,0,1-1.56,4.26,7.86,7.86,0,0,1-3.24,2.86,12.19,12.19,0,0,1-5.41,1,12.6,12.6,0,0,1-6-1.22,8.15,8.15,0,0,1-3.44-3.51,15.28,15.28,0,0,1-1.55-5.48,70.38,70.38,0,0,1,0-14,15.33,15.33,0,0,1,1.55-5.5,8.6,8.6,0,0,1,3.44-3.58,12.1,12.1,0,0,1,6-1.29,11.63,11.63,0,0,1,5.69,1.17,8,8,0,0,1,3.12,3A10.21,10.21,0,0,1,360,77.33a30.4,30.4,0,0,1,.26,3.91h-6.74A12.28,12.28,0,0,0,352.65,75.92Z" fill="#1c1c1b"/>
        <g>
          <path d="M124.68,15q6,0,9.37,3.05t3.35,9.28a14.5,14.5,0,0,1-1.94,7.87,9.06,9.06,0,0,1-6,3.92v.13a8.76,8.76,0,0,1,5.29,2.34q1.68,1.81,2.08,5.83c.09.89.16,1.87.2,2.91s.09,2.22.13,3.52q.13,3.82.41,5.83a3.69,3.69,0,0,0,1.74,2.74v.4H128.83a5.26,5.26,0,0,1-.94-2.31c-.13-.87-.22-1.77-.27-2.71l-.27-9.17a7.58,7.58,0,0,0-1.4-4.43c-.85-1.07-2.28-1.6-4.29-1.6H116.5V62.78h-9.64V15Zm-4.16,20.9a7.9,7.9,0,0,0,5.36-1.64q1.88-1.65,1.88-5.53,0-6.63-6.7-6.63H116.5v13.8Z" fill="#1c1c1b"/>
          <path d="M170.82,22.87H153.74V34.12h16.08V42H153.74V54.88h17.75v7.9H144.1V15h26.72Z" fill="#1c1c1b"/>
          <path d="M193.19,15a14,14,0,0,1,6.2,1.24,11.4,11.4,0,0,1,4.05,3.25A12.71,12.71,0,0,1,205.65,24a20.65,20.65,0,0,1,.67,5.25,17.33,17.33,0,0,1-1.1,6.44,11.66,11.66,0,0,1-3.09,4.48,12.87,12.87,0,0,1-4.78,2.62,21,21,0,0,1-6.23.87H186V62.78h-9.65V15ZM190.24,36.6a6.34,6.34,0,0,0,4.66-1.75c1.18-1.16,1.78-3,1.78-5.42a8.51,8.51,0,0,0-1.54-5.49q-1.54-1.87-5.16-1.88h-4V36.6Z" fill="#1c1c1b"/>
          <path d="M220.12,48.32a22.43,22.43,0,0,0,.23,3.31,7.7,7.7,0,0,0,.87,2.62A4.79,4.79,0,0,0,223,56a6.51,6.51,0,0,0,5.59,0,4.92,4.92,0,0,0,1.71-1.74,7.7,7.7,0,0,0,.87-2.62,22.43,22.43,0,0,0,.23-3.31V15H241V48.32a19.22,19.22,0,0,1-1.28,7.53,12.19,12.19,0,0,1-3.41,4.73,11.58,11.58,0,0,1-4.89,2.34,26.62,26.62,0,0,1-5.7.6,30.25,30.25,0,0,1-5.69-.53,11.67,11.67,0,0,1-4.89-2.18,11.07,11.07,0,0,1-3.41-4.66,20.32,20.32,0,0,1-1.28-7.83V15h9.65Z" fill="#1c1c1b"/>
          <path d="M263.25,15a22.88,22.88,0,0,1,5.46.61,11.32,11.32,0,0,1,4.32,2,9.3,9.3,0,0,1,2.81,3.76,14.6,14.6,0,0,1,1,5.76A12,12,0,0,1,275,33.75a9.09,9.09,0,0,1-5.43,3.78v.14A9.48,9.48,0,0,1,276,41.09a11.81,11.81,0,0,1,2.34,7.7,19.16,19.16,0,0,1-.74,5.35,10.9,10.9,0,0,1-2.51,4.46,12.55,12.55,0,0,1-4.62,3,19.1,19.1,0,0,1-7.06,1.13H247.11V15ZM259.5,34.59q4,0,5.86-1.44t1.84-4.86c0-2.28-.56-3.88-1.67-4.82s-2.88-1.41-5.29-1.41h-3.49V34.59Zm1,21.09a9.43,9.43,0,0,0,5.63-1.54q2.14-1.53,2.14-5.69A9.08,9.08,0,0,0,267.7,45a5.81,5.81,0,0,0-1.54-2.21,5.39,5.39,0,0,0-2.31-1.17,12.25,12.25,0,0,0-2.94-.33h-4.16V55.68Z" fill="#1c1c1b"/>
          <path d="M283,15h9.64V54.88h17.08v7.9H283Z" fill="#1c1c1b"/>
          <path d="M349.15,23.5c-.83-1.58-2.34-2.38-4.52-2.38a4.54,4.54,0,0,0-3,1,6.42,6.42,0,0,0-1.84,3.15,26.7,26.7,0,0,0-.94,5.7q-.27,3.51-.27,8.6a82.4,82.4,0,0,0,.37,8.78,19.06,19.06,0,0,0,1.14,5.19A4.76,4.76,0,0,0,342.05,56a5.62,5.62,0,0,0,2.71.63,6.45,6.45,0,0,0,2.38-.43,4,4,0,0,0,1.91-1.74,11.49,11.49,0,0,0,1.27-3.69,33.74,33.74,0,0,0,.47-6.26h9.64a43.39,43.39,0,0,1-.6,7.37A16.69,16.69,0,0,1,357.59,58,11.23,11.23,0,0,1,353,62.05a17.56,17.56,0,0,1-7.74,1.47,18.19,18.19,0,0,1-8.64-1.74,11.74,11.74,0,0,1-4.92-5,22,22,0,0,1-2.21-7.84,90.88,90.88,0,0,1-.5-10.05,91.16,91.16,0,0,1,.5-10A22.06,22.06,0,0,1,331.67,21a12.33,12.33,0,0,1,4.92-5.12A17.32,17.32,0,0,1,345.23,14a16.76,16.76,0,0,1,8.14,1.67A11.49,11.49,0,0,1,357.82,20a14.73,14.73,0,0,1,1.84,5.56A44.9,44.9,0,0,1,360,31.1h-9.64Q350.39,25.88,349.15,23.5Z" fill="#1c1c1b"/>
          <path d="M330.74,0V5.67a14.59,14.59,0,0,1-9.39,14.17,16.63,16.63,0,0,1-6.86,1.36V14.94a15.65,15.65,0,0,0,11-3.89c4.63-4.29,5.14-7.27,5.26-11" fill="#80ba27"/>
          <path d="M314.49,27.45V62.73h9.59V24.65a16.68,16.68,0,0,1-2.73,1.44,16.63,16.63,0,0,1-6.86,1.36" fill="#1c1c1b"/>
        </g>
        <g>
          <path d="M46.08,116.6s37.49-8.5,46.38-48.06V11.12H0V68.54C8.51,106.4,46.08,116.6,46.08,116.6Z" fill="#1c1c1b"/>
          <path d="M46.06,112.71s34.76-7.87,43-44.52V15H3.42V68.19c7.88,35.08,42.64,44.52,42.64,44.52Z" fill="#fff"/>
          <path d="M52.51,47.14c16.53,0,30.32-12.59,33.73-29.37v-.11H46v92.41S78.77,101.14,86.24,68V36.42C79.4,53.14,64,64.85,46,64.92V46.43A31.47,31.47,0,0,0,52.51,47.14Z" fill="#1c1c1b"/>
          <g>
            <path d="M12.13,47.14c16.55,0,30.38-12.65,33.77-29.48H5.72v29A54.12,54.12,0,0,0,12.13,47.14Z" fill="#80ba27"/>
            <path d="M45.94,17.66V36.25C39.29,52.59,24.48,64.16,5.72,64.86V68C13.17,101.14,46,110.07,46,110.07V17.66Z" fill="#80ba27"/>
          </g>
        </g>
      </g>
    </g>
  </g>
</svg>
