<svg xmlns="http://www.w3.org/2000/svg" width="870.42" height="286.35" viewBox="0 0 870.42 286.35">
  <title>Asset 1</title>
  <g id="Layer_2" data-name="Layer 2">
    <g id="Layer_1-2" data-name="Layer 1">
      <path d="M690.2,97.43H854.08v41.41c-4.64,68.51-81.94,94.45-81.94,94.45s-77.31-25.94-81.94-94.45V97.43Z" fill="#ffd040"/>
      <path d="M856.4,208l4.78,7.26s3.64.82,8.28-4.69c.33-.44-8.52-14-8.52-14-6.07-14.46-38.77-5.83-30.59,5.91.46.63,11.66,17.92,11.66,17.92a169.59,169.59,0,0,1-139.83,0s11.18-17.21,11.68-17.9c8.18-11.74-24.52-20.37-30.6-5.91-2.22,3.36-9,13.51-8.66,13.89,4.63,5.5,8.27,4.69,8.27,4.69l4.65-7.06c3.29-1.39,7.76-1.9,10.35.92,1.16-.27-3.24,3.32-5.79,6.37l-.15-.08-9,16.22c43.37,30.47,132.2,31,179.17-.41l-9.9-15.81c-.35.19-7.25-6.6-5.89-6.29C848.83,206.32,853.14,206.7,856.4,208Z" fill="#ffd040"/>
      <g>
        <polygon points="690.2 37.85 690.2 97.56 854.08 97.56 854.08 37.85 690.2 37.85 690.2 37.85" fill="#f5333f"/>
        <path d="M742.93,168.43a29.25,29.25,0,0,0,58.49,0h12.29v4H808l-1.34,5.17,5,2.54L808.55,187,804,184.7l-3.71,4.93,4.06,3.94L799,199.19l-3.59-3.88-5.69,4.05,2.1,4.93-7.53,3.23L782,202l-6.14,1.75V209h-7.57v-5.2L762.18,202l-2.26,5.5-7.53-3.23,2.08-4.93-5.67-4.05-3.59,3.88-5.32-5.62,4.05-3.94-3.7-4.93L735.66,187l-3.13-6.83,5-2.54-1.32-5.17H730.5l-.06-4Z" fill="#f5333f"/>
        <path d="M792.43,168.43h5.23a25.48,25.48,0,0,1-51,0h5.23a20.27,20.27,0,0,0,40.5,0Z" fill="#f5333f"/>
        <path d="M819.3,172.85l-39.55-43.73c0,.07,0,.13,0,.19a2.85,2.85,0,0,0,0-.42,7.79,7.79,0,0,0-5.78-7.47v-2.08h-.72a3,3,0,0,0,.07-3.29h.7V105.21h-4.34v10.84h.65a2.81,2.81,0,0,0-.48,1.58,2.74,2.74,0,0,0,.56,1.71h-.67v2.08a7.8,7.8,0,0,0-5.8,7.47l-39.77,44,44.94-36.67c-.35-.13.06,0,.63.2V138H774l-.06-1.85C774.46,136,819.3,172.85,819.3,172.85Z" fill="#f5333f"/>
      </g>
      <path d="M132,163.78q7.37,0,11.66,3.82T148,178.81v9.28a14.14,14.14,0,0,1-1.26,6.1,12.56,12.56,0,0,1-3.39,4.37,14.51,14.51,0,0,1-5,2.64,22.15,22.15,0,0,1-6.2.81h-8.29v23.68h-9.47V163.78Zm6.56,15.12c0-4.44-2.2-6.65-6.56-6.65h-8.11v21.31H132a8.61,8.61,0,0,0,4.74-1.19c1.21-.84,1.82-2.31,1.82-4.37Z" fill="#231f20" fill-rule="evenodd"/>
      <path d="M178.2,162.87a24.92,24.92,0,0,1,8.1,1.27,18.52,18.52,0,0,1,6.56,3.73,17,17,0,0,1,4.45,5.84,18,18,0,0,1,1.65,7.83v26.4a18.18,18.18,0,0,1-1.65,7.92,16.7,16.7,0,0,1-4.36,5.91,18.91,18.91,0,0,1-6.56,3.64,27,27,0,0,1-8.19,1.19H177a28,28,0,0,1-8.36-1.19,20,20,0,0,1-6.66-3.64,16.6,16.6,0,0,1-4.28-5.82,19.87,19.87,0,0,1-1.54-8v-26.4a17.71,17.71,0,0,1,1.64-7.74,17.27,17.27,0,0,1,4.37-5.83,19.08,19.08,0,0,1,6.55-3.73,24.15,24.15,0,0,1,8.19-1.37Zm11.29,18.67a9.46,9.46,0,0,0-3.36-7.38,10,10,0,0,0-3.57-2.1,13,13,0,0,0-4.36-.72h-1.28a12,12,0,0,0-8.1,2.74,9.28,9.28,0,0,0-3.18,7.46v26.4c0,3.46,1,6,3.09,7.74a13,13,0,0,0,8.28,2.45h1.19c3.47,0,6.19-.81,8.19-2.45s3.1-4.28,3.1-7.74Z" fill="#231f20" fill-rule="evenodd"/>
      <polygon points="219.26 163.78 219.26 217.22 242.75 217.22 242.75 225.69 210.07 225.69 210.07 163.78 219.26 163.78" fill="#231f20" fill-rule="evenodd"/>
      <polygon points="263.32 201.02 245.19 163.78 255.49 163.78 268.06 191.19 280.8 163.78 291.08 163.78 272.78 201.1 272.78 225.69 263.32 225.69 263.32 201.02" fill="#231f20" fill-rule="evenodd"/>
      <polygon points="294.37 172.25 294.37 163.78 334.97 163.78 334.97 172.25 319.4 172.25 319.4 225.69 309.93 225.69 309.93 172.25 294.37 172.25" fill="#231f20" fill-rule="evenodd"/>
      <polygon points="351.72 198.29 351.72 217.22 373.39 217.22 373.39 225.69 342.52 225.69 342.52 163.78 371.76 163.78 371.76 172.25 351.72 172.25 351.72 190.18 368.56 190.18 368.56 198.29 351.72 198.29" fill="#231f20" fill-rule="evenodd"/>
      <path d="M401.35,171.34q-5.19,0-7.74,2.74a10,10,0,0,0-2.54,7.27v26.86c0,3.47.87,6,2.63,7.56s4.37,2.36,7.65,2.36a18.18,18.18,0,0,0,3.83-.35,14.8,14.8,0,0,0,3-1.2,15.41,15.41,0,0,0,2.55-1.72c.78-.73,1.6-1.53,2.46-2.36l5.55,6.73a26.65,26.65,0,0,1-8,5.64,24,24,0,0,1-9.38,1.73q-9.37,0-14.57-4.72t-5.19-13.67V181.35a19.22,19.22,0,0,1,1.46-7.74,15.82,15.82,0,0,1,4.09-5.82,16.82,16.82,0,0,1,6.28-3.65,23.85,23.85,0,0,1,7.93-1.27,22.69,22.69,0,0,1,10.38,2.1A19.15,19.15,0,0,1,419,171.7l-6.19,6.11a14.09,14.09,0,0,0-4.47-4.46A12.89,12.89,0,0,0,401.35,171.34Z" fill="#231f20" fill-rule="evenodd"/>
      <polygon points="461.89 163.78 471.17 163.78 471.17 225.69 461.89 225.69 461.89 199.93 439.86 199.93 439.86 225.69 430.67 225.69 430.67 163.78 439.86 163.78 439.86 191.46 461.89 191.46 461.89 163.78" fill="#231f20" fill-rule="evenodd"/>
      <polygon points="518.51 163.78 526.99 163.78 526.99 225.69 512.32 225.69 492.75 174.8 492.75 225.69 484.29 225.69 484.29 163.78 497.76 163.78 518.51 215.5 518.51 163.78" fill="#231f20" fill-rule="evenodd"/>
      <rect x="542.92" y="163.78" width="9.46" height="61.91" fill="#231f20"/>
      <path d="M586.16,171.34q-5.17,0-7.74,2.74a10,10,0,0,0-2.55,7.27v26.86c0,3.47.88,6,2.65,7.56s4.37,2.36,7.64,2.36a18.12,18.12,0,0,0,3.83-.35,14.57,14.57,0,0,0,3-1.2,14.17,14.17,0,0,0,2.54-1.72c.8-.73,1.61-1.53,2.47-2.36l5.55,6.73a26.08,26.08,0,0,1-8,5.64,23.94,23.94,0,0,1-9.37,1.73q-9.37,0-14.57-4.72t-5.18-13.67V181.35a19.22,19.22,0,0,1,1.46-7.74,15.91,15.91,0,0,1,4.08-5.82,16.86,16.86,0,0,1,6.29-3.65,23.83,23.83,0,0,1,7.92-1.27,22.66,22.66,0,0,1,10.38,2.1,19.1,19.1,0,0,1,7.29,6.73l-6.19,6.11a14.15,14.15,0,0,0-4.46-4.46A13,13,0,0,0,586.16,171.34Z" fill="#231f20" fill-rule="evenodd"/>
      <path d="M40.35,101.77c2.17,1.53,4.29,3,6.37,4.48a25.8,25.8,0,0,1,5.71,5.16,22.9,22.9,0,0,1,4.08,7.06A30.53,30.53,0,0,1,58,128.8a25,25,0,0,1-2.18,10.73,22.23,22.23,0,0,1-6,7.6A25,25,0,0,1,41,151.89a38.65,38.65,0,0,1-11,1.49,38.81,38.81,0,0,1-17.65-3.94A27.57,27.57,0,0,1,0,136.54l11-8.42a23.2,23.2,0,0,0,7.07,9.37c2.89,2.08,6.66,3.13,11.27,3.13s8.19-.82,10.74-2.45,3.8-4.89,3.8-9.51a9.38,9.38,0,0,0-2.31-6.25,24.47,24.47,0,0,0-5.57-5,48.73,48.73,0,0,0-6.92-4.08c-2.36-1.27-4.45-2.48-6.27-3.67-1.89-1.36-4-2.8-6.24-4.34a42.43,42.43,0,0,1-6.24-5.44,30.72,30.72,0,0,1-5-7.46,23.92,23.92,0,0,1-1.9-9.92,25.55,25.55,0,0,1,2-10.59,20.53,20.53,0,0,1,5.71-7.48A24.61,24.61,0,0,1,20,59.93a40.78,40.78,0,0,1,11.41-1.49,30,30,0,0,1,13.45,3.39,32.5,32.5,0,0,1,11.41,9.1L47.81,81.39a24.71,24.71,0,0,0-3.4-3.53,27.42,27.42,0,0,0-4.47-3.4A24.81,24.81,0,0,0,35.05,72a14.73,14.73,0,0,0-5.16-1q-6.13,0-9.24,2.58t-3.13,8.56a9.41,9.41,0,0,0,2.72,6.38,42.77,42.77,0,0,0,6.51,5.3q3.83,2.44,7.62,4.48A52.08,52.08,0,0,1,40.35,101.77Z" fill="#231f20" fill-rule="evenodd"/>
      <rect x="76.2" y="59.8" width="14.13" height="92.36" fill="#231f20"/>
      <polygon points="165.43 59.8 178.07 59.8 178.07 152.16 156.21 152.16 127 76.24 127 152.16 114.37 152.16 114.37 59.8 134.48 59.8 165.43 136.94 165.43 59.8" fill="#231f20" fill-rule="evenodd"/>
      <path d="M223.85,102.31H254v39.94a49.43,49.43,0,0,1-13,8.28,43,43,0,0,1-28.39,1.09,28.7,28.7,0,0,1-9.64-5.44,26.86,26.86,0,0,1-6.25-8.83,29.76,29.76,0,0,1-2.18-11.67V86.28a27.12,27.12,0,0,1,2.44-11.68,25.43,25.43,0,0,1,6.67-8.69,28.93,28.93,0,0,1,9.77-5.57,36.35,36.35,0,0,1,11.83-1.9q9.36,0,15.75,3.53a31.61,31.61,0,0,1,11,9.51L243.13,81a33.42,33.42,0,0,0-8.15-7,18.22,18.22,0,0,0-9.77-2.86c-5,0-9.06,1.4-12.24,4.21a14,14,0,0,0-4.62,11v39.4q0,7.88,4.77,11.54c3.16,2.44,7.2,3.67,12.09,3.67a31.4,31.4,0,0,0,8.42-.95,21.52,21.52,0,0,0,6.51-3.68V114H223.85Z" fill="#231f20" fill-rule="evenodd"/>
      <path d="M307.1,59.25l25.14,92.91h-14.4l-6.52-24.31H285.65L279,152.16H264.46l25.8-92.91Zm1.23,56.91L298.54,74.6l-9.9,41.56Z" fill="#231f20" fill-rule="evenodd"/>
      <path d="M370.81,59.8q11,0,17.39,5.7t6.51,16.71V96.06a20.51,20.51,0,0,1-1.91,9.1,18.33,18.33,0,0,1-5,6.52,22,22,0,0,1-7.47,3.94,32.94,32.94,0,0,1-9.24,1.23H358.72v35.31H344.58V59.8Zm9.78,22.54q0-9.91-9.78-9.91H358.72v31.78h12.09a12.76,12.76,0,0,0,7.05-1.76c1.82-1.27,2.73-3.45,2.73-6.52Z" fill="#231f20" fill-rule="evenodd"/>
      <path d="M439.81,58.44a37.08,37.08,0,0,1,12.08,1.9,27.31,27.31,0,0,1,9.79,5.57,25.62,25.62,0,0,1,6.65,8.69,27,27,0,0,1,2.45,11.68v39.4a27.28,27.28,0,0,1-2.45,11.81,25.37,25.37,0,0,1-6.52,8.83,28.56,28.56,0,0,1-9.78,5.43,40.23,40.23,0,0,1-12.22,1.77H438a42,42,0,0,1-12.5-1.77,30.07,30.07,0,0,1-9.91-5.43,24.53,24.53,0,0,1-6.38-8.69,29.49,29.49,0,0,1-2.31-11.95V86.28a26.76,26.76,0,0,1,2.43-11.54A26.26,26.26,0,0,1,415.9,66a29,29,0,0,1,9.78-5.56,36,36,0,0,1,12.22-2Zm16.84,27.84a14.09,14.09,0,0,0-5-11,14.68,14.68,0,0,0-5.3-3.12,18.81,18.81,0,0,0-6.51-1.09H437.9a17.86,17.86,0,0,0-12.08,4.08q-4.76,4.06-4.75,11.13v39.4q0,7.73,4.61,11.54,4.6,3.66,12.36,3.67h1.77q7.72,0,12.22-3.67c3.09-2.54,4.62-6.39,4.62-11.54Z" fill="#231f20" fill-rule="evenodd"/>
      <path d="M541.4,92q0,8.28-4.2,13a26,26,0,0,1-11.55,7.19L544,152.16H529.45l-17.53-38.57h-10.6v38.57H487.21V59.8h30.15q11.55,0,17.79,5.43t6.25,17.38Zm-40.08,8.83h16a11.34,11.34,0,0,0,7.2-2q2.72-2.18,2.72-6.93V82.48q0-10-10.06-10h-15.9Z" fill="#231f20" fill-rule="evenodd"/>
      <polygon points="571.28 111.27 571.28 139.53 603.61 139.53 603.61 152.16 557.56 152.16 557.56 59.8 601.16 59.8 601.16 72.43 571.28 72.43 571.28 99.19 596.41 99.19 596.41 111.27 571.28 111.27" fill="#231f20" fill-rule="evenodd"/>
      <rect x="637.52" width="6.75" height="286.35" fill="#231f20"/>
      <g>
        <path d="M694.32,230.4a1.24,1.24,0,0,0,1-.75,1.09,1.09,0,0,0,0-1.27,3.68,3.68,0,0,0-1.26-1l-.27-.14s-.09,0-.17-.08l-1.2,2.16a.35.35,0,0,0,0,.36,2,2,0,0,0,.6.37,2.68,2.68,0,0,0,1.31.33Zm-4-1.46a1.6,1.6,0,0,0,.81.2c.16,0,.34-.22.51-.54l2.16-3.86c.18-.32.24-.56.18-.7s-.26-.32-.62-.52l.08-.16,2.55,1.28a4.25,4.25,0,0,1,1.57,1.21,1.49,1.49,0,0,1-1,2.2,2.84,2.84,0,0,1-1-.09,2.83,2.83,0,0,1,.81,1,1.23,1.23,0,0,1-.08,1.17,1.71,1.71,0,0,1-1.77.91,4.11,4.11,0,0,1-1.39-.46l-3-1.51.08-.15Zm5.21-1.42a1.08,1.08,0,0,0,1.08-.61,1.11,1.11,0,0,0-.08-1.39,3.28,3.28,0,0,0-1-.72,1.16,1.16,0,0,0-.38-.13s-.12.08-.2.22l-1.1,2,.88.43a2.07,2.07,0,0,0,.84.24Z" fill="#231f20" fill-rule="evenodd"/>
        <path d="M696.38,232a1.52,1.52,0,0,0,.76.12c.14,0,.3-.23.46-.56l1.95-4a.93.93,0,0,0,.14-.68c-.05-.15-.24-.3-.58-.5l.08-.15,5,2.21-.6,1.28-.22-.1a1.34,1.34,0,0,0,0-.92,2.17,2.17,0,0,0-1-.65l-1.28-.56c-.13-.06-.23-.08-.3,0s-.09.1-.15.2l-1,2,1.43.63a1.23,1.23,0,0,0,.85.17,1.68,1.68,0,0,0,.61-.57l.22.1-1,2.06-.23-.09a1.4,1.4,0,0,0,.07-.8c0-.17-.28-.33-.67-.51l-1.45-.64-1.09,2.2c-.08.18-.08.31,0,.39a5.12,5.12,0,0,0,1,.52,4.09,4.09,0,0,0,1.51.43,2.18,2.18,0,0,0,1.28-.6l.26.11-1.16,1.31-5.06-2.24.07-.16Z" fill="#231f20"/>
        <path d="M706.7,232.66a1.27,1.27,0,0,0,1.24-.83,1.14,1.14,0,0,0-.22-1.35,2.91,2.91,0,0,0-.91-.53,1.46,1.46,0,0,0-.52-.13c-.07,0-.15.09-.21.22l-.94,2.25a5.12,5.12,0,0,0,1.56.37Zm-4.62,1.9a1.2,1.2,0,0,0,.77.06,1.44,1.44,0,0,0,.46-.67L705,230a1,1,0,0,0,.11-.7,1.29,1.29,0,0,0-.58-.44l.07-.16,2.65,1a4.09,4.09,0,0,1,1.29.73,1.45,1.45,0,0,1,.46,1.79,1.39,1.39,0,0,1-.92.87,2.76,2.76,0,0,1-1.46,0l1,3.06a1.79,1.79,0,0,0,.24.46,1.08,1.08,0,0,0,.4.3l-.06.17-1.55-.6-1.08-3.67-.55-.19-.76,1.79c-.14.34-.18.58-.11.71a1.34,1.34,0,0,0,.63.45l-.08.16-2.66-1,.07-.16Z" fill="#231f20" fill-rule="evenodd"/>
        <path d="M708.53,237a1.26,1.26,0,0,0,.82.08,1.58,1.58,0,0,0,.43-.69l1.6-4a1,1,0,0,0,.11-.69c-.06-.14-.29-.28-.64-.45l.07-.17,2.75,1-.07.17a1.49,1.49,0,0,0-.81-.09c-.14.06-.28.25-.42.59l-.75,1.88,1.94-.69c.92-.38,1.43-.64,1.49-.82a.23.23,0,0,0-.08-.29,1.27,1.27,0,0,0-.46-.25l.07-.17,2.53.92-.06.16a1.82,1.82,0,0,0-.79-.09,3.63,3.63,0,0,0-1,.28l-2.54,1.05,1.34,3.13a9.52,9.52,0,0,0,.51,1.11,1.65,1.65,0,0,0,.59.45l-.06.15-3-1.07.07-.17a2.89,2.89,0,0,0,.56.14c.12,0,.19,0,.22-.14a.36.36,0,0,0,0-.26,1.68,1.68,0,0,0-.14-.47l-1-2.58-.44.15-.66,1.65c-.15.36-.18.59-.1.71a1.47,1.47,0,0,0,.63.45l-.07.16-2.72-1,.06-.17Z" fill="#231f20"/>
        <path d="M715.5,239.51a1.29,1.29,0,0,0,.79,0c.14-.06.27-.29.4-.7l1.39-4.05a1,1,0,0,0,.06-.71,1.37,1.37,0,0,0-.64-.39l0-.18,2.74.85-.06.16a1.29,1.29,0,0,0-.76,0,.94.94,0,0,0-.39.6l-.63,1.82,3,.92.62-1.82a1,1,0,0,0,.06-.71,1.31,1.31,0,0,0-.64-.4l.06-.17,2.72.84-.06.17a1.33,1.33,0,0,0-.76,0c-.14.07-.26.27-.38.61l-1.42,4.16a.91.91,0,0,0-.07.7,1.3,1.3,0,0,0,.64.41l-.06.17-2.73-.85.07-.17a1.27,1.27,0,0,0,.78,0c.12-.06.26-.3.4-.7l.63-1.82-3-.92-.66,1.93c-.11.34-.13.57,0,.7s.28.26.63.41l-.06.16-2.73-.84.06-.17Z" fill="#231f20"/>
        <path d="M722.62,241.62a1.77,1.77,0,0,0,.83,0q.22-.09.39-.63l1.27-4.2a.88.88,0,0,0,0-.72,1.37,1.37,0,0,0-.74-.4l.07-.18,2.93.81,0,.18a1.58,1.58,0,0,0-.85,0c-.15.07-.27.26-.37.62l-1.27,4.2c-.12.37-.13.61,0,.73a1.65,1.65,0,0,0,.73.39l0,.18-2.95-.81,0-.18Z" fill="#231f20"/>
        <path d="M728,242.77a1,1,0,0,0,.49.19,3.78,3.78,0,0,0,2,0,3.06,3.06,0,0,0,1.41-4.48,3.58,3.58,0,0,0-2-1.16,1.44,1.44,0,0,0-.48,0c-.09,0-.16.12-.2.27L728,242.43a.44.44,0,0,0,0,.34Zm-2.09-.22a1.58,1.58,0,0,0,.77,0c.14-.06.25-.27.35-.63l1.11-4.24c.09-.34.1-.58,0-.7a1.24,1.24,0,0,0-.67-.37l0-.17,2.71.63a5.85,5.85,0,0,1,2.19,1,2.76,2.76,0,0,1,1,3.14,3,3,0,0,1-.67,1.29,3.12,3.12,0,0,1-2.12,1.09,5.8,5.8,0,0,1-2-.17l-2.78-.66,0-.17Z" fill="#231f20" fill-rule="evenodd"/>
        <path d="M733.12,244.24a1.25,1.25,0,0,0,.85-.11,1.68,1.68,0,0,0,.4-.93l.87-3.91a1,1,0,0,0,0-.71,1.44,1.44,0,0,0-.76-.34l.06-.18,2,.39,1.25,5.33,3.33-4.4,2,.42,0,.17a1.3,1.3,0,0,0-.77.05,1.06,1.06,0,0,0-.32.63l-1,4.28a1,1,0,0,0,0,.71,1.44,1.44,0,0,0,.69.33l0,.18-2.83-.57,0-.18a1.32,1.32,0,0,0,.81-.05,1.34,1.34,0,0,0,.32-.74l1-4.32-3.82,5-.13,0-1.38-5.75-.84,3.83a1.51,1.51,0,0,0,0,1.08,1.28,1.28,0,0,0,.65.35l0,.16-2.37-.47,0-.17Z" fill="#231f20"/>
        <path d="M746.93,244.35l-.74-2.86-1.6,2.5,2.34.36Zm-4.82,1.82,0-.18a.8.8,0,0,0,.63-.19,7.07,7.07,0,0,0,.9-1.2l2.92-4.45.21,0,1.62,5.89a2.76,2.76,0,0,0,.28.74,1.2,1.2,0,0,0,.5.26l0,.17-2.61-.39,0-.17a2.59,2.59,0,0,0,.58,0c.1,0,.15-.11.18-.25a.86.86,0,0,0,0-.27,3.77,3.77,0,0,0-.07-.4l-.27-1-2.67-.39-.67,1.08a2.22,2.22,0,0,0-.14.32.36.36,0,0,0,.16.38,1.51,1.51,0,0,0,.47.15l0,.18-2-.3Z" fill="#231f20" fill-rule="evenodd"/>
        <path d="M749.24,240.65l5.79.66-.15,1.68-.26,0a1.77,1.77,0,0,0-.32-1.07,1.82,1.82,0,0,0-1.14-.37l-.57-.07-.66,5c0,.39,0,.63.11.73a1.74,1.74,0,0,0,.79.28l0,.17-3-.35,0-.17a1.43,1.43,0,0,0,.84-.12c.12-.08.2-.35.26-.77l.63-4.88-.57-.06a2.15,2.15,0,0,0-1.19.1,1.73,1.73,0,0,0-.6,1l-.25,0,.28-1.64Z" fill="#231f20"/>
        <path d="M759.14,247.71a1,1,0,0,0,.5.13,4,4,0,0,0,2-.33A2.58,2.58,0,0,0,763,245.2a2.66,2.66,0,0,0-.83-2.34,3.59,3.59,0,0,0-2.18-.8,1,1,0,0,0-.48.05c-.09,0-.14.14-.15.31l-.37,5c0,.17,0,.28.11.32Zm-2.1.13a1.5,1.5,0,0,0,.75-.13c.12-.08.2-.32.21-.69l.33-4.36a1.08,1.08,0,0,0-.11-.71,1.45,1.45,0,0,0-.72-.23v-.18l2.77.18a6,6,0,0,1,2.34.6,2.81,2.81,0,0,1,1.54,2.94,3.11,3.11,0,0,1-.41,1.38,2.88,2.88,0,0,1-1,1.05,3.2,3.2,0,0,1-.87.38,6,6,0,0,1-2,.14L757,248v-.19Z" fill="#231f20" fill-rule="evenodd"/>
        <path d="M764.43,248.28a1.49,1.49,0,0,0,.75-.18,1,1,0,0,0,.18-.69l.08-4.36c0-.36,0-.59-.16-.7a1.22,1.22,0,0,0-.74-.21V242L770,242v1.42h-.27a1.37,1.37,0,0,0-.37-.85,2.21,2.21,0,0,0-1.17-.21l-1.4,0a.47.47,0,0,0-.29.07.49.49,0,0,0,0,.25l0,2.19,1.6,0a1.29,1.29,0,0,0,.84-.18,1.48,1.48,0,0,0,.31-.75h.24l0,2.27h-.24a1.59,1.59,0,0,0-.29-.76,1.27,1.27,0,0,0-.83-.2l-1.59,0,0,2.43c0,.19.05.32.19.35a6.54,6.54,0,0,0,1.16.07,4.18,4.18,0,0,0,1.55-.19,2,2,0,0,0,.91-1.05h.29l-.5,1.65-5.59-.08v-.19Z" fill="#231f20"/>
        <path d="M770.73,248.43a1.31,1.31,0,0,0,.83-.29,1.78,1.78,0,0,0,.16-1l-.08-4.34-.14-.15a1,1,0,0,0-.4-.29,1.14,1.14,0,0,0-.47-.08v-.18l1.77,0,4.06,4.67,0-3.28a1.61,1.61,0,0,0-.28-1.05,1.37,1.37,0,0,0-.74-.2V242l2.42,0v.17a1.19,1.19,0,0,0-.77.29,1.6,1.6,0,0,0-.2,1l.1,5.17h-.18l-4.67-5.32.08,3.83a1.48,1.48,0,0,0,.26,1.05,1.4,1.4,0,0,0,.73.21v.17l-2.43,0v-.18Z" fill="#231f20"/>
        <path d="M782.73,241.74c.4.08.62.13.68.13a.58.58,0,0,0,.3-.1.53.53,0,0,0,.15-.25h.23l.2,2-.25,0a4,4,0,0,0-.71-1,2.17,2.17,0,0,0-1.61-.53,2.45,2.45,0,0,0-1.72.8,3.19,3.19,0,0,0-.62,2.4,3,3,0,0,0,.86,2.09,2.54,2.54,0,0,0,1.91.66c.11,0,.27,0,.43-.05a2.91,2.91,0,0,0,.47-.13,1.29,1.29,0,0,0,.45-.22.33.33,0,0,0,.09-.25l-.09-1.58c0-.37-.1-.6-.22-.69a1.33,1.33,0,0,0-.74-.13v-.19l2.62-.13,0,.19a1,1,0,0,0-.51.14.78.78,0,0,0-.18.64l.12,1.94c0,.1-.29.28-.87.5a5.37,5.37,0,0,1-1.69.37,4,4,0,0,1-2.61-.71,3.08,3.08,0,0,1-1.28-2.42,3.37,3.37,0,0,1,.79-2.4,3.45,3.45,0,0,1,2.61-1.21,4.32,4.32,0,0,1,1.18.1Z" fill="#231f20"/>
        <path d="M789.85,245.08l-1.48-2.56-.88,2.8,2.36-.24Zm-4.17,3v-.18a.89.89,0,0,0,.57-.36,8.6,8.6,0,0,0,.53-1.38l1.62-5,.19,0,3.17,5.29a3,3,0,0,0,.49.65.92.92,0,0,0,.53.12l0,.18-2.61.26v-.17a2.48,2.48,0,0,0,.57-.16c.08,0,.11-.13.1-.28s0-.12-.08-.25a2.53,2.53,0,0,0-.19-.36l-.53-.9-2.69.26c-.2.67-.31,1.08-.35,1.24a.85.85,0,0,0,0,.34.36.36,0,0,0,.24.32,2,2,0,0,0,.5,0l0,.18-2.05.21Z" fill="#231f20" fill-rule="evenodd"/>
        <path d="M793.06,247.12a1.25,1.25,0,0,0,.78-.38,1.79,1.79,0,0,0,0-1l-.64-4.29-.16-.14a1.06,1.06,0,0,0-.44-.25,1.45,1.45,0,0,0-.48,0l0-.19,1.75-.23,4.64,4.17-.47-3.27a1.59,1.59,0,0,0-.41-1,1.32,1.32,0,0,0-.76-.11l0-.18,2.41-.32,0,.17a1.21,1.21,0,0,0-.74.39,1.62,1.62,0,0,0,0,1l.76,5.12-.18,0-5.31-4.74.55,3.81a1.65,1.65,0,0,0,.4,1,1.33,1.33,0,0,0,.75.12l0,.17-2.4.32,0-.17Z" fill="#231f20"/>
        <path d="M803.05,245.65a1.34,1.34,0,0,0,.71-.36,1.18,1.18,0,0,0,0-.8l-.93-4.17c-.07-.35-.18-.56-.32-.63a1.28,1.28,0,0,0-.79-.05l0-.17,2.87-.59.06.18a1.43,1.43,0,0,0-.74.34,1,1,0,0,0,0,.72l.44,2c.51-.63.93-1.16,1.25-1.6.56-.78.81-1.26.77-1.44a.25.25,0,0,0-.23-.22,1.69,1.69,0,0,0-.52,0l0-.18,2.65-.54,0,.16a2.07,2.07,0,0,0-.73.34,3.37,3.37,0,0,0-.63.75l-1.52,2.18,2.89,1.94a10.41,10.41,0,0,0,1.08.66,1.63,1.63,0,0,0,.74.08l0,.15L807,245l0-.17a2.7,2.7,0,0,0,.54-.18.2.2,0,0,0,.11-.22.53.53,0,0,0-.16-.23,3.41,3.41,0,0,0-.37-.32l-2.37-1.61-.29.34.39,1.74c.09.36.19.57.33.65a1.76,1.76,0,0,0,.78,0l0,.18-2.86.58,0-.18Z" fill="#231f20"/>
        <path d="M810.26,244.15a1.31,1.31,0,0,0,.67-.37c.09-.1.09-.35,0-.71l-1.12-4.24a1.08,1.08,0,0,0-.34-.62,1.48,1.48,0,0,0-.77,0l-.05-.18,5.33-1.25.39,1.35-.26.07a1.27,1.27,0,0,0-.59-.73,2.09,2.09,0,0,0-1.18.08l-1.37.32c-.13,0-.23.09-.25.14a.5.5,0,0,0,0,.26l.55,2.13,1.54-.36c.44-.11.68-.24.77-.39a1.4,1.4,0,0,0,.09-.79l.24-.07.59,2.21-.25.06a1.58,1.58,0,0,0-.47-.66,1.22,1.22,0,0,0-.86,0l-1.54.36.61,2.37c0,.19.15.28.27.29a7,7,0,0,0,1.15-.22,4.18,4.18,0,0,0,1.44-.56,2,2,0,0,0,.61-1.23l.27-.08,0,1.73-5.42,1.27,0-.16Z" fill="#231f20"/>
        <path d="M820,239.26,818.1,237l-.35,2.91,2.27-.62Zm-3.55,3.6-.05-.18a.82.82,0,0,0,.49-.43,8.43,8.43,0,0,0,.27-1.45l.67-5.21.2-.05,4.08,4.69a3,3,0,0,0,.61.55,1.09,1.09,0,0,0,.54,0l.05.16-2.52.69,0-.17a2.85,2.85,0,0,0,.53-.24.28.28,0,0,0,.05-.3l-.12-.23a2.39,2.39,0,0,0-.25-.33l-.69-.8-2.6.71c-.07.7-.11,1.11-.12,1.27a.88.88,0,0,0,0,.34.36.36,0,0,0,.29.28,1.67,1.67,0,0,0,.49,0l.07.17-2,.54Z" fill="#231f20" fill-rule="evenodd"/>
        <path d="M823.59,240.69a1.42,1.42,0,0,0,.64-.43,1.23,1.23,0,0,0-.13-.79l-1.46-4a1,1,0,0,0-.38-.59,1.39,1.39,0,0,0-.77,0l-.06-.17,2.71-.89.06.17a1.41,1.41,0,0,0-.63.41,1,1,0,0,0,.07.72l.65,1.8,3-1-.66-1.81a1.11,1.11,0,0,0-.39-.6,1.29,1.29,0,0,0-.76.05l-.08-.18,2.72-.88.07.18a1.22,1.22,0,0,0-.64.41,1,1,0,0,0,.08.7l1.5,4.13q.18.51.39.6a1.39,1.39,0,0,0,.77,0l0,.17-2.71.88-.05-.16c.37-.16.58-.31.63-.44s0-.39-.12-.79l-.64-1.81-3,1,.69,1.92a1.14,1.14,0,0,0,.39.6,1.39,1.39,0,0,0,.77,0l.08.16-2.73.88,0-.16Z" fill="#231f20"/>
        <path d="M830.59,238.38a1.84,1.84,0,0,0,.62-.42c.08-.12,0-.36-.09-.71l-1.57-4.11a1,1,0,0,0-.41-.59,1.17,1.17,0,0,0-.76.06l-.08-.18,2.76-1,.06.17a1.38,1.38,0,0,0-.65.42.81.81,0,0,0,0,.66l1.71,4.44a.56.56,0,0,0,.14.23.35.35,0,0,0,.28,0l.24,0c.08,0,.23-.08.45-.16a5.25,5.25,0,0,0,1.68-.81,2.16,2.16,0,0,0,.48-1.35l.26-.08.12,1.76-5.22,1.81-.06-.16Z" fill="#231f20"/>
        <path d="M836.53,236.24a1.7,1.7,0,0,0,.68-.47c.08-.14,0-.38-.12-.72l-1.79-4c-.15-.33-.31-.52-.47-.57a1.58,1.58,0,0,0-.82.13l-.08-.17,2.81-1.13.09.17a1.43,1.43,0,0,0-.69.47,1,1,0,0,0,.12.72l1.8,4c.15.36.31.56.47.59a1.67,1.67,0,0,0,.82-.15l.07.17-2.82,1.14-.07-.16Z" fill="#231f20"/>
        <path d="M842.78,231.14l-2.25-2,.08,2.93,2.17-.93Zm-3,4-.08-.15a.78.78,0,0,0,.41-.5,6.79,6.79,0,0,0,.07-1.47l-.1-5.24.2-.08,4.71,4.1a3,3,0,0,0,.68.46,1,1,0,0,0,.56,0l.06.17-2.39,1-.08-.16a1.87,1.87,0,0,0,.49-.31c.07-.06.07-.16,0-.3a1.27,1.27,0,0,0-.16-.21,2.69,2.69,0,0,0-.29-.3l-.79-.7-2.47,1.05c0,.69,0,1.12,0,1.26a1.3,1.3,0,0,0,.08.34.36.36,0,0,0,.34.24,2.13,2.13,0,0,0,.49-.11l.08.16-1.87.78Z" fill="#231f20" fill-rule="evenodd"/>
        <path d="M846.45,232.09c.38-.22.58-.42.63-.6a1.86,1.86,0,0,0-.31-1l-2-3.89-.2-.07a.85.85,0,0,0-.49-.13,1.56,1.56,0,0,0-.46.13l-.09-.16,1.6-.74,5.75,2.59-1.51-3c-.25-.48-.49-.76-.72-.83a1.22,1.22,0,0,0-.75.12l-.09-.17,2.19-1,.08.17c-.33.19-.53.38-.58.57a1.62,1.62,0,0,0,.28,1l2.37,4.65-.14.07-6.59-2.92,1.76,3.43c.25.48.48.76.7.84a1.26,1.26,0,0,0,.75-.11l.09.16-2.2,1-.08-.16Z" fill="#231f20"/>
      </g>
      <path d="M862,196.16c-2.22-5.27-7.87-8.3-15.51-8.3A27.68,27.68,0,0,0,835,190.29c10.68-13.56,18.83-30.56,20.24-51.45V36.68H689V138.92c1.41,20.87,9.57,37.85,20.25,51.4A28.29,28.29,0,0,0,694.93,188a20.71,20.71,0,0,0-4.19.89c-.23.07-.49.12-.72.21a13,13,0,0,0-7.86,7.06l-.57.85c-3.59,5.38-5.68,8.63-6.84,10.61-1.48,2.52-1.48,3-1.16,3.47a1.63,1.63,0,0,0,.11.17c3.77,4.47,7,5.14,8.64,5.14a3.39,3.39,0,0,0,.78-.07l.47-.1,4.68-7.11a13.61,13.61,0,0,1,2.34-.72,1.94,1.94,0,0,1,.24,0,9.43,9.43,0,0,1,2.16-.15c.17,0,.33.05.5.07a6.49,6.49,0,0,1,1.59.35,3.38,3.38,0,0,1,.51.24,3.83,3.83,0,0,1,.59.4l-.18.16a37.45,37.45,0,0,0-3.22,3c-.36.35-2.54,3.37-2.54,3.37l-.52,1-8.31,15,.86.6c21,14.76,53.44,23.22,89,23.22s69.05-8.6,91.48-23.61l.94-.63-10.66-16.75a15.56,15.56,0,0,0-5.63-5.05c1.76-1.69,5-1.87,8.26-.65l4.77,7.27.46.1a3.56,3.56,0,0,0,.8.07c1.61,0,4.87-.67,8.67-5.19C871,210.5,862,196.16,862,196.16Zm-32.62,7a8.24,8.24,0,0,0,1.52,1.61L840.14,220a167,167,0,0,1-67.57,14.41c1.57-.55,31.81-11.3,55.32-35.92A7.46,7.46,0,0,0,829.4,203.18ZM691.37,39H852.91V96.27H691.37Zm0,59.7H852.91v40.05c-4.36,64.49-75,91.2-80.77,93.28-5.79-2.08-76.41-28.78-80.77-93.21ZM771.7,234.38a167.83,167.83,0,0,1-67.86-14.44l3.68-6.05S713,205,713.05,205a8.61,8.61,0,0,0,1.77-1.8,7.45,7.45,0,0,0,1.51-4.76C739.84,223.06,770.13,233.83,771.7,234.38Zm-89.48-20.32a5.64,5.64,0,0,1-2-.5,12.24,12.24,0,0,1-4.3-3.3.6.6,0,0,1,.06-.11c.09-.17.21-.37.34-.6l.29-.48.2-.34c1-1.73,3-4.86,6.6-10.25l.68-1a12.77,12.77,0,0,0,2.4,1.86l.28.19.32.14a9.62,9.62,0,0,0,3.82,1.13Zm13.58-7.72a10,10,0,0,0-1-.24c-.17,0-.33-.1-.51-.13a10.66,10.66,0,0,0-1.63-.13,12.59,12.59,0,0,0-2.18.21c-.08,0-.16,0-.23,0l4.57-7,.83-1.28-2.72.53a6.8,6.8,0,0,1-1.6.12l-.4,0a7.65,7.65,0,0,1-1.1-.19l-.34-.09a10.08,10.08,0,0,1-1.1-.43l-.14-.06a10.66,10.66,0,0,1-2.74-2.06l0,0-.18-.2a2.12,2.12,0,0,0,.12-.2c.16-.23.36-.42.53-.62a10.58,10.58,0,0,1,.93-1c.21-.19.45-.35.68-.53a11,11,0,0,1,1-.67c.25-.15.5-.28.76-.41s.72-.34,1.08-.48l.78-.29c.37-.12.74-.23,1.11-.32l.75-.19c.38-.08.75-.14,1.11-.2l.66-.1c.39,0,.76-.08,1.11-.1l.46,0c.48,0,.92,0,1.29,0,6.93,0,13.86,2.87,15.77,6.54a4.6,4.6,0,0,1-.56,5.09,2.18,2.18,0,0,1-.25.28,3.92,3.92,0,0,1-.34.37c-.21.2-.43.39-.65.58l-.09,0c-1.43.67-3.18,1.35-5.05,2.07-1.35.53-2.74,1.08-4.11,1.66-1,.23-1.9.44-2.75.63l-1.43.31c-.18-.16-.39-.28-.58-.42s-.35-.27-.54-.38a6,6,0,0,0-.76-.37C696.17,206.52,696,206.42,695.8,206.34Zm7.39,2.71a40.31,40.31,0,0,0,5.55-1.69l-6.9,11.33-8.13-3.81C695.74,212.5,699.44,210.63,703.19,209.05Zm148.63,7.84,8.72,13.91c-22,14.37-54.48,22.6-89.24,22.6-34.61,0-66.17-8.08-86.81-22.2l7.9-14.28a169,169,0,0,0,79.76,19.8A168.18,168.18,0,0,0,851.82,216.89Zm-1.53-2-8.15,3.87-7-11.53a40.92,40.92,0,0,0,5.44,1.72C844.41,210.55,848.23,212.45,850.29,214.89ZM846,207.77l-1.43-.31c-1-.22-2.1-.46-3.25-.75-1.28-.53-2.58-1-3.84-1.53-1.74-.68-3.35-1.31-4.72-1.94a6.71,6.71,0,0,1-1.42-1.39,4.61,4.61,0,0,1-.57-5.11c1.91-3.67,8.84-6.54,15.77-6.54,2.81,0,9.18.54,12.37,5.08A9.86,9.86,0,0,1,857,197c-.1.08-.23.14-.34.22l-.52.31a7.18,7.18,0,0,1-4.86.77l-2.72-.52.09.14-.25-.05,5.36,8.15C850.59,205.51,847.83,206.1,846,207.77Zm15.87,6.37-8.52-13.29a9.34,9.34,0,0,0,2.5-.59l.2-.09a11.38,11.38,0,0,0,1.64-.81,10.11,10.11,0,0,0,.9-.61l.41-.3c.38-.31.71-.58,1-.86,3.18,4.77,7.15,10.88,8.15,12.75C865.17,213.63,862.83,214.11,861.84,214.14Z" fill="#231f20"/>
      <path d="M780.34,128.9h0a8.37,8.37,0,0,0-5.78-7.88v-2.25H774a3.48,3.48,0,0,0,.2-1.13,3.72,3.72,0,0,0-.15-1h.55v-12H769.1v12h.49a3.09,3.09,0,0,0-.17,1,3.28,3.28,0,0,0,.21,1.13h-.47v2.29a8.32,8.32,0,0,0-5.78,7.6l-44.82,49.53,11.3-9.22v0h0l.06,4.06h5.86l1.09,4.27-5.11,2.58,3.62,7.9,4.68-2.37,3.09,4.12-4.09,4,6.14,6.49,3.67-4,4.87,3.48-2.12,5,8.6,3.7,2.3-5.56,5.2,1.48v5.35h8.75v-5.35l5.21-1.48,2.28,5.56,8.61-3.7-2.14-5,4.89-3.48,3.66,4,6.17-6.49-4.12-4,3.11-4.12,4.68,2.37,3.61-7.9-5.12-2.58,1.11-4.27h5.87v-3.55l10.6,8.65Zm-50.48,38.56-.08,0,.08-.08Zm49.8-35.36a7.82,7.82,0,0,0,.45-1.42,1.72,1.72,0,0,0,.07-.21l32.34,35.76h-.41l-36.56-29.82.09-.06a9.16,9.16,0,0,0,1.4-.88l.31-.25a8.38,8.38,0,0,0,2.14-2.74Zm-5.1-9.88a7.21,7.21,0,0,1,4.61,6.67,53.34,53.34,0,0,1-.39,2.25,5.75,5.75,0,0,1-.43.86,6.89,6.89,0,0,1-.55,1,7.79,7.79,0,0,1-.62.66,7.32,7.32,0,0,1-.89.87,6.47,6.47,0,0,1-.77.45,6.67,6.67,0,0,1-1,.49Zm-1.17,15.19h-3.06V119.93h3.06Zm-3.12-31.61h3.17v9.66h-3.17Zm0,11.83a2.46,2.46,0,0,1,.25-1h2.6a2.41,2.41,0,0,1,.24,1,2.59,2.59,0,0,1-.29,1.13h-2.49A2.42,2.42,0,0,1,770.27,117.63Zm4.29,20.94V137.1l35.7,29.13H733.2l36-29.33v1.67Zm-2.38,49.91A20.78,20.78,0,0,0,793,169h4.08a24.9,24.9,0,0,1-49.78,0h4.08A20.77,20.77,0,0,0,772.18,188.48ZM752.59,169h39.18a19.64,19.64,0,0,1-39.18,0Zm19.59,25.41a26,26,0,0,0,26-25.41h2.6a28.64,28.64,0,0,1-57.26,0h2.59A26.06,26.06,0,0,0,772.18,194.42Zm-3-72.2v13.32a5.94,5.94,0,0,1-1.11-.61,5.73,5.73,0,0,1-.73-.41,6.83,6.83,0,0,1-1-1.06c-.15-.17-.34-.31-.47-.49a7.71,7.71,0,0,1-.76-1.52c-.06-.14-.15-.26-.2-.4a7,7,0,0,1-.34-2.16A7.19,7.19,0,0,1,769.16,122.22Zm-5.69,8.06A8.7,8.7,0,0,0,764,132c0,.13.11.25.16.37a9.64,9.64,0,0,0,.79,1.36l.11.16a9.52,9.52,0,0,0,1.19,1.27l.32.25a8.68,8.68,0,0,0,1.25.82,2.26,2.26,0,0,0,.2.13l-36.65,29.9h-.41Zm49.66,41.62h-5.6L806,178l4.95,2.5-2.64,5.77L803.81,184l-4.32,5.73,4,3.9L799,198.34l-3.51-3.8L789,199.15l2.06,4.83-6.46,2.77-2.23-5.43-7.07,2v5.07h-6.4v-5.07l-7.06-2-2.24,5.43L753.16,204l2-4.83-6.47-4.61-3.52,3.8-4.49-4.75,4-3.9L740.41,184l-4.47,2.27-2.64-5.77,5-2.5-1.56-6.06h-5.61l0-2.89h11.31A29.84,29.84,0,0,0,802,169h11.13Z" fill="#231f20"/>
      <g>
        <g>
          <path d="M781.26,88.21l0,.06A.16.16,0,0,0,781.26,88.21Z" fill="#fdbc47"/>
          <path d="M829.52,78.67c-1.17-2-2-1.64-2.92-1.17s-5.37.47-10.77-3.78a34.45,34.45,0,0,0-11.35-7.29,44.07,44.07,0,0,1,8.61,1.46c.87.59,5.64,4.66,8.27-1.46,0-.4-1.1,1.58-4.19-.28.11,0,6.7-4.08,3.61-7.4-.18-.29.45,1.17-1,1.46s-2.6.8-2.53,1.57c-.3-.64-1.33-2-4.06-2.1.07-.29.18-.58,0-.81-.28-1.75-4.06-3.67-4.06-3.67a2.77,2.77,0,0,0,1.34-.69c3.37,2.61,4.54,2.61,7,1.74,2.81-1,6.42-.7,6.42-.88-2.43-4.6-10-3.84-11.8-3.56,1.18-.23,2.88-.83,4.22-1.1,5.05.16,5.06-3.23,5.36-4.14-.85,1-2.93,1.12-3,1.12-2.75-1.28-8.33.12-10.2,2.33s-8,1.57-8.62,1.28-15.72-3.2-16.3-3c-7.57-.29-22.13,1.28-22.25,7.86-.41,8.16,21,4.66,21.56,4.37,8.43-2,24-.88,24-.88a10.44,10.44,0,0,1,.52,4.95c-.17.29,3.38-1.34,2.92-5.53.11-.29,1.62.58,1,2.92.12,0,.71-.35,1.17-.93a3.48,3.48,0,0,1,1.85,3.54C814.2,66,810.58,66,810.58,66a31,31,0,0,0-11.47-2c-6-.58-23.75,3.21-24.33,3.21-7.18,1.16-16.2-3.85-16.2-3.85-.11-.35-.05-.64-.11-.75.41-2.92-2.1-3.9-2.1-4.08,1.06-.64,2-2.39,1.8-2.62-2-.35-.28-.23-.28-.23.41-.59-.53-1.17-.64-1.23.58-2.79-1.92-2-2.22-2.32-.29-2.63-2.91-1.17-3-1.23-.88-2.16-3-.64-3-.64-1.92-1.81-2.85.12-3,.17-2.27-1.57-2.79,1.11-3,1.17-2.79-.41-1.81,2.44-2,2.44a4,4,0,0,0-2.68,1c.53,2.69,2.1,2.92,2.1,2.92a5.86,5.86,0,0,0-1.63,2.62,7.92,7.92,0,0,1-.76,2.91s-11.35-2-14.39-5c-1.34-1.34-.28-1.86,1.17-2.62.41-.17,3.45-3.55,1.87-6.87-.3-.29-.88,2.5-2,2.5s-2.85.7-2.73,1.57a21.31,21.31,0,0,1-.17-2.44c0-1.46-2-3.21-2.91-3.78s.64,2.61-.4,3.2a2.94,2.94,0,0,0-1.32,2.62,8.26,8.26,0,0,0-1.2-1.17c-1.15-.87-4.48-.87-5.06-.76s4.37,1,3.49,5.13c.11.29.42,1.75,3.2,1.75l1,2c-.87-.58-2.62.3-2.44.3,2,.58,2.44,1,2.74,1.28,1.27,2.32,4.82,2.5,4.82,2.32-.28,1.17-4,.59-4,.59,2.11,2.12,5.94,1.78,6.36,1.65a2.74,2.74,0,0,0-1.52,2.72,3.18,3.18,0,0,1,3.49-.29c3,1.34,4.48-1,5.64-.41-1.92-.58-2.62,3.78-2.74,3.78,5.07-2.79,8.63-.87,8.63-.87a5.58,5.58,0,0,0,.29,3.84c.23.23.05-1.27,1.73-2.37,0,.08.07.31.24.92,0,0-7.17,8.38-12.51,9.26-.7.11-.59-.65-5.25-1.63-.56.16-4.51-.36-5.81,3.31a6.33,6.33,0,0,1,3.43-.93c-1.24.47-2.21,1.51-2,4,.12-.3,2.61-2.91,4.89-1.34-2.64.64-2.49,3-2.86,3.73,1.3-1,3.83-.36,4.37-.47,3.78.59,7.74-4,7.57-4,.7,1.17-.1,2-.41,2.62a4.37,4.37,0,0,0,3.79-4.48c1.16,2.91-.17,4.37.29,4.19C740,86,740,82.34,740.88,81.46c-.86,2.51.3,2.91.41,4.49.58-2.62,5-7.28,5.42-6.81,1,3.2-1.74,5.23-1.17,5.35,3.5-.75,5.07-5.65,5.24-5.53.29,2,3.33,1.92,3,1.63a7.33,7.33,0,0,1-.87-1.86,25.45,25.45,0,0,0,9,1.57c7.85-.47,11.93-5.65,14.26-5.82s3.84,1.92,5.41,4.07c.41-.17.71,3.32,10.31.7,0,.29,2.33-.23,6.12,1.63-.12.29-2.51,1.16-4.08,3.2-.12.12-.88,1-3.2.87s-4.48-2.73-7.86-.29c-1.63.44-1.54,3.07-1.67,3.55,1.38-3.3,5.8-2.56,5.75-2.56-5.2-.52-5,4.78-5,4.66,3.09-3.38,9-2.91,9-2.91-10,.47-7,5.24-7,5.36.58-1.57,2.85-1.87,2.85-1.87s2.68.76,4.36-.46,5.3-3.9,5.12-4.07c1,.93-.17,2.15-.28,2.38,3.55-.12,4.54-4,4.54-4,2.22,1.11,1.28,2.21,1.46,2.39,3-3.37,1.86-5.3,2-5.3,3.21.7,3.85-1.75,3.78-1.75-3.66-.52-4.19-2.73-4.19-2.73.17,0,.59-.12.83-.12,6.58.87,16.71.93,19.49,5.13.18.29-3.43,3.08-5.05,2.61-.88-.46-6.29-3.84-8.92,1.86a6.51,6.51,0,0,1,3,.07c-2.32,1.69-.34,3.61-.46,3.72,1.34-2.91,3.09-2.44,3.09-2.44-2.44.7-1.06,4.08-.77,4.19,0-1.92,4.37-2.15,4.5-2.15,3.48.29,6.1-3.2,5.81-3.67,1.46,1.74.76,2.8,1.06,2.62a4.22,4.22,0,0,0,2-4.37c1.92.58,2.73,2.51,3,2.22a3.8,3.8,0,0,0-1.46-4,3.39,3.39,0,0,0,1.35,0c2.73-.28,3.19-2.73,3.48-2.73C831.44,81.93,830,79,829.52,78.67Zm-24-21.3a71.33,71.33,0,0,1-14.87-3.47c1.62.75-1.45,2.43,2.37,3.18-.75-.11-3.13.93-7.18-.11S781,54.31,780.2,53.9c-.12-.06-2.15,2.14,1.33,3.76,0,.18-6.42,1.27-11.4-2.89,0,0-.81,3.53,1.62,4.51,0,.12-7.35.46-7.24-3.46.29-3.83,13.37-5.27,16.84-5,2.73.23,18.76-.58,24.26,6.49ZM722,53.11c0,.2,0,.17,0,0Zm28,14.48s-.16.66-.16.66c-.77,2.49-1.46,2.53-1.5,2.53-.33-.06-1.07-1.67-1.32-3.17a40.23,40.23,0,0,1-.25-5.19,4.49,4.49,0,0,0,1.35.31h.7a7.12,7.12,0,0,0,1.42-.35c0,.09,0,.59.06.72A15.05,15.05,0,0,1,750,67.59Z" fill="#ffd040"/>
        </g>
        <g>
          <path d="M744.07,57.21c.38,1,2,1,2.67,1a.91.91,0,0,0,.73-.32,2.57,2.57,0,0,0,.25-1.91l.34-.1a.16.16,0,0,0,.1-.11.14.14,0,0,0,0-.14,1.34,1.34,0,0,0-1-.36,5.4,5.4,0,0,0-1.21.21,3.62,3.62,0,0,1-1.47.19l-.35-.07a3.3,3.3,0,0,0-.69-.11c-.44,0-.54.26-.56.41a.15.15,0,0,0,0,.13Zm2.69-.94.3-.08a3.9,3.9,0,0,1,0,1A2,2,0,0,0,746.76,56.27Zm-1.58,1.08a.7.7,0,0,1-.48-.41v0a.16.16,0,0,0,0-.07l-.46-.46.2,0a6.69,6.69,0,0,0,1,.07,2.2,2.2,0,0,0-.2.85Z" fill="#231f20"/>
          <path d="M742.46,61l.08,0a.17.17,0,0,0,.13-.07l.19-.34a.17.17,0,0,0,0-.12.2.2,0,0,0-.07-.09c-1.48-.83-.44-4.6-.42-4.64l.06-.21a.16.16,0,0,0,0-.12.14.14,0,0,0-.1-.07L740,55a.14.14,0,0,0-.17.12l-.06.39a.14.14,0,0,0,0,.11.21.21,0,0,0,.1.06l1.77.29C741.36,57.05,740.83,60.05,742.46,61Z" fill="#231f20"/>
          <path d="M834.81,80a.16.16,0,0,0-.15-.11.38.38,0,0,0-.25.09,3.57,3.57,0,0,1-1.57.41,3.64,3.64,0,0,1-2.72-1.63,2.6,2.6,0,0,0-.34-.37c-.66-1.13-1.3-1.66-2-1.66a2.85,2.85,0,0,0-1.3.42,2.67,2.67,0,0,1-1.11.16c-1,0-4.62-.28-9.25-3.87a36,36,0,0,0-9.3-6.43,32.11,32.11,0,0,1,6.11,1.17l.24.17a7.79,7.79,0,0,0,4.26,1.76,3.77,3.77,0,0,0,2.46-.91l0,0,.26-.24a7.39,7.39,0,0,0,1.56-2.41l0-.1a.4.4,0,0,0-.2-.36.54.54,0,0,0-.55.1,2.37,2.37,0,0,1-1.36.42,4,4,0,0,1-1.74-.47,11.74,11.74,0,0,0,3.37-3.3,4.74,4.74,0,0,0,.39-.73,3,3,0,0,0-.56-3.57.38.38,0,0,0-.31-.18l-.13,0a.28.28,0,0,0-.08.06h0a.16.16,0,0,0-.06.05l0,0a.4.4,0,0,0-.07.35,1.1,1.1,0,0,1,0,.6.83.83,0,0,1-.63.37,5.1,5.1,0,0,0-2.37.95A5,5,0,0,0,813.62,59s0-.17,0-.21c-.24-1.35-2.2-2.75-3.51-3.55a3.11,3.11,0,0,0,.4-.26c2.07,1.58,3.33,2.17,4.63,2.17a7.3,7.3,0,0,0,2.44-.54A18.75,18.75,0,0,1,823,55.8c.72,0,1,0,1.07-.13a.32.32,0,0,0,.19-.32V55.3a.24.24,0,0,0,0-.08l0,0c-1.63-3.11-5.44-3.9-8.54-4l.61-.15a5.5,5.5,0,0,0,4.49-1.48A5.22,5.22,0,0,0,821.94,47l.06-.28a3.16,3.16,0,0,0,.18-.27l.16-.29a.14.14,0,0,0,0-.14.13.13,0,0,0-.13-.08h-.33a.4.4,0,0,0-.25.09.66.66,0,0,0-.3.39l-.05,0,0,0a.23.23,0,0,1-.07.07l0,0a4.85,4.85,0,0,1-2.41.67,6.79,6.79,0,0,0-2.69-.47c-2.64,0-6.3,1.09-7.84,2.91-1.08,1.28-3.81,1.47-5.34,1.47a10.83,10.83,0,0,1-2.87-.28c-.06,0-14.26-3.06-16.3-3.06h-.12q-.79,0-1.68,0c-2.39,0-14.55.22-19.24,4.65a5.71,5.71,0,0,0-1.33,1.86l0,.07a3.67,3.67,0,0,0-.16.47l0,.1c0,.12-.06.25-.09.38v.06s0,.08,0,.12a2.28,2.28,0,0,0,0,.26V56a.92.92,0,0,0,0,.16A4,4,0,0,0,762,59.18c1.68,1.76,5.21,2.66,10.5,2.66a52.62,52.62,0,0,0,10.37-1,59.13,59.13,0,0,1,12.6-1.19c5.36,0,10.11.3,11.13.37a10,10,0,0,1,.41,4.45l0,.06a28.81,28.81,0,0,0-6.88-.92c-.34,0-.67,0-1,0s-.94-.06-1.51-.06c-5.44,0-15.65,1.91-20.55,2.83l-.14,0c-1,.19-2.05.39-2.2.39a13.26,13.26,0,0,1-2.14.17c-6.26,0-13.06-3.71-13.73-4.09a.31.31,0,0,1,0-.1,1,1,0,0,0,0-.25,4.13,4.13,0,0,0-1.86-4,5.14,5.14,0,0,0,1-1.15,3.41,3.41,0,0,0,.6-1.27.53.53,0,0,0-.14-.45l0,0-.07,0a.78.78,0,0,0,0-.4,1.7,1.7,0,0,0-.68-.89,2.22,2.22,0,0,0-.29-1.76,2.18,2.18,0,0,0-1.72-.67l-.26,0a1.94,1.94,0,0,0-.84-1.41,1.9,1.9,0,0,0-1-.25,3.91,3.91,0,0,0-1.32.27,1.87,1.87,0,0,0-1.08-1,2.61,2.61,0,0,0-2.06.35,2.49,2.49,0,0,0-1.58-.7h-.1a2.33,2.33,0,0,1-3.09.51,2.59,2.59,0,0,0-1.48,1.55v0a2,2,0,0,0-1.65.44,1.76,1.76,0,0,0-.46.89,3.59,3.59,0,0,0,0,1.16,4.72,4.72,0,0,0-2.45,1,.5.5,0,0,0-.18.27.34.34,0,0,0,0,.18,4,4,0,0,0,1.81,3,6,6,0,0,0-1.2,2,2.51,2.51,0,0,0-.13.46,8.83,8.83,0,0,0-.17,1l0,.16a7.53,7.53,0,0,1-.3,1.23c0,.1-.07.18-.11.26-.51-.1-1.88-.36-3.57-.76-3.75-.92-8.6-2.39-10.4-4.16-.36-.36-.53-.65-.51-.85.07-.38.79-.75,1.54-1.15h0l.1-.06a7.29,7.29,0,0,0,2-3,5.34,5.34,0,0,0-.09-4.3l-.06-.09a.44.44,0,0,0-.29-.11h-.06a.46.46,0,0,0-.3.2,2.76,2.76,0,0,0-.41.74,6.3,6.3,0,0,1-.72,1.28.68.68,0,0,1-.48.28,4.52,4.52,0,0,0-2.55.82c0-.51-.06-1-.06-1.33,0-1.67-2.26-3.53-3-4a.62.62,0,0,0-.63-.07c-.32.2-.26.65-.17,1.34s.22,1.59-.08,2l0,0a3.3,3.3,0,0,0-1.31,2,3.69,3.69,0,0,0-.67-.65c-1.07-.8-3.59-.86-4.34-.86a7.35,7.35,0,0,0-1,0,.38.38,0,0,0-.32.27.26.26,0,0,0,0,.11c0,.29.18.39.57.57,1,.44,3.26,1.47,3,3.95a3.28,3.28,0,0,1-.08.52v.07a0,0,0,0,0,0,0,.11.11,0,0,0,0,0l0,.11c.16.46.63,1.84,3.28,1.91l.54,1.1a3.75,3.75,0,0,0-1.93.53l-.13.11a.15.15,0,0,0-.05.15.36.36,0,0,0,0,.1l0,.2a.14.14,0,0,0,.14.14h.15c1.86.54,2.26.9,2.51,1.15a5.52,5.52,0,0,0,3.92,2.42,10.46,10.46,0,0,1-2.7-.08l-.59-.09a.13.13,0,0,0-.13,0,.1.1,0,0,0-.05.06.14.14,0,0,0,0,.17l.43.42a7.79,7.79,0,0,0,5.41,1.86,3.49,3.49,0,0,0-.68,2.27v.4a.16.16,0,0,0,.08.14.18.18,0,0,0,.16,0l.32-.25a2.65,2.65,0,0,1,1.65-.63,3,3,0,0,1,1.23.31,1.2,1.2,0,0,0,.34.11,4.77,4.77,0,0,0,1.91.41,5,5,0,0,0,1.77-.35,10.23,10.23,0,0,0-.9,2.4c0,.14-.08.29-.1.33a.17.17,0,0,0,0,.1.94.94,0,0,0,0,.09l0,.06.06.21a.14.14,0,0,0,.15.12h.09a.13.13,0,0,0,.1,0l0,0a10.92,10.92,0,0,1,5.23-1.45,7.46,7.46,0,0,1,2.77.49,6.16,6.16,0,0,0,.39,3.82l.07.08a.28.28,0,0,0,.09.07,33.3,33.3,0,0,1-8.07,6.34l-.06,0-.35.16a8.58,8.58,0,0,1-1.95.6c-.13,0-.19,0-.51-.17a15.06,15.06,0,0,0-5.24-1.46c-1.2.05-3.67.16-5.06,2.42a6,6,0,0,0-.5,1,5.67,5.67,0,0,0-.26.74.14.14,0,0,0,.06.12.14.14,0,0,0,.13,0,3.78,3.78,0,0,0,.66-.44,4.72,4.72,0,0,1,.84-.4,5.38,5.38,0,0,1,.83-.22,3.19,3.19,0,0,0-.45.66l0,0c0,.06,0,.13-.08.19v0a5.42,5.42,0,0,0-.31,2.6l.08.69a.13.13,0,0,0,.12.13.14.14,0,0,0,.16-.08l.3-.63a3.85,3.85,0,0,1,.67-.66,5,5,0,0,1,2.4-1,2.58,2.58,0,0,1,.62.09,3.37,3.37,0,0,0-1.28,1l-.13.19a.41.41,0,0,0-.05.09l-.06.1a5.82,5.82,0,0,0-.59,1.61c0,.15-.08.33-.12.46a2.27,2.27,0,0,0-.27.26l-.28.33a.09.09,0,0,0,0,.07.16.16,0,0,0,0,.15.13.13,0,0,0,.13.08h.19a12,12,0,0,1,2.72-.8c.44,0,.88,0,1.24.06h.06a6,6,0,0,0,.88,0,5.32,5.32,0,0,0,.69,0c2.94,0,5.73-2.47,6.79-3.66a1.31,1.31,0,0,1,0,.62,3.12,3.12,0,0,1-.39.75l-.21.36-.17.33a.15.15,0,0,0,0,.07.15.15,0,0,0,0,.13.16.16,0,0,0,.14.07l.38-.06a4.46,4.46,0,0,0,3.12-1.79.11.11,0,0,0,0,0,4.81,4.81,0,0,0,.69-1.29A4.69,4.69,0,0,1,737,87c-.08.25-.13.43,0,.61l.09.09a.13.13,0,0,0,.11.05h.1a.56.56,0,0,0,.22-.06,4.93,4.93,0,0,0,1.83-1.8,9.6,9.6,0,0,0,.92-2.07,7.3,7.3,0,0,0,.3.9,3.62,3.62,0,0,1,.34,1.24.17.17,0,0,0,.14.14l.39,0a.15.15,0,0,0,.16-.12c.5-2.27,3.91-5.94,4.83-6.5a5,5,0,0,1-1,4.15c-.28.41-.43.64-.32.9a.45.45,0,0,0,.33.25h0a.06.06,0,0,0,.06,0h0a5,5,0,0,0,1.54-.62l.17-.12.13-.09.13-.08a7.88,7.88,0,0,0,1.48-1.47l.21-.27,0,0,.08-.09.08-.13a15.17,15.17,0,0,0,1.23-2.11,3.1,3.1,0,0,0,2.63,1.31c.44,0,.69-.09.79-.28a.16.16,0,0,0,.06-.08.34.34,0,0,0,0-.41,10,10,0,0,1-.56-1c.27.09.66.21,1.17.35a23,23,0,0,0,7.24,1c5.2-.31,8.7-2.6,11.26-4.27a8.47,8.47,0,0,1,3-1.55h.24c2,0,3.38,1.91,4.85,3.93,0,0,1.09,1.93,4.6,1.83a26.1,26.1,0,0,0,5.93-.94,2.4,2.4,0,0,0,.65.09,13.32,13.32,0,0,1,4.81,1.2l-.11.07A15.52,15.52,0,0,0,795,82.52a8.35,8.35,0,0,0-1.32,1.35,1.77,1.77,0,0,1-.45.34,4.42,4.42,0,0,1-2.45.37A6.5,6.5,0,0,1,789,84.1l-.24-.1a7.86,7.86,0,0,0-2.94-.73,5.22,5.22,0,0,0-3.05,1.07l-.25.1.07.13-.11-.11-.18.1-.11.08.09.12-.12-.1-.07.06-.16.14,0,0-.14.18,0,0-.12.18,0,0-.09.18,0,.07-.05.1.14.06-.16,0s0,.07,0,.11l0,.08-.06.18v0c0,.08,0,.15-.07.24s0,.15-.06.26l0,.21c0,.06,0,.12,0,.21,0,.25-.06.47-.07.65s0,.26,0,.32l0,.06v.05a.16.16,0,0,0,.05.18l.32.21a.15.15,0,0,0,.19,0,.4.4,0,0,0,.12-.21,3.5,3.5,0,0,1,1.14-1.46,4.51,4.51,0,0,0-.46.73,6.05,6.05,0,0,0-.62,2.58v.08s0,0,0,0v.23a.21.21,0,0,0,0,.11.15.15,0,0,0,.11,0h.39a.15.15,0,0,0,.15-.15v-.06a7,7,0,0,1,1.73-1.32,2.74,2.74,0,0,0-.36.48l.13.08-.16,0a3.24,3.24,0,0,0,0,3.16l0,.05a.15.15,0,0,0,.18.09l.08,0,.22,0h.08a.17.17,0,0,0,.12-.1,2,2,0,0,1,.7-.91,4.63,4.63,0,0,1,1.77-.7,8.07,8.07,0,0,0,1.86.22,4.54,4.54,0,0,0,2.73-.76c2.64-1.93,4.25-3.17,4.89-3.78a1,1,0,0,1-.06.78,3.38,3.38,0,0,1-.37.63,1.06,1.06,0,0,0-.12.18l-.16.3a.17.17,0,0,0,0,.07.15.15,0,0,0,0,.13.17.17,0,0,0,.13.07h.33a5,5,0,0,0,4.25-2.81,7.22,7.22,0,0,0,.49-1c1.1.66,1,1.22.91,1.58a.56.56,0,0,0,.09.54l.15.15a.13.13,0,0,0,.11,0,.16.16,0,0,0,.11,0l0,0,0,0,.14-.16c1.6-1.82,2.32-3.52,2.13-5.05a4.64,4.64,0,0,0,.63,0,3.11,3.11,0,0,0,2.41-1,2.59,2.59,0,0,0,.55-.88c.11-.27.14-.45.08-.57l-.05-.09a.14.14,0,0,0-.11-.09h-.1a5.34,5.34,0,0,1-3.57-1.7,3.19,3.19,0,0,1-.22-.36l.29,0c1.24.17,2.55.3,4.14.45,6,.59,12.74,1.25,15,4.38a5.64,5.64,0,0,1-.75.64,7.54,7.54,0,0,1-3.47,1.63l-.27,0-.18-.11a9.55,9.55,0,0,0-4.38-1.37,5.1,5.1,0,0,0-1.53.23,5.62,5.62,0,0,0-3.3,3.25l-.28.58a.22.22,0,0,0,0,.08.16.16,0,0,0,.05.14.15.15,0,0,0,.18,0l.55-.33a1.44,1.44,0,0,1,.69-.1,11.91,11.91,0,0,1,1.31.1l-.13.16-.08.1a1.64,1.64,0,0,0-.14.22l0,0a2.83,2.83,0,0,0,.31,2.93.49.49,0,0,1,.08.12.34.34,0,0,0,.56.16l.06-.06,0-.05a.24.24,0,0,0,0-.1A4.81,4.81,0,0,1,814.08,89a2.84,2.84,0,0,0-.25,1c-.05,1.1.48,2.5.88,2.65l.27.11a.11.11,0,0,0,.08,0,.11.11,0,0,0,.08,0,.15.15,0,0,0,.07-.12v-.3a.87.87,0,0,1,.13-.46c.66-1,3.29-1.32,4-1.33l.45,0a6.84,6.84,0,0,0,5.15-2.71l0,0,.11-.15a3.15,3.15,0,0,0,.22-.33l0,0a2.77,2.77,0,0,1,.49,1.66.51.51,0,0,0,.12.44l.07.07a.21.21,0,0,0,.1,0h.09a.37.37,0,0,0,.21-.07,4.25,4.25,0,0,0,2.17-3,5.08,5.08,0,0,0,.1-1.16,5.41,5.41,0,0,1,1.76,1.47c.33.37.53.59.8.59a.4.4,0,0,0,.31-.13l0,0h0l0,0a.16.16,0,0,0,0-.07v0a3.5,3.5,0,0,0-.34-2.75,4.91,4.91,0,0,0-.59-.86l.47-.05a4,4,0,0,0,2.65-1.31l.15-.18a6.33,6.33,0,0,0,.71-1.1l.1-.18h0a.11.11,0,0,0,.06-.07.18.18,0,0,0,0-.16Zm-2.1,2.13a3.3,3.3,0,0,1-1.55.54A2.29,2.29,0,0,1,828.85,81a.13.13,0,0,0-.07-.09.14.14,0,0,0-.11,0l-.37.1a.15.15,0,0,0-.11.18A3.47,3.47,0,0,0,829.53,83l-.07.11a.15.15,0,0,0,0,.21,4.17,4.17,0,0,1,1.15,1.25,3,3,0,0,1,.38,1.82l-.12-.13a5.88,5.88,0,0,0-2.57-1.82l-.31-.09a.15.15,0,0,0-.14,0l0,0a.15.15,0,0,0,0,.14l.07.32a4.29,4.29,0,0,1,.05.88,3.65,3.65,0,0,1-1.47,2.78,4.19,4.19,0,0,0-1-2.24c-.13-.16-.44-.21-.48.06l0,.12a3.18,3.18,0,0,1-.38.72l-.07.11a4.47,4.47,0,0,1-.35.41,6.26,6.26,0,0,1-4.39,2.11h-.4a11.19,11.19,0,0,0-2.57.42,2.79,2.79,0,0,0-.74-1.78,17.47,17.47,0,0,1,2.25-.2,3.13,3.13,0,0,0,2.65-.94.15.15,0,0,0,0-.21l-.29-.25a.15.15,0,0,0-.11,0,.12.12,0,0,0-.1,0c-.54.63-1.08.65-2.17.7a19.39,19.39,0,0,0-2.37.22l-.33,0a2.64,2.64,0,0,0-1,.21,4,4,0,0,0-2,1.86,2,2,0,0,1-.23-1.64,2.53,2.53,0,0,1,.12-.23l.06-.09a.77.77,0,0,1,.09-.13,3.23,3.23,0,0,1,.6-.56,5.48,5.48,0,0,1,3.15-1.31c.69,0,1.15-.71,1.28-.93a.11.11,0,0,0,0-.11.14.14,0,0,0-.07-.1l-.34-.18a.11.11,0,0,0-.11,0,.13.13,0,0,0-.09.07c-.09.16-.39.57-.77.58a13,13,0,0,0-2.6.91,7.54,7.54,0,0,0-1.29-1.57l0,0a4.08,4.08,0,0,1,2.19-.61,9,9,0,0,1,4.08,1.28l.23.13a2,2,0,0,0,.51.06A7.93,7.93,0,0,0,823,83.74a6.51,6.51,0,0,0,1.22-1.06.5.5,0,0,0,.06-.55c-2.33-3.55-9.39-4.24-15.66-4.86-1.45-.14-2.83-.28-4.09-.44-9.16-.87-12.33-4.54-13.38-5.75-.27-.31-.4-.45-.59-.5a2.25,2.25,0,0,0-.4,0c-2.68,0-12.53,3.22-13.23,3.45a4.92,4.92,0,0,0-.71.11,8.48,8.48,0,0,0-3.31,1.63c-2.5,1.63-5.93,3.86-11,4.15a24.51,24.51,0,0,1-8.74-1.54,5.6,5.6,0,0,1,0-3.49,4,4,0,0,0,.49,0c.37,0,1.6-.38,1.57-.84v-.15a.15.15,0,0,0-.12-.14l-.15,0c-.91-.18-1.15-1.38-1.19-2.36a1.79,1.79,0,0,0,1.49.74,4,4,0,0,0,2.38-1,.5.5,0,0,0,.19-.49l-.09-.28a.18.18,0,0,0-.11-.1.16.16,0,0,0-.13,0l-.23.19a.42.42,0,0,1-.4.13c-.59-.27-1.06-2.22-1.31-4a2.33,2.33,0,0,0,.93.42,2.68,2.68,0,0,0,2.17-.42.39.39,0,0,0,.08-.42l0-.08a.15.15,0,0,0-.08-.08l-.07,0a2.6,2.6,0,0,1-1.76-2.13,2.44,2.44,0,0,0,1.05.76,1.87,1.87,0,0,0,.66.11,2,2,0,0,0,.76-.14l.23-.12a.15.15,0,0,0,.09-.1.16.16,0,0,0,0-.1c2.3,1.11,7.8,3.47,12.91,3.47a13.38,13.38,0,0,0,2.29-.18c.14,0,.61-.08,2.29-.4,4.54-.86,15.15-2.87,20.59-2.87a13.42,13.42,0,0,1,1.47.07c.33,0,.65,0,1,0a32.19,32.19,0,0,1,10.37,2l.1,0c.45,0,2.72,0,3.69-.94a1.32,1.32,0,0,0,.48-.85,4.35,4.35,0,0,0-1.56-3.88,3.27,3.27,0,0,0,.31-.66c2.34.16,3.18,1.37,3.4,1.78a.82.82,0,0,0,.06.25c0,.13.13.38.4.38h.11a.17.17,0,0,0,.13-.07l0-.1,0,0a.59.59,0,0,0,.09-.41,2,2,0,0,0-.07-.37,3.9,3.9,0,0,1,2.16-.92,1.53,1.53,0,0,0,1-.66l0,0,0,0a.83.83,0,0,0,.07-.13,2.27,2.27,0,0,1,.19,1.52,3.58,3.58,0,0,1-.39,1,11.82,11.82,0,0,1-3.7,3.53h-.62a.15.15,0,0,0-.14.1l0,0a.14.14,0,0,0,.07.17l.6.37a4.27,4.27,0,0,0,3.65.68,5.23,5.23,0,0,1-1.32,1.62l-.71.41-.35.12a3.2,3.2,0,0,1-.83.11,7.18,7.18,0,0,1-3.84-1.64l-.08-.06-.2-.14-.06,0a44.29,44.29,0,0,0-8.72-1.46.18.18,0,0,0-.1,0,.17.17,0,0,0-.09.11l-.08.38a.16.16,0,0,0,.1.17A34.57,34.57,0,0,1,815.62,74c4.79,3.77,8.63,4.06,9.69,4.06a3.46,3.46,0,0,0,1.45-.24,2.15,2.15,0,0,1,1-.34c.31,0,.8.14,1.53,1.4l.09.09a2.44,2.44,0,0,1,.26.3,4.24,4.24,0,0,0,3.22,1.87,4,4,0,0,0,1-.13A9.26,9.26,0,0,1,832.71,82.13Zm-49.32,5.2a.81.81,0,0,1,.5,0,1.16,1.16,0,0,1,.52.77,8.72,8.72,0,0,0-2,1.23,4.65,4.65,0,0,1,.85-2Zm1.77,1.8v.06a.16.16,0,0,0,.17.13h.2a1.4,1.4,0,0,1,1,.32,1.14,1.14,0,0,1,.25.88,5.1,5.1,0,0,0-1.95.8,3,3,0,0,0-.69.61,2.38,2.38,0,0,1,0-1.69,1,1,0,0,1,.11-.21A2.86,2.86,0,0,1,785.16,89.13Zm-3-3.71.14.06a1.46,1.46,0,0,1,.16-.19l.11-.09h0a.14.14,0,0,0,.11,0h0c.12,0,.4,0,.49.49l0,0a4.47,4.47,0,0,0-1.42,1s0-.08,0-.11,0-.09,0-.16l0-.14.09-.23,0-.06a2.12,2.12,0,0,1,.13-.27,1.76,1.76,0,0,1,.14-.23l-.11-.09Zm-61.5-2.62a7,7,0,0,0-1.56.42l-.1,0,.06-.1a4,4,0,0,1,1.41-1.33h0A1.65,1.65,0,0,0,720.69,82.8Zm-6.16-29.5A5,5,0,0,0,712.27,51a7.36,7.36,0,0,1,3.49.74l.18.15C715.42,53.11,714.81,53.29,714.53,53.3Zm4.44-6a7.21,7.21,0,0,1,2.37,2.75,5.67,5.67,0,0,1-1.86.29c-.31,0-.59,0-.8,0,.75-.45.53-1.65.36-2.62C719,47.58,719,47.44,719,47.31Zm86.54,9.35c-5.1-5.83-17.14-6-22.28-6.11h-.08c-.79,0-1.4,0-1.77,0s-.67,0-1.1,0c-3.69,0-12.17,1.07-15.06,3.52a2.71,2.71,0,0,0-1.06,1.84,3,3,0,0,0,1.63,2.77,10.85,10.85,0,0,0,5,1.1,3.89,3.89,0,0,0,1.09-.1l.11-.06a.13.13,0,0,0,.07-.13v-.24A.14.14,0,0,0,772,59l-.12,0c-1.57-.63-1.61-2.53-1.5-3.55a14.88,14.88,0,0,0,8.88,2.84,8.47,8.47,0,0,0,2.39-.25l.15-.08a.16.16,0,0,0,.08-.13v-.25a.17.17,0,0,0-.09-.14l-.11,0c-1.16-.54-1.79-1.2-1.83-1.92a1.7,1.7,0,0,1,.37-1.1l.35.31a10.72,10.72,0,0,0,5.21,2.66,14.65,14.65,0,0,0,3.65.48,15.78,15.78,0,0,0,2.7-.26l.21,0,.82-.15c.26-.06.21-.35.21-.35s-.18-.22-.26-.24c-1.13-.22-1.53-.51-1.66-.72a1,1,0,0,1,0-.81,3.19,3.19,0,0,0,.09-.65,72.2,72.2,0,0,0,13.93,3.15,8,8,0,0,1,.89,1.53c-1.34-.09-5-.29-9.33-.29h-1.72a57.77,57.77,0,0,0-12.6,1.17,55.4,55.4,0,0,1-10.23,1c-4.38,0-7.5-.62-9.27-1.86a3.47,3.47,0,0,1-1.6-3.14V56c0-.12,0-.24,0-.36l0-.1a3.83,3.83,0,0,1,.1-.45c1.56-5.14,13.74-6.5,20-6.5.62,0,1.22,0,1.76,0h.12c1.45,0,15.56,2.78,16,3a11.4,11.4,0,0,0,3.22.35c1.64,0,4.57-.22,5.83-1.72s4.48-2.7,7.29-2.7a6.09,6.09,0,0,1,2.52.47l.12,0a6.36,6.36,0,0,0,2.45-.57,4.43,4.43,0,0,1-.52,1.25c-.74,1.06-2.08,1.6-4,1.6h-.34c-.71.14-1.5.37-2.27.59s-1.34.39-1.87.5l-.53.09-.16.06a.16.16,0,0,0-.09.18v0a.76.76,0,0,0,0,.15l0,.18a.14.14,0,0,0,.15.13h.32a4.18,4.18,0,0,0,.51-.1,21.35,21.35,0,0,1,2.83-.19c2.79,0,6.43.55,8.14,3.14H823a19.71,19.71,0,0,0-5.67.81,6.42,6.42,0,0,1-2.19.5c-1.16,0-2.35-.58-4.39-2.11l0-.06a.16.16,0,0,0-.08-.06.68.68,0,0,0-.42,0c-2.28.71-3.92.62-4.72-.23a.15.15,0,0,0-.1,0,.15.15,0,0,0-.11,0l-.28.27a.12.12,0,0,0,0,.1.21.21,0,0,0,0,.11,3.92,3.92,0,0,0,3.52.84l.46.24s3.52,1.81,3.86,3.34a3,3,0,0,1-1,2.38,2.39,2.39,0,0,0-1.25-2.6.48.48,0,0,0-.62.24l0,0a.15.15,0,0,0,0,.07h0v.09A5.43,5.43,0,0,1,807.8,64,9.62,9.62,0,0,0,805.51,56.66ZM780.9,54.22Zm9.71-.56-.15.36a.15.15,0,0,0,.08.19c.35.17.36.3.23.84a1.66,1.66,0,0,0,.1,1.35,1.76,1.76,0,0,0,.6.53,13.53,13.53,0,0,1-2.05.16,14.16,14.16,0,0,1-3.47-.46,10,10,0,0,1-4.92-2.5l0,0a3.65,3.65,0,0,0-.66-.52c-.4-.16-.78.46-1,.83-.25.56-.61,1.92,1.18,3.1a10.54,10.54,0,0,1-1.27.06,14,14,0,0,1-8.93-3.06l-.24-.21a.2.2,0,0,0-.15,0,.18.18,0,0,0-.1.11l-.07.31s-.61,2.84.9,4.31a8.94,8.94,0,0,1-4.91-1.26,2.24,2.24,0,0,1-.93-1.9,2,2,0,0,1,.82-1.34c2.75-2.35,11-3.36,14.58-3.36.42,0,.78,0,1.07,0s1.1,0,1.9,0c5,.09,16.63.28,21.62,5.71a72,72,0,0,1-14-3.37A.15.15,0,0,0,790.61,53.66Zm18.47,10.19.1-.1,0,0c.06-.07.13-.14.19-.22a5.77,5.77,0,0,0,1.27-3.92l.05.06a2.52,2.52,0,0,1,.27,2.26l0,.16a.14.14,0,0,0,.08.16l.18.08.14,0a.88.88,0,0,0,.44-.17,2.63,2.63,0,0,0,.49-.36c.1-.09.2-.2.32-.33a3.29,3.29,0,0,1,1.4,3.08.62.62,0,0,1-.23.4,6.37,6.37,0,0,1-3.15.72,27.73,27.73,0,0,0-2.72-.88A5.32,5.32,0,0,0,809.08,63.85Zm-62,15.09-.07-.1a.53.53,0,0,0-.52-.11c-1,.29-3.94,3.51-5.1,6l-.08-.21,0-.06a3.44,3.44,0,0,1,0-2.88.15.15,0,0,0-.06-.17l-.32-.2a.14.14,0,0,0-.14,0l-.06,0a4.52,4.52,0,0,0-.81,1.8,10.9,10.9,0,0,1-1.09,2.62,4.25,4.25,0,0,1-.9,1,6,6,0,0,0-.38-3.6.16.16,0,0,0-.18-.09l-.37.1,0,0a.14.14,0,0,0-.1.16,4.17,4.17,0,0,1-.82,2.54,3.68,3.68,0,0,1-1.9,1.33,2.6,2.6,0,0,0,.26-.71,2,2,0,0,0-.23-1.46l0-.07h0l-.06-.11s-.12-.31-.58-.27l-.12,0a.24.24,0,0,0-.1.23.43.43,0,0,0,.06.18l.08.12c-.69.85-3.53,3.64-6.42,3.64-.22,0-1.13-.06-1.41-.08l-.32-.13a1.39,1.39,0,0,1-.83-1.72.17.17,0,0,0,0-.12.16.16,0,0,0-.09-.07l-.38-.11h0a2.37,2.37,0,0,1,.53-.25l0,0,.22-.06a5.48,5.48,0,0,1,1.26-.17,5.57,5.57,0,0,0,4-1.07.12.12,0,0,0,.05-.1.15.15,0,0,0,0-.11l-.26-.29a.15.15,0,0,0-.21,0,4.87,4.87,0,0,1-3.05.91,4.27,4.27,0,0,1-.49,0,5.93,5.93,0,0,1-1-.09,4.13,4.13,0,0,0-1.44-.26,7.68,7.68,0,0,0-1.41.18A2.34,2.34,0,0,1,721,84a3.39,3.39,0,0,1,2.34-.78,8.1,8.1,0,0,1,2.2.33.15.15,0,0,0,.13,0,.24.24,0,0,0,.08-.09l.12-.37a.25.25,0,0,0,0-.12.2.2,0,0,0-.09-.07,8.93,8.93,0,0,0-2.42-.37,15,15,0,0,0-1.86.25,1.23,1.23,0,0,1-.26-.81,1.27,1.27,0,0,1,.3-.52,10.87,10.87,0,0,1,2.12-.31c1.28-.16,4.35,1.08,4.88,1.35l0,0a1.28,1.28,0,0,0,.88.2,9.24,9.24,0,0,0,2.42-.8l.06,0,.33-.16.31-.16.1-.06c4-2.14,8-6.46,9.13-7.73a1.86,1.86,0,0,1,0,1.12.49.49,0,0,0,.24.65l.07,0a.21.21,0,0,0,.11,0l.07,0a4.59,4.59,0,0,0,2.47-1.69,3.92,3.92,0,0,0,3.06,3.57,2.42,2.42,0,0,0,.43,0c.38,0,.52-.16.58-.3s.07-.39-.33-.63c-.93-.57-1-.74-.6-1.75a2.59,2.59,0,0,0,1.31-1.06,3.31,3.31,0,0,0,1.06,1.61.5.5,0,0,0,.14.1.16.16,0,0,0,.2,0l.22-.32a.16.16,0,0,0,0-.21l0,0c-.12-.12-.21-.52.43-1.91a2.68,2.68,0,0,0,1.37,1.77,6.17,6.17,0,0,0,0,3.7.17.17,0,0,0,0,.07l.11.38a7.08,7.08,0,0,0,.66,1.51A3.11,3.11,0,0,1,752,80a1.53,1.53,0,0,1-.91-1.18v-.09a.14.14,0,0,0-.07-.1l-.15-.1a.17.17,0,0,0-.12,0l-.09,0c-.19.06-.25.18-.52.72-.12.26-.29.6-.5,1a7.66,7.66,0,0,1-3.5,3.65l0,0A5.61,5.61,0,0,0,747.05,78.94Zm-23.38,7.61v0a2.21,2.21,0,0,0,.37,2,5.13,5.13,0,0,0-1.68.23A3.3,3.3,0,0,1,723.67,86.55Zm-2.39-1.14a6.36,6.36,0,0,0-1.2.83,4.66,4.66,0,0,1,.11-.94,2.34,2.34,0,0,1,.29-.77A2,2,0,0,0,721.28,85.41Zm12.09-17.34a.73.73,0,0,1,.25,0,.16.16,0,0,0,.18-.09l.15-.36a.11.11,0,0,0,0-.08.14.14,0,0,0-.08-.15,1.21,1.21,0,0,0-.56-.13,3.57,3.57,0,0,0-1.33.39,5,5,0,0,1-2,.52,4.11,4.11,0,0,1-1.71-.39l-.12,0H728l0,0a3.57,3.57,0,0,0-1.5-.36,3.07,3.07,0,0,0-1.46.37,2.17,2.17,0,0,1,.71-1.4,1.65,1.65,0,0,1,.43-.26.51.51,0,0,0,.23-.12l0,0,0,0a.15.15,0,0,0,0-.18l-.22-.31a.16.16,0,0,0-.18-.06l0,0a6,6,0,0,1-1.14.09,8.08,8.08,0,0,1-3.88-.91c1.81.1,2.86-.21,3-.93l-.13-.06h0l.14,0s0,0,0,0a.09.09,0,0,0,0-.05h0a.15.15,0,0,0-.13-.15l-.14,0,0,0a.16.16,0,0,0-.19-.09h-.13c-.64,0-3.23-.38-4.24-2.26l-.05-.07a4.2,4.2,0,0,0-1.86-1,1.67,1.67,0,0,1,1.11.07l.6.4.09,0a.14.14,0,0,0,.15-.15.13.13,0,0,0,0-.06.2.2,0,0,0,0-.07l-1.32-2.88a.14.14,0,0,0-.13-.08h-.13c-2.29,0-2.74-.93-2.88-1.29a4.28,4.28,0,0,0,.09-1,3.68,3.68,0,0,0-.09-.82,2.46,2.46,0,0,0,1.72-1.59l.1.11c.11.14.21.29.3.42a1.61,1.61,0,0,0,.48.84.38.38,0,0,0,.22.18.56.56,0,0,0,.33.13h.15a.16.16,0,0,0,.13-.09l.05-.12c.08-.16,0-.36-.35-.88a3.56,3.56,0,0,1,.41-2,7.12,7.12,0,0,0,1.19.09,6.58,6.58,0,0,0,2-.29c0,.54.07,1.68.16,2.28a.23.23,0,0,0,0,.07c0,.11,0,.17,0,.19a.13.13,0,0,0,0,.08.35.35,0,0,0,.08.15l.15.14a.16.16,0,0,0,.11.05.24.24,0,0,0,.11-.06l.13-.16a.27.27,0,0,0,.08-.16v-.1a.09.09,0,0,0,0,0,1.42,1.42,0,0,0,0-.21v0a.52.52,0,0,1,.15-.28,3.14,3.14,0,0,1,1.62-.76,3.79,3.79,0,0,0,2,1.85,6.88,6.88,0,0,1-1.33,1.78c-1,.52-1.87.93-2,1.67v0a1.79,1.79,0,0,0,.71,1.48c1.94,1.95,7,3.44,10.91,4.35,1.41.34,2.58.58,3.18.7a1.62,1.62,0,0,1-.55.43l-.09,0a.15.15,0,0,0-.08.11l-.05.24a.15.15,0,0,0,.07.16l.11.07a.85.85,0,0,0,.51.1,7,7,0,0,0,2.16-.41c-.49,1.2-1.49,3.41-2.6,4.19l-.11.11a.16.16,0,0,0,0,.14l0,.12c.05.25.35.43.92.56a3.88,3.88,0,0,0,.79.08,3.53,3.53,0,0,0,1-.15,3.71,3.71,0,0,0-.22.55,9,9,0,0,0-2.88-.46,11.67,11.67,0,0,0-5,1.18C731.85,69.87,732.46,68.07,733.37,68.07Zm6.49,3.05,0-.12a1.74,1.74,0,0,1,.05-.22,4.21,4.21,0,0,0,.12-.42,6.41,6.41,0,0,1,.87-1.69l.08-.09,0-.06a.2.2,0,0,0,0-.11.17.17,0,0,0-.06-.1l-.3-.25a.17.17,0,0,0-.21,0l-.11.14a2.26,2.26,0,0,1-1.57.78,3.11,3.11,0,0,1-1-.09,15.42,15.42,0,0,0,2.79-5c.26-.75.2-1,.12-1.09a.24.24,0,0,0-.2-.11h0a.4.4,0,0,0-.35.33l0,.06a.15.15,0,0,0,0,.07c0,.09-.07.22-.13.38v0a4.44,4.44,0,0,1-1.88.61,3.37,3.37,0,0,0,.53-1,6,6,0,0,0,.38-1.54l.05-.33c0-.26.09-.52.14-.75l.06-.23a6,6,0,0,1,1.44-2.15l.3-.27a.17.17,0,0,0,0-.12.25.25,0,0,0,0-.08.14.14,0,0,0-.12-.1l-.4-.07s-1.26-.22-1.75-2.43a4.07,4.07,0,0,1,2-.76,1.58,1.58,0,0,1,.28,0h.1a.12.12,0,0,0,.1,0l.06-.06a.39.39,0,0,0,.1-.25,1.38,1.38,0,0,0,0-.33,4.22,4.22,0,0,1,0-.81v0s0-.09,0-.13a1,1,0,0,1,.23-.5,1.48,1.48,0,0,1,1.34-.27h.16c.19-.06.26-.22.36-.46.2-.44.54-1.18,1.22-1.18a2,2,0,0,1,1.09.43l.07,0a.15.15,0,0,0,.13,0l.09,0c.13,0,.21-.12.33-.26a1.47,1.47,0,0,1,1.07-.66,2,2,0,0,1,1.3.67l.06.06a.15.15,0,0,0,.1,0H749a.48.48,0,0,0,.25-.09,2.8,2.8,0,0,1,1.29-.43c.54,0,.91.3,1.17.94a.05.05,0,0,0,0,0l.1.12a.13.13,0,0,0,.11.06h.09a.67.67,0,0,0,.27-.07l-.05-.14.09.12a3.69,3.69,0,0,1,1.17-.26c.68,0,1,.4,1.14,1.27v.06a.15.15,0,0,0,0,.07l0,.05c.17.2.45.22.81.24a1.6,1.6,0,0,1,1.22.4,1.77,1.77,0,0,1,.11,1.39l0,.15a.15.15,0,0,0,.08.17l.14.06a1.33,1.33,0,0,1,.54.56,1,1,0,0,0-.24,0,4.73,4.73,0,0,0-2.92,1.36.21.21,0,0,0,0,.11.13.13,0,0,0,0,.1l.27.28a.14.14,0,0,0,.11.05.12.12,0,0,0,.1,0,4.11,4.11,0,0,1,2.59-1h.12l.16,0a4.09,4.09,0,0,1-.3.58,4.52,4.52,0,0,1-1.3,1.41l-.1.06a.08.08,0,0,0,0,0,.17.17,0,0,0-.07.13v.11c0,.21.16.32.39.48a3.44,3.44,0,0,1,1.71,3.54,7.47,7.47,0,0,0,.13.92l.27.57a1.31,1.31,0,0,1-.43-.08,2.57,2.57,0,0,1-1.31-1.45.16.16,0,0,0-.2-.08l-.35.17a3.3,3.3,0,0,0,1.49,3.71,2.61,2.61,0,0,1-1.08,0,1.56,1.56,0,0,1-1.23-1.22.16.16,0,0,0-.17-.11l-.38.05a.15.15,0,0,0-.13.15s.32,4.89,1.7,5.89a2.38,2.38,0,0,1-1.46.28c-.57-.13-1-.7-1.12-1.69v-.06a.13.13,0,0,0,0-.08l0-.27a.17.17,0,0,0-.06-.1.15.15,0,0,0-.11,0l-.39,0a.21.21,0,0,0-.1.06.14.14,0,0,0,0,.11l0,.35c-.1.84-.3,3.41,1,4.37a2,2,0,0,1-1.22,0c-.64-.25-1.07-1-1.29-2.23a.15.15,0,0,0,0-.12l0-.09a.14.14,0,0,0-.07-.08l-.42-.2a.16.16,0,0,0-.15,0,.17.17,0,0,0-.06.15l0,.31c0,.08-.1.21-.16.34A8.71,8.71,0,0,0,750,74a4,4,0,0,1-.37-1.63,3.45,3.45,0,0,0,0-.66.15.15,0,0,0-.14-.15h-.39a.14.14,0,0,0-.15.11,4.19,4.19,0,0,0,0,.72,2.1,2.1,0,0,1-1.46,1.84l-.1,0a.15.15,0,0,0-.09.1l0,.09c-.35,1-.47,1.57.09,2.16a3.74,3.74,0,0,1-.54-.3,3.3,3.3,0,0,1-1.42-3c.25-.48,1-2.25,1.07-2.33a.14.14,0,0,0,0-.11.24.24,0,0,0-.08-.09l-.36-.16a.16.16,0,0,0-.2.08c-.11.25-.35.79-.58,1.29a4.23,4.23,0,0,0-.43-1.78.16.16,0,0,0-.2-.06l-.34.18a.19.19,0,0,0-.06.21A3.48,3.48,0,0,1,744.4,73a3.27,3.27,0,0,1-1.87,1.68,3.33,3.33,0,0,0-.32-1.74c-.32-1.12.24-3.3,1.12-3.63a.14.14,0,0,0,.09-.19l-.13-.36a.16.16,0,0,0-.07-.09.13.13,0,0,0-.12,0c-1,.34-1.54,1.8-1.64,3.1a.12.12,0,0,0-.05,0l-.06.09h0s0,0,0,0l-.1.08-.08.06-.09.07-.26.24,0,0-.26.28a4.12,4.12,0,0,0-.53.88A5.46,5.46,0,0,1,739.86,71.12Zm-15-19.31a1.44,1.44,0,0,0,.94-.6,6.49,6.49,0,0,0,.86-1.49l0,0a4.89,4.89,0,0,1-.26,3.42A2.86,2.86,0,0,1,724.83,51.81Zm65.52,20.84a9.93,9.93,0,0,0-4.39,1.1l-.32.15a10.54,10.54,0,0,0-2.27-1.11,33.27,33.27,0,0,1,6.76-1.56h.24l.27.3a14.88,14.88,0,0,0,1.19,1.24A9.35,9.35,0,0,0,790.35,72.65ZM811.85,85a10.41,10.41,0,0,1,1.2,1.41h0a15.55,15.55,0,0,0-1.93-.15h-.44a5.36,5.36,0,0,1,1.14-1.4v0A.15.15,0,0,0,811.85,85Zm2.79,4.47a1.36,1.36,0,0,1,.11-.28l0-.06a.91.91,0,0,1,.11-.16l.12-.12.11-.09.11-.07h0a2,2,0,0,1,.82,1.73v0a2.76,2.76,0,0,0-1.29,1A3.54,3.54,0,0,1,814.64,89.47ZM740.9,73.32l.08-.1a.76.76,0,0,1,.11-.14l.15-.16,0,0,.05-.06.1-.08c0,.07.05.15.07.24l-1,1.07A3.07,3.07,0,0,1,740.9,73.32ZM796.09,86.2a48,48,0,0,1-5,3.89,3.72,3.72,0,0,1-2.28.65,6.69,6.69,0,0,1-1.31-.14,1.79,1.79,0,0,0-.45-1.45,1.72,1.72,0,0,0-1-.48,14.73,14.73,0,0,1,5-.93.14.14,0,0,0,.14-.14v-.43a.16.16,0,0,0-.14-.16s-.36,0-.83,0a15.05,15.05,0,0,0-5.17.88,1.77,1.77,0,0,0-.85-1.13l-.24-.09a4.17,4.17,0,0,1,3-.65l.22,0a.19.19,0,0,0,.12,0,.15.15,0,0,0,0-.11v-.09l0-.29a.15.15,0,0,0-.11-.16l-.15,0A5.71,5.71,0,0,0,786,85.2a7.34,7.34,0,0,0-2.1.3,1.32,1.32,0,0,0-.44-.74,4.46,4.46,0,0,1,2.41-.74,7.8,7.8,0,0,1,2.7.65l.12,0a7,7,0,0,0,2.08.59l.6,0a4.6,4.6,0,0,0,2.28-.53l.26-.17a2.23,2.23,0,0,0,.4-.35A8,8,0,0,1,795.56,83a13.27,13.27,0,0,1,2-1.35c.52-.3.73-.42.81-.63l.06-.16a.13.13,0,0,0,0-.06h0a.15.15,0,0,0-.08-.18l-.16-.08A14.1,14.1,0,0,0,792.6,79c-.09,0,0,0-.08,0l.05-.09a.16.16,0,0,0-.06-.12.2.2,0,0,0-.13,0l-.47.15a23.17,23.17,0,0,1-5.92,1c-2.7,0-3.48-1-3.82-1.36a.93.93,0,0,0-.33-.3c-1.11-1.52-2.25-3.07-3.72-3.74,1.35-.45,2.8-.91,4.13-1.32a.1.1,0,0,0,0,0,11.66,11.66,0,0,1,3.07,1.39l0,0,.09,0h.06a1.94,1.94,0,0,0,.7-.25,9.18,9.18,0,0,1,4.09-1c.71,0,2.32.16,2.32.16a21.58,21.58,0,0,0,10.63,3.88h0a.17.17,0,0,0,0,.1,2.9,2.9,0,0,0,.67,1.09,5.72,5.72,0,0,0,3.41,1.76,2.43,2.43,0,0,1-.7.8,2.61,2.61,0,0,1-1.53.44,4.84,4.84,0,0,1-1.06-.13H804a.14.14,0,0,0-.11.06l-.05.07a.43.43,0,0,0,0,.42c.28,1.18-.14,2.54-1.26,4a2.79,2.79,0,0,0-1.68-1.68l-.28-.17a.16.16,0,0,0-.15,0l-.06.06a.29.29,0,0,0,0,.09v.26c0,.13-.82,3.08-3.49,3.62a2.85,2.85,0,0,0,.18-.41,1.55,1.55,0,0,0-.27-1.71l-.06-.07a.15.15,0,0,0-.11,0,.1.1,0,0,0-.1,0l-.11.1,0,0A.15.15,0,0,0,796.09,86.2ZM824,55.5Z" fill="#231f20"/>
        </g>
      </g>
      <g>
        <path d="M751.42,54.1l-.1,0a.29.29,0,0,1-.18-.37l.3-.86a.29.29,0,0,1,.37-.18A.29.29,0,0,1,752,53l-.3.86A.29.29,0,0,1,751.42,54.1Z" fill="#231f20"/>
        <path d="M750.26,53.92h0a.3.3,0,0,1-.23-.34l.18-.92a.29.29,0,0,1,.57.11l-.18.92A.29.29,0,0,1,750.26,53.92Z" fill="#231f20"/>
        <path d="M749.29,53.75a.29.29,0,0,1-.29-.29v-1a.29.29,0,0,1,.58,0v1A.29.29,0,0,1,749.29,53.75Z" fill="#231f20"/>
        <path d="M748,53.63a.29.29,0,0,1-.29-.27l-.05-1a.3.3,0,0,1,.28-.3.28.28,0,0,1,.3.28l0,1a.29.29,0,0,1-.28.3Z" fill="#231f20"/>
        <path d="M746.91,53.81a.29.29,0,0,1-.28-.22l-.23-.93a.29.29,0,0,1,.21-.35.28.28,0,0,1,.35.21l.23.93a.29.29,0,0,1-.21.35Z" fill="#231f20"/>
        <path d="M745.64,54.1a.29.29,0,0,1-.27-.2l-.35-1a.29.29,0,1,1,.54-.19l.35,1a.28.28,0,0,1-.17.37Z" fill="#231f20"/>
        <path d="M752.47,54.56a.31.31,0,0,1-.13,0,.28.28,0,0,1-.12-.39l.45-.88a.3.3,0,0,1,.39-.12.29.29,0,0,1,.13.39l-.46.88A.28.28,0,0,1,752.47,54.56Z" fill="#231f20"/>
        <path d="M744.59,54.68a.28.28,0,0,1-.25-.16l-.52-1a.29.29,0,1,1,.51-.27l.52,1a.3.3,0,0,1-.12.39A.35.35,0,0,1,744.59,54.68Z" fill="#231f20"/>
      </g>
      <path d="M754.78,57.54a.14.14,0,0,0-.17-.12l-.38.07a.17.17,0,0,0-.1.06.17.17,0,0,0,0,.12,7.59,7.59,0,0,1-1.23,5.54l0,.09a16.21,16.21,0,0,0-.55,3.6,8.71,8.71,0,0,1-2.38,2.29c.15-.39.28-.78.37-1.08a7.94,7.94,0,0,0,1-.49l.09-.05a.13.13,0,0,0,.08-.11v-.11s.41-5.35,2.29-7.74a.13.13,0,0,0,0-.14l-.16-.44a.17.17,0,0,0-.12-.1h0l-.06,0c-.13,0-.17,0-.23,0h0L753,59l0,0a7.25,7.25,0,0,1-3.28,2.73h0a.91.91,0,0,1-.59-.39.88.88,0,0,1-.07-.52l0,0,.07-.08.16-.1c.22-.13.59-.34.57-.76l.14-.32s0,0,0,0a2.14,2.14,0,0,0,.06-1.31c.68,0,2.05-.11,2.4-1l1.16-1.15a.18.18,0,0,0,0-.13c0-.15-.13-.41-.56-.41a3.51,3.51,0,0,0-.7.11,2.41,2.41,0,0,1-.35.07,3.63,3.63,0,0,1-1.46-.19,5.38,5.38,0,0,0-1.22-.21,1.31,1.31,0,0,0-1,.36.12.12,0,0,0,0,.14.16.16,0,0,0,.1.11l.34.1a2.52,2.52,0,0,0,.24,1.91.86.86,0,0,0,.14.13l.14.17a1.45,1.45,0,0,1,.1.84,2,2,0,0,1-1.67.47h-.32a1.41,1.41,0,0,1-.66-.12l-.32-.13a.14.14,0,0,0-.15,0,.14.14,0,0,0,0,.15l.09.34c.08.27.2.68.65.74a.39.39,0,0,1,.32.24.77.77,0,0,0,.39.39c.19.12,0,.59-.28.57a6.69,6.69,0,0,1-3.82-2.82.16.16,0,0,0-.2,0l-.33.21a.15.15,0,0,0-.05.2,8.65,8.65,0,0,0,.82,1.06.11.11,0,0,0,0,0s1.79,4.86,1.11,6.33l0,.08a.15.15,0,0,0,0,.13l0,.09a3.9,3.9,0,0,0,1.79,1.47,9.55,9.55,0,0,0,.31,1.05,6,6,0,0,1-2.58-2.1c.18-1.57-1.24-3.84-1.53-4.29a.18.18,0,0,0-.1-.07.11.11,0,0,0-.11,0l-.32.21a.16.16,0,0,0-.05.21c.57.87,1.6,2.8,1.41,3.91v.06a.17.17,0,0,0,0,.07v.05a6,6,0,0,0,3.62,2.73,1.34,1.34,0,0,0,.79.73l.14,0c.38,0,.73-.3,1.08-.91A8.08,8.08,0,0,0,753,67.1v0a.13.13,0,0,0,0-.06v0a14,14,0,0,1,.5-3.41A8.18,8.18,0,0,0,754.78,57.54Zm-4,5.47a2.57,2.57,0,0,1,.09-1,7.84,7.84,0,0,0,1.32-1,23.12,23.12,0,0,0-1.41,6.13l-.15.07A13.35,13.35,0,0,0,750.75,63Zm.4-6.55a8.85,8.85,0,0,0,1-.07l.2,0-.46.46a.16.16,0,0,0,0,.07v0a.69.69,0,0,1-.48.42v0a2,2,0,0,0-.21-.85Zm-1.68-.27.29.08a2.09,2.09,0,0,0-.3.89A3.46,3.46,0,0,1,749.47,56.19Zm-3.79,10.64c.42-1.28-.22-3.78-.75-5.47a4.42,4.42,0,0,0,1.22.75l.24.22a26.36,26.36,0,0,0,.18,5.17l0,.13A3.68,3.68,0,0,1,745.68,66.83Zm2.84-5.34a1.27,1.27,0,0,0,.06.18,1.18,1.18,0,0,0,.26.29l-.3,0-.23-.08-.08,0A.66.66,0,0,0,748.52,61.49Zm1.14,6.3,0,0c-.77,2.49-1.23,2.57-1.27,2.57-.33-.07-.86-1.51-1.12-3a31.93,31.93,0,0,1-.24-4.73,2.86,2.86,0,0,0,1.13.3v3.44a.15.15,0,0,0,.15.15h.39a.15.15,0,0,0,.15-.15V63a4.65,4.65,0,0,0,1.21-.22q0,.14,0,.33a15.23,15.23,0,0,1-.34,4.51Z" fill="#231f20"/>
    </g>
  </g>
</svg>
