<?xml version="1.0" encoding="utf-8"?>
<!-- Generator: Adobe Illustrator 22.0.1, SVG Export Plug-In . SVG Version: 6.00 Build 0)  -->
<svg version="1.1" id="Layer_1" xmlns="http://www.w3.org/2000/svg" xmlns:xlink="http://www.w3.org/1999/xlink" x="0px" y="0px"
	 viewBox="0 0 116.9 110.4" style="enable-background:new 0 0 116.9 110.4;" xml:space="preserve">
<style type="text/css">
	.st0{opacity:0.2;}
	.st1{fill:url(#SVGID_1_);}
	.st2{clip-path:url(#SVGID_3_);}
	.st3{fill:#FFFFFF;}
	.st4{clip-path:url(#SVGID_5_);}
	.st5{fill:none;stroke:#0099CC;stroke-width:2;stroke-miterlimit:10;stroke-dasharray:5,5;}
	.st6{opacity:0.25;fill:url(#Shape_3_);enable-background:new    ;}
	.st7{fill:#FFFFFF;stroke:url(#Shape_4_);stroke-width:3.2;}
	.st8{fill:none;stroke:url(#Shape_5_);stroke-width:3.2;}
	.st9{fill:#5D5D5D;}
	.st10{font-family:'AvenirNextCondensed-Medium';}
	.st11{font-size:14px;}
	.st12{clip-path:url(#SVGID_7_);}
	.st13{fill:#EEF2F4;}
	.st14{fill:#FFFFFF;stroke:url(#SVGID_10_);stroke-width:3.2;}
</style>
<g class="st0">
	<linearGradient id="SVGID_1_" gradientUnits="userSpaceOnUse" x1="5" y1="47" x2="116" y2="47">
		<stop  offset="0" style="stop-color:#00A8D4"/>
		<stop  offset="1" style="stop-color:#007AA9"/>
	</linearGradient>
	<path class="st1" d="M8,5h105c1.7,0,3,1.3,3,3v78c0,1.7-1.3,3-3,3H8c-1.7,0-3-1.3-3-3V8C5,6.3,6.3,5,8,5z"/>
</g>
<title>dropzone_illustration</title>
<g>
	<defs>
		<path id="SVGID_2_" d="M4,1h105c1.7,0,3,1.3,3,3v78c0,1.7-1.3,3-3,3H4c-1.7,0-3-1.3-3-3V4C1,2.3,2.3,1,4,1z"/>
	</defs>
	<clipPath id="SVGID_3_">
		<use xlink:href="#SVGID_2_"  style="overflow:visible;"/>
	</clipPath>
	<g class="st2">
		<path class="st3" d="M4,1h105c1.7,0,3,1.3,3,3v78c0,1.7-1.3,3-3,3H4c-1.7,0-3-1.3-3-3V4C1,2.3,2.3,1,4,1z"/>
	</g>
</g>
<g>
	<defs>
		<path id="SVGID_4_" d="M4,1h105c1.7,0,3,1.3,3,3v78c0,1.7-1.3,3-3,3H4c-1.7,0-3-1.3-3-3V4C1,2.3,2.3,1,4,1z"/>
	</defs>
	<clipPath id="SVGID_5_">
		<use xlink:href="#SVGID_4_"  style="overflow:visible;"/>
	</clipPath>
	<g class="st4">
		<path class="st5" d="M4,1h105c1.7,0,3,1.3,3,3v78c0,1.7-1.3,3-3,3H4c-1.7,0-3-1.3-3-3V4C1,2.3,2.3,1,4,1z"/>
	</g>
</g>
<g id="valid2" transform="translate(16.000000, 0.000000)">
	
		<linearGradient id="Shape_3_" gradientUnits="userSpaceOnUse" x1="-245.9946" y1="354.1417" x2="-245.9946" y2="355.0424" gradientTransform="matrix(68.1868 0 0 -85.1786 16817.5156 30267.75)">
		<stop  offset="0" style="stop-color:#FAA94E"/>
		<stop  offset="1" style="stop-color:#F47D4D"/>
	</linearGradient>
	<path id="Shape" class="st6" d="M58.6,102.4H16.3c-1.6,0-3-1.4-3-3.1V28.7c0-1.6,1.4-3.1,3-3.1h55.3c1.6,0,3,1.4,3,3.1v60"/>
	
		<linearGradient id="Shape_4_" gradientUnits="userSpaceOnUse" x1="-245.9451" y1="354.0023" x2="-245.9451" y2="355.0574" gradientTransform="matrix(67.3846 0 0 -83.5714 16612.1523 29687.5703)">
		<stop  offset="0" style="stop-color:#FAA94E"/>
		<stop  offset="1" style="stop-color:#F47D4D"/>
	</linearGradient>
	<path id="Shape_1_" class="st7" d="M53.8,96.6H11.9c-1.6,0-3-1.2-3-3V24.3c0-1.6,1.4-3,3-3h54.7c1.6,0,3,1.4,3,3v58.9"/>
	
		<linearGradient id="Shape_5_" gradientUnits="userSpaceOnUse" x1="-243.0085" y1="339.8305" x2="-243.0085" y2="341.1503" gradientTransform="matrix(36.9011 0 0 -14.6785 9006.5166 5043.1816)">
		<stop  offset="0" style="stop-color:#FAA94E"/>
		<stop  offset="1" style="stop-color:#F47D4D"/>
	</linearGradient>
	<path id="Shape_2_" class="st8" d="M22.6,38.7h33.2 M22.6,51.9h33.2"/>
</g>
<g>
	<defs>
		<path id="SVGID_6_" d="M84.7,111l5.4-5.4l5.3,5.3l5-5l-5.3-5.3l5.4-5.4l-21-6.4c-0.5-0.2-1.1,0.1-1.2,0.7c-0.1,0.2-0.1,0.4,0,0.6
			L84.7,111z"/>
	</defs>
	<clipPath id="SVGID_7_">
		<use xlink:href="#SVGID_6_"  style="overflow:visible;"/>
	</clipPath>
	<g class="st12">
		
			<rect x="72" y="80" transform="matrix(0.7071 -0.7071 0.7071 0.7071 -43.9473 91.2967)" class="st13" width="32.4" height="37.4"/>
	</g>
</g>
<g>
	<defs>
		<path id="SVGID_8_" d="M82,109.5l5.4-5.4l5.3,5.3l5-5l-5.3-5.3l5.4-5.4l-21-6.4c-0.5-0.2-1.1,0.1-1.2,0.7c0,0,0,0,0,0
			c-0.1,0.2-0.1,0.4,0,0.6L82,109.5z"/>
	</defs>
	<clipPath id="SVGID_9_">
		<use xlink:href="#SVGID_8_"  style="overflow:visible;"/>
	</clipPath>
</g>
<linearGradient id="SVGID_10_" gradientUnits="userSpaceOnUse" x1="74.3624" y1="98.2814" x2="98.9958" y2="98.2814">
	<stop  offset="0" style="stop-color:#FAA94E"/>
	<stop  offset="1" style="stop-color:#F47D4D"/>
</linearGradient>
<path class="st14" d="M76,88.9l5.7,19.1c0.2,0.5,0.7,0.8,1.2,0.7c0.2,0,0.3-0.1,0.4-0.2l4.2-4.2l4.5,4.5c0.4,0.4,1,0.4,1.4,0
	c0,0,0,0,0,0l3.6-3.6c0.4-0.4,0.4-1,0-1.4c0,0,0,0,0,0l-4.5-4.5l4.2-4.2c0.4-0.4,0.4-1,0-1.4c-0.1-0.1-0.3-0.2-0.4-0.2l-19.1-5.7
	c-0.5-0.2-1.1,0.1-1.2,0.7c0,0,0,0,0,0C75.9,88.5,75.9,88.7,76,88.9z"/>
</svg>
