<svg width="303" height="117" viewBox="0 0 303 117" fill="none" xmlns="http://www.w3.org/2000/svg">
<mask id="mask0" mask-type="alpha" maskUnits="userSpaceOnUse" x="0" y="0" width="103" height="117">
<path d="M99.035 26.9691C97.985 26.9691 96.977 27.3863 96.234 28.1289C95.491 28.8714 95.074 29.8786 95.074 30.9288V57.4267H79.227V94.9457C79.227 95.9957 79.644 97.0027 80.387 97.7447C81.13 98.4877 82.138 98.9047 83.188 98.9047C84.239 98.9047 85.247 98.4877 85.99 97.7447C86.733 97.0027 87.15 95.9957 87.15 94.9457V65.3457H95.074V85.7867C95.074 86.8367 95.491 87.8447 96.234 88.5867C96.977 89.3297 97.985 89.7467 99.035 89.7467C100.086 89.7467 101.094 89.3297 101.837 88.5867C102.58 87.8447 102.997 86.8367 102.997 85.7867V30.9288C102.997 29.8786 102.58 28.8714 101.837 28.1289C101.094 27.3863 100.086 26.9691 99.035 26.9691Z" fill="#333333"/>
<path d="M87.15 21.7809C87.15 20.7308 86.733 19.7236 85.99 18.981C85.247 18.2384 84.239 17.8213 83.188 17.8213C82.138 17.8213 81.13 18.2384 80.387 18.981C79.644 19.7236 79.227 20.7308 79.227 21.7809V49.5207H87.15V21.7809Z" fill="#333333"/>
<path d="M71.296 11.9101C71.296 11.1942 71.011 10.5077 70.505 10.0015C69.998 9.49531 69.311 9.21091 68.595 9.21091C67.879 9.21091 67.192 9.49531 66.685 10.0015C66.179 10.5077 65.894 11.1942 65.894 11.9101L63.369 104.087C63.369 105.137 63.786 106.143 64.529 106.885C65.271 107.628 66.278 108.044 67.328 108.044C68.378 108.044 69.385 107.628 70.128 106.885C70.87 106.143 71.288 105.137 71.288 104.087V11.9101H71.296Z" fill="#333333"/>
<path d="M58.348 110.725C58.348 110.684 58.348 110.647 58.348 110.609L52.82 2.52261C52.787 1.82141 52.477 1.16201 51.958 0.689512C51.438 0.216912 50.752 -0.0299875 50.051 0.00291248C49.703 0.0192125 49.363 0.103711 49.048 0.251711C48.733 0.399611 48.451 0.608011 48.217 0.865011C47.744 1.38411 47.497 2.06971 47.53 2.77091V110.725C47.53 112.157 48.099 113.53 49.112 114.542C50.125 115.555 51.499 116.123 52.931 116.123C54.363 116.123 55.737 115.555 56.75 114.542C57.763 113.53 58.332 112.157 58.332 110.725H58.348Z" fill="#333333"/>
<path d="M35.6463 8.68481C34.5956 8.68481 33.5879 9.10202 32.8449 9.84462C32.102 10.5871 31.6846 11.5943 31.6846 12.6445V104.085C31.6846 105.135 32.102 106.142 32.8449 106.885C33.5879 107.627 34.5956 108.045 35.6463 108.045C36.697 108.045 37.7047 107.627 38.4476 106.885C39.1906 106.142 39.608 105.135 39.608 104.085V12.6445C39.608 11.5943 39.1906 10.5871 38.4476 9.84462C37.7047 9.10202 36.697 8.68481 35.6463 8.68481Z" fill="#333333"/>
<path d="M23.763 57.4267H15.8449V94.9447C15.8449 95.9957 16.2623 97.0027 17.0053 97.7447C17.7483 98.4877 18.756 98.9047 19.8067 98.9047C20.8574 98.9047 21.8651 98.4877 22.6081 97.7447C23.351 97.0027 23.7684 95.9957 23.7684 94.9447V57.4267H23.763Z" fill="#333333"/>
<path d="M19.8067 17.8213C18.7559 17.8213 17.7483 18.2384 17.0053 18.981C16.2623 19.7236 15.8449 20.7308 15.8449 21.7809V49.5207H23.763V21.7917C23.7645 21.2713 23.6632 20.7557 23.4651 20.2744C23.267 19.7931 22.9759 19.3555 22.6084 18.9867C22.2409 18.618 21.8044 18.3252 21.3236 18.1253C20.8429 17.9253 20.3274 17.822 19.8067 17.8213Z" fill="#333333"/>
<path d="M3.9617 89.7387C4.482 89.7387 4.9972 89.6357 5.4778 89.4367C5.9585 89.2377 6.3952 88.9467 6.7631 88.5787C7.131 88.2107 7.4228 87.7747 7.6219 87.2937C7.821 86.8137 7.9235 86.2987 7.9235 85.7787V30.9288C7.9235 29.8786 7.5061 28.8714 6.7631 28.1289C6.0202 27.3863 5.0125 26.9691 3.9617 26.9691C2.911 26.9691 1.9033 27.3863 1.1604 28.1289C0.4174 28.8714 0 29.8786 0 30.9288V85.7867C0.0021 86.8357 0.4205 87.8407 1.1632 88.5817C1.906 89.3227 2.9124 89.7387 3.9617 89.7387Z" fill="#333333"/>
</mask>
<g mask="url(#mask0)">
<path d="M102.892 0.125702H0V116.191H102.892V0.125702Z" fill="url(#paint0_linear)"/>
</g>
<path d="M138.744 37.5097C137.08 37.5097 135.597 37.1897 134.296 36.5497C133.016 35.8884 131.992 35.003 131.224 33.8937C130.456 32.7844 129.88 31.5577 129.496 30.2137C129.112 28.8697 128.92 27.4404 128.92 25.9257C128.92 24.8164 129.037 23.7177 129.272 22.6297C129.528 21.5417 129.923 20.4964 130.456 19.4937C130.989 18.491 131.629 17.6164 132.376 16.8697C133.123 16.1017 134.04 15.4937 135.128 15.0457C136.237 14.5764 137.443 14.3417 138.744 14.3417C140.707 14.3417 142.285 14.747 143.48 15.5577C144.675 16.347 145.709 17.4457 146.584 18.8537L143.16 20.8057C141.923 18.971 140.451 18.0537 138.744 18.0537C137.677 18.0537 136.739 18.299 135.928 18.7897C135.139 19.259 134.531 19.899 134.104 20.7097C133.677 21.499 133.368 22.331 133.176 23.2057C132.984 24.0804 132.888 24.987 132.888 25.9257C132.888 28.1444 133.379 30.011 134.36 31.5257C135.341 33.0404 136.803 33.7977 138.744 33.7977C139.981 33.7977 141.005 33.3924 141.816 32.5817C142.648 31.771 143.064 30.779 143.064 29.6057V29.2537H139.128V25.6377H146.968V28.7417C146.968 31.4937 146.2 33.6484 144.664 35.2057C143.128 36.7417 141.155 37.5097 138.744 37.5097ZM157.261 37.5097C154.957 37.5097 153.133 36.7524 151.789 35.2377C150.445 33.723 149.773 31.6324 149.773 28.9657C149.773 26.299 150.445 24.2084 151.789 22.6937C153.133 21.1577 154.957 20.3897 157.261 20.3897C159.565 20.3897 161.389 21.1577 162.733 22.6937C164.098 24.2084 164.781 26.299 164.781 28.9657C164.781 31.6324 164.109 33.723 162.765 35.2377C161.421 36.7524 159.586 37.5097 157.261 37.5097ZM157.261 33.9257C158.434 33.9257 159.351 33.4884 160.013 32.6137C160.695 31.739 161.037 30.523 161.037 28.9657C161.037 27.4084 160.695 26.1817 160.013 25.2857C159.351 24.3897 158.434 23.9417 157.261 23.9417C156.13 23.9417 155.223 24.4004 154.541 25.3177C153.858 26.2137 153.517 27.4297 153.517 28.9657C153.517 30.5017 153.847 31.7177 154.509 32.6137C155.191 33.4884 156.109 33.9257 157.261 33.9257ZM172.379 37.1257L166.395 20.7737H170.203L173.819 30.9817C174.075 31.835 174.224 32.3257 174.267 32.4537C174.395 31.899 174.544 31.4084 174.715 30.9817L178.267 20.7737H182.075L176.091 37.1257H172.379ZM191.232 37.5097C188.907 37.5097 187.061 36.7524 185.696 35.2377C184.352 33.7017 183.68 31.6004 183.68 28.9337C183.68 26.2884 184.363 24.2084 185.728 22.6937C187.093 21.1577 188.928 20.3897 191.232 20.3897C193.323 20.3897 195.029 21.0404 196.352 22.3417C197.696 23.643 198.368 25.5524 198.368 28.0697C198.368 28.9444 198.325 29.7124 198.24 30.3737H187.392C187.456 31.5257 187.851 32.4537 188.576 33.1577C189.323 33.8617 190.208 34.2137 191.232 34.2137C192.683 34.2137 193.835 33.6484 194.688 32.5177L197.056 34.9497C195.627 36.6564 193.685 37.5097 191.232 37.5097ZM187.424 27.2697H194.656C194.571 26.0964 194.208 25.211 193.568 24.6137C192.928 23.995 192.149 23.6857 191.232 23.6857C190.165 23.6857 189.28 23.9844 188.576 24.5817C187.893 25.1577 187.509 26.0537 187.424 27.2697ZM201.559 37.1257V20.7737H205.303V22.4697C205.964 21.083 207.084 20.3897 208.663 20.3897C209.815 20.3897 210.828 20.763 211.703 21.5097L211.159 24.9337C210.348 24.3577 209.42 24.0697 208.375 24.0697C207.521 24.0697 206.796 24.3684 206.199 24.9657C205.601 25.563 205.303 26.5657 205.303 27.9737V37.1257H201.559ZM223.937 37.1257V27.7497C223.937 25.211 222.924 23.9417 220.897 23.9417C218.678 23.9417 217.569 25.1897 217.569 27.6857V37.1257H213.825V20.7737H217.569V22.3097C218.636 21.0297 220.076 20.3897 221.889 20.3897C223.596 20.3897 224.982 20.923 226.049 21.9897C227.137 23.0564 227.681 24.7524 227.681 27.0777V37.1257H223.937ZM250.885 37.1257V27.7497C250.885 25.211 249.957 23.9417 248.101 23.9417C247.141 23.9417 246.384 24.2724 245.829 24.9337C245.296 25.5737 245.029 26.5337 245.029 27.8137V37.1257H241.285V27.7497C241.285 25.211 240.357 23.9417 238.501 23.9417C237.541 23.9417 236.784 24.2724 236.229 24.9337C235.696 25.5737 235.429 26.5337 235.429 27.8137V37.1257H231.685V20.7737H235.429V22.2777C236.368 21.019 237.701 20.3897 239.429 20.3897C241.434 20.3897 242.864 21.1577 243.717 22.6937C244.762 21.1577 246.405 20.3897 248.645 20.3897C250.48 20.3897 251.93 20.9017 252.997 21.9257C254.085 22.9284 254.629 24.5177 254.629 26.6937V37.1257H250.885ZM265.391 37.5097C263.065 37.5097 261.22 36.7524 259.855 35.2377C258.511 33.7017 257.839 31.6004 257.839 28.9337C257.839 26.2884 258.521 24.2084 259.887 22.6937C261.252 21.1577 263.087 20.3897 265.391 20.3897C267.481 20.3897 269.188 21.0404 270.511 22.3417C271.855 23.643 272.527 25.5524 272.527 28.0697C272.527 28.9444 272.484 29.7124 272.399 30.3737H261.551C261.615 31.5257 262.009 32.4537 262.735 33.1577C263.481 33.8617 264.367 34.2137 265.391 34.2137C266.841 34.2137 267.993 33.6484 268.847 32.5177L271.215 34.9497C269.785 36.6564 267.844 37.5097 265.391 37.5097ZM261.583 27.2697H268.815C268.729 26.0964 268.367 25.211 267.727 24.6137C267.087 23.995 266.308 23.6857 265.391 23.6857C264.324 23.6857 263.439 23.9844 262.735 24.5817C262.052 25.1577 261.668 26.0537 261.583 27.2697ZM285.83 37.1257V27.7497C285.83 25.211 284.816 23.9417 282.79 23.9417C280.571 23.9417 279.462 25.1897 279.462 27.6857V37.1257H275.718V20.7737H279.462V22.3097C280.528 21.0297 281.968 20.3897 283.782 20.3897C285.488 20.3897 286.875 20.923 287.942 21.9897C289.03 23.0564 289.574 24.7524 289.574 27.0777V37.1257H285.83ZM298.378 37.5097C295.839 37.5097 294.57 36.1124 294.57 33.3177V24.0377H292.138V20.7737H294.57V15.8137L298.314 14.0217V20.7737H302.09V24.0377H298.314V32.5817C298.314 33.627 298.772 34.1497 299.69 34.1497C300.522 34.1497 301.375 33.9044 302.25 33.4137L301.802 36.7737C300.863 37.2644 299.722 37.5097 298.378 37.5097ZM129.72 46.7257H136.632C138.147 46.7257 139.523 46.9387 140.76 47.3657C141.997 47.7927 143.021 48.3577 143.832 49.0617C144.643 49.7657 145.315 50.6087 145.848 51.5897C146.403 52.5497 146.797 53.5627 147.032 54.6297C147.288 55.6747 147.416 56.7737 147.416 57.9257C147.416 58.9927 147.299 60.0377 147.064 61.0617C146.851 62.0857 146.467 63.0987 145.912 64.1017C145.379 65.0827 144.707 65.9467 143.896 66.6937C143.085 67.4187 142.04 68.0057 140.76 68.4537C139.501 68.9017 138.083 69.1257 136.504 69.1257H129.72V46.7257ZM137.048 65.5097C138.179 65.5097 139.171 65.2857 140.024 64.8377C140.899 64.3897 141.571 63.7927 142.04 63.0457C142.531 62.2777 142.883 61.4667 143.096 60.6137C143.331 59.7607 143.448 58.8647 143.448 57.9257C143.448 55.8347 142.936 54.0537 141.912 52.5817C140.888 51.0887 139.384 50.3417 137.4 50.3417H133.56V65.5097H137.048ZM154.592 49.8937C154.165 50.3207 153.642 50.5337 153.024 50.5337C152.405 50.5337 151.872 50.3207 151.424 49.8937C150.997 49.4457 150.784 48.9127 150.784 48.2937C150.784 47.6747 150.997 47.1527 151.424 46.7257C151.872 46.2987 152.405 46.0857 153.024 46.0857C153.642 46.0857 154.165 46.2987 154.592 46.7257C155.018 47.1527 155.232 47.6747 155.232 48.2937C155.232 48.9127 155.018 49.4457 154.592 49.8937ZM151.136 69.1257V52.7737H154.88V69.1257H151.136ZM164.753 75.5257L162.769 72.5177C165.009 72.3687 166.556 72.0167 167.41 71.4617C168.284 70.9287 168.721 70.0967 168.721 68.9657V68.0377C167.825 69.0187 166.588 69.5097 165.009 69.5097C163.004 69.5097 161.372 68.7737 160.113 67.3017C158.876 65.8087 158.257 63.6857 158.257 60.9337C158.257 58.2887 158.876 56.2087 160.113 54.6937C161.372 53.1577 163.015 52.3897 165.042 52.3897C166.578 52.3897 167.804 52.8487 168.721 53.7657V52.7737H172.465V67.4937C172.465 70.2027 171.879 72.1657 170.705 73.3817C169.553 74.5977 167.569 75.3127 164.753 75.5257ZM165.649 65.9257C166.993 65.9257 168.017 65.3927 168.721 64.3257V57.5417C167.975 56.4747 166.951 55.9417 165.649 55.9417C164.476 55.9417 163.569 56.3687 162.929 57.2217C162.311 58.0747 162.001 59.3127 162.001 60.9337C162.001 62.4697 162.321 63.6857 162.961 64.5817C163.601 65.4777 164.497 65.9257 165.649 65.9257ZM180.124 49.8937C179.698 50.3207 179.175 50.5337 178.556 50.5337C177.938 50.5337 177.404 50.3207 176.956 49.8937C176.53 49.4457 176.316 48.9127 176.316 48.2937C176.316 47.6747 176.53 47.1527 176.956 46.7257C177.404 46.2987 177.938 46.0857 178.556 46.0857C179.175 46.0857 179.698 46.2987 180.124 46.7257C180.551 47.1527 180.764 47.6747 180.764 48.2937C180.764 48.9127 180.551 49.4457 180.124 49.8937ZM176.668 69.1257V52.7737H180.412V69.1257H176.668ZM189.39 69.5097C186.851 69.5097 185.582 68.1127 185.582 65.3177V56.0377H183.15V52.7737H185.582V47.8137L189.326 46.0217V52.7737H193.102V56.0377H189.326V64.5817C189.326 65.6267 189.785 66.1497 190.702 66.1497C191.534 66.1497 192.387 65.9047 193.262 65.4137L192.814 68.7737C191.875 69.2647 190.734 69.5097 189.39 69.5097ZM205.356 69.1257V67.8137C204.268 68.9447 202.817 69.5097 201.004 69.5097C199.254 69.5097 197.825 69.0407 196.716 68.1017C195.628 67.1417 195.084 65.7977 195.084 64.0697C195.084 62.2987 195.702 60.9547 196.94 60.0377C198.198 59.1207 199.713 58.6617 201.484 58.6617C203.041 58.6617 204.332 58.9497 205.356 59.5257V58.6617C205.356 57.6167 205.089 56.8587 204.556 56.3897C204.044 55.9207 203.244 55.6857 202.156 55.6857C200.385 55.6857 198.764 56.1977 197.292 57.2217L196.14 54.1817C197.91 52.9867 200.044 52.3897 202.54 52.3897C203.393 52.3897 204.14 52.4647 204.78 52.6137C205.441 52.7417 206.113 53.0087 206.796 53.4137C207.5 53.8187 208.044 54.4587 208.428 55.3337C208.812 56.2087 209.004 57.2967 209.004 58.5977V69.1257H205.356ZM201.708 66.2137C203.137 66.2137 204.353 65.6907 205.356 64.6457V62.5337C204.417 62.0857 203.329 61.8617 202.092 61.8617C201.089 61.8617 200.278 62.0427 199.66 62.4057C199.041 62.7687 198.732 63.3227 198.732 64.0697C198.732 64.7307 198.988 65.2537 199.5 65.6377C200.012 66.0217 200.748 66.2137 201.708 66.2137ZM213.001 69.1257V47.7817L216.745 46.0217V69.1257H213.001ZM136.888 101.51C134.84 101.51 133.069 100.998 131.576 99.9737C130.104 98.9287 129.059 97.5097 128.44 95.7177L131.992 94.4057C132.461 95.4507 133.133 96.2937 134.008 96.9337C134.883 97.5527 135.885 97.8617 137.016 97.8617C138.189 97.8617 139.117 97.5947 139.8 97.0617C140.504 96.5287 140.856 95.7607 140.856 94.7577C140.856 94.3527 140.76 93.9787 140.568 93.6377C140.376 93.2747 140.152 92.9767 139.896 92.7417C139.661 92.5067 139.299 92.2727 138.808 92.0377C138.317 91.8027 137.901 91.6217 137.56 91.4937C137.219 91.3447 136.717 91.1627 136.056 90.9497C135.203 90.6507 134.541 90.4167 134.072 90.2457C133.624 90.0747 133.037 89.7977 132.312 89.4137C131.608 89.0087 131.064 88.6027 130.68 88.1977C130.317 87.7927 129.987 87.2587 129.688 86.5977C129.411 85.9147 129.272 85.1687 129.272 84.3577C129.272 82.6507 129.933 81.2217 131.256 80.0697C132.579 78.9177 134.371 78.3417 136.632 78.3417C138.509 78.3417 140.067 78.7897 141.304 79.6857C142.541 80.5607 143.373 81.7127 143.8 83.1417L140.344 84.2937C139.661 82.7577 138.339 81.9897 136.376 81.9897C135.373 81.9897 134.584 82.2027 134.008 82.6297C133.453 83.0347 133.176 83.6217 133.176 84.3897C133.176 84.9017 133.389 85.3607 133.816 85.7657C134.264 86.1707 134.733 86.4807 135.224 86.6937C135.736 86.8857 136.483 87.1417 137.464 87.4617C138.104 87.6967 138.584 87.8777 138.904 88.0057C139.245 88.1127 139.715 88.3047 140.312 88.5817C140.909 88.8587 141.379 89.1147 141.72 89.3497C142.061 89.5627 142.445 89.8617 142.872 90.2457C143.32 90.6297 143.661 91.0347 143.896 91.4617C144.131 91.8667 144.333 92.3577 144.504 92.9337C144.675 93.4887 144.76 94.0967 144.76 94.7577C144.76 96.8487 144.013 98.5017 142.52 99.7177C141.048 100.913 139.171 101.51 136.888 101.51ZM154.887 101.51C152.562 101.51 150.716 100.753 149.351 99.2377C148.007 97.7017 147.335 95.6007 147.335 92.9337C147.335 90.2887 148.018 88.2087 149.383 86.6937C150.748 85.1577 152.583 84.3897 154.887 84.3897C156.978 84.3897 158.684 85.0407 160.007 86.3417C161.351 87.6427 162.023 89.5527 162.023 92.0697C162.023 92.9447 161.98 93.7127 161.895 94.3737H151.047C151.111 95.5257 151.506 96.4537 152.231 97.1577C152.978 97.8617 153.863 98.2137 154.887 98.2137C156.338 98.2137 157.49 97.6487 158.343 96.5177L160.711 98.9497C159.282 100.657 157.34 101.51 154.887 101.51ZM151.079 91.2697H158.311C158.226 90.0967 157.863 89.2107 157.223 88.6137C156.583 87.9947 155.804 87.6857 154.887 87.6857C153.82 87.6857 152.935 87.9847 152.231 88.5817C151.548 89.1577 151.164 90.0537 151.079 91.2697ZM165.214 101.126V84.7737H168.958V86.4697C169.619 85.0827 170.739 84.3897 172.318 84.3897C173.47 84.3897 174.483 84.7627 175.358 85.5097L174.814 88.9337C174.003 88.3577 173.075 88.0697 172.03 88.0697C171.176 88.0697 170.451 88.3687 169.854 88.9657C169.256 89.5627 168.958 90.5657 168.958 91.9737V101.126H165.214ZM182.114 101.126L176.13 84.7737H179.938L183.554 94.9817C183.81 95.8347 183.959 96.3257 184.002 96.4537C184.13 95.8987 184.279 95.4087 184.45 94.9817L188.002 84.7737H191.81L185.826 101.126H182.114ZM197.859 81.8937C197.433 82.3207 196.91 82.5337 196.291 82.5337C195.673 82.5337 195.139 82.3207 194.691 81.8937C194.265 81.4457 194.051 80.9127 194.051 80.2937C194.051 79.6747 194.265 79.1527 194.691 78.7257C195.139 78.2987 195.673 78.0857 196.291 78.0857C196.91 78.0857 197.433 78.2987 197.859 78.7257C198.286 79.1527 198.499 79.6747 198.499 80.2937C198.499 80.9127 198.286 81.4457 197.859 81.8937ZM194.403 101.126V84.7737H198.147V101.126H194.403ZM208.821 101.51C206.581 101.51 204.8 100.753 203.477 99.2377C202.176 97.7227 201.525 95.6327 201.525 92.9657C201.525 90.2987 202.176 88.2087 203.477 86.6937C204.8 85.1577 206.581 84.3897 208.821 84.3897C212.192 84.3897 214.357 85.8937 215.317 88.9017L211.765 90.0857C211.232 88.6777 210.293 87.9737 208.949 87.9737C207.818 87.9737 206.933 88.4217 206.293 89.3177C205.653 90.2137 205.333 91.4297 205.333 92.9657C205.333 94.4807 205.642 95.6857 206.261 96.5817C206.901 97.4567 207.754 97.8937 208.821 97.8937C210.336 97.8937 211.328 97.1047 211.797 95.5257L215.381 96.6137C214.442 99.8777 212.256 101.51 208.821 101.51ZM225.406 101.51C223.08 101.51 221.235 100.753 219.87 99.2377C218.526 97.7017 217.854 95.6007 217.854 92.9337C217.854 90.2887 218.536 88.2087 219.902 86.6937C221.267 85.1577 223.102 84.3897 225.406 84.3897C227.496 84.3897 229.203 85.0407 230.526 86.3417C231.87 87.6427 232.542 89.5527 232.542 92.0697C232.542 92.9447 232.499 93.7127 232.414 94.3737H221.566C221.63 95.5257 222.024 96.4537 222.75 97.1577C223.496 97.8617 224.382 98.2137 225.406 98.2137C226.856 98.2137 228.008 97.6487 228.862 96.5177L231.23 98.9497C229.8 100.657 227.859 101.51 225.406 101.51ZM221.598 91.2697H228.83C228.744 90.0967 228.382 89.2107 227.742 88.6137C227.102 87.9947 226.323 87.6857 225.406 87.6857C224.339 87.6857 223.454 87.9847 222.75 88.5817C222.067 89.1577 221.683 90.0537 221.598 91.2697ZM240.887 101.51C239.564 101.51 238.316 101.254 237.143 100.742C235.991 100.23 235.116 99.5467 234.519 98.6937L237.079 96.5177C238.231 97.6697 239.5 98.2457 240.887 98.2457C242.657 98.2457 243.543 97.7127 243.543 96.6457C243.543 96.2827 243.383 95.9527 243.063 95.6537C242.764 95.3547 242.433 95.1307 242.071 94.9817C241.729 94.8107 241.164 94.5657 240.375 94.2457C238.497 93.6267 237.121 92.9227 236.247 92.1337C235.393 91.3227 234.967 90.2567 234.967 88.9337C234.967 87.5047 235.511 86.3947 236.599 85.6057C237.708 84.7947 239.105 84.3897 240.791 84.3897C243.265 84.3897 245.217 85.2327 246.647 86.9177L244.055 89.0297C243.095 88.1127 242.007 87.6537 240.791 87.6537C239.319 87.6537 238.583 88.1017 238.583 88.9977C238.583 89.4457 238.849 89.8297 239.383 90.1497C239.937 90.4697 240.737 90.8007 241.783 91.1417C243.553 91.7387 244.887 92.4427 245.783 93.2537C246.7 94.0647 247.159 95.1947 247.159 96.6457C247.159 98.2027 246.593 99.4087 245.463 100.262C244.332 101.094 242.807 101.51 240.887 101.51Z" fill="white"/>
<defs>
<linearGradient id="paint0_linear" x1="0" y1="58.1577" x2="102.892" y2="58.1577" gradientUnits="userSpaceOnUse">
<stop offset="0.24" stop-color="#FED00F"/>
<stop offset="0.78" stop-color="#E87426"/>
</linearGradient>
</defs>
</svg>
